<svg width="1522" height="1513" viewBox="0 0 1522 1513" fill="none" xmlns="http://www.w3.org/2000/svg">
<g clip-path="url(#clip0_2_266)">
<path fill-rule="evenodd" clip-rule="evenodd" d="M1164.43 567.119L867.879 344.53C841.851 324.994 807.636 320.14 777.202 331.667L430.443 462.999C405.727 472.36 386.393 491.419 376.455 515.16C374.782 514.833 373.094 514.553 371.393 514.322C381.714 488.824 402.277 468.32 428.672 458.323L775.431 326.991C807.467 314.858 843.483 319.967 870.88 340.531L1167.43 563.12C1196.6 585.01 1211.53 621.039 1206.41 657.143L1182.48 825.871C1180.84 825.63 1179.18 825.446 1177.51 825.323L1201.46 656.44C1206.33 622.142 1192.14 587.915 1164.43 567.119ZM1158.02 962.675L1152.41 1002.24C1147.54 1036.53 1124.39 1065.47 1092 1077.74L745.24 1209.07C714.806 1220.59 680.59 1215.74 654.563 1196.2L358.009 973.615C330.304 952.819 316.114 918.592 320.979 884.294L348.277 691.862C346.616 691.658 344.968 691.408 343.333 691.113L316.029 883.591C310.908 919.695 325.844 955.724 355.008 977.614L651.562 1200.2C678.959 1220.77 714.975 1225.88 747.011 1213.74L1093.77 1082.41C1127.87 1069.5 1152.24 1039.04 1157.36 1002.94L1162.95 963.525C1161.29 963.301 1159.65 963.016 1158.02 962.675Z" fill="#343434"/>
<path fill-rule="evenodd" clip-rule="evenodd" d="M576.152 88.459C576.053 86.7689 575.903 85.0713 575.699 83.3679L1196.81 158.436C1233.01 162.812 1263.96 186.545 1277.58 220.373L1354.68 411.911C1353.13 412.532 1351.59 413.186 1350.08 413.873L1272.94 222.24C1260 190.104 1230.6 167.557 1196.21 163.4L576.152 88.459ZM1431.99 617.363L1509.98 811.116C1522.91 843.252 1517.33 879.881 1495.41 906.705L1139.71 1341.96C1140.79 1343.29 1141.83 1344.65 1142.84 1346.04L1499.28 909.869C1522.36 881.633 1528.23 843.076 1514.62 809.249L1436.67 615.596C1435.13 616.218 1433.57 616.808 1431.99 617.363ZM985.698 1462.07C984.353 1460.29 983.066 1458.45 981.841 1456.57L326.23 1377.33C291.839 1373.18 262.436 1350.63 249.501 1318.49L230.025 1270.11C228.499 1270.76 226.94 1271.35 225.351 1271.89L244.862 1320.36C258.479 1354.19 289.429 1377.92 325.63 1382.3L985.698 1462.07ZM12.4614 729.618L181.853 1150.44C180.286 1151.03 178.75 1151.68 177.247 1152.39L7.82308 731.485C-5.79332 697.658 0.0826885 659.1 23.1573 630.865L424.191 140.133C425.164 141.559 426.18 142.951 427.236 144.309L27.0289 634.029C5.10804 660.853 -0.474172 697.482 12.4614 729.618Z" fill="#343434"/>
<circle cx="1063.76" cy="1403.36" r="95.157" transform="rotate(-6.92617 1063.76 1403.36)" stroke="#343434" stroke-width="5"/>
<g filter="url(#filter0_f_2_266)">
<circle cx="1063.76" cy="1403.36" r="75" transform="rotate(-96.9262 1063.76 1403.36)" fill="#00E8FF" fill-opacity="0.5"/>
</g>
<g filter="url(#filter1_dif_2_266)">
<circle cx="1063.76" cy="1403.36" r="58.9286" transform="rotate(-96.9262 1063.76 1403.36)" fill="#63CADA"/>
</g>
<g filter="url(#filter2_f_2_266)">
<path d="M1050.91 1347.59C1014.73 1356.3 1006.08 1387.66 1006.28 1402.25C1012.38 1393.19 1030.27 1373.16 1053.09 1365.53C1075.91 1357.91 1102.78 1367.37 1113.36 1373.05C1107.62 1360.93 1087.09 1338.87 1050.91 1347.59Z" fill="white" fill-opacity="0.33"/>
</g>
<path fill-rule="evenodd" clip-rule="evenodd" d="M1086.6 1366.95C1091.47 1369.65 1094.31 1372.27 1095.43 1375.09C1096.13 1376.69 1095.93 1378.72 1095.01 1380.34C1094.08 1381.96 1092.42 1383.01 1090.37 1383.25C1089.6 1383.35 1088.76 1383.33 1087.96 1383.2C1088.12 1382.55 1088.3 1381.87 1088.5 1381.19C1088.73 1381.22 1089 1381.18 1089.28 1381.15C1089.94 1381.07 1090.7 1380.87 1091.25 1380.3C1091.65 1379.91 1092.07 1379.25 1091.88 1378.15C1091.76 1377.11 1090.77 1375.88 1088.86 1374.5C1087.51 1373.49 1085.7 1372.42 1083.9 1371.47C1078.77 1368.9 1075.35 1368.43 1074.04 1370.09C1073.17 1371.2 1073.42 1372.4 1073.86 1373.24C1073.23 1373.78 1072.63 1374.26 1072.07 1374.69C1070.38 1372.72 1069.99 1370.14 1070.94 1367.68C1071.54 1366.1 1072.63 1364.96 1073.98 1364.51C1074.52 1364.34 1075.06 1364.21 1075.67 1364.14C1078.71 1363.77 1082.7 1364.8 1086.6 1366.95ZM1071.93 1376.86C1073.58 1375.71 1075.94 1373.77 1078.59 1371.11C1079.75 1371.41 1081.28 1372.01 1083.18 1372.95C1085.45 1374.07 1087.46 1375.39 1088.77 1376.46C1087.14 1379.23 1086.29 1382.84 1085.82 1385.36C1090.67 1390.33 1093.99 1396.86 1094.89 1404.28C1097.08 1422.28 1084.22 1438.65 1066.16 1440.85C1048.11 1443.04 1031.7 1430.22 1029.51 1412.22C1027.33 1394.21 1040.19 1377.84 1058.24 1375.65C1062.98 1375.07 1067.62 1375.53 1071.91 1376.86L1071.93 1376.86ZM1065.94 1439.03C1048.88 1441.1 1033.4 1429.01 1031.34 1412C1029.27 1394.98 1041.4 1379.54 1058.46 1377.46C1075.52 1375.39 1091 1387.48 1093.07 1404.5C1095.13 1421.51 1082.95 1436.96 1065.94 1439.03ZM1090.29 1378.4C1090.27 1378.24 1090.18 1377.97 1089.98 1377.71C1089.66 1378.31 1089.34 1378.91 1089.09 1379.61C1089.48 1379.56 1089.91 1379.4 1090.11 1379.21C1090.2 1379.08 1090.35 1378.9 1090.29 1378.4ZM1076.65 1370.84C1075.92 1370.81 1075.49 1370.98 1075.35 1371.16C1075.05 1371.48 1075.04 1371.87 1075.14 1372.25C1075.65 1371.8 1076.15 1371.35 1076.65 1370.84ZM1077.1 1400.4C1084.97 1400.11 1091.08 1401.05 1091.49 1404.41C1093.45 1420.54 1081.9 1435.25 1065.72 1437.21C1049.69 1439.16 1035.03 1427.88 1032.85 1411.98C1032.84 1411.93 1032.83 1411.87 1032.83 1411.81C1032.82 1411.79 1032.82 1411.76 1032.82 1411.73C1032.81 1411.67 1032.8 1411.6 1032.79 1411.54L1032.8 1411.54C1032.56 1407.83 1037.08 1407.41 1045.23 1407.35C1048.98 1407.34 1054.09 1407 1059.52 1404.66C1065.8 1401.89 1071.42 1400.64 1077.1 1400.4ZM1060.42 1406.71L1060.41 1406.71C1054.58 1409.22 1049.12 1409.57 1045.24 1409.58C1040.99 1409.62 1038.1 1409.76 1036.34 1410.27C1035.49 1410.51 1035.2 1410.77 1035.12 1410.86L1035.12 1410.87C1035.1 1410.9 1034.98 1411.03 1035.05 1411.54C1035.13 1412.21 1035.6 1413.17 1036.88 1414.22C1038.14 1415.26 1040.03 1416.25 1042.51 1416.97C1047.45 1418.41 1054.49 1418.72 1062.78 1416.51C1068.92 1414.85 1072.62 1412.86 1076.24 1410.92C1077.6 1410.19 1078.96 1409.46 1080.43 1408.76L1080.43 1408.75L1080.44 1408.75C1081.89 1408.07 1083.3 1407.53 1084.54 1407.07C1084.76 1406.98 1084.98 1406.9 1085.19 1406.82L1085.2 1406.82L1085.21 1406.82C1086.18 1406.45 1087 1406.15 1087.71 1405.84C1088.59 1405.45 1089.03 1405.16 1089.22 1404.97C1089.23 1404.96 1089.23 1404.95 1089.24 1404.94C1089.2 1404.73 1088.87 1403.98 1086.5 1403.34C1084.26 1402.74 1081.03 1402.5 1077.19 1402.64C1071.8 1402.87 1066.45 1404.04 1060.43 1406.71L1060.42 1406.71ZM1070.12 1393.2C1072.87 1392.87 1074.82 1390.38 1074.49 1387.64C1074.16 1384.9 1071.66 1382.96 1068.92 1383.29C1066.17 1383.62 1064.22 1386.11 1064.55 1388.85C1064.88 1391.59 1067.38 1393.54 1070.12 1393.2ZM1080.53 1393.56C1080.67 1394.72 1079.85 1395.77 1078.69 1395.91C1077.53 1396.05 1076.48 1395.23 1076.34 1394.07C1076.2 1392.91 1077.02 1391.86 1078.18 1391.72C1079.34 1391.58 1080.39 1392.4 1080.53 1393.56Z" fill="white"/>
<circle cx="204.695" cy="1210.77" r="62" transform="rotate(-6.92617 204.695 1210.77)" stroke="#343434" stroke-width="5"/>
<g filter="url(#filter3_f_2_266)">
<circle cx="204.695" cy="1210.77" r="40" transform="rotate(-46.4235 204.695 1210.77)" fill="#00E8FF" fill-opacity="0.5"/>
</g>
<g filter="url(#filter4_dif_2_266)">
<circle cx="204.695" cy="1210.77" r="31.4286" transform="rotate(-46.4235 204.695 1210.77)" fill="#63CADA"/>
</g>
<g filter="url(#filter5_f_2_266)">
<path d="M223.292 1186.57C207.435 1174.63 191.595 1181.71 185.657 1186.74C191.453 1186.18 205.765 1186.75 216.645 1193.55C227.525 1200.35 232.747 1214.62 233.998 1220.91C237.037 1214.43 239.15 1198.5 223.292 1186.57Z" fill="white" fill-opacity="0.33"/>
</g>
<g opacity="0.75">
<path opacity="0.8" fill-rule="evenodd" clip-rule="evenodd" d="M213.768 1226.26L218.389 1223.56L216.604 1208.87L211.985 1211.58L213.768 1226.26Z" fill="#F1F1F1" fill-opacity="0.9"/>
<path fill-rule="evenodd" clip-rule="evenodd" d="M190.998 1197.95L191.575 1202.71L205.507 1207.24L193.08 1215.1L193.65 1219.79L213.772 1226.29L213.199 1221.57L199.528 1217.12L211.693 1209.18L211.121 1204.48L190.998 1197.95Z" fill="white"/>
<path fill-rule="evenodd" clip-rule="evenodd" d="M211.119 1204.45L215.74 1201.76L216.312 1206.46L211.69 1209.15L211.119 1204.45V1204.45Z" fill="#F1F1F1" fill-opacity="0.9"/>
<path fill-rule="evenodd" clip-rule="evenodd" d="M190.997 1197.95L211.121 1204.47L215.743 1201.78L195.696 1195.25L190.997 1197.95Z" fill="#F1F1F1" fill-opacity="0.75"/>
</g>
<circle cx="493.017" cy="93.2355" r="80.7685" transform="rotate(-6.92617 493.017 93.2355)" stroke="#343434" stroke-width="5"/>
<g filter="url(#filter6_f_2_266)">
<circle cx="493.017" cy="93.2354" r="62.5" transform="rotate(83.0738 493.017 93.2354)" fill="#00E8FF" fill-opacity="0.5"/>
</g>
<g filter="url(#filter7_dif_2_266)">
<circle cx="493.017" cy="93.2357" r="49.1071" transform="rotate(83.0738 493.017 93.2357)" fill="#63CADA"/>
</g>
<g filter="url(#filter8_f_2_266)">
<path d="M503.723 139.717C533.871 132.457 541.077 106.322 540.912 94.1629C535.833 101.713 520.921 118.402 501.906 124.76C482.891 131.117 460.497 123.231 451.677 118.494C456.464 128.593 473.575 146.977 503.723 139.717Z" fill="white" fill-opacity="0.33"/>
</g>
<g opacity="0.67">
<path d="M496.066 118.333C509.927 116.649 519.799 104.048 518.115 90.1868C516.431 76.3259 503.83 66.4543 489.969 68.1381C476.108 69.8219 466.236 82.4234 467.92 96.2844C469.604 110.145 482.205 120.017 496.066 118.333Z" fill="#F1F1F1" fill-opacity="0.5"/>
<path fill-rule="evenodd" clip-rule="evenodd" d="M484.248 81.5366C471.788 77.4421 462.147 76.4147 460.841 79.4739C459.535 82.5332 466.934 88.784 478.502 94.9662C468.708 103.701 462.991 111.524 464.98 114.185C466.971 116.85 476.116 113.565 487.291 106.63C489.994 119.499 493.936 128.381 497.239 127.98C500.536 127.58 502.237 118.04 501.788 104.928C514.252 109.026 523.888 110.057 525.194 106.996C526.502 103.941 519.1 97.6868 507.534 91.502C517.328 82.7674 523.043 74.9453 521.055 72.2838C519.062 69.6179 509.919 72.9031 498.745 79.8386C496.042 66.971 492.1 58.0898 488.797 58.491C485.5 58.8915 483.799 68.4284 484.248 81.5366ZM484.32 83.295C484.419 85.3588 484.569 87.5012 484.772 89.7022C483.018 91.0924 481.346 92.4808 479.768 93.8516C474.833 91.1492 471.334 88.8694 471.334 88.8694C463.35 83.6508 462.444 80.7428 462.444 80.7428L462.441 80.7348C462.032 80.0198 462.681 79.7568 462.681 79.7568C465.583 78.8349 469.911 79.6064 469.911 79.6064C473.944 80.0234 479.187 81.5179 484.32 83.295ZM485.887 83.8469C485.901 84.3496 485.917 84.8628 485.936 85.3867C485.936 85.3867 486.039 86.5764 486.252 88.544C486.933 88.0179 487.624 87.4923 488.327 86.9679C488.993 86.4702 489.658 85.9818 490.32 85.503C488.886 84.947 487.397 84.3881 485.887 83.8469ZM491.963 84.3312C489.875 83.5072 487.829 82.7532 485.845 82.073C485.542 65.6676 487.72 61.3348 488.551 60.2862C488.641 60.1723 488.769 60.0939 488.911 60.0648C489.054 60.0357 489.202 60.0578 489.33 60.1271C490.913 60.9833 492.661 65.1562 492.661 65.1562C494.909 70.718 496.414 76.2174 497.399 80.685C495.625 81.8161 493.807 83.0344 491.963 84.3312ZM492.11 86.2066C490.511 87.3905 488.565 88.8612 486.473 90.5077C486.71 92.5318 487.027 95.023 487.428 97.7332C488.969 98.4448 490.542 99.1252 492.109 99.74C492.109 99.74 492.738 100.028 493.878 100.495C495.346 99.4682 496.807 98.3912 498.201 97.2828C498.201 97.2828 498.765 96.883 499.741 96.1301C499.581 94.336 499.373 92.524 499.104 90.7542C499.104 90.7542 499.045 90.1366 498.897 89.0344C497.031 88.2234 494.693 87.2356 492.11 86.2066ZM498.62 87.1379C497.793 86.7665 496.953 86.3984 496.103 86.0344C495.301 85.6909 494.503 85.3569 493.709 85.0327C495.315 83.8644 496.3 83.1803 496.3 83.1803C496.79 82.8754 497.271 82.5794 497.741 82.292C498.126 84.1654 498.412 85.8094 498.62 87.1379ZM500.45 89.7156C500.567 90.5655 500.679 91.4247 500.784 92.2922C500.898 93.2238 501.001 94.1478 501.096 95.0629C502.153 94.2146 503.448 93.138 504.895 91.8596C504.396 91.5884 503.884 91.3129 503.359 91.0331C503.359 91.0331 502.271 90.5223 500.45 89.7156ZM506.122 90.7582C504.236 89.7789 502.249 88.8047 500.181 87.8486C499.849 85.6499 499.48 83.5216 499.079 81.4831C513.196 73.0271 518.051 72.7625 519.372 72.9591C519.516 72.9811 519.648 73.0534 519.744 73.1633C519.84 73.2731 519.894 73.4133 519.896 73.5592C519.949 75.359 517.191 78.9517 517.191 78.9517C513.502 83.6529 509.498 87.6835 506.122 90.7582ZM506.27 92.615C504.691 93.9863 503.018 95.3754 501.263 96.7662C501.472 99.0211 501.624 101.215 501.723 103.325C506.076 104.707 511.571 106.154 517.491 106.995C517.491 106.995 521.979 107.575 523.513 106.633C523.638 106.557 523.731 106.44 523.778 106.302C523.824 106.164 523.82 106.014 523.767 105.879C523.275 104.638 520.619 100.578 506.27 92.615ZM500.147 102.812C500.092 101.228 500.007 99.5555 499.881 97.849C499.169 98.4005 498.444 98.9516 497.708 99.5014C496.964 100.057 496.222 100.602 495.483 101.134C496.744 101.622 498.32 102.202 500.147 102.812ZM492.445 101.48C491.616 101.142 490.781 100.794 489.942 100.435C489.182 100.11 488.431 99.7813 487.69 99.4504C487.924 100.951 488.184 102.5 488.469 104.059C489.756 103.256 491.096 102.392 492.445 101.48ZM485.602 96.8684C485.479 95.9818 485.362 95.0849 485.252 94.179C485.151 93.347 485.057 92.5211 484.97 91.7021C483.776 92.6601 482.552 93.6643 481.332 94.6956C482.685 95.4151 484.12 96.1502 485.602 96.8684ZM480.058 95.7844C481.901 96.7377 483.839 97.686 485.855 98.6172C486.186 100.818 486.556 102.948 486.957 104.989C482.123 107.922 478.374 109.822 478.374 109.822C469.861 114.112 466.888 113.436 466.888 113.436C466.058 113.432 466.161 112.738 466.161 112.738C466.817 109.764 469.648 106.404 469.648 106.404C472.03 103.123 475.949 99.336 480.058 95.7844ZM494.076 102.135C496.165 102.959 498.211 103.713 500.194 104.393C500.33 110.02 500.115 114.191 500.115 114.191C499.602 123.711 497.537 125.954 497.537 125.954C497.126 126.668 496.576 126.237 496.576 126.237C494.323 124.188 492.819 120.057 492.819 120.057C491.152 116.347 489.814 111.042 488.777 105.694C490.507 104.587 492.28 103.398 494.076 102.135Z" fill="#F1F1F1"/>
<path d="M510.15 75.1432C510.314 76.4977 509.386 77.7247 508.077 77.8837C506.767 78.0428 505.573 77.0737 505.408 75.7192C505.243 74.3647 506.172 73.1377 507.481 72.9786C508.79 72.8196 509.985 73.7887 510.15 75.1432Z" fill="#F1F1F1"/>
<path d="M497.014 92.6669C497.288 94.9244 495.681 96.9768 493.423 97.251C491.166 97.5252 489.113 95.9175 488.839 93.66C488.565 91.4025 490.173 89.3501 492.43 89.0759C494.688 88.8016 496.74 90.4094 497.014 92.6669Z" fill="#F1F1F1"/>
<path d="M470.176 90.9496C471.485 90.7906 472.413 89.5636 472.249 88.2091C472.084 86.8546 470.889 85.8855 469.58 86.0446C468.271 86.2036 467.343 87.4306 467.507 88.7851C467.672 90.1396 468.866 91.1087 470.176 90.9496Z" fill="#F1F1F1"/>
<path d="M493.235 116.188C493.399 117.543 492.471 118.77 491.162 118.929C489.852 119.088 488.657 118.119 488.493 116.764C488.328 115.41 489.257 114.183 490.566 114.024C491.875 113.865 493.07 114.834 493.235 116.188Z" fill="#F1F1F1"/>
</g>
<circle cx="1172.32" cy="894.643" r="67" transform="rotate(-6.92617 1172.32 894.643)" stroke="#343434" stroke-width="5"/>
<g filter="url(#filter9_f_2_266)">
<circle cx="1172.32" cy="894.643" r="50" transform="rotate(-156.926 1172.32 894.643)" fill="#00E8FF" fill-opacity="0.5"/>
</g>
<g filter="url(#filter10_df_2_266)">
<circle cx="1172.32" cy="894.643" r="39.2857" transform="rotate(-156.926 1172.32 894.643)" fill="#63CADA"/>
</g>
<g filter="url(#filter11_f_2_266)">
<path d="M1135.84 883.467C1128.81 907.259 1144.03 922.705 1152.52 927.454C1149.33 920.915 1143.73 903.908 1146.93 888.191C1150.13 872.474 1164.55 860.114 1171.36 855.898C1162.45 855.175 1142.87 859.676 1135.84 883.467Z" fill="white" fill-opacity="0.5"/>
</g>
<path fill-rule="evenodd" clip-rule="evenodd" d="M1173.45 875.87L1154.56 884.667L1168.57 888.905L1187.39 880.079L1173.45 875.87ZM1153.99 885.317L1168.11 889.504L1171.02 913.437L1156.9 909.25L1153.99 885.317ZM1176.19 901.509L1174.41 886.865L1187.82 880.571L1190.76 904.799L1176.19 901.509Z" fill="#F1F1F1" fill-opacity="0.75"/>
<circle cx="359.266" cy="603.018" r="87" transform="rotate(-6.92617 359.266 603.018)" stroke="#343434" stroke-width="5"/>
<g filter="url(#filter12_f_2_266)">
<circle cx="359.266" cy="603.018" r="70" transform="rotate(23.0738 359.266 603.018)" fill="#00E8FF" fill-opacity="0.5"/>
</g>
<g filter="url(#filter13_df_2_266)">
<circle cx="359.266" cy="603.018" r="55" transform="rotate(23.0738 359.266 603.018)" fill="#63CADA"/>
</g>
<g filter="url(#filter14_f_2_266)">
<path d="M410.346 618.664C420.187 585.356 398.873 563.731 386.987 557.082C391.465 566.237 399.303 590.046 394.821 612.05C390.338 634.054 370.149 651.359 360.615 657.261C373.091 658.274 400.504 651.971 410.346 618.664Z" fill="white" fill-opacity="0.5"/>
</g>
<path d="M367.391 622.005L368.201 628.68L362.798 632.81L356.734 630.073L355.923 623.398L361.987 626.135L367.391 622.005ZM333.433 602.683L339.497 605.42L340.89 616.887L351.353 621.521L352.164 628.196L335.658 620.996L333.433 602.683ZM384.267 596.508L386.491 614.821L372.018 625.785L371.207 619.109L380.256 612.105L378.863 600.638L384.267 596.508ZM367.418 589.349L373.653 592.065L374.464 598.74L365.415 605.745L366.829 617.383L361.597 621.493L355.533 618.756L354.119 607.117L343.314 602.524L342.503 595.849L347.907 591.719L358.369 596.354L367.418 589.349ZM343.896 607.317L349.96 610.054L350.771 616.729L344.707 613.992L343.896 607.317ZM375.046 603.533L375.857 610.208L370.625 614.317L369.814 607.642L375.046 603.533ZM337.273 587.106L343.508 589.822L338.104 593.952L338.915 600.627L332.851 597.89L332.04 591.215L337.273 587.106ZM376.638 582.324L382.874 585.04L383.684 591.715L378.281 595.845L377.47 589.17L371.406 586.433L376.638 582.324ZM356.956 584.715L363.191 587.431L357.787 591.561L351.723 588.824L356.956 584.715ZM355.563 573.248L372.24 580.427L367.007 584.536L356.545 579.902L347.324 586.927L341.26 584.19L355.563 573.248Z" fill="#F1F1F1"/>
<circle cx="1395.47" cy="513.837" r="107.256" transform="rotate(-6.92617 1395.47 513.837)" stroke="#343434" stroke-width="5"/>
<g filter="url(#filter15_f_2_266)">
<circle cx="1395.47" cy="513.837" r="87.5" transform="rotate(165.489 1395.47 513.837)" fill="#00E8FF" fill-opacity="0.5"/>
</g>
<g filter="url(#filter16_dif_2_266)">
<circle cx="1395.47" cy="513.837" r="68.75" transform="rotate(165.489 1395.47 513.837)" fill="#63CADA"/>
</g>
<g filter="url(#filter17_f_2_266)">
<path d="M1332.94 537.284C1348.59 577.78 1386.19 582.951 1403.03 580.474C1391.61 574.821 1365.7 557.211 1353.36 531.998C1341.02 506.785 1347.83 474.25 1352.77 461.135C1339.64 469.644 1317.29 496.787 1332.94 537.284Z" fill="white" fill-opacity="0.33"/>
</g>
<g opacity="0.75">
<path d="M1398.47 533.131L1372.74 522.684L1401.34 552.503L1420.05 515.653L1398.46 533.133L1398.47 533.131ZM1390.25 475.372L1372.43 518.139L1398.16 528.611L1419.74 511.123L1390.25 475.372Z" fill="#F1F1F1" fill-opacity="0.7"/>
<path opacity="0.75" d="M1398.47 533.131L1401.34 552.503L1420.05 515.653L1398.46 533.133L1398.47 533.131ZM1390.25 475.372L1398.16 528.611L1419.74 511.123L1390.25 475.372Z" fill="#F1F1F1"/>
<path opacity="0.75" d="M1390.25 475.372L1394.17 501.581L1419.74 511.123L1390.25 475.372Z" fill="#F1F1F1" fill-opacity="0.8"/>
<path opacity="0.75" d="M1390.25 475.372L1372.43 518.139L1394.17 501.581L1390.25 475.372Z" fill="#F1F1F1" fill-opacity="0.9"/>
</g>
<g filter="url(#filter18_dddddd_2_266)">
<path fill-rule="evenodd" clip-rule="evenodd" d="M902.937 122.918L902.235 127.87L1196.21 163.4C1230.6 167.557 1260 190.104 1272.94 222.24L1332.8 370.95L1337.44 369.083L1277.58 220.373C1263.96 186.546 1233.01 162.812 1196.81 158.436L902.937 122.918Z" fill="#207D7D"/>
</g>
<g filter="url(#filter19_dddddd_2_266)">
<path fill-rule="evenodd" clip-rule="evenodd" d="M315.041 896.605L320.036 897.314C319.931 927.058 333.818 955.457 358.009 973.615L501.869 1081.59L498.785 1085.53L355.008 977.613C329.356 958.359 314.711 928.166 315.041 896.605Z" fill="#207D7D"/>
</g>
<g filter="url(#filter20_dddddd_2_266)">
<path fill-rule="evenodd" clip-rule="evenodd" d="M1108.82 866.375C1103.86 877.493 1101.76 890.058 1103.33 903.024C1107.96 941.127 1142.6 968.264 1180.7 963.635C1193.67 962.06 1205.37 957.01 1214.97 949.531L1210.9 946.345C1202.18 952.866 1191.69 957.264 1180.1 958.672C1144.74 962.968 1112.59 937.783 1108.29 902.421C1106.89 890.834 1108.64 879.592 1112.89 869.561L1108.82 866.375Z" fill="#1E7D7E"/>
</g>
</g>
<defs>
<filter id="filter0_f_2_266" x="968.748" y="1308.36" width="190.015" height="190.015" filterUnits="userSpaceOnUse" color-interpolation-filters="sRGB">
<feFlood flood-opacity="0" result="BackgroundImageFix"/>
<feBlend mode="normal" in="SourceGraphic" in2="BackgroundImageFix" result="shape"/>
<feGaussianBlur stdDeviation="10" result="effect1_foregroundBlur_2_266"/>
</filter>
<filter id="filter1_dif_2_266" x="1000.82" y="1324.43" width="131.869" height="145.869" filterUnits="userSpaceOnUse" color-interpolation-filters="sRGB">
<feFlood flood-opacity="0" result="BackgroundImageFix"/>
<feColorMatrix in="SourceAlpha" type="matrix" values="0 0 0 0 0 0 0 0 0 0 0 0 0 0 0 0 0 0 127 0" result="hardAlpha"/>
<feOffset dy="4"/>
<feGaussianBlur stdDeviation="2"/>
<feComposite in2="hardAlpha" operator="out"/>
<feColorMatrix type="matrix" values="0 0 0 0 0 0 0 0 0 0 0 0 0 0 0 0 0 0 0.25 0"/>
<feBlend mode="normal" in2="BackgroundImageFix" result="effect1_dropShadow_2_266"/>
<feBlend mode="normal" in="SourceGraphic" in2="effect1_dropShadow_2_266" result="shape"/>
<feColorMatrix in="SourceAlpha" type="matrix" values="0 0 0 0 0 0 0 0 0 0 0 0 0 0 0 0 0 0 127 0" result="hardAlpha"/>
<feOffset dx="10" dy="-20"/>
<feGaussianBlur stdDeviation="16.5"/>
<feComposite in2="hardAlpha" operator="arithmetic" k2="-1" k3="1"/>
<feColorMatrix type="matrix" values="0 0 0 0 0 0 0 0 0 0 0 0 0 0 0 0 0 0 0.25 0"/>
<feBlend mode="normal" in2="shape" result="effect2_innerShadow_2_266"/>
<feGaussianBlur stdDeviation="0.5" result="effect3_foregroundBlur_2_266"/>
</filter>
<filter id="filter2_f_2_266" x="996.279" y="1335.6" width="127.085" height="76.6499" filterUnits="userSpaceOnUse" color-interpolation-filters="sRGB">
<feFlood flood-opacity="0" result="BackgroundImageFix"/>
<feBlend mode="normal" in="SourceGraphic" in2="BackgroundImageFix" result="shape"/>
<feGaussianBlur stdDeviation="5" result="effect1_foregroundBlur_2_266"/>
</filter>
<filter id="filter3_f_2_266" x="144.695" y="1150.77" width="120" height="120" filterUnits="userSpaceOnUse" color-interpolation-filters="sRGB">
<feFlood flood-opacity="0" result="BackgroundImageFix"/>
<feBlend mode="normal" in="SourceGraphic" in2="BackgroundImageFix" result="shape"/>
<feGaussianBlur stdDeviation="10" result="effect1_foregroundBlur_2_266"/>
</filter>
<filter id="filter4_dif_2_266" x="169.267" y="1159.34" width="76.8573" height="90.8573" filterUnits="userSpaceOnUse" color-interpolation-filters="sRGB">
<feFlood flood-opacity="0" result="BackgroundImageFix"/>
<feColorMatrix in="SourceAlpha" type="matrix" values="0 0 0 0 0 0 0 0 0 0 0 0 0 0 0 0 0 0 127 0" result="hardAlpha"/>
<feOffset dy="4"/>
<feGaussianBlur stdDeviation="2"/>
<feComposite in2="hardAlpha" operator="out"/>
<feColorMatrix type="matrix" values="0 0 0 0 0 0 0 0 0 0 0 0 0 0 0 0 0 0 0.25 0"/>
<feBlend mode="normal" in2="BackgroundImageFix" result="effect1_dropShadow_2_266"/>
<feBlend mode="normal" in="SourceGraphic" in2="effect1_dropShadow_2_266" result="shape"/>
<feColorMatrix in="SourceAlpha" type="matrix" values="0 0 0 0 0 0 0 0 0 0 0 0 0 0 0 0 0 0 127 0" result="hardAlpha"/>
<feOffset dx="10" dy="-20"/>
<feGaussianBlur stdDeviation="16.5"/>
<feComposite in2="hardAlpha" operator="arithmetic" k2="-1" k3="1"/>
<feColorMatrix type="matrix" values="0 0 0 0 0 0 0 0 0 0 0 0 0 0 0 0 0 0 0.25 0"/>
<feBlend mode="normal" in2="shape" result="effect2_innerShadow_2_266"/>
<feGaussianBlur stdDeviation="0.5" result="effect3_foregroundBlur_2_266"/>
</filter>
<filter id="filter5_f_2_266" x="175.657" y="1170.02" width="70.4705" height="60.8849" filterUnits="userSpaceOnUse" color-interpolation-filters="sRGB">
<feFlood flood-opacity="0" result="BackgroundImageFix"/>
<feBlend mode="normal" in="SourceGraphic" in2="BackgroundImageFix" result="shape"/>
<feGaussianBlur stdDeviation="5" result="effect1_foregroundBlur_2_266"/>
</filter>
<filter id="filter6_f_2_266" x="410.511" y="10.7291" width="165.013" height="165.013" filterUnits="userSpaceOnUse" color-interpolation-filters="sRGB">
<feFlood flood-opacity="0" result="BackgroundImageFix"/>
<feBlend mode="normal" in="SourceGraphic" in2="BackgroundImageFix" result="shape"/>
<feGaussianBlur stdDeviation="10" result="effect1_foregroundBlur_2_266"/>
</filter>
<filter id="filter7_dif_2_266" x="439.905" y="36.1235" width="106.224" height="126.224" filterUnits="userSpaceOnUse" color-interpolation-filters="sRGB">
<feFlood flood-opacity="0" result="BackgroundImageFix"/>
<feColorMatrix in="SourceAlpha" type="matrix" values="0 0 0 0 0 0 0 0 0 0 0 0 0 0 0 0 0 0 127 0" result="hardAlpha"/>
<feOffset dy="-4"/>
<feGaussianBlur stdDeviation="2"/>
<feComposite in2="hardAlpha" operator="out"/>
<feColorMatrix type="matrix" values="0 0 0 0 0 0 0 0 0 0 0 0 0 0 0 0 0 0 0.25 0"/>
<feBlend mode="normal" in2="BackgroundImageFix" result="effect1_dropShadow_2_266"/>
<feBlend mode="normal" in="SourceGraphic" in2="effect1_dropShadow_2_266" result="shape"/>
<feColorMatrix in="SourceAlpha" type="matrix" values="0 0 0 0 0 0 0 0 0 0 0 0 0 0 0 0 0 0 127 0" result="hardAlpha"/>
<feOffset dy="20"/>
<feGaussianBlur stdDeviation="16.5"/>
<feComposite in2="hardAlpha" operator="arithmetic" k2="-1" k3="1"/>
<feColorMatrix type="matrix" values="0 0 0 0 0 0 0 0 0 0 0 0 0 0 0 0 0 0 0.25 0"/>
<feBlend mode="normal" in2="shape" result="effect2_innerShadow_2_266"/>
<feGaussianBlur stdDeviation="0.5" result="effect3_foregroundBlur_2_266"/>
</filter>
<filter id="filter8_f_2_266" x="441.677" y="84.1629" width="109.238" height="67.2082" filterUnits="userSpaceOnUse" color-interpolation-filters="sRGB">
<feFlood flood-opacity="0" result="BackgroundImageFix"/>
<feBlend mode="normal" in="SourceGraphic" in2="BackgroundImageFix" result="shape"/>
<feGaussianBlur stdDeviation="5" result="effect1_foregroundBlur_2_266"/>
</filter>
<filter id="filter9_f_2_266" x="1102.31" y="824.63" width="140.026" height="140.026" filterUnits="userSpaceOnUse" color-interpolation-filters="sRGB">
<feFlood flood-opacity="0" result="BackgroundImageFix"/>
<feBlend mode="normal" in="SourceGraphic" in2="BackgroundImageFix" result="shape"/>
<feGaussianBlur stdDeviation="10" result="effect1_foregroundBlur_2_266"/>
</filter>
<filter id="filter10_df_2_266" x="1132.03" y="851.347" width="87.5917" height="86.5916" filterUnits="userSpaceOnUse" color-interpolation-filters="sRGB">
<feFlood flood-opacity="0" result="BackgroundImageFix"/>
<feColorMatrix in="SourceAlpha" type="matrix" values="0 0 0 0 0 0 0 0 0 0 0 0 0 0 0 0 0 0 127 0" result="hardAlpha"/>
<feOffset dx="4"/>
<feGaussianBlur stdDeviation="2"/>
<feComposite in2="hardAlpha" operator="out"/>
<feColorMatrix type="matrix" values="0 0 0 0 0 0 0 0 0 0 0 0 0 0 0 0 0 0 0.25 0"/>
<feBlend mode="normal" in2="BackgroundImageFix" result="effect1_dropShadow_2_266"/>
<feBlend mode="normal" in="SourceGraphic" in2="effect1_dropShadow_2_266" result="shape"/>
<feGaussianBlur stdDeviation="0.5" result="effect2_foregroundBlur_2_266"/>
</filter>
<filter id="filter11_f_2_266" x="1124.04" y="845.827" width="57.3237" height="91.6272" filterUnits="userSpaceOnUse" color-interpolation-filters="sRGB">
<feFlood flood-opacity="0" result="BackgroundImageFix"/>
<feBlend mode="normal" in="SourceGraphic" in2="BackgroundImageFix" result="shape"/>
<feGaussianBlur stdDeviation="5" result="effect1_foregroundBlur_2_266"/>
</filter>
<filter id="filter12_f_2_266" x="269.248" y="513" width="180.036" height="180.036" filterUnits="userSpaceOnUse" color-interpolation-filters="sRGB">
<feFlood flood-opacity="0" result="BackgroundImageFix"/>
<feBlend mode="normal" in="SourceGraphic" in2="BackgroundImageFix" result="shape"/>
<feGaussianBlur stdDeviation="10" result="effect1_foregroundBlur_2_266"/>
</filter>
<filter id="filter13_df_2_266" x="296.252" y="544.004" width="119.028" height="118.028" filterUnits="userSpaceOnUse" color-interpolation-filters="sRGB">
<feFlood flood-opacity="0" result="BackgroundImageFix"/>
<feColorMatrix in="SourceAlpha" type="matrix" values="0 0 0 0 0 0 0 0 0 0 0 0 0 0 0 0 0 0 127 0" result="hardAlpha"/>
<feOffset dx="-4"/>
<feGaussianBlur stdDeviation="2"/>
<feComposite in2="hardAlpha" operator="out"/>
<feColorMatrix type="matrix" values="0 0 0 0 0 0 0 0 0 0 0 0 0 0 0 0 0 0 0.25 0"/>
<feBlend mode="normal" in2="BackgroundImageFix" result="effect1_dropShadow_2_266"/>
<feBlend mode="normal" in="SourceGraphic" in2="effect1_dropShadow_2_266" result="shape"/>
<feGaussianBlur stdDeviation="0.5" result="effect2_foregroundBlur_2_266"/>
</filter>
<filter id="filter14_f_2_266" x="350.615" y="547.082" width="72.2532" height="120.278" filterUnits="userSpaceOnUse" color-interpolation-filters="sRGB">
<feFlood flood-opacity="0" result="BackgroundImageFix"/>
<feBlend mode="normal" in="SourceGraphic" in2="BackgroundImageFix" result="shape"/>
<feGaussianBlur stdDeviation="5" result="effect1_foregroundBlur_2_266"/>
</filter>
<filter id="filter15_f_2_266" x="1287.94" y="406.316" width="215.042" height="215.042" filterUnits="userSpaceOnUse" color-interpolation-filters="sRGB">
<feFlood flood-opacity="0" result="BackgroundImageFix"/>
<feBlend mode="normal" in="SourceGraphic" in2="BackgroundImageFix" result="shape"/>
<feGaussianBlur stdDeviation="10" result="effect1_foregroundBlur_2_266"/>
</filter>
<filter id="filter16_dif_2_266" x="1306.7" y="441.07" width="168.533" height="145.533" filterUnits="userSpaceOnUse" color-interpolation-filters="sRGB">
<feFlood flood-opacity="0" result="BackgroundImageFix"/>
<feColorMatrix in="SourceAlpha" type="matrix" values="0 0 0 0 0 0 0 0 0 0 0 0 0 0 0 0 0 0 127 0" result="hardAlpha"/>
<feOffset dx="7"/>
<feGaussianBlur stdDeviation="2"/>
<feComposite in2="hardAlpha" operator="out"/>
<feColorMatrix type="matrix" values="0 0 0 0 0 0 0 0 0 0 0 0 0 0 0 0 0 0 0.25 0"/>
<feBlend mode="normal" in2="BackgroundImageFix" result="effect1_dropShadow_2_266"/>
<feBlend mode="normal" in="SourceGraphic" in2="effect1_dropShadow_2_266" result="shape"/>
<feColorMatrix in="SourceAlpha" type="matrix" values="0 0 0 0 0 0 0 0 0 0 0 0 0 0 0 0 0 0 127 0" result="hardAlpha"/>
<feOffset dx="-20"/>
<feGaussianBlur stdDeviation="16.5"/>
<feComposite in2="hardAlpha" operator="arithmetic" k2="-1" k3="1"/>
<feColorMatrix type="matrix" values="0 0 0 0 0 0 0 0 0 0 0 0 0 0 0 0 0 0 0.25 0"/>
<feBlend mode="normal" in2="shape" result="effect2_innerShadow_2_266"/>
<feGaussianBlur stdDeviation="0.5" result="effect3_foregroundBlur_2_266"/>
</filter>
<filter id="filter17_f_2_266" x="1317.59" y="451.135" width="95.4426" height="139.857" filterUnits="userSpaceOnUse" color-interpolation-filters="sRGB">
<feFlood flood-opacity="0" result="BackgroundImageFix"/>
<feBlend mode="normal" in="SourceGraphic" in2="BackgroundImageFix" result="shape"/>
<feGaussianBlur stdDeviation="5" result="effect1_foregroundBlur_2_266"/>
</filter>
<filter id="filter18_dddddd_2_266" x="-194.48" y="-973.796" width="2628.63" height="2441.46" filterUnits="userSpaceOnUse" color-interpolation-filters="sRGB">
<feFlood flood-opacity="0" result="BackgroundImageFix"/>
<feColorMatrix in="SourceAlpha" type="matrix" values="0 0 0 0 0 0 0 0 0 0 0 0 0 0 0 0 0 0 127 0" result="hardAlpha"/>
<feOffset/>
<feGaussianBlur stdDeviation="13.0561"/>
<feColorMatrix type="matrix" values="0 0 0 0 0.12549 0 0 0 0 0.490196 0 0 0 0 0.490196 0 0 0 1 0"/>
<feBlend mode="normal" in2="BackgroundImageFix" result="effect1_dropShadow_2_266"/>
<feColorMatrix in="SourceAlpha" type="matrix" values="0 0 0 0 0 0 0 0 0 0 0 0 0 0 0 0 0 0 127 0" result="hardAlpha"/>
<feOffset/>
<feGaussianBlur stdDeviation="26.1123"/>
<feColorMatrix type="matrix" values="0 0 0 0 0.12549 0 0 0 0 0.490196 0 0 0 0 0.490196 0 0 0 1 0"/>
<feBlend mode="normal" in2="effect1_dropShadow_2_266" result="effect2_dropShadow_2_266"/>
<feColorMatrix in="SourceAlpha" type="matrix" values="0 0 0 0 0 0 0 0 0 0 0 0 0 0 0 0 0 0 127 0" result="hardAlpha"/>
<feOffset/>
<feGaussianBlur stdDeviation="91.3929"/>
<feColorMatrix type="matrix" values="0 0 0 0 0.12549 0 0 0 0 0.490196 0 0 0 0 0.490196 0 0 0 1 0"/>
<feBlend mode="normal" in2="effect2_dropShadow_2_266" result="effect3_dropShadow_2_266"/>
<feColorMatrix in="SourceAlpha" type="matrix" values="0 0 0 0 0 0 0 0 0 0 0 0 0 0 0 0 0 0 127 0" result="hardAlpha"/>
<feOffset/>
<feGaussianBlur stdDeviation="182.786"/>
<feColorMatrix type="matrix" values="0 0 0 0 0.12549 0 0 0 0 0.490196 0 0 0 0 0.490196 0 0 0 1 0"/>
<feBlend mode="normal" in2="effect3_dropShadow_2_266" result="effect4_dropShadow_2_266"/>
<feColorMatrix in="SourceAlpha" type="matrix" values="0 0 0 0 0 0 0 0 0 0 0 0 0 0 0 0 0 0 127 0" result="hardAlpha"/>
<feOffset/>
<feGaussianBlur stdDeviation="313.347"/>
<feColorMatrix type="matrix" values="0 0 0 0 0.12549 0 0 0 0 0.490196 0 0 0 0 0.490196 0 0 0 1 0"/>
<feBlend mode="normal" in2="effect4_dropShadow_2_266" result="effect5_dropShadow_2_266"/>
<feColorMatrix in="SourceAlpha" type="matrix" values="0 0 0 0 0 0 0 0 0 0 0 0 0 0 0 0 0 0 127 0" result="hardAlpha"/>
<feOffset/>
<feGaussianBlur stdDeviation="548.357"/>
<feColorMatrix type="matrix" values="0 0 0 0 0.12549 0 0 0 0 0.490196 0 0 0 0 0.490196 0 0 0 1 0"/>
<feBlend mode="normal" in2="effect5_dropShadow_2_266" result="effect6_dropShadow_2_266"/>
<feBlend mode="normal" in="SourceGraphic" in2="effect6_dropShadow_2_266" result="shape"/>
</filter>
<filter id="filter19_dddddd_2_266" x="-399.103" y="182.467" width="1615.11" height="1617.2" filterUnits="userSpaceOnUse" color-interpolation-filters="sRGB">
<feFlood flood-opacity="0" result="BackgroundImageFix"/>
<feColorMatrix in="SourceAlpha" type="matrix" values="0 0 0 0 0 0 0 0 0 0 0 0 0 0 0 0 0 0 127 0" result="hardAlpha"/>
<feOffset/>
<feGaussianBlur stdDeviation="8.50165"/>
<feColorMatrix type="matrix" values="0 0 0 0 0.12549 0 0 0 0 0.490196 0 0 0 0 0.490196 0 0 0 1 0"/>
<feBlend mode="normal" in2="BackgroundImageFix" result="effect1_dropShadow_2_266"/>
<feColorMatrix in="SourceAlpha" type="matrix" values="0 0 0 0 0 0 0 0 0 0 0 0 0 0 0 0 0 0 127 0" result="hardAlpha"/>
<feOffset/>
<feGaussianBlur stdDeviation="17.0033"/>
<feColorMatrix type="matrix" values="0 0 0 0 0.12549 0 0 0 0 0.490196 0 0 0 0 0.490196 0 0 0 1 0"/>
<feBlend mode="normal" in2="effect1_dropShadow_2_266" result="effect2_dropShadow_2_266"/>
<feColorMatrix in="SourceAlpha" type="matrix" values="0 0 0 0 0 0 0 0 0 0 0 0 0 0 0 0 0 0 127 0" result="hardAlpha"/>
<feOffset/>
<feGaussianBlur stdDeviation="59.5116"/>
<feColorMatrix type="matrix" values="0 0 0 0 0.12549 0 0 0 0 0.490196 0 0 0 0 0.490196 0 0 0 1 0"/>
<feBlend mode="normal" in2="effect2_dropShadow_2_266" result="effect3_dropShadow_2_266"/>
<feColorMatrix in="SourceAlpha" type="matrix" values="0 0 0 0 0 0 0 0 0 0 0 0 0 0 0 0 0 0 127 0" result="hardAlpha"/>
<feOffset/>
<feGaussianBlur stdDeviation="119.023"/>
<feColorMatrix type="matrix" values="0 0 0 0 0.12549 0 0 0 0 0.490196 0 0 0 0 0.490196 0 0 0 1 0"/>
<feBlend mode="normal" in2="effect3_dropShadow_2_266" result="effect4_dropShadow_2_266"/>
<feColorMatrix in="SourceAlpha" type="matrix" values="0 0 0 0 0 0 0 0 0 0 0 0 0 0 0 0 0 0 127 0" result="hardAlpha"/>
<feOffset/>
<feGaussianBlur stdDeviation="204.04"/>
<feColorMatrix type="matrix" values="0 0 0 0 0.12549 0 0 0 0 0.490196 0 0 0 0 0.490196 0 0 0 1 0"/>
<feBlend mode="normal" in2="effect4_dropShadow_2_266" result="effect5_dropShadow_2_266"/>
<feColorMatrix in="SourceAlpha" type="matrix" values="0 0 0 0 0 0 0 0 0 0 0 0 0 0 0 0 0 0 127 0" result="hardAlpha"/>
<feOffset/>
<feGaussianBlur stdDeviation="357.069"/>
<feColorMatrix type="matrix" values="0 0 0 0 0.12549 0 0 0 0 0.490196 0 0 0 0 0.490196 0 0 0 1 0"/>
<feBlend mode="normal" in2="effect5_dropShadow_2_266" result="effect6_dropShadow_2_266"/>
<feBlend mode="normal" in="SourceGraphic" in2="effect6_dropShadow_2_266" result="shape"/>
</filter>
<filter id="filter20_dddddd_2_266" x="678.864" y="442.423" width="960.06" height="945.678" filterUnits="userSpaceOnUse" color-interpolation-filters="sRGB">
<feFlood flood-opacity="0" result="BackgroundImageFix"/>
<feColorMatrix in="SourceAlpha" type="matrix" values="0 0 0 0 0 0 0 0 0 0 0 0 0 0 0 0 0 0 127 0" result="hardAlpha"/>
<feOffset/>
<feGaussianBlur stdDeviation="5.04704"/>
<feColorMatrix type="matrix" values="0 0 0 0 0.117647 0 0 0 0 0.490196 0 0 0 0 0.494118 0 0 0 1 0"/>
<feBlend mode="normal" in2="BackgroundImageFix" result="effect1_dropShadow_2_266"/>
<feColorMatrix in="SourceAlpha" type="matrix" values="0 0 0 0 0 0 0 0 0 0 0 0 0 0 0 0 0 0 127 0" result="hardAlpha"/>
<feOffset/>
<feGaussianBlur stdDeviation="10.0941"/>
<feColorMatrix type="matrix" values="0 0 0 0 0.117647 0 0 0 0 0.490196 0 0 0 0 0.494118 0 0 0 1 0"/>
<feBlend mode="normal" in2="effect1_dropShadow_2_266" result="effect2_dropShadow_2_266"/>
<feColorMatrix in="SourceAlpha" type="matrix" values="0 0 0 0 0 0 0 0 0 0 0 0 0 0 0 0 0 0 127 0" result="hardAlpha"/>
<feOffset/>
<feGaussianBlur stdDeviation="35.3293"/>
<feColorMatrix type="matrix" values="0 0 0 0 0.117647 0 0 0 0 0.490196 0 0 0 0 0.494118 0 0 0 1 0"/>
<feBlend mode="normal" in2="effect2_dropShadow_2_266" result="effect3_dropShadow_2_266"/>
<feColorMatrix in="SourceAlpha" type="matrix" values="0 0 0 0 0 0 0 0 0 0 0 0 0 0 0 0 0 0 127 0" result="hardAlpha"/>
<feOffset/>
<feGaussianBlur stdDeviation="70.6586"/>
<feColorMatrix type="matrix" values="0 0 0 0 0.117647 0 0 0 0 0.490196 0 0 0 0 0.494118 0 0 0 1 0"/>
<feBlend mode="normal" in2="effect3_dropShadow_2_266" result="effect4_dropShadow_2_266"/>
<feColorMatrix in="SourceAlpha" type="matrix" values="0 0 0 0 0 0 0 0 0 0 0 0 0 0 0 0 0 0 127 0" result="hardAlpha"/>
<feOffset/>
<feGaussianBlur stdDeviation="121.129"/>
<feColorMatrix type="matrix" values="0 0 0 0 0.117647 0 0 0 0 0.490196 0 0 0 0 0.494118 0 0 0 1 0"/>
<feBlend mode="normal" in2="effect4_dropShadow_2_266" result="effect5_dropShadow_2_266"/>
<feColorMatrix in="SourceAlpha" type="matrix" values="0 0 0 0 0 0 0 0 0 0 0 0 0 0 0 0 0 0 127 0" result="hardAlpha"/>
<feOffset/>
<feGaussianBlur stdDeviation="211.976"/>
<feColorMatrix type="matrix" values="0 0 0 0 0.117647 0 0 0 0 0.490196 0 0 0 0 0.494118 0 0 0 1 0"/>
<feBlend mode="normal" in2="effect5_dropShadow_2_266" result="effect6_dropShadow_2_266"/>
<feBlend mode="normal" in="SourceGraphic" in2="effect6_dropShadow_2_266" result="shape"/>
</filter>
<clipPath id="clip0_2_266">
<rect width="1521.26" height="1511.55" fill="white" transform="translate(0.588409 0.533203)"/>
</clipPath>
</defs>
</svg>
