<svg width="1001" height="1001" viewBox="0 0 1001 1001" fill="none" xmlns="http://www.w3.org/2000/svg">
<g clip-path="url(#clip0_9_391)">
<g filter="url(#filter0_f_9_391)">
<mask id="mask0_9_391" style="mask-type:alpha" maskUnits="userSpaceOnUse" x="0" y="0" width="1001" height="1001">
<rect x="0.5" y="0.0449219" width="1000" height="1000" fill="url(#paint0_radial_9_391)"/>
</mask>
<g mask="url(#mask0_9_391)">
<g opacity="0.3" filter="url(#filter1_dddddd_9_391)">
<path d="M133.933 537.705L371.724 499.833L346.571 768.544L133.933 537.705Z" fill="url(#paint1_radial_9_391)" fill-opacity="0.5"/>
<path d="M426.903 53.2458L501.646 81.9568L257.88 114.224L426.903 53.2458Z" fill="url(#paint2_radial_9_391)" fill-opacity="0.5"/>
<path d="M827.136 707.067L615.672 878.122L631.998 630.616L827.136 707.067Z" fill="url(#paint3_radial_9_391)" fill-opacity="0.5"/>
<path d="M751.557 184.937L584.376 303.815L501.646 81.9568L751.557 184.937Z" fill="url(#paint4_radial_9_391)" fill-opacity="0.5"/>
<path d="M257.88 114.224L275.302 253.869L84.0179 307.441L257.88 114.224Z" fill="url(#paint5_radial_9_391)" fill-opacity="0.5"/>
<path d="M937.864 574.218L850.013 436.079L895.565 290.131L937.864 574.218Z" fill="url(#paint6_radial_9_391)" fill-opacity="0.5"/>
<path d="M615.672 878.122L553.211 940.751L371.236 921.785L615.672 878.122Z" fill="url(#paint7_radial_9_391)" fill-opacity="0.5"/>
<path d="M371.236 921.785L290.229 886.078L150.285 782.136L371.236 921.785Z" fill="url(#paint8_radial_9_391)" fill-opacity="0.5"/>
<path d="M133.933 537.705L150.285 782.136L39.9173 557.547L133.933 537.705Z" fill="url(#paint9_radial_9_391)" fill-opacity="0.5"/>
<path d="M584.376 303.815L631.998 630.616L371.724 499.833L584.376 303.815Z" fill="url(#paint10_radial_9_391)" fill-opacity="0.5"/>
<path d="M696.254 90.0279L501.646 81.9568L426.903 53.2458L696.254 90.0279Z" fill="url(#paint11_radial_9_391)" fill-opacity="0.5"/>
<path d="M937.864 574.218L850.013 436.079M937.864 574.218L895.565 290.131M937.864 574.218L827.136 707.067M937.864 574.218L802.831 825.162M850.013 436.079L895.565 290.131M850.013 436.079L751.557 184.937M850.013 436.079L827.136 707.067M850.013 436.079L631.998 630.616M850.013 436.079L584.376 303.815M895.565 290.131L751.557 184.937M895.565 290.131L696.254 90.028M827.136 707.067L802.831 825.162M827.136 707.067L615.672 878.122M827.136 707.067L631.998 630.616M802.831 825.162L615.672 878.122M802.831 825.162L553.211 940.751M615.672 878.122L553.211 940.751M615.672 878.122L631.998 630.616M615.672 878.122L346.571 768.544M615.672 878.122L371.236 921.785M553.211 940.751L371.236 921.785M631.998 630.616L584.376 303.815M631.998 630.616L371.724 499.833M631.998 630.616L346.571 768.544M584.376 303.815L751.557 184.937M584.376 303.815L501.646 81.9568M584.376 303.815L275.302 253.869M584.376 303.815L371.724 499.833M751.557 184.937L696.254 90.028M751.557 184.937L501.646 81.9568M696.254 90.028L501.646 81.9568M696.254 90.028L426.903 53.2459M501.646 81.9568L426.903 53.2459M501.646 81.9568L257.88 114.224M501.646 81.9568L275.302 253.869M426.903 53.2459L257.88 114.224M257.88 114.224L275.302 253.869M257.88 114.224L84.0179 307.441M257.88 114.224L183.978 190.099L84.0179 307.441M275.302 253.869L84.0179 307.441M275.302 253.869L133.933 537.705M275.302 253.869L371.724 499.833M84.0179 307.441L39.9173 557.547M133.933 537.705L371.724 499.833M133.933 537.705L346.571 768.544M133.933 537.705L150.285 782.136M133.933 537.705L39.9173 557.547M371.724 499.833L346.571 768.544M346.571 768.544L371.236 921.785M346.571 768.544L150.285 782.136M371.236 921.785L290.229 886.078L150.285 782.136M371.236 921.785L150.285 782.136M150.285 782.136L39.9173 557.547" stroke="url(#paint12_radial_9_391)"/>
</g>
<g opacity="0.3" filter="url(#filter2_f_9_391)">
<path d="M733.671 902.05C837.399 713.202 785.559 461.441 617.884 339.727C450.208 218.013 230.193 272.435 126.465 461.283C22.7369 650.131 236.229 607.586 403.905 729.3C571.58 851.014 629.943 1090.9 733.671 902.05Z" fill="url(#paint13_radial_9_391)"/>
</g>
</g>
</g>
</g>
<defs>
<filter id="filter0_f_9_391" x="7.39648" y="20.7338" width="962.987" height="983.305" filterUnits="userSpaceOnUse" color-interpolation-filters="sRGB">
<feFlood flood-opacity="0" result="BackgroundImageFix"/>
<feBlend mode="normal" in="SourceGraphic" in2="BackgroundImageFix" result="shape"/>
<feGaussianBlur stdDeviation="16" result="effect1_foregroundBlur_9_391"/>
</filter>
<filter id="filter1_dddddd_9_391" x="-128.284" y="-114.947" width="1234.35" height="1223.89" filterUnits="userSpaceOnUse" color-interpolation-filters="sRGB">
<feFlood flood-opacity="0" result="BackgroundImageFix"/>
<feColorMatrix in="SourceAlpha" type="matrix" values="0 0 0 0 0 0 0 0 0 0 0 0 0 0 0 0 0 0 127 0" result="hardAlpha"/>
<feOffset/>
<feGaussianBlur stdDeviation="1.9962"/>
<feColorMatrix type="matrix" values="0 0 0 0 0.12549 0 0 0 0 0.768627 0 0 0 0 0.811765 0 0 0 1 0"/>
<feBlend mode="normal" in2="BackgroundImageFix" result="effect1_dropShadow_9_391"/>
<feColorMatrix in="SourceAlpha" type="matrix" values="0 0 0 0 0 0 0 0 0 0 0 0 0 0 0 0 0 0 127 0" result="hardAlpha"/>
<feOffset/>
<feGaussianBlur stdDeviation="3.9924"/>
<feColorMatrix type="matrix" values="0 0 0 0 0.12549 0 0 0 0 0.768627 0 0 0 0 0.811765 0 0 0 1 0"/>
<feBlend mode="normal" in2="effect1_dropShadow_9_391" result="effect2_dropShadow_9_391"/>
<feColorMatrix in="SourceAlpha" type="matrix" values="0 0 0 0 0 0 0 0 0 0 0 0 0 0 0 0 0 0 127 0" result="hardAlpha"/>
<feOffset/>
<feGaussianBlur stdDeviation="13.9734"/>
<feColorMatrix type="matrix" values="0 0 0 0 0.12549 0 0 0 0 0.768627 0 0 0 0 0.811765 0 0 0 1 0"/>
<feBlend mode="normal" in2="effect2_dropShadow_9_391" result="effect3_dropShadow_9_391"/>
<feColorMatrix in="SourceAlpha" type="matrix" values="0 0 0 0 0 0 0 0 0 0 0 0 0 0 0 0 0 0 127 0" result="hardAlpha"/>
<feOffset/>
<feGaussianBlur stdDeviation="27.9468"/>
<feColorMatrix type="matrix" values="0 0 0 0 0.12549 0 0 0 0 0.768627 0 0 0 0 0.811765 0 0 0 1 0"/>
<feBlend mode="normal" in2="effect3_dropShadow_9_391" result="effect4_dropShadow_9_391"/>
<feColorMatrix in="SourceAlpha" type="matrix" values="0 0 0 0 0 0 0 0 0 0 0 0 0 0 0 0 0 0 127 0" result="hardAlpha"/>
<feOffset/>
<feGaussianBlur stdDeviation="47.9088"/>
<feColorMatrix type="matrix" values="0 0 0 0 0.12549 0 0 0 0 0.768627 0 0 0 0 0.811765 0 0 0 1 0"/>
<feBlend mode="normal" in2="effect4_dropShadow_9_391" result="effect5_dropShadow_9_391"/>
<feColorMatrix in="SourceAlpha" type="matrix" values="0 0 0 0 0 0 0 0 0 0 0 0 0 0 0 0 0 0 127 0" result="hardAlpha"/>
<feOffset/>
<feGaussianBlur stdDeviation="83.8404"/>
<feColorMatrix type="matrix" values="0 0 0 0 0.12549 0 0 0 0 0.768627 0 0 0 0 0.811765 0 0 0 1 0"/>
<feBlend mode="normal" in2="effect5_dropShadow_9_391" result="effect6_dropShadow_9_391"/>
<feBlend mode="normal" in="SourceGraphic" in2="effect6_dropShadow_9_391" result="shape"/>
</filter>
<filter id="filter2_f_9_391" x="-100.837" y="74.811" width="1087.95" height="1097.23" filterUnits="userSpaceOnUse" color-interpolation-filters="sRGB">
<feFlood flood-opacity="0" result="BackgroundImageFix"/>
<feBlend mode="normal" in="SourceGraphic" in2="BackgroundImageFix" result="shape"/>
<feGaussianBlur stdDeviation="100" result="effect1_foregroundBlur_9_391"/>
</filter>
<radialGradient id="paint0_radial_9_391" cx="0" cy="0" r="1" gradientUnits="userSpaceOnUse" gradientTransform="translate(500.5 500.045) rotate(90) scale(470.754)">
<stop stop-color="#D9D9D9"/>
<stop offset="1" stop-color="#D9D9D9" stop-opacity="0"/>
</radialGradient>
<radialGradient id="paint1_radial_9_391" cx="0" cy="0" r="1" gradientUnits="userSpaceOnUse" gradientTransform="translate(58.4145 683.241) rotate(-22.8079) scale(894.491 8087.17)">
<stop offset="0.104167" stop-color="#3A78B1"/>
<stop offset="0.520341" stop-color="#4FC1C0"/>
<stop offset="1" stop-color="#8CF2FD"/>
</radialGradient>
<radialGradient id="paint2_radial_9_391" cx="0" cy="0" r="1" gradientUnits="userSpaceOnUse" gradientTransform="translate(58.4145 683.241) rotate(-22.8079) scale(894.491 8087.17)">
<stop offset="0.104167" stop-color="#3A78B1"/>
<stop offset="0.520341" stop-color="#4FC1C0"/>
<stop offset="1" stop-color="#8CF2FD"/>
</radialGradient>
<radialGradient id="paint3_radial_9_391" cx="0" cy="0" r="1" gradientUnits="userSpaceOnUse" gradientTransform="translate(58.4145 683.241) rotate(-22.8079) scale(894.491 8087.17)">
<stop offset="0.104167" stop-color="#3A78B1"/>
<stop offset="0.520341" stop-color="#4FC1C0"/>
<stop offset="1" stop-color="#8CF2FD"/>
</radialGradient>
<radialGradient id="paint4_radial_9_391" cx="0" cy="0" r="1" gradientUnits="userSpaceOnUse" gradientTransform="translate(58.4145 683.241) rotate(-22.8079) scale(894.491 8087.17)">
<stop offset="0.104167" stop-color="#3A78B1"/>
<stop offset="0.520341" stop-color="#4FC1C0"/>
<stop offset="1" stop-color="#8CF2FD"/>
</radialGradient>
<radialGradient id="paint5_radial_9_391" cx="0" cy="0" r="1" gradientUnits="userSpaceOnUse" gradientTransform="translate(58.4145 683.241) rotate(-22.8079) scale(894.491 8087.17)">
<stop offset="0.104167" stop-color="#3A78B1"/>
<stop offset="0.520341" stop-color="#4FC1C0"/>
<stop offset="1" stop-color="#8CF2FD"/>
</radialGradient>
<radialGradient id="paint6_radial_9_391" cx="0" cy="0" r="1" gradientUnits="userSpaceOnUse" gradientTransform="translate(58.4145 683.241) rotate(-22.8079) scale(894.491 8087.17)">
<stop offset="0.104167" stop-color="#3A78B1"/>
<stop offset="0.520341" stop-color="#4FC1C0"/>
<stop offset="1" stop-color="#8CF2FD"/>
</radialGradient>
<radialGradient id="paint7_radial_9_391" cx="0" cy="0" r="1" gradientUnits="userSpaceOnUse" gradientTransform="translate(58.4145 683.241) rotate(-22.8079) scale(894.491 8087.17)">
<stop offset="0.104167" stop-color="#3A78B1"/>
<stop offset="0.520341" stop-color="#4FC1C0"/>
<stop offset="1" stop-color="#8CF2FD"/>
</radialGradient>
<radialGradient id="paint8_radial_9_391" cx="0" cy="0" r="1" gradientUnits="userSpaceOnUse" gradientTransform="translate(58.4145 683.241) rotate(-22.8079) scale(894.491 8087.17)">
<stop offset="0.104167" stop-color="#3A78B1"/>
<stop offset="0.520341" stop-color="#4FC1C0"/>
<stop offset="1" stop-color="#8CF2FD"/>
</radialGradient>
<radialGradient id="paint9_radial_9_391" cx="0" cy="0" r="1" gradientUnits="userSpaceOnUse" gradientTransform="translate(58.4145 683.241) rotate(-22.8079) scale(894.491 8087.17)">
<stop offset="0.104167" stop-color="#3A78B1"/>
<stop offset="0.520341" stop-color="#4FC1C0"/>
<stop offset="1" stop-color="#8CF2FD"/>
</radialGradient>
<radialGradient id="paint10_radial_9_391" cx="0" cy="0" r="1" gradientUnits="userSpaceOnUse" gradientTransform="translate(58.4145 683.241) rotate(-22.8079) scale(894.491 8087.17)">
<stop offset="0.104167" stop-color="#3A78B1"/>
<stop offset="0.520341" stop-color="#4FC1C0"/>
<stop offset="1" stop-color="#8CF2FD"/>
</radialGradient>
<radialGradient id="paint11_radial_9_391" cx="0" cy="0" r="1" gradientUnits="userSpaceOnUse" gradientTransform="translate(58.4145 683.241) rotate(-22.8079) scale(894.491 8087.17)">
<stop offset="0.104167" stop-color="#3A78B1"/>
<stop offset="0.520341" stop-color="#4FC1C0"/>
<stop offset="1" stop-color="#8CF2FD"/>
</radialGradient>
<radialGradient id="paint12_radial_9_391" cx="0" cy="0" r="1" gradientUnits="userSpaceOnUse" gradientTransform="translate(-263.435 716.803) rotate(-14.7661) scale(1105.98 9999.3)">
<stop offset="0.104167" stop-color="#3A78B1"/>
<stop offset="0.520341" stop-color="#4FC1C0"/>
<stop offset="1" stop-color="#8CF2FD"/>
</radialGradient>
<radialGradient id="paint13_radial_9_391" cx="0" cy="0" r="1" gradientUnits="userSpaceOnUse" gradientTransform="translate(397.632 1020.2) rotate(-111.685) scale(840.732 968.182)">
<stop offset="0.09375" stop-color="#E2FFEA"/>
<stop offset="0.244792" stop-color="#5DE2C2"/>
<stop offset="0.432292" stop-color="#00F0FF"/>
<stop offset="0.734375" stop-color="#FF2C2C"/>
<stop offset="1" stop-color="#F319A9"/>
</radialGradient>
<clipPath id="clip0_9_391">
<rect width="1000" height="1000" fill="white" transform="translate(0.5 0.0449219)"/>
</clipPath>
</defs>
</svg>
