<svg width="100" height="100" viewBox="0 0 100 100" fill="none" xmlns="http://www.w3.org/2000/svg">
<path d="M90.0997 62.3676C90.0997 76.6684 72.6412 82.4803 50.9497 82.4803C29.2582 82.4803 11.5481 76.6684 11.5481 62.3676C11.5481 48.0668 29.1438 36.4888 50.8124 36.4888C72.5039 36.4888 90.0997 48.0897 90.0997 62.3676Z" fill="#4BAF74"/>
<path d="M86.0937 31.1799C86.0937 23.652 79.9386 17.5198 72.3649 17.5198C68.0861 17.5198 64.2878 19.4647 61.7708 22.5079C58.3386 21.7528 54.6776 21.3181 50.9022 21.3181C47.1039 21.3181 43.4658 21.7299 40.0336 22.5079C37.4938 19.4647 33.6726 17.5198 29.4395 17.5198C21.8658 17.5198 15.7107 23.6291 15.7107 31.1799C15.7107 33.6511 16.3743 35.9621 17.5184 37.9528C16.4201 40.2867 15.848 42.7579 15.848 45.3435C15.848 58.6146 31.5675 69.3689 50.9251 69.3689C70.2827 69.3689 86.0022 58.6146 86.0022 45.3435C86.0022 42.7579 85.4073 40.2867 84.3318 37.9528C85.4302 35.9621 86.0937 33.6511 86.0937 31.1799Z" fill="#32DA6D"/>
<path d="M28.3197 38.7541C32.9417 38.7541 36.7171 35.0244 36.7171 30.4024C36.7171 25.8032 32.9646 22.0507 28.3197 22.0507C23.6976 22.0507 19.9222 25.7804 19.9222 30.4024C19.9451 35.0244 23.6976 38.7541 28.3197 38.7541Z" fill="#F1F1E8"/>
<path d="M73.0755 38.7541C77.6976 38.7541 81.473 35.0244 81.473 30.4024C81.473 25.8032 77.7204 22.0507 73.0755 22.0507C68.4306 22.0507 64.6781 25.7804 64.6781 30.4024C64.6781 35.0244 68.4306 38.7541 73.0755 38.7541Z" fill="#F1F1E8"/>
<path d="M23.8581 81.4959C25.6658 81.4959 27.0844 79.94 26.8785 78.1552C26.1463 71.8858 23.0115 58.3171 9.25984 50.1485C-9.04522 39.2798 5.43866 76.6908 5.43866 76.6908L1.64036 78.8646C0.359003 79.5968 0.908153 81.4959 2.34968 81.4959H23.8581Z" fill="#32DA6D"/>
<path d="M78.4741 81.4959C76.8495 81.4959 75.5682 79.94 75.7512 78.1552C76.3919 71.9086 79.2292 58.3171 91.6309 50.1485C108.174 39.2798 95.0859 76.6908 95.0859 76.6908L98.5181 78.8646C99.6622 79.5968 99.1817 81.4959 97.8775 81.4959H78.4741Z" fill="#32DA6D"/>
<path d="M28.3208 34.5293C30.6218 34.5293 32.4876 32.6636 32.4876 30.4247C32.4876 28.1237 30.6218 26.3202 28.3208 26.3202C26.0198 26.3202 24.1541 28.1859 24.1541 30.4247C24.2163 32.6636 26.082 34.5293 28.3208 34.5293Z" fill="#0D0D0D"/>
<path d="M73.0767 34.5069C75.3777 34.5069 77.2434 32.6412 77.2434 30.4024C77.2434 28.1013 75.3777 26.2978 73.0767 26.2978C70.7756 26.2978 68.9099 28.1635 68.9099 30.4024C68.9099 32.6412 70.7756 34.5069 73.0767 34.5069Z" fill="#0D0D0D"/>
</svg>
