<svg width="100" height="96" viewBox="0 0 100 96" fill="none" xmlns="http://www.w3.org/2000/svg">
<path d="M95.0376 0.000366211L55.9977 30.0003L63.2377 12.3203L95.0376 0.000366211Z" fill="#E17726"/>
<path d="M4.96012 0.000366211L43.68 30.2803L36.76 12.3203L4.96012 0.000366211Z" fill="#E27625"/>
<path d="M80.9973 69.5601L70.5973 86.04L92.8372 92.4L99.2372 69.9201L80.9973 69.5601Z" fill="#E27625"/>
<path d="M0.801595 69.9201L7.16158 92.4L29.3615 86.04L19.0015 69.5601L0.801595 69.9201Z" fill="#E27625"/>
<path d="M28.1611 41.7205L22.0011 51.4004L44.0011 52.4404L43.2811 27.8405L28.1611 41.7205Z" fill="#E27625"/>
<path d="M71.8377 41.7197L56.4777 27.5598L55.9977 52.4397L77.9977 51.3997L71.8377 41.7197Z" fill="#E27625"/>
<path d="M29.3615 86.04L42.6779 79.3609L31.1979 70.0809L29.3615 86.04Z" fill="#E27625"/>
<path d="M57.3201 79.3609L70.5973 86.04L68.8001 70.0809L57.3201 79.3609Z" fill="#E27625"/>
<path d="M70.5973 86.04L57.3201 79.3609L58.4001 88.3203L58.2801 92.1203L70.5973 86.04Z" fill="#D5BFB2"/>
<path d="M29.3615 86.04L41.7179 92.1203L41.6379 88.3203L42.6779 79.3609L29.3615 86.04Z" fill="#D5BFB2"/>
<path d="M29.3615 86.04L31.3182 69.5601L18.9982 69.9201L29.3615 86.04Z" fill="#CC6228"/>
<path d="M68.6808 69.5601L70.5973 86.04L81.0008 69.9201L68.6808 69.5601Z" fill="#CC6228"/>
<path d="M77.9977 51.3997L55.9977 52.4397L58.0377 64.1601L61.2777 57.0801L69.1177 60.8001L77.9977 51.3997Z" fill="#CC6228"/>
<path d="M30.9211 60.8001L38.7211 57.0801L41.9611 64.1601L44.0011 52.4404L22.0011 51.4004L30.9211 60.8001Z" fill="#CC6228"/>
<path d="M22.0011 51.4004L31.1979 70.0809L30.9211 60.8001L22.0011 51.4004Z" fill="#E27525"/>
<path d="M69.1177 60.8001L68.8001 70.0809L77.9977 51.3997L69.1177 60.8001Z" fill="#E27525"/>
<path d="M44.0011 52.4404L41.9611 64.1601L44.5596 77.9996L45.1196 59.7597L44.0011 52.4404Z" fill="#E27525"/>
<path d="M55.9977 52.4397L54.9194 59.7197L55.4394 77.9996L58.0377 64.1601L55.9977 52.4397Z" fill="#E27525"/>
<path d="M58.0377 64.1601L55.4394 77.9996L57.3201 79.3609L68.8001 70.0809L69.1177 60.8001L58.0377 64.1601Z" fill="#F5841F"/>
<path d="M30.9211 60.8001L31.1979 70.0809L42.6779 79.3609L44.5596 77.9996L41.9611 64.1601L30.9211 60.8001Z" fill="#F5841F"/>
<path d="M58.2801 92.1203L58.4001 88.3203L57.3578 87.4396H42.6379L41.6379 88.3203L41.7179 92.1203L29.3615 86.04L33.6779 89.7196L42.4779 95.9995H57.4778L66.3178 89.7196L70.5973 86.04L58.2801 92.1203Z" fill="#C0AC9D"/>
<path d="M57.3201 79.3609L55.4394 77.9996H44.5596L42.6822 79.3592L41.6423 88.3192L42.6422 87.4392H57.3622L58.4001 88.3203L57.3201 79.3609Z" fill="#161616"/>
<path d="M96.72 31.9603L100 15.4003L95.0376 0.000366211L57.3201 29.0003L71.8377 41.7197L92.36 47.9202L96.88 42.4402L94.92 40.9602L98.04 38.0002L95.64 36.0803L98.76 33.6003L96.72 31.9603Z" fill="#763E1A"/>
<path d="M0 15.4003L3.32 31.9603L1.19999 33.6003L4.35999 36.0803L1.96 38.0002L5.07999 40.9602L3.11999 42.4402L7.63998 47.9202L28.1611 41.7205L42.6799 29.0003L4.96012 0.000366211L0 15.4003Z" fill="#763E1A"/>
<path d="M92.36 47.9202L71.8377 41.7197L77.9977 51.3997L68.8001 70.0809L81.0008 69.9201H99.2372L92.36 47.9202Z" fill="#F5841F"/>
<path d="M28.1611 41.7205L7.63998 47.9202L0.801595 69.9201H18.9982L31.1979 70.0809L22.0011 51.4004L28.1611 41.7205Z" fill="#F5841F"/>
<path d="M55.9977 52.4397L57.3201 29.0003L63.2377 12.3203H36.76L42.6799 29.0003L44.0011 52.4404L44.5194 59.8012L44.5596 77.9996H55.4394L55.4794 59.8012L55.9977 52.4397Z" fill="#F5841F"/>
<path d="M41.9611 64.1601L30.9211 60.8001L38.7211 57.0801L41.9611 64.1601Z" fill="#233447"/>
<path d="M58.0377 64.1601L61.2777 57.0801L69.1177 60.8001L58.0377 64.1601Z" fill="#233447"/>
</svg>
