<svg width="100" height="100" viewBox="0 0 100 100" fill="none" xmlns="http://www.w3.org/2000/svg">
<path d="M0 20.8333C0 9.3274 9.3274 0 20.8333 0H79.1667C90.6726 0 100 9.3274 100 20.8333V79.1667C100 90.6726 90.6726 100 79.1667 100H20.8333C9.3274 100 0 90.6726 0 79.1667V20.8333Z" fill="url(#paint0_linear_769_1982)"/>
<path d="M98.2538 87.5268C95.0328 94.8703 87.6984 99.9997 79.1659 99.9997H20.8325C14.3513 99.9997 8.56138 97.0401 4.7404 92.3987C6.0249 88.8083 9.24086 86.058 13.2837 85.5616L86.4151 76.5822C92.1252 75.8811 97.3225 79.9417 98.0236 85.6518L98.2538 87.5268Z" fill="white"/>
<path d="M97.5055 89.0555C93.9843 95.5721 87.0914 99.9992 79.1645 99.9992H20.8312C12.9043 99.9992 6.01144 95.5721 2.49023 89.0555C3.99402 87.5775 6.05615 86.6658 8.33121 86.6658H91.6645C93.9396 86.6658 96.0017 87.5775 97.5055 89.0555Z" fill="#CDF5ED"/>
<path fill-rule="evenodd" clip-rule="evenodd" d="M57.6904 16.6667L22.0022 28.298L46.1362 38.9227L81.7138 27.2247L57.6904 16.6667ZM20.8333 29.3362L45.1854 39.8942V83.3332L20.8333 72.7752V29.3362ZM57.0323 63.1223V36.543L82.3717 28.1963V72.172L57.0323 63.1223Z" fill="white" fill-opacity="0.2"/>
<path d="M15.4175 27.9175C15.4175 26.7669 14.4847 25.8341 13.3341 25.8341C12.1836 25.8341 11.2508 26.7669 11.2508 27.9175V54.1675C11.2508 59.9205 15.9145 64.5842 21.6675 64.5842H30.0008C35.7538 64.5842 40.4175 59.9205 40.4175 54.1675V41.6675C40.4175 40.5169 39.4847 39.5842 38.3341 39.5842C37.1836 39.5842 36.2508 40.5169 36.2508 41.6675V54.1675C36.2508 57.6193 33.4526 60.4175 30.0008 60.4175H21.6675C18.2157 60.4175 15.4175 57.6193 15.4175 54.1675V27.9175Z" fill="white"/>
<path d="M38.3344 37.0842C40.1754 37.0842 41.6678 35.5918 41.6678 33.7508C41.6678 31.9099 40.1754 30.4175 38.3344 30.4175C36.4935 30.4175 35.0011 31.9099 35.0011 33.7508C35.0011 35.5918 36.4935 37.0842 38.3344 37.0842Z" fill="white"/>
<path d="M44.5841 50.8343C44.5841 45.0813 49.2478 40.4176 55.0008 40.4176C60.7538 40.4176 65.4175 45.0813 65.4175 50.8343V62.5009C65.4175 63.6515 64.4847 64.5843 63.3341 64.5843C62.1836 64.5843 61.2508 63.6515 61.2508 62.5009V50.8343C61.2508 47.3825 58.4526 44.5843 55.0008 44.5843C51.549 44.5843 48.7508 47.3825 48.7508 50.8343V62.5009C48.7508 63.6515 47.8181 64.5843 46.6675 64.5843C45.5169 64.5843 44.5841 63.6515 44.5841 62.5009V50.8343Z" fill="white"/>
<path d="M80.8344 44.5843C76.4621 44.5843 72.9177 48.1287 72.9177 52.5009C72.9177 56.8732 76.4621 60.4176 80.8344 60.4176C82.8633 60.4176 84.7096 59.6571 86.1116 58.4023C86.969 57.6349 88.286 57.7079 89.0534 58.5652C89.8207 59.4226 89.7478 60.7397 88.8904 61.507C86.754 63.4191 83.9278 64.5843 80.8344 64.5843C74.1609 64.5843 68.751 59.1744 68.751 52.5009C68.751 45.8275 74.1609 40.4176 80.8344 40.4176C87.5078 40.4176 92.9177 45.8275 92.9177 52.5009C92.9177 53.3526 92.4066 54.085 91.6744 54.408C91.4174 54.5213 91.1332 54.5843 90.8344 54.5843L90.8243 54.5842H83.7509C82.6003 54.5842 81.6676 53.6515 81.6676 52.5009C81.6676 51.3503 82.6003 50.4176 83.7509 50.4176H88.474C87.5595 47.0561 84.4856 44.5843 80.8344 44.5843Z" fill="white"/>
<defs>
<linearGradient id="paint0_linear_769_1982" x1="50" y1="0" x2="50" y2="100" gradientUnits="userSpaceOnUse">
<stop stop-color="#09CCAC"/>
<stop offset="1" stop-color="#8BDDCF"/>
</linearGradient>
</defs>
</svg>
