<svg width="100" height="100" viewBox="0 0 100 100" fill="none" xmlns="http://www.w3.org/2000/svg">
<path d="M0 20.8333C0 9.3274 9.3274 0 20.8333 0H79.1667C90.6726 0 100 9.3274 100 20.8333V79.1667C100 90.6726 90.6726 100 79.1667 100H20.8333C9.3274 100 0 90.6726 0 79.1667V20.8333Z" fill="url(#paint0_linear_769_1442)"/>
<path fill-rule="evenodd" clip-rule="evenodd" d="M38.4656 25C39.031 25.0766 39.5952 25.1623 40.1617 25.2286C46.6055 25.9833 51.9302 28.8627 56.1761 33.7436C59.1495 37.1615 61.0237 41.1362 61.772 45.5974C62.7172 51.2329 61.88 56.6165 59.1854 61.6783C58.4058 63.1429 56.8252 63.9823 55.3189 63.7985C53.6284 63.5923 52.318 62.465 51.9023 60.8292C51.6377 59.7884 51.814 58.805 52.3191 57.8592C53.6727 55.3251 54.35 52.6044 54.3065 49.7414C54.1779 41.3018 48.1103 34.6619 40.5096 33.2179C32.7436 31.7423 25.3077 35.79 22.096 42.4633C20.695 45.3746 20.1626 48.4581 20.5028 51.6898C20.8526 55.0131 22.0724 57.9764 24.1739 60.554C26.8158 63.7945 30.2058 65.8055 34.3264 66.5848C36.249 66.9484 38.1856 66.8719 40.1199 66.8731C51.9744 66.8805 63.8288 66.8778 75.683 66.8737C77.4308 66.8731 78.9955 65.6719 79.4858 63.9842C80.2329 61.4129 78.3321 58.8542 75.6523 58.8242C73.6955 58.8021 71.9838 57.3596 71.7368 55.5242C71.4592 53.4608 72.6334 51.6054 74.5871 51.1027C75.1885 50.948 75.8342 50.9729 76.4445 50.8437C78.0574 50.5022 79.3329 49.1939 79.5793 47.6841C79.859 45.971 79.1532 44.36 77.7408 43.4881C76.2946 42.5951 74.5432 42.6505 73.1811 43.7059C72.1219 44.5266 70.958 44.8082 69.6808 44.5004C68.1399 44.129 67.1393 43.1132 66.8138 41.5796C66.4892 40.0502 66.8885 38.6712 68.1558 37.6545C70.0122 36.1652 72.1261 35.3238 74.5026 35.0787C77.623 34.757 80.4015 35.5816 82.8679 37.4719C85.4679 39.4648 86.9462 42.1345 87.373 45.3698C87.8239 48.7871 86.9125 51.8381 84.7465 54.5084C84.5116 54.798 84.5058 54.9631 84.7453 55.2533C86.8176 57.7646 87.7364 60.6757 87.4483 63.9005C86.9718 69.2347 83.1435 73.3574 78.2033 74.4492C77.3227 74.6438 76.403 74.7453 75.501 74.7465C62.652 74.7652 49.8027 74.7968 36.9538 74.7422C31.1618 74.7176 25.9904 72.8034 21.5191 69.0893C17.1813 65.4857 14.3595 60.9293 13.0983 55.4245C12.4452 52.5738 12.343 49.6966 12.7128 46.7887C13.2828 42.3081 14.9091 38.2647 17.6883 34.7202C21.6433 29.6758 26.7712 26.5267 33.1102 25.4303C33.9707 25.2815 34.8479 25.2301 35.7162 25.1246C35.8728 25.1057 36.0239 25.0426 36.1776 25H38.4656Z" fill="white"/>
<path d="M41.6667 60.4167C41.6667 69.6214 34.2047 77.0833 25 77.0833C15.7953 77.0833 8.33333 69.6214 8.33333 60.4167C8.33333 51.2119 15.7953 43.75 25 43.75C34.2047 43.75 41.6667 51.2119 41.6667 60.4167Z" fill="white" fill-opacity="0.2"/>
<path d="M87.0841 36.4579C87.0841 39.5645 84.5658 42.0829 81.4591 42.0829C78.3525 42.0829 75.8341 39.5645 75.8341 36.4579C75.8341 33.3513 78.3525 30.8329 81.4591 30.8329C84.5658 30.8329 87.0841 33.3513 87.0841 36.4579Z" fill="white" fill-opacity="0.2"/>
<defs>
<linearGradient id="paint0_linear_769_1442" x1="50" y1="0" x2="50" y2="100" gradientUnits="userSpaceOnUse">
<stop stop-color="#09B5C7"/>
<stop offset="1" stop-color="#00AA8D"/>
</linearGradient>
</defs>
</svg>
