<svg width="100" height="100" viewBox="0 0 100 100" fill="none" xmlns="http://www.w3.org/2000/svg">
<path d="M7.80567 25.9103C11.1957 19.2602 18.2917 15.9682 23.7957 18.5132L24.0788 18.6502L36.5658 25.0503C39.3278 24.2593 42.2808 24.4613 44.9099 25.6203L45.3009 25.8003L53.8189 30.0843L78.937 42.8124C83.4251 45.1034 85.8151 50.0124 85.7801 55.4894L85.7741 55.8114L90.2621 57.9724L82.5181 73.2535L77.982 70.9565C73.709 74.3665 68.33 75.4415 63.802 73.3115L63.463 73.1455L29.9718 56.2064C29.9258 56.2264 29.8718 56.2264 29.8258 56.2064C27.2658 54.9084 25.2588 52.7304 24.1728 50.0734L24.0308 49.7084L11.7507 43.4294C11.7107 43.3814 11.6567 43.3454 11.5967 43.3274L11.5567 43.3204C6.01466 40.5253 4.35565 32.6733 7.80567 25.9103Z" fill="#2845AE"/>
<path d="M13.8551 69.6131L35.2582 81.0462L21.6341 94.9723C21.4571 95.1903 21.1541 95.2653 20.8961 95.1543H20.8361L0.376002 84.6872C0.145001 84.5632 0 84.3212 0 84.0582C0 83.9022 0.0510002 83.7492 0.146001 83.6252L13.8551 69.6131ZM31.8082 51.733L31.9072 51.766L52.4013 62.2321C52.7173 62.3791 52.8673 62.7501 52.7413 63.0751L52.6913 63.1751C52.6723 63.2251 52.6433 63.2701 52.6073 63.3091V63.3821L36.7572 79.5942L15.2931 68.1491L31.1682 51.947C31.3212 51.758 31.5712 51.675 31.8082 51.733ZM90.3585 58.1431C93.0925 59.5221 93.5155 64.0471 91.3745 68.2821C89.2325 72.5162 85.3244 74.8272 82.5904 73.4482C79.8554 72.0682 79.4324 67.5441 81.5734 63.3081C83.7154 59.0861 87.6245 56.7631 90.3585 58.1431ZM32.8612 24.2409C34.1062 24.2279 35.3412 24.4659 36.4912 24.9429C35.4912 25.2229 34.5232 25.6039 33.5992 26.0799L33.2852 26.2369H32.8372C28.8932 26.2369 24.8031 29.1889 22.6131 33.4239C20.2661 38.07 20.5571 43.212 23.1091 46.261C23.2931 47.418 23.5931 48.553 24.0051 49.649C18.9841 46.6 17.5921 39.111 20.9441 32.5289C23.4841 27.3869 28.2761 24.2409 32.8612 24.2409ZM62.5163 21.1429L83.9334 32.5769L75.5964 41.119L53.8189 30.0843L62.5163 21.1429ZM78.8854 4.8128L78.9854 4.8458L99.5895 15.3119C99.9395 15.4789 100.096 15.8999 99.9395 16.2549C99.9215 16.2979 99.8965 16.3379 99.8675 16.3739L85.4214 31.0769L63.9693 19.6549L78.2464 5.0268C78.3774 4.8658 78.5794 4.7798 78.7854 4.7968L78.8854 4.8128Z" fill="#5493F7"/>
</svg>
