<svg width="100" height="100" viewBox="0 0 100 100" fill="none" xmlns="http://www.w3.org/2000/svg">
<path fill-rule="evenodd" clip-rule="evenodd" d="M46.8815 1.12153C48.672 -0.373867 51.276 -0.37384 53.0664 1.12159C66.1798 12.0743 81.1325 11.9895 86.9202 11.9567C87.2091 11.9551 87.4751 11.9536 87.717 11.9536C89.009 11.9536 90.2471 12.4719 91.1538 13.3923C92.0605 14.3128 92.5601 15.5586 92.5406 16.8505C92.2667 35.0023 91.5391 47.9577 90.1113 57.4527C88.6844 66.9418 86.4966 73.4453 82.971 78.345C79.4204 83.2794 74.8571 86.081 69.9982 88.7663C69.1563 89.2316 68.2978 89.6973 67.4191 90.1739C63.1539 92.4875 58.413 95.0591 52.7859 99.0957C51.1051 100.301 48.8428 100.301 47.1621 99.0958C41.5403 95.0631 36.8057 92.4928 32.547 90.1809C31.664 89.7015 30.8014 89.2332 29.9556 88.7653C25.1004 86.0793 20.5431 83.2768 16.9995 78.3407C13.4818 73.4407 11.3016 66.9375 9.8801 57.4502C8.45764 47.9562 7.73343 35.0018 7.45953 16.8505C7.44004 15.5586 7.9396 14.3128 8.8463 13.3923C9.75301 12.4719 10.9911 11.9536 12.2831 11.9536C12.5222 11.9536 12.7856 11.9551 13.0718 11.9567C18.812 11.9896 33.7666 12.0751 46.8815 1.12153ZM17.1939 21.5717C17.5177 37.0428 18.222 48.0122 19.4219 56.0206C20.7449 64.8509 22.6089 69.6101 24.8372 72.7141C27.0396 75.7819 29.9301 77.725 34.6261 80.3229C35.391 80.746 36.1977 81.1835 37.0449 81.6429C40.6567 83.6015 45.004 85.9588 49.974 89.3024C54.9508 85.9545 59.3047 83.5955 62.9226 81.6352C63.7659 81.1782 64.5693 80.743 65.3313 80.3219C70.0333 77.7233 72.9308 75.7793 75.1394 72.7098C77.3731 69.6056 79.2428 64.8466 80.5703 56.0181C81.7744 48.0109 82.4818 37.0425 82.8061 21.5726C75.3794 21.3333 62.3001 19.7999 49.9739 10.9266C37.6624 19.7891 24.602 21.3295 17.1939 21.5717Z" fill="#3375BB"/>
</svg>
