<svg width="100" height="100" viewBox="0 0 100 100" fill="none" xmlns="http://www.w3.org/2000/svg">
<path d="M20.4721 31.3299C36.7799 15.3632 63.2202 15.3632 79.528 31.3299L81.4907 33.2515C82.3061 34.0499 82.3061 35.3442 81.4907 36.1426L74.7768 42.7161C74.3691 43.1152 73.7081 43.1152 73.3004 42.7161L70.5995 40.0717C59.2227 28.9329 40.7774 28.9329 29.4006 40.0717L26.5082 42.9036C26.1005 43.3028 25.4395 43.3028 25.0318 42.9036L18.3179 36.3301C17.5025 35.5318 17.5025 34.2374 18.3179 33.4391L20.4721 31.3299ZM93.4131 44.9246L99.3885 50.775C100.204 51.5734 100.204 52.8677 99.3885 53.6661L72.445 80.0464C71.6296 80.8448 70.3076 80.8448 69.4922 80.0464C69.4922 80.0464 69.4921 80.0464 69.4921 80.0464L50.3693 61.3235C50.1654 61.1239 49.8349 61.1239 49.6311 61.3235C49.6311 61.3235 49.6311 61.3235 49.6311 61.3235L30.5086 80.0464C29.6932 80.8448 28.3712 80.8448 27.5558 80.0464C27.5558 80.0464 27.5558 80.0464 27.5558 80.0464L0.611544 53.6657C-0.203848 52.8674 -0.203848 51.573 0.611544 50.7747L6.58696 44.9243C7.40235 44.1259 8.72437 44.1259 9.53976 44.9243L28.6629 63.6474C28.8667 63.847 29.1973 63.847 29.4011 63.6474C29.4011 63.6474 29.4011 63.6474 29.4011 63.6474L48.5233 44.9243C49.3387 44.1259 50.6607 44.1259 51.4761 44.9242C51.4761 44.9242 51.4761 44.9242 51.4761 44.9242L70.5993 63.6474C70.8031 63.847 71.1336 63.847 71.3374 63.6474L90.4603 44.9246C91.2757 44.1263 92.5977 44.1263 93.4131 44.9246Z" fill="#3B99FC"/>
</svg>
