<svg width="100" height="100" viewBox="0 0 100 100" fill="none" xmlns="http://www.w3.org/2000/svg">
<path d="M46.0408 100C38.2742 99.3382 30.75 96.9634 24.0073 93.0459C17.2646 89.1284 11.4704 83.7652 7.04004 77.3406C3.80664 72.2589 1.57653 66.6029 0.470631 60.6793C0.104422 56.9701 -0.0482881 53.2429 0.013264 49.5162C-0.0373176 39.5805 2.85679 29.8533 8.32899 21.5668C9.99514 19.1066 11.9494 16.8552 14.15 14.8606C18.3422 10.7455 23.2263 7.40364 28.5778 4.98876C33.4497 2.6486 38.6527 1.07505 44.0034 0.323593C48.1501 -0.107864 52.3303 -0.107864 56.477 0.323593C66.2293 1.82947 75.3242 6.17507 82.63 12.8196C90.546 19.5412 96.2551 28.4977 99.0119 38.5197C99.7856 41.4526 100.108 44.4865 99.9682 47.5168C100.074 50.6101 99.7805 53.7042 99.0951 56.7222L98.5546 59.1381L96.8083 59.513C91.6173 60.5427 86.5046 61.9345 81.5073 63.6783C78.4721 64.8446 77.8484 65.0945 73.1916 67.0522C70.4297 68.3673 67.5651 69.4539 64.6264 70.3012C60.2341 71.6286 55.5656 71.7437 51.1134 70.6344C48.9097 69.9659 46.9201 68.729 45.3439 67.0476C43.7677 65.3662 42.6602 63.2994 42.1324 61.0542C41.8751 59.1365 41.9738 57.1877 42.4234 55.306C43.7884 51.1157 46.0762 47.2864 49.1176 44.1012L50.3234 42.8516C50.3234 42.8516 50.5729 44.4345 50.7392 46.2672C50.9055 48.1 51.1965 49.6828 51.1965 49.7244L52.5686 49.3079C56.7417 47.8077 61.253 47.5189 65.5827 48.4748C68.9903 49.3025 72.3381 50.3601 75.6032 51.6405C77.1 52.182 78.7216 52.7651 79.3037 52.8901C82.6137 53.3373 85.9829 52.9064 89.0746 51.6405C89.8231 51.3073 89.9062 51.2656 90.0725 50.4742C90.3222 48.7197 90.3222 46.9387 90.0725 45.1842V44.2262L86.9541 42.1435C68.5764 29.8975 53.0676 22.5665 39.9703 20.0673C36.7389 19.3339 33.428 19.012 30.1162 19.1093C30.1162 19.4841 30.1162 19.3592 30.1162 19.4425C32.2254 20.6923 34.4049 21.8188 36.644 22.8164L43.255 26.0654C42.3403 26.4402 41.384 26.7735 40.4277 27.065C36.8534 28.2001 33.3656 29.5922 29.9914 31.2304C27.8211 32.2316 25.7473 33.4307 23.7962 34.8125L26.8315 35.2291L29.8667 35.479L28.2036 37.2284C25.9583 39.561 24.6694 41.1022 21.4678 45.0176L18.8068 48.3499H21.1352C21.91 48.2863 22.6888 48.2863 23.4636 48.3499C23.4636 48.3499 22.4241 52.0154 21.0936 56.389C19.7631 60.7626 18.6821 64.3448 18.7652 64.3448L21.2183 63.8449C22.0443 63.5499 22.9206 63.4225 23.7962 63.47C23.7962 63.47 24.1289 67.0522 24.4199 71.3009C24.711 75.5495 24.9604 79.1733 24.9604 79.1733C25.7032 78.6503 26.4115 78.0799 27.0809 77.4656L29.3678 75.7578C29.3678 75.7578 31.322 78.5902 33.5256 82.0474C35.7293 85.5046 37.6835 88.3787 37.6835 88.3787C38.4257 87.7191 39.1076 86.9942 39.7208 86.2127C41.2177 84.4633 41.675 84.0051 41.7998 84.2134L43.5461 86.2961C44.3776 87.2957 45.8745 88.9619 46.8724 89.9616L48.6602 91.711H52.4439C57.4477 91.5344 62.4368 92.3556 67.1211 94.1269L68.618 94.6267L68.119 95.0016C64.672 97.4037 60.6882 98.92 56.5186 99.4169C54.7441 99.7198 52.953 99.9145 51.1549 100C49.076 100 46.7476 100 46.0408 100Z" fill="#29CCC4"/>
</svg>
