<svg width="121" height="128" viewBox="0 0 121 128" fill="none" xmlns="http://www.w3.org/2000/svg">
<g filter="url(#filter0_d_724_1730)">
<path fill-rule="evenodd" clip-rule="evenodd" d="M112.704 67.7519C112.704 44.7616 97.7844 25.2561 77.0991 18.3892C77.0678 19.7804 76.859 21.1278 76.4943 22.4095C95.2469 28.9393 108.704 46.774 108.704 67.7519C108.704 72.3749 108.051 76.8454 106.831 81.0758C108.118 81.5694 109.325 82.2246 110.428 83.0164C111.908 78.1895 112.704 73.0637 112.704 67.7519ZM60.7041 115.752C71.2951 115.752 81.0849 112.322 89.0232 106.512C89.9184 107.542 90.943 108.456 92.0718 109.229C83.3523 115.834 72.4858 119.752 60.7041 119.752C49.0904 119.752 38.3659 115.945 29.7107 109.51C30.8753 108.765 31.9371 107.874 32.8699 106.862C40.7205 112.459 50.3278 115.752 60.7041 115.752ZM12.7041 67.7519C12.7041 72.482 13.3883 77.0523 14.6631 81.3692C13.3912 81.9291 12.206 82.6498 11.1332 83.5056C9.5554 78.5363 8.7041 73.2435 8.7041 67.7519C8.7041 44.4683 24.0069 24.7589 45.1036 18.1326C45.1131 19.5251 45.3004 20.8755 45.644 22.1619C26.5116 28.4786 12.7041 46.5028 12.7041 67.7519Z" fill="#74E8E8"/>
</g>
<g filter="url(#filter1_dd_724_1730)">
<path d="M38.2378 72.6495C38.4588 72.6557 38.6807 72.6588 38.9032 72.6588C43.4797 72.6588 47.7494 71.345 51.3556 69.074C52.8319 76.6724 59.5222 82.4088 67.5523 82.4088C74.1244 82.4088 79.799 78.5665 82.4524 73.0057C82.6581 72.8969 82.8612 72.784 83.0616 72.6669C80.1618 82.2955 71.2261 89.3088 60.6523 89.3088C50.0722 89.3088 41.132 82.2871 38.2378 72.6495Z" fill="url(#paint0_radial_724_1730)"/>
<path d="M38.2378 72.6495C38.4588 72.6557 38.6807 72.6588 38.9032 72.6588C43.4797 72.6588 47.7494 71.345 51.3556 69.074C52.8319 76.6724 59.5222 82.4088 67.5523 82.4088C74.1244 82.4088 79.799 78.5665 82.4524 73.0057C82.6581 72.8969 82.8612 72.784 83.0616 72.6669C80.1618 82.2955 71.2261 89.3088 60.6523 89.3088C50.0722 89.3088 41.132 82.2871 38.2378 72.6495Z" fill="#04171E" fill-opacity="0.88"/>
<path d="M38.3496 73.0125C38.5335 73.0167 38.7179 73.0189 38.9028 73.0189C43.5069 73.0189 47.8005 71.6892 51.4204 69.3928C53.0195 76.8323 59.6345 82.4088 67.5519 82.4088C74.124 82.4088 79.7986 78.5665 82.4519 73.0057C82.6576 72.8969 82.8608 72.784 83.0612 72.6669C80.1614 82.2955 71.2257 89.3088 60.6519 89.3088C50.205 89.3088 41.3571 82.4629 38.3496 73.0125Z" fill="url(#paint1_radial_724_1730)"/>
<path d="M38.3496 73.0125C38.5335 73.0167 38.7179 73.0189 38.9028 73.0189C43.5069 73.0189 47.8005 71.6892 51.4204 69.3928C53.0195 76.8323 59.6345 82.4088 67.5519 82.4088C74.124 82.4088 79.7986 78.5665 82.4519 73.0057C82.6576 72.8969 82.8608 72.784 83.0612 72.6669C80.1614 82.2955 71.2257 89.3088 60.6519 89.3088C50.205 89.3088 41.3571 82.4629 38.3496 73.0125Z" fill="#04171E" fill-opacity="0.4"/>
<path d="M71.7226 81.8771C68.3955 84.6443 64.1185 86.3085 59.4528 86.3085C50.7436 86.3085 43.3888 80.5098 41.0386 72.5626C44.8063 72.2217 48.3163 70.9877 51.3552 69.074C52.8315 76.6724 59.5218 82.4088 67.5519 82.4088C68.9927 82.4088 70.3904 82.2241 71.7226 81.8771Z" fill="url(#paint2_linear_724_1730)" fill-opacity="0.64"/>
<path d="M79.8531 65.9087C79.8531 76.5126 71.257 85.1087 60.6531 85.1087C50.0493 85.1087 41.4531 76.5126 41.4531 65.9087C41.4531 55.3049 50.0493 46.7087 60.6531 46.7087C71.257 46.7087 79.8531 55.3049 79.8531 65.9087Z" fill="url(#paint3_radial_724_1730)"/>
<path d="M78.5767 62.3035C78.5767 69.7593 72.5325 75.8035 65.0767 75.8035C57.6208 75.8035 51.5767 69.7593 51.5767 62.3035C51.5767 54.8476 57.6208 48.8035 65.0767 48.8035C72.5325 48.8035 78.5767 54.8476 78.5767 62.3035Z" fill="url(#paint4_radial_724_1730)" fill-opacity="0.6"/>
<path d="M61.912 48.8277C61.6109 48.8116 61.3077 48.8035 61.0025 48.8035C58.1302 48.8035 55.4267 49.5262 53.064 50.7996C54.3276 50.5212 55.6406 50.3744 56.988 50.3744C58.3613 50.3744 59.6989 50.5269 60.985 50.8159L61.912 48.8277Z" fill="url(#paint5_linear_724_1730)" fill-opacity="0.64"/>
<path d="M63.0229 51.4017C70.0817 53.8891 75.1407 60.6173 75.1407 68.5271C75.1407 71.779 74.2856 74.8312 72.788 77.471C75.8573 74.4339 77.7589 70.2189 77.7589 65.5598C77.7589 57.3642 71.8751 50.5428 64.1011 49.0894L63.0229 51.4017Z" fill="url(#paint6_linear_724_1730)" fill-opacity="0.64"/>
<path d="M70.9136 82.1403C67.9456 84.0205 64.4265 85.109 60.6531 85.109C54.6729 85.109 49.3313 82.375 45.8101 78.0888C46.7808 78.2667 47.7812 78.3596 48.8033 78.3596C56.225 78.3596 62.5023 73.4595 64.5764 66.7181C65.2607 66.7783 65.9534 66.809 66.6534 66.809C71.4483 66.809 75.9064 65.3668 79.6175 62.8926C79.7725 63.8753 79.8531 64.8827 79.8531 65.909C79.8531 66.5461 79.822 67.1758 79.7614 67.797C78.6829 73.6217 75.447 78.6894 70.9136 82.1403Z" fill="url(#paint7_linear_724_1730)" fill-opacity="0.64"/>
<path d="M38.2437 72.6668C41.1432 82.2958 50.0791 89.3095 60.6532 89.3095C73.5269 89.3095 83.9724 78.9135 84.0527 66.0587C82.7684 66.0506 81.5087 65.939 80.2814 65.7319C77.3971 67.0031 74.2077 67.7089 70.8533 67.7089C69.6902 67.7089 68.5468 67.624 67.4292 67.4601C65.3574 74.2055 59.0783 79.1092 51.6538 79.1092C46.4765 79.1092 41.8561 76.7247 38.831 72.9939C38.6328 72.8888 38.437 72.7797 38.2437 72.6668Z" fill="url(#paint8_linear_724_1730)"/>
<path d="M84.0528 66.0791C80.6111 68.0699 76.6153 69.2093 72.3534 69.2093C71.5412 69.2093 70.7386 69.1679 69.9477 69.0871C68.4665 76.6793 61.7791 82.4093 53.7534 82.4093C47.1814 82.4093 41.5068 78.5669 38.8534 73.0061C38.6477 72.8974 38.4446 72.7844 38.2441 72.6674C41.1439 82.296 50.0797 89.3093 60.6534 89.3093C73.5202 89.3093 83.9615 78.9244 84.0528 66.0791Z" fill="url(#paint9_radial_724_1730)"/>
<path d="M82.3468 66.9741C80.9373 67.6408 79.4505 68.1708 77.9036 68.5471C77.703 70.2559 77.3173 71.9694 76.7343 73.6627C75.3131 77.7902 72.8939 81.2904 69.8394 83.9866C75.0624 81.4731 79.318 76.9543 81.3542 71.0408C81.8179 69.6942 82.1463 68.3337 82.3468 66.9741Z" fill="url(#paint10_linear_724_1730)" fill-opacity="0.64"/>
<path opacity="0.2" fill-rule="evenodd" clip-rule="evenodd" d="M67.4191 67.5003C67.4456 67.4649 67.4948 67.4583 67.5292 67.4855C68.3103 68.1052 69.1544 68.6517 70.0593 69.1154C70.0981 69.1353 70.1139 69.1839 70.0946 69.2239C70.0753 69.2639 70.0282 69.2802 69.9894 69.2603C69.0753 68.7919 68.2226 68.2397 67.4334 67.6137C67.3991 67.5865 67.3927 67.5357 67.4191 67.5003Z" fill="url(#paint11_linear_724_1730)"/>
</g>
<g filter="url(#filter2_dii_724_1730)">
<circle cx="61.103" cy="18.0225" r="10" fill="#63CADA"/>
<circle cx="61.103" cy="18.0225" r="10" fill="url(#paint12_radial_724_1730)" fill-opacity="0.8"/>
</g>
<g filter="url(#filter3_f_724_1730)">
<circle cx="62.9052" cy="19.3648" r="3.83333" transform="rotate(115.585 62.9052 19.3648)" fill="#8CF2FD"/>
</g>
<g filter="url(#filter4_dii_724_1730)">
<circle cx="21.103" cy="96.0205" r="10" fill="#63CADA"/>
<circle cx="21.103" cy="96.0205" r="10" fill="url(#paint13_radial_724_1730)" fill-opacity="0.8"/>
</g>
<g filter="url(#filter5_f_724_1730)">
<circle cx="22.9052" cy="97.3628" r="3.83333" transform="rotate(115.585 22.9052 97.3628)" fill="#8CF2FD"/>
</g>
<g filter="url(#filter6_dii_724_1730)">
<circle cx="101.104" cy="96.0205" r="10" fill="#63CADA"/>
<circle cx="101.104" cy="96.0205" r="10" fill="url(#paint14_radial_724_1730)" fill-opacity="0.8"/>
</g>
<g filter="url(#filter7_f_724_1730)">
<circle cx="102.906" cy="97.3628" r="3.83333" transform="rotate(115.585 102.906 97.3628)" fill="#8CF2FD"/>
</g>
<defs>
<filter id="filter0_d_724_1730" x="0.704102" y="10.1326" width="120" height="117.619" filterUnits="userSpaceOnUse" color-interpolation-filters="sRGB">
<feFlood flood-opacity="0" result="BackgroundImageFix"/>
<feColorMatrix in="SourceAlpha" type="matrix" values="0 0 0 0 0 0 0 0 0 0 0 0 0 0 0 0 0 0 127 0" result="hardAlpha"/>
<feOffset/>
<feGaussianBlur stdDeviation="4"/>
<feComposite in2="hardAlpha" operator="out"/>
<feColorMatrix type="matrix" values="0 0 0 0 0.411765 0 0 0 0 0.858824 0 0 0 0 0.862745 0 0 0 0.75 0"/>
<feBlend mode="normal" in2="BackgroundImageFix" result="effect1_dropShadow_724_1730"/>
<feBlend mode="normal" in="SourceGraphic" in2="effect1_dropShadow_724_1730" result="shape"/>
</filter>
<filter id="filter1_dd_724_1730" x="1.10303" y="8.00879" width="120" height="120" filterUnits="userSpaceOnUse" color-interpolation-filters="sRGB">
<feFlood flood-opacity="0" result="BackgroundImageFix"/>
<feColorMatrix in="SourceAlpha" type="matrix" values="0 0 0 0 0 0 0 0 0 0 0 0 0 0 0 0 0 0 127 0" result="hardAlpha"/>
<feOffset/>
<feGaussianBlur stdDeviation="7.07657"/>
<feColorMatrix type="matrix" values="0 0 0 0 0.0745098 0 0 0 0 0.47451 0 0 0 0 0.513726 0 0 0 1 0"/>
<feBlend mode="normal" in2="BackgroundImageFix" result="effect1_dropShadow_724_1730"/>
<feColorMatrix in="SourceAlpha" type="matrix" values="0 0 0 0 0 0 0 0 0 0 0 0 0 0 0 0 0 0 127 0" result="hardAlpha"/>
<feOffset/>
<feGaussianBlur stdDeviation="15"/>
<feColorMatrix type="matrix" values="0 0 0 0 0.0745098 0 0 0 0 0.47451 0 0 0 0 0.513726 0 0 0 1 0"/>
<feBlend mode="normal" in2="effect1_dropShadow_724_1730" result="effect2_dropShadow_724_1730"/>
<feBlend mode="normal" in="SourceGraphic" in2="effect2_dropShadow_724_1730" result="shape"/>
</filter>
<filter id="filter2_dii_724_1730" x="45.103" y="0.522461" width="35" height="35" filterUnits="userSpaceOnUse" color-interpolation-filters="sRGB">
<feFlood flood-opacity="0" result="BackgroundImageFix"/>
<feColorMatrix in="SourceAlpha" type="matrix" values="0 0 0 0 0 0 0 0 0 0 0 0 0 0 0 0 0 0 127 0" result="hardAlpha"/>
<feOffset dx="1.5"/>
<feGaussianBlur stdDeviation="3.75"/>
<feComposite in2="hardAlpha" operator="out"/>
<feColorMatrix type="matrix" values="0 0 0 0 0 0 0 0 0 0 0 0 0 0 0 0 0 0 0.25 0"/>
<feBlend mode="normal" in2="BackgroundImageFix" result="effect1_dropShadow_724_1730"/>
<feBlend mode="normal" in="SourceGraphic" in2="effect1_dropShadow_724_1730" result="shape"/>
<feColorMatrix in="SourceAlpha" type="matrix" values="0 0 0 0 0 0 0 0 0 0 0 0 0 0 0 0 0 0 127 0" result="hardAlpha"/>
<feOffset dx="-5"/>
<feGaussianBlur stdDeviation="3.75"/>
<feComposite in2="hardAlpha" operator="arithmetic" k2="-1" k3="1"/>
<feColorMatrix type="matrix" values="0 0 0 0 0 0 0 0 0 0 0 0 0 0 0 0 0 0 0.5 0"/>
<feBlend mode="normal" in2="shape" result="effect2_innerShadow_724_1730"/>
<feColorMatrix in="SourceAlpha" type="matrix" values="0 0 0 0 0 0 0 0 0 0 0 0 0 0 0 0 0 0 127 0" result="hardAlpha"/>
<feOffset dx="5" dy="-2.5"/>
<feGaussianBlur stdDeviation="3.75"/>
<feComposite in2="hardAlpha" operator="arithmetic" k2="-1" k3="1"/>
<feColorMatrix type="matrix" values="0 0 0 0 0 0 0 0 0 0 0 0 0 0 0 0 0 0 0.25 0"/>
<feBlend mode="normal" in2="effect2_innerShadow_724_1730" result="effect3_innerShadow_724_1730"/>
</filter>
<filter id="filter3_f_724_1730" x="48.889" y="5.3487" width="28.0321" height="28.0321" filterUnits="userSpaceOnUse" color-interpolation-filters="sRGB">
<feFlood flood-opacity="0" result="BackgroundImageFix"/>
<feBlend mode="normal" in="SourceGraphic" in2="BackgroundImageFix" result="shape"/>
<feGaussianBlur stdDeviation="5.09091" result="effect1_foregroundBlur_724_1730"/>
</filter>
<filter id="filter4_dii_724_1730" x="5.10303" y="78.5205" width="35" height="35" filterUnits="userSpaceOnUse" color-interpolation-filters="sRGB">
<feFlood flood-opacity="0" result="BackgroundImageFix"/>
<feColorMatrix in="SourceAlpha" type="matrix" values="0 0 0 0 0 0 0 0 0 0 0 0 0 0 0 0 0 0 127 0" result="hardAlpha"/>
<feOffset dx="1.5"/>
<feGaussianBlur stdDeviation="3.75"/>
<feComposite in2="hardAlpha" operator="out"/>
<feColorMatrix type="matrix" values="0 0 0 0 0 0 0 0 0 0 0 0 0 0 0 0 0 0 0.25 0"/>
<feBlend mode="normal" in2="BackgroundImageFix" result="effect1_dropShadow_724_1730"/>
<feBlend mode="normal" in="SourceGraphic" in2="effect1_dropShadow_724_1730" result="shape"/>
<feColorMatrix in="SourceAlpha" type="matrix" values="0 0 0 0 0 0 0 0 0 0 0 0 0 0 0 0 0 0 127 0" result="hardAlpha"/>
<feOffset dx="-5"/>
<feGaussianBlur stdDeviation="3.75"/>
<feComposite in2="hardAlpha" operator="arithmetic" k2="-1" k3="1"/>
<feColorMatrix type="matrix" values="0 0 0 0 0 0 0 0 0 0 0 0 0 0 0 0 0 0 0.5 0"/>
<feBlend mode="normal" in2="shape" result="effect2_innerShadow_724_1730"/>
<feColorMatrix in="SourceAlpha" type="matrix" values="0 0 0 0 0 0 0 0 0 0 0 0 0 0 0 0 0 0 127 0" result="hardAlpha"/>
<feOffset dx="5" dy="-2.5"/>
<feGaussianBlur stdDeviation="3.75"/>
<feComposite in2="hardAlpha" operator="arithmetic" k2="-1" k3="1"/>
<feColorMatrix type="matrix" values="0 0 0 0 0 0 0 0 0 0 0 0 0 0 0 0 0 0 0.25 0"/>
<feBlend mode="normal" in2="effect2_innerShadow_724_1730" result="effect3_innerShadow_724_1730"/>
</filter>
<filter id="filter5_f_724_1730" x="8.88898" y="83.3467" width="28.0321" height="28.0321" filterUnits="userSpaceOnUse" color-interpolation-filters="sRGB">
<feFlood flood-opacity="0" result="BackgroundImageFix"/>
<feBlend mode="normal" in="SourceGraphic" in2="BackgroundImageFix" result="shape"/>
<feGaussianBlur stdDeviation="5.09091" result="effect1_foregroundBlur_724_1730"/>
</filter>
<filter id="filter6_dii_724_1730" x="85.1035" y="78.5205" width="35" height="35" filterUnits="userSpaceOnUse" color-interpolation-filters="sRGB">
<feFlood flood-opacity="0" result="BackgroundImageFix"/>
<feColorMatrix in="SourceAlpha" type="matrix" values="0 0 0 0 0 0 0 0 0 0 0 0 0 0 0 0 0 0 127 0" result="hardAlpha"/>
<feOffset dx="1.5"/>
<feGaussianBlur stdDeviation="3.75"/>
<feComposite in2="hardAlpha" operator="out"/>
<feColorMatrix type="matrix" values="0 0 0 0 0 0 0 0 0 0 0 0 0 0 0 0 0 0 0.25 0"/>
<feBlend mode="normal" in2="BackgroundImageFix" result="effect1_dropShadow_724_1730"/>
<feBlend mode="normal" in="SourceGraphic" in2="effect1_dropShadow_724_1730" result="shape"/>
<feColorMatrix in="SourceAlpha" type="matrix" values="0 0 0 0 0 0 0 0 0 0 0 0 0 0 0 0 0 0 127 0" result="hardAlpha"/>
<feOffset dx="-5"/>
<feGaussianBlur stdDeviation="3.75"/>
<feComposite in2="hardAlpha" operator="arithmetic" k2="-1" k3="1"/>
<feColorMatrix type="matrix" values="0 0 0 0 0 0 0 0 0 0 0 0 0 0 0 0 0 0 0.5 0"/>
<feBlend mode="normal" in2="shape" result="effect2_innerShadow_724_1730"/>
<feColorMatrix in="SourceAlpha" type="matrix" values="0 0 0 0 0 0 0 0 0 0 0 0 0 0 0 0 0 0 127 0" result="hardAlpha"/>
<feOffset dx="5" dy="-2.5"/>
<feGaussianBlur stdDeviation="3.75"/>
<feComposite in2="hardAlpha" operator="arithmetic" k2="-1" k3="1"/>
<feColorMatrix type="matrix" values="0 0 0 0 0 0 0 0 0 0 0 0 0 0 0 0 0 0 0.25 0"/>
<feBlend mode="normal" in2="effect2_innerShadow_724_1730" result="effect3_innerShadow_724_1730"/>
</filter>
<filter id="filter7_f_724_1730" x="88.8895" y="83.3467" width="28.0321" height="28.0321" filterUnits="userSpaceOnUse" color-interpolation-filters="sRGB">
<feFlood flood-opacity="0" result="BackgroundImageFix"/>
<feBlend mode="normal" in="SourceGraphic" in2="BackgroundImageFix" result="shape"/>
<feGaussianBlur stdDeviation="5.09091" result="effect1_foregroundBlur_724_1730"/>
</filter>
<radialGradient id="paint0_radial_724_1730" cx="0" cy="0" r="1" gradientUnits="userSpaceOnUse" gradientTransform="translate(83.0616 84.3662) rotate(179.948) scale(169.904 493.676)">
<stop offset="0.104167" stop-color="#24537E"/>
<stop offset="0.520341" stop-color="#4FC1C0"/>
<stop offset="1" stop-color="#DAFFF4"/>
</radialGradient>
<radialGradient id="paint1_radial_724_1730" cx="0" cy="0" r="1" gradientUnits="userSpaceOnUse" gradientTransform="translate(83.0612 84.3663) rotate(179.948) scale(169.904 493.676)">
<stop offset="0.104167" stop-color="#24537E"/>
<stop offset="0.520341" stop-color="#4FC1C0"/>
<stop offset="1" stop-color="#DAFFF4"/>
</radialGradient>
<linearGradient id="paint2_linear_724_1730" x1="71.1487" y1="89.5432" x2="63.4292" y2="49.39" gradientUnits="userSpaceOnUse">
<stop stop-color="#04171E"/>
<stop offset="1" stop-color="#04171E" stop-opacity="0"/>
</linearGradient>
<radialGradient id="paint3_radial_724_1730" cx="0" cy="0" r="1" gradientUnits="userSpaceOnUse" gradientTransform="translate(46.6022 80.9196) rotate(-57.5402) scale(33.8223 490.103)">
<stop offset="0.104167" stop-color="#3A78B1"/>
<stop offset="0.520341" stop-color="#4FC1C0"/>
<stop offset="1" stop-color="#8CF2FD"/>
</radialGradient>
<radialGradient id="paint4_radial_724_1730" cx="0" cy="0" r="1" gradientUnits="userSpaceOnUse" gradientTransform="translate(78.503 48.8087) rotate(144.267) scale(33.2616 33.0255)">
<stop offset="0.216485" stop-color="white"/>
<stop offset="0.906332" stop-color="white" stop-opacity="0"/>
</radialGradient>
<linearGradient id="paint5_linear_724_1730" x1="72.8032" y1="56.3087" x2="53.0032" y2="64.9337" gradientUnits="userSpaceOnUse">
<stop stop-color="white"/>
<stop offset="0.732381" stop-color="white" stop-opacity="0"/>
</linearGradient>
<linearGradient id="paint6_linear_724_1730" x1="72.8032" y1="56.3087" x2="53.0032" y2="64.9337" gradientUnits="userSpaceOnUse">
<stop stop-color="white"/>
<stop offset="0.732381" stop-color="white" stop-opacity="0"/>
</linearGradient>
<linearGradient id="paint7_linear_724_1730" x1="109.555" y1="15.2823" x2="28.5747" y2="82.7503" gradientUnits="userSpaceOnUse">
<stop stop-color="#04171E"/>
<stop offset="1" stop-color="#04171E" stop-opacity="0"/>
</linearGradient>
<linearGradient id="paint8_linear_724_1730" x1="75.5029" y1="68.9839" x2="45.1278" y2="79.7089" gradientUnits="userSpaceOnUse">
<stop stop-color="#0E6585"/>
<stop offset="1" stop-color="#04171E"/>
</linearGradient>
<radialGradient id="paint9_radial_724_1730" cx="0" cy="0" r="1" gradientUnits="userSpaceOnUse" gradientTransform="translate(44.3866 86.7751) rotate(-38.5632) scale(27.6946 431.949)">
<stop offset="0.104167" stop-color="#3A78B1"/>
<stop offset="0.520341" stop-color="#4FC1C0"/>
<stop offset="1" stop-color="#8CF2FD"/>
</radialGradient>
<linearGradient id="paint10_linear_724_1730" x1="82.4032" y1="66.9589" x2="70.7218" y2="84.665" gradientUnits="userSpaceOnUse">
<stop stop-color="white" stop-opacity="0.64"/>
<stop offset="1" stop-color="white" stop-opacity="0"/>
</linearGradient>
<linearGradient id="paint11_linear_724_1730" x1="70.0871" y1="69.1835" x2="66.2896" y2="66.836" gradientUnits="userSpaceOnUse">
<stop stop-color="#8CF2FD"/>
<stop offset="1" stop-color="#8CF2FD" stop-opacity="0"/>
</linearGradient>
<radialGradient id="paint12_radial_724_1730" cx="0" cy="0" r="1" gradientUnits="userSpaceOnUse" gradientTransform="translate(64.7179 10.452) rotate(146.296) scale(20.9399 26.7705)">
<stop stop-color="#32FFCE"/>
<stop offset="0.447917" stop-color="#00F0FF"/>
</radialGradient>
<radialGradient id="paint13_radial_724_1730" cx="0" cy="0" r="1" gradientUnits="userSpaceOnUse" gradientTransform="translate(24.7179 88.4501) rotate(146.296) scale(20.9399 26.7705)">
<stop stop-color="#32FFCE"/>
<stop offset="0.447917" stop-color="#00F0FF"/>
</radialGradient>
<radialGradient id="paint14_radial_724_1730" cx="0" cy="0" r="1" gradientUnits="userSpaceOnUse" gradientTransform="translate(104.718 88.4501) rotate(146.296) scale(20.9399 26.7705)">
<stop stop-color="#32FFCE"/>
<stop offset="0.447917" stop-color="#00F0FF"/>
</radialGradient>
</defs>
</svg>
