<svg width="134" height="107" viewBox="0 0 134 107" fill="none" xmlns="http://www.w3.org/2000/svg">
<g filter="url(#filter0_f_724_1776)">
<path fill-rule="evenodd" clip-rule="evenodd" d="M49.1014 97.9969C56.6263 93.6524 61.5571 86.5401 63.3501 78.6884C65.5907 73.9 69.509 69.5353 74.7772 66.4937C80.0454 63.4521 85.7845 62.2411 91.0517 62.6949C98.748 65.0679 107.373 64.3539 114.898 60.0094C129.247 51.7251 134.163 33.3774 125.878 19.0286C117.594 4.67983 99.2465 -0.23642 84.8977 8.04785C77.3728 12.3924 72.442 19.5047 70.649 27.3565C68.4141 32.1548 64.4992 36.5254 59.231 39.5669C53.9629 42.6085 48.2204 43.8136 42.9475 43.3499C35.2511 40.9768 26.6263 41.6909 19.1014 46.0354C4.75259 54.3197 -0.163666 72.6674 8.12061 87.0162C16.4049 101.365 34.7526 106.281 49.1014 97.9969Z" fill="url(#paint0_radial_724_1776)"/>
<path fill-rule="evenodd" clip-rule="evenodd" d="M49.1014 97.9969C56.6263 93.6524 61.5571 86.5401 63.3501 78.6884C65.5907 73.9 69.509 69.5353 74.7772 66.4937C80.0454 63.4521 85.7845 62.2411 91.0517 62.6949C98.748 65.0679 107.373 64.3539 114.898 60.0094C129.247 51.7251 134.163 33.3774 125.878 19.0286C117.594 4.67983 99.2465 -0.23642 84.8977 8.04785C77.3728 12.3924 72.442 19.5047 70.649 27.3565C68.4141 32.1548 64.4992 36.5254 59.231 39.5669C53.9629 42.6085 48.2204 43.8136 42.9475 43.3499C35.2511 40.9768 26.6263 41.6909 19.1014 46.0354C4.75259 54.3197 -0.163666 72.6674 8.12061 87.0162C16.4049 101.365 34.7526 106.281 49.1014 97.9969Z" fill="url(#paint1_radial_724_1776)" fill-opacity="0.1"/>
</g>
<g filter="url(#filter1_dii_724_1776)">
<circle cx="99.8975" cy="34.0286" r="20.001" transform="rotate(-30 99.8975 34.0286)" fill="#63CADA"/>
<circle cx="99.8975" cy="34.0286" r="20.001" transform="rotate(-30 99.8975 34.0286)" fill="url(#paint2_radial_724_1776)" fill-opacity="0.8"/>
</g>
<g filter="url(#filter2_f_724_1776)">
<circle cx="104.361" cy="34.5506" r="7.66704" transform="rotate(85.5853 104.361 34.5506)" fill="#8CF2FD"/>
</g>
<g filter="url(#filter3_dii_724_1776)">
<circle cx="34.1011" cy="72.0162" r="20.001" transform="rotate(-30 34.1011 72.0162)" fill="#63CADA"/>
<circle cx="34.1011" cy="72.0162" r="20.001" transform="rotate(-30 34.1011 72.0162)" fill="url(#paint3_radial_724_1776)" fill-opacity="0.8"/>
</g>
<g filter="url(#filter4_f_724_1776)">
<circle cx="38.5645" cy="72.5382" r="7.66704" transform="rotate(85.5853 38.5645 72.5382)" fill="#8CF2FD"/>
</g>
<defs>
<filter id="filter0_f_724_1776" x="0.0961914" y="0.0236816" width="133.807" height="105.998" filterUnits="userSpaceOnUse" color-interpolation-filters="sRGB">
<feFlood flood-opacity="0" result="BackgroundImageFix"/>
<feBlend mode="normal" in="SourceGraphic" in2="BackgroundImageFix" result="shape"/>
<feGaussianBlur stdDeviation="2" result="effect1_foregroundBlur_724_1776"/>
</filter>
<filter id="filter1_dii_724_1776" x="73.8931" y="6.52441" width="55.0088" height="55.0085" filterUnits="userSpaceOnUse" color-interpolation-filters="sRGB">
<feFlood flood-opacity="0" result="BackgroundImageFix"/>
<feColorMatrix in="SourceAlpha" type="matrix" values="0 0 0 0 0 0 0 0 0 0 0 0 0 0 0 0 0 0 127 0" result="hardAlpha"/>
<feOffset dx="1.5"/>
<feGaussianBlur stdDeviation="3.75"/>
<feComposite in2="hardAlpha" operator="out"/>
<feColorMatrix type="matrix" values="0 0 0 0 0 0 0 0 0 0 0 0 0 0 0 0 0 0 0.25 0"/>
<feBlend mode="normal" in2="BackgroundImageFix" result="effect1_dropShadow_724_1776"/>
<feBlend mode="normal" in="SourceGraphic" in2="effect1_dropShadow_724_1776" result="shape"/>
<feColorMatrix in="SourceAlpha" type="matrix" values="0 0 0 0 0 0 0 0 0 0 0 0 0 0 0 0 0 0 127 0" result="hardAlpha"/>
<feOffset dx="-5"/>
<feGaussianBlur stdDeviation="3.75"/>
<feComposite in2="hardAlpha" operator="arithmetic" k2="-1" k3="1"/>
<feColorMatrix type="matrix" values="0 0 0 0 0 0 0 0 0 0 0 0 0 0 0 0 0 0 0.5 0"/>
<feBlend mode="normal" in2="shape" result="effect2_innerShadow_724_1776"/>
<feColorMatrix in="SourceAlpha" type="matrix" values="0 0 0 0 0 0 0 0 0 0 0 0 0 0 0 0 0 0 127 0" result="hardAlpha"/>
<feOffset dx="5" dy="-2.5"/>
<feGaussianBlur stdDeviation="3.75"/>
<feComposite in2="hardAlpha" operator="arithmetic" k2="-1" k3="1"/>
<feColorMatrix type="matrix" values="0 0 0 0 0 0 0 0 0 0 0 0 0 0 0 0 0 0 0.25 0"/>
<feBlend mode="normal" in2="effect2_innerShadow_724_1776" result="effect3_innerShadow_724_1776"/>
</filter>
<filter id="filter2_f_724_1776" x="86.5115" y="16.7015" width="35.6986" height="35.6984" filterUnits="userSpaceOnUse" color-interpolation-filters="sRGB">
<feFlood flood-opacity="0" result="BackgroundImageFix"/>
<feBlend mode="normal" in="SourceGraphic" in2="BackgroundImageFix" result="shape"/>
<feGaussianBlur stdDeviation="5.09091" result="effect1_foregroundBlur_724_1776"/>
</filter>
<filter id="filter3_dii_724_1776" x="8.09668" y="44.512" width="55.0088" height="55.0085" filterUnits="userSpaceOnUse" color-interpolation-filters="sRGB">
<feFlood flood-opacity="0" result="BackgroundImageFix"/>
<feColorMatrix in="SourceAlpha" type="matrix" values="0 0 0 0 0 0 0 0 0 0 0 0 0 0 0 0 0 0 127 0" result="hardAlpha"/>
<feOffset dx="1.5"/>
<feGaussianBlur stdDeviation="3.75"/>
<feComposite in2="hardAlpha" operator="out"/>
<feColorMatrix type="matrix" values="0 0 0 0 0 0 0 0 0 0 0 0 0 0 0 0 0 0 0.25 0"/>
<feBlend mode="normal" in2="BackgroundImageFix" result="effect1_dropShadow_724_1776"/>
<feBlend mode="normal" in="SourceGraphic" in2="effect1_dropShadow_724_1776" result="shape"/>
<feColorMatrix in="SourceAlpha" type="matrix" values="0 0 0 0 0 0 0 0 0 0 0 0 0 0 0 0 0 0 127 0" result="hardAlpha"/>
<feOffset dx="-5"/>
<feGaussianBlur stdDeviation="3.75"/>
<feComposite in2="hardAlpha" operator="arithmetic" k2="-1" k3="1"/>
<feColorMatrix type="matrix" values="0 0 0 0 0 0 0 0 0 0 0 0 0 0 0 0 0 0 0.5 0"/>
<feBlend mode="normal" in2="shape" result="effect2_innerShadow_724_1776"/>
<feColorMatrix in="SourceAlpha" type="matrix" values="0 0 0 0 0 0 0 0 0 0 0 0 0 0 0 0 0 0 127 0" result="hardAlpha"/>
<feOffset dx="5" dy="-2.5"/>
<feGaussianBlur stdDeviation="3.75"/>
<feComposite in2="hardAlpha" operator="arithmetic" k2="-1" k3="1"/>
<feColorMatrix type="matrix" values="0 0 0 0 0 0 0 0 0 0 0 0 0 0 0 0 0 0 0.25 0"/>
<feBlend mode="normal" in2="effect2_innerShadow_724_1776" result="effect3_innerShadow_724_1776"/>
</filter>
<filter id="filter4_f_724_1776" x="20.7152" y="54.689" width="35.6986" height="35.6984" filterUnits="userSpaceOnUse" color-interpolation-filters="sRGB">
<feFlood flood-opacity="0" result="BackgroundImageFix"/>
<feBlend mode="normal" in="SourceGraphic" in2="BackgroundImageFix" result="shape"/>
<feGaussianBlur stdDeviation="5.09091" result="effect1_foregroundBlur_724_1776"/>
</filter>
<radialGradient id="paint0_radial_724_1776" cx="0" cy="0" r="1" gradientUnits="userSpaceOnUse" gradientTransform="translate(79.1504 19.7823) rotate(3.70392) scale(62.8198 80.3115)">
<stop stop-color="#505050"/>
<stop offset="0.447917" stop-color="#202020"/>
</radialGradient>
<radialGradient id="paint1_radial_724_1776" cx="0" cy="0" r="1" gradientUnits="userSpaceOnUse" gradientTransform="translate(76.9279 21.0655) rotate(133.599) scale(123.46 92.61)">
<stop stop-color="#32FFCE"/>
<stop offset="0.447917" stop-color="#00F0FF"/>
</radialGradient>
<radialGradient id="paint2_radial_724_1776" cx="0" cy="0" r="1" gradientUnits="userSpaceOnUse" gradientTransform="translate(107.128 18.887) rotate(146.296) scale(41.8819 53.5436)">
<stop stop-color="#32A9FF"/>
<stop offset="0.447917" stop-color="#00C2FF"/>
</radialGradient>
<radialGradient id="paint3_radial_724_1776" cx="0" cy="0" r="1" gradientUnits="userSpaceOnUse" gradientTransform="translate(41.3312 56.8745) rotate(146.296) scale(41.8819 53.5436)">
<stop stop-color="#32FFCE"/>
<stop offset="0.447917" stop-color="#00F0FF"/>
</radialGradient>
</defs>
</svg>
