<?xml version="1.0" standalone="no"?>
<!DOCTYPE svg PUBLIC "-//W3C//DTD SVG 20010904//EN"
 "http://www.w3.org/TR/2001/REC-SVG-20010904/DTD/svg10.dtd">
<svg version="1.0" xmlns="http://www.w3.org/2000/svg"
 width="1120.000000pt" height="1120.000000pt" viewBox="0 0 1120.000000 1120.000000"
 preserveAspectRatio="xMidYMid meet">
<metadata>
Created by potrace 1.14, written by Peter Selinger 2001-2017
</metadata>
<g transform="translate(0.000000,1120.000000) scale(0.100000,-0.100000)"
fill="#000000" stroke="none">
<path d="M5633 11042 c-29 -37 -91 -114 -138 -172 -47 -58 -107 -132 -132
-165 -26 -33 -54 -68 -64 -77 -9 -9 -32 -37 -50 -62 -18 -25 -36 -46 -41 -46
-4 0 -8 -4 -8 -10 0 -5 -8 -18 -17 -29 -10 -10 -29 -33 -43 -51 -14 -17 -30
-37 -35 -44 -6 -6 -46 -56 -90 -111 -44 -55 -82 -102 -85 -105 -3 -3 -21 -25
-40 -50 -19 -24 -42 -52 -50 -61 -8 -9 -23 -27 -33 -40 -73 -94 -103 -129
-109 -129 -5 0 -8 -6 -8 -14 0 -8 -4 -16 -8 -18 -4 -1 -35 -37 -67 -78 -33
-41 -62 -77 -65 -80 -3 -3 -41 -50 -84 -105 -44 -55 -86 -105 -93 -111 -7 -6
-13 -14 -13 -18 0 -4 -6 -13 -12 -20 -11 -12 -42 -48 -98 -117 -8 -10 -25 -31
-37 -46 -12 -15 -30 -38 -40 -49 -10 -12 -29 -36 -43 -54 -14 -18 -30 -38 -35
-44 -6 -6 -46 -56 -90 -111 -44 -55 -82 -102 -85 -105 -3 -3 -21 -25 -40 -50
-19 -25 -39 -50 -45 -56 -5 -6 -21 -25 -35 -43 -14 -18 -30 -38 -35 -44 -6 -7
-39 -48 -75 -92 -35 -44 -67 -82 -70 -85 -3 -3 -18 -23 -35 -45 -16 -21 -36
-46 -45 -55 -8 -9 -28 -34 -44 -55 -16 -22 -36 -47 -43 -55 -18 -20 -48 -57
-81 -99 -25 -32 -73 -91 -110 -136 -10 -11 -44 -54 -76 -95 -33 -41 -63 -77
-66 -80 -3 -3 -13 -14 -21 -26 -8 -11 -31 -41 -51 -65 -20 -24 -61 -74 -92
-111 -31 -37 -56 -70 -56 -73 0 -3 -8 -13 -17 -23 -20 -20 -66 -76 -142 -172
-28 -36 -59 -73 -67 -83 -9 -11 -13 -21 -10 -24 6 -7 6056 -7 6063 0 2 3 -4
14 -14 25 -20 21 -30 34 -83 102 -19 25 -45 55 -57 67 -13 12 -23 25 -23 28 0
3 -34 47 -76 98 -41 51 -81 99 -87 107 -7 8 -59 74 -117 145 -57 72 -109 135
-115 141 -5 6 -21 26 -35 44 -14 18 -32 41 -41 51 -8 10 -24 30 -35 44 -10 15
-28 37 -39 49 -11 13 -27 32 -35 42 -104 129 -362 449 -385 478 -52 65 -79 99
-95 116 -8 9 -28 34 -44 55 -17 22 -33 42 -36 45 -3 3 -21 25 -40 50 -19 25
-44 55 -55 66 -11 12 -27 31 -35 44 -8 12 -26 35 -40 51 -30 34 -36 42 -80 99
-19 24 -39 50 -45 56 -36 42 -258 317 -330 409 -16 21 -35 43 -40 49 -9 9 -54
65 -102 126 -25 31 -158 196 -170 210 -20 23 -75 92 -108 135 -16 21 -37 46
-45 54 -8 9 -40 48 -70 86 -30 39 -62 79 -72 90 -10 11 -90 110 -178 220 -89
110 -174 216 -190 235 -16 19 -39 49 -52 65 -37 48 -61 75 -67 75 -3 -1 -29
-31 -58 -68z"/>
<path d="M5940 11095 c8 -11 22 -27 30 -35 8 -8 27 -31 41 -50 15 -19 37 -46
49 -60 12 -14 31 -38 43 -53 12 -15 29 -36 37 -46 55 -66 86 -104 95 -114 13
-15 148 -179 158 -192 7 -10 24 -30 89 -107 81 -96 108 -130 108 -140 0 -5 5
-6 10 -3 6 3 10 1 10 -5 0 -12 10 -24 53 -70 15 -15 27 -31 27 -34 0 -4 13
-21 29 -39 34 -37 58 -65 88 -104 12 -15 35 -44 52 -63 17 -19 34 -39 38 -45
40 -51 99 -121 106 -123 4 -2 7 -10 7 -18 0 -9 5 -12 10 -9 6 3 10 1 10 -5 0
-5 48 -68 108 -139 59 -70 123 -148 143 -172 20 -24 52 -62 70 -85 19 -22 48
-57 64 -78 17 -21 38 -48 48 -60 11 -11 33 -39 50 -60 18 -21 40 -46 50 -55 9
-8 17 -19 17 -24 0 -4 10 -18 23 -30 12 -12 34 -38 49 -57 14 -19 34 -45 44
-57 11 -11 30 -35 44 -53 14 -17 34 -41 45 -53 17 -18 70 -83 165 -201 8 -10
20 -23 25 -30 6 -6 28 -33 50 -61 22 -27 47 -57 55 -66 34 -37 96 -113 104
-128 5 -9 15 -20 21 -26 6 -5 34 -37 61 -70 27 -33 52 -61 57 -63 4 -2 7 -10
7 -18 0 -8 3 -14 8 -14 4 0 25 -23 47 -51 22 -28 49 -61 60 -73 21 -23 45 -53
137 -166 29 -36 55 -67 58 -70 3 -3 25 -30 50 -60 25 -30 49 -60 55 -66 5 -6
24 -29 40 -50 17 -21 37 -45 45 -54 8 -8 31 -36 50 -60 19 -25 45 -57 58 -71
12 -14 28 -33 35 -42 12 -18 31 -7 137 73 44 34 167 125 190 140 31 22 162
118 180 133 8 7 49 36 90 66 41 30 77 58 78 63 2 4 10 8 18 8 8 0 17 7 20 15
4 8 10 15 15 15 4 0 52 33 106 73 109 81 244 181 373 276 47 34 92 67 100 74
9 7 42 32 75 56 33 25 62 48 63 53 2 4 8 6 13 2 5 -3 9 -1 9 3 0 5 -84 58
-186 117 -103 59 -205 119 -228 134 -23 14 -43 27 -46 27 -3 0 -16 8 -30 17
-55 35 -152 88 -161 88 -5 0 -9 5 -9 10 0 6 -7 10 -15 10 -8 0 -15 4 -15 10 0
5 -3 9 -7 8 -5 -1 -19 5 -33 14 -55 35 -152 88 -161 88 -5 0 -9 5 -9 10 0 6
-5 10 -11 10 -6 0 -29 13 -52 28 -23 16 -57 35 -74 43 -18 8 -33 17 -33 21 0
5 -4 8 -9 8 -4 0 -36 17 -71 38 -35 20 -65 35 -68 34 -3 -2 -8 0 -11 5 -7 9
-41 32 -95 63 -70 39 -102 58 -156 90 -30 18 -68 41 -85 50 -16 10 -162 95
-324 189 -161 95 -307 181 -325 190 -106 61 -406 237 -428 253 -16 11 -28 16
-28 13 0 -4 -7 1 -16 9 -8 9 -22 16 -30 16 -8 0 -14 4 -14 10 0 5 -11 12 -25
16 -14 3 -25 10 -25 15 0 5 -7 9 -15 9 -8 0 -15 5 -15 10 0 6 -5 10 -11 10 -7
0 -109 57 -228 127 -119 69 -245 143 -281 164 -36 21 -71 43 -77 49 -7 6 -13
8 -13 5 0 -4 -12 2 -27 13 -16 11 -44 29 -63 40 -167 95 -251 145 -255 153 -4
5 -15 9 -26 9 -10 0 -19 4 -19 9 0 5 -19 18 -42 30 -24 12 -56 30 -73 40 -16
10 -46 27 -65 38 -66 38 -245 143 -260 153 -8 6 -28 17 -45 26 -16 8 -43 23
-60 34 -16 11 -48 29 -70 41 -22 12 -43 27 -47 33 -4 6 -8 7 -8 2 0 -5 -8 -2
-17 5 -17 13 -17 13 -3 -6z"/>
<path d="M5395 11075 c-22 -14 -51 -30 -65 -37 -14 -7 -31 -18 -38 -25 -7 -7
-20 -13 -28 -13 -8 0 -14 -4 -14 -10 0 -5 -4 -10 -10 -10 -5 0 -33 -14 -62
-31 -29 -18 -66 -40 -83 -49 -95 -55 -335 -196 -360 -211 -16 -10 -37 -22 -45
-26 -8 -4 -80 -46 -160 -93 -131 -78 -195 -116 -323 -189 -23 -13 -53 -30 -67
-39 -14 -9 -45 -27 -70 -40 -25 -14 -52 -30 -60 -36 -8 -7 -28 -18 -45 -26
-16 -8 -32 -17 -35 -20 -11 -12 -105 -64 -112 -62 -5 1 -8 -2 -8 -8 0 -5 -6
-10 -14 -10 -8 0 -16 -3 -18 -7 -3 -7 -32 -25 -100 -60 -16 -8 -28 -18 -28
-22 0 -4 -6 -8 -12 -8 -7 0 -71 -35 -143 -78 -71 -43 -155 -91 -185 -108 -30
-17 -56 -34 -58 -39 -2 -4 -8 -8 -14 -8 -6 0 -55 -27 -110 -60 -56 -33 -104
-60 -109 -60 -4 0 -14 -6 -21 -13 -7 -7 -35 -26 -63 -41 -27 -16 -70 -40 -95
-54 -25 -13 -56 -32 -70 -42 -14 -9 -32 -20 -40 -23 -8 -4 -33 -18 -55 -32
-22 -14 -47 -28 -55 -32 -7 -4 -81 -46 -163 -95 -81 -48 -152 -88 -156 -88 -5
0 -14 -7 -21 -15 -7 -8 -16 -12 -21 -9 -5 3 -9 1 -9 -4 0 -8 -52 -39 -127 -76
-13 -6 -23 -14 -23 -18 0 -5 -4 -8 -9 -8 -5 0 -92 -49 -194 -110 -102 -60
-190 -110 -196 -110 -6 0 -11 -4 -11 -10 0 -5 -11 -12 -25 -16 -14 -3 -25 -10
-25 -16 0 -5 -4 -6 -10 -3 -5 3 -10 1 -10 -4 0 -6 -7 -11 -15 -11 -8 0 -15 -4
-15 -10 0 -5 -5 -10 -11 -10 -8 0 -91 -47 -221 -125 -9 -5 -29 -17 -45 -26
-15 -9 -68 -40 -118 -69 -49 -29 -101 -59 -115 -67 -94 -53 -125 -72 -127 -80
-2 -4 17 -21 42 -38 24 -16 45 -33 45 -37 0 -5 6 -8 14 -8 7 0 20 -7 27 -16 8
-9 30 -27 49 -39 19 -13 49 -34 65 -49 17 -14 33 -26 36 -26 3 0 24 -14 45
-30 45 -34 62 -47 161 -121 39 -30 82 -61 94 -69 11 -8 61 -45 110 -82 49 -38
91 -68 94 -68 3 0 13 -7 22 -15 10 -8 86 -64 168 -125 83 -61 157 -117 165
-123 8 -7 47 -34 85 -61 39 -28 72 -52 75 -55 3 -4 37 -29 77 -58 l72 -52 28
33 c37 43 60 71 108 131 22 27 47 56 55 65 8 9 29 34 45 55 17 22 37 46 45 55
8 8 62 74 120 145 57 72 113 137 122 146 10 9 18 20 18 25 0 5 9 16 20 24 11
8 20 18 20 22 0 4 8 16 18 26 22 23 80 93 173 207 40 50 76 92 79 95 4 4 120
146 145 178 5 7 17 21 26 30 8 9 44 53 80 97 35 44 66 82 69 85 3 3 35 41 70
85 36 44 67 82 70 85 3 3 27 32 55 65 27 33 54 65 60 71 5 6 21 26 35 44 28
37 74 92 108 128 12 14 22 28 22 31 0 3 17 24 38 47 20 22 51 58 67 79 38 48
139 170 176 213 16 19 29 38 29 42 0 5 4 10 9 12 4 2 42 44 82 93 40 50 78 95
84 101 5 6 26 31 45 55 19 23 45 53 57 66 12 13 19 23 15 23 -4 0 -2 4 3 8 6
4 29 29 50 56 22 28 50 61 63 75 12 13 39 46 59 73 21 26 41 48 45 48 4 0 8 5
8 11 0 7 10 21 23 33 12 12 35 39 51 61 17 22 32 42 36 45 3 3 25 30 50 60 25
30 47 57 50 60 5 4 153 185 200 244 8 10 22 26 31 35 8 9 44 52 79 96 35 44
67 82 70 85 20 19 42 50 34 50 -5 -1 -27 -12 -49 -25z"/>
<path d="M834 5798 c0 -2061 2 -2487 13 -2472 7 10 13 24 13 31 0 7 9 32 19
56 21 47 33 77 36 92 2 6 12 30 23 55 11 25 50 124 87 220 78 205 114 297 126
325 4 11 24 61 43 110 81 211 148 382 161 412 8 17 15 36 15 42 0 6 4 19 10
29 5 9 26 60 45 112 20 52 40 104 45 115 5 11 50 126 101 255 50 129 100 258
111 285 11 28 21 55 22 60 2 6 10 27 20 47 9 21 16 43 16 51 0 7 4 17 9 23 5
5 11 18 13 29 1 11 6 23 11 26 4 3 9 14 11 25 4 18 47 131 82 212 8 18 14 39
14 47 0 8 4 15 8 15 5 0 9 6 9 13 1 6 24 71 53 142 28 72 55 141 60 155 4 14
15 41 24 61 8 20 12 39 9 43 -4 3 -1 6 5 6 7 0 12 4 12 9 0 5 5 22 12 38 6 15
12 30 13 33 1 3 5 14 9 25 5 11 42 108 83 215 42 107 81 209 88 225 8 17 29
71 48 122 l34 92 -91 65 c-50 36 -100 73 -111 81 -11 9 -72 54 -135 100 -63
46 -119 88 -125 92 -5 5 -32 24 -60 43 -55 39 -81 59 -100 78 -8 6 -18 12 -23
12 -6 0 -12 4 -14 8 -1 4 -25 23 -53 42 -27 19 -52 37 -55 40 -20 20 -91 70
-99 70 -6 0 -11 3 -11 8 -1 4 -24 23 -52 42 -28 19 -58 42 -68 51 -10 9 -22
18 -27 20 -6 2 -23 14 -39 27 -16 12 -96 72 -179 133 -82 60 -157 116 -167
123 -9 8 -19 12 -22 9 -3 -4 -6 -2 -6 4 0 6 -17 22 -38 36 l-38 25 0 -2490z"/>
<path d="M10540 8284 c0 -5 -12 -17 -27 -26 -16 -9 -37 -24 -48 -32 -74 -59
-279 -206 -286 -206 -5 0 -9 -3 -9 -7 0 -5 -17 -19 -38 -33 -20 -14 -39 -27
-42 -30 -3 -3 -54 -41 -115 -85 -60 -44 -114 -83 -120 -87 -34 -28 -69 -53
-186 -138 -72 -52 -177 -130 -234 -172 -58 -43 -107 -78 -110 -78 -3 0 -13 -8
-23 -17 -11 -10 -32 -27 -48 -38 -15 -11 -56 -41 -91 -67 -34 -27 -65 -48 -68
-48 -3 0 -17 -10 -30 -23 l-25 -23 31 -79 c17 -44 42 -109 55 -145 14 -36 30
-75 35 -87 5 -13 13 -33 18 -45 27 -66 151 -389 151 -393 0 -3 8 -24 19 -48
10 -23 33 -80 51 -127 18 -47 38 -99 46 -117 8 -17 14 -33 14 -36 0 -3 5 -18
12 -34 6 -15 12 -30 13 -33 2 -7 23 -59 40 -100 7 -19 35 -89 60 -155 25 -66
50 -129 55 -140 4 -11 27 -69 50 -130 23 -60 46 -119 50 -130 5 -11 18 -41 29
-67 11 -27 18 -48 15 -48 -3 0 1 -10 8 -22 6 -13 13 -27 14 -33 1 -5 21 -55
44 -110 23 -55 43 -107 45 -115 2 -8 26 -71 53 -140 28 -69 65 -165 84 -215
20 -49 39 -99 43 -110 4 -11 9 -26 11 -34 1 -8 6 -17 11 -20 4 -3 10 -15 11
-26 2 -11 8 -24 13 -30 5 -5 9 -18 9 -30 0 -12 4 -25 8 -30 5 -6 19 -37 31
-70 22 -56 27 -71 50 -127 5 -13 37 -95 71 -183 34 -88 66 -169 71 -180 20
-47 53 -141 51 -147 -1 -5 3 -8 8 -8 5 0 9 -3 8 -7 -3 -8 60 -175 93 -250 11
-23 19 -47 19 -52 0 -6 3 -11 8 -11 9 0 8 4967 -1 4976 -4 4 -7 3 -7 -2z"/>
<path d="M2660 7137 c0 -7 65 -121 125 -219 5 -9 30 -51 55 -93 48 -81 51 -86
150 -252 36 -59 69 -116 75 -125 5 -10 42 -70 80 -135 39 -64 72 -122 74 -127
2 -6 8 -15 13 -21 9 -10 138 -226 138 -230 0 -1 36 -61 80 -134 44 -72 80
-136 80 -141 0 -6 5 -10 10 -10 6 0 10 -5 10 -11 0 -6 14 -31 30 -56 17 -24
30 -46 30 -49 0 -2 23 -41 50 -85 28 -44 50 -82 50 -84 0 -2 23 -40 50 -84 28
-44 50 -85 50 -91 0 -5 3 -10 8 -10 4 0 13 -15 21 -32 8 -18 17 -35 21 -38 4
-3 33 -50 65 -105 32 -55 105 -177 162 -272 56 -95 103 -176 103 -181 0 -5 9
-17 20 -27 11 -10 18 -20 16 -23 -3 -2 10 -25 28 -51 18 -25 35 -53 38 -61 3
-8 49 -86 102 -174 53 -87 96 -162 96 -167 0 -5 5 -9 10 -9 6 0 10 -5 10 -10
0 -9 246 -428 267 -455 4 -6 19 -30 32 -55 14 -25 27 -47 30 -50 3 -3 12 -16
19 -29 35 -61 52 -91 88 -151 21 -36 44 -74 51 -85 7 -11 18 -31 25 -45 7 -14
15 -27 18 -30 4 -3 31 -47 61 -99 30 -51 61 -105 70 -120 64 -105 139 -234
139 -237 0 -3 5 -10 10 -17 18 -20 130 -209 130 -218 0 -5 5 -9 11 -9 5 0 8
-4 4 -9 -3 -5 1 -15 8 -23 7 -7 55 -85 107 -173 52 -88 100 -166 107 -173 10
-10 17 -4 34 30 12 24 24 45 28 48 9 8 51 82 58 103 3 9 9 17 13 17 4 0 15 18
25 40 10 22 21 40 25 40 3 0 12 16 20 35 8 19 17 35 22 35 4 0 8 4 8 9 0 5 22
46 50 91 27 45 50 84 50 86 0 3 7 12 15 21 8 8 13 19 10 24 -4 5 -2 9 2 9 5 0
17 17 28 38 11 20 23 39 26 42 3 3 8 10 10 15 2 6 54 92 114 193 121 201 131
218 193 324 23 40 52 90 65 110 12 20 44 74 72 120 70 118 343 575 372 623 13
22 26 48 30 58 3 9 9 17 14 17 5 0 9 4 9 9 0 7 110 196 140 241 6 8 17 29 25
47 8 17 19 34 24 38 5 3 16 18 24 33 20 38 52 94 81 141 15 22 26 45 26 51 0
5 4 10 9 10 5 0 13 9 16 21 4 12 33 62 64 112 31 51 60 99 64 107 4 8 16 29
27 45 11 17 25 41 32 55 7 14 18 31 25 38 7 8 11 17 8 22 -3 4 2 10 10 14 8 3
15 10 15 15 0 6 16 35 35 66 20 30 32 55 28 55 -4 0 -3 4 3 8 6 4 24 30 39 57
16 28 32 52 35 55 3 3 14 21 24 40 11 19 31 53 45 75 14 22 26 42 26 45 0 3 8
16 17 30 32 51 138 231 138 236 0 3 5 10 10 17 14 16 100 159 136 227 11 19
21 37 25 40 3 3 50 82 106 175 55 94 110 186 122 205 11 19 30 53 42 74 12 22
28 46 35 54 8 7 14 17 14 22 0 5 27 52 60 105 33 53 60 98 60 100 0 2 36 63
80 136 45 72 78 134 75 137 -8 9 -6065 7 -6065 -1z"/>
<path d="M2491 6898 c-16 -40 -53 -132 -64 -158 -6 -14 -11 -28 -12 -32 -2 -5
-4 -10 -5 -13 -1 -3 -3 -9 -4 -13 0 -4 -9 -28 -20 -52 -10 -25 -22 -54 -26
-65 -4 -11 -15 -36 -23 -55 -12 -29 -27 -70 -32 -90 -3 -10 -25 -65 -35 -85
-5 -11 -48 -119 -95 -240 -47 -121 -90 -229 -96 -240 -6 -12 -11 -27 -13 -35
-1 -8 -10 -30 -19 -47 -10 -18 -18 -36 -18 -40 -2 -13 -11 -37 -25 -70 -8 -17
-14 -34 -14 -37 0 -4 -7 -23 -16 -44 -10 -20 -18 -41 -20 -47 -3 -12 -139
-357 -158 -400 -7 -16 -24 -59 -36 -95 -13 -36 -26 -67 -29 -70 -3 -3 -7 -12
-9 -20 -6 -26 -65 -175 -74 -184 -4 -6 -8 -19 -8 -31 0 -12 -5 -26 -12 -33 -6
-6 -13 -17 -14 -24 -2 -13 -106 -282 -124 -323 -5 -11 -19 -45 -31 -75 -11
-30 -26 -66 -32 -80 -5 -14 -11 -29 -13 -35 -1 -5 -8 -23 -15 -40 -7 -16 -13
-32 -13 -35 -1 -3 -46 -117 -101 -255 -55 -137 -100 -252 -101 -255 0 -3 -7
-19 -13 -37 -7 -18 -12 -35 -11 -39 1 -4 -3 -10 -10 -14 -6 -4 -12 -13 -14
-21 -1 -8 -15 -48 -31 -89 -16 -41 -30 -77 -31 -80 0 -3 -4 -14 -9 -25 -5 -11
-37 -92 -73 -180 -35 -88 -66 -165 -69 -172 -4 -10 17 -21 52 -29 6 -1 24 -5
40 -9 17 -4 39 -8 50 -10 11 -2 20 -4 20 -5 0 -2 9 -4 20 -6 11 -1 47 -9 80
-18 33 -8 116 -29 185 -45 114 -27 274 -65 325 -78 11 -2 29 -6 40 -8 11 -2
43 -10 71 -18 29 -7 59 -12 68 -11 9 1 16 -1 16 -5 0 -4 33 -14 73 -21 82 -16
77 -15 97 -23 14 -6 29 -9 98 -22 25 -5 61 -14 87 -21 6 -2 21 -5 35 -8 45
-10 70 -16 88 -21 42 -11 100 -24 131 -30 19 -3 37 -8 41 -10 3 -2 17 -6 31
-8 13 -3 42 -10 64 -15 22 -6 51 -13 65 -16 14 -3 62 -14 107 -25 45 -11 92
-23 105 -25 13 -3 52 -13 88 -21 102 -24 104 -25 126 -29 11 -2 52 -12 90 -22
38 -9 76 -18 84 -19 8 -1 22 -5 30 -8 8 -4 26 -8 40 -11 14 -2 77 -16 140 -32
63 -15 121 -27 128 -26 6 2 12 -1 12 -5 0 -5 8 -9 18 -9 9 -1 28 -4 42 -7 26
-7 96 -23 140 -33 14 -3 59 -14 100 -24 41 -10 86 -21 100 -24 14 -3 61 -14
105 -25 209 -50 588 -139 625 -147 14 -3 59 -14 100 -25 41 -11 88 -22 104
-24 15 -2 36 -7 46 -10 18 -6 37 -10 83 -20 22 -4 81 -19 147 -35 151 -38 285
-68 289 -65 3 4 -36 71 -206 355 -41 69 -80 134 -86 145 -7 11 -25 39 -40 62
-15 24 -24 43 -20 43 4 0 3 4 -2 8 -6 4 -33 45 -60 90 -28 46 -59 99 -70 118
-11 18 -36 59 -55 91 -19 32 -39 67 -46 78 -6 11 -42 72 -81 135 -38 63 -72
122 -76 130 -4 8 -15 27 -25 42 -47 74 -187 314 -190 325 -2 7 -7 13 -12 13
-4 0 -10 8 -13 18 -4 9 -16 34 -29 54 -13 20 -79 130 -147 245 -68 114 -127
210 -130 213 -3 3 -13 18 -21 35 -22 42 -108 188 -120 202 -5 7 -10 15 -10 17
0 3 -15 29 -32 59 -42 67 -47 75 -104 172 -26 44 -59 98 -73 120 -14 22 -26
42 -26 45 0 3 -8 16 -17 30 -16 25 -222 370 -358 600 -41 69 -78 127 -82 128
-5 2 -6 7 -3 12 3 4 -2 13 -10 20 -8 7 -15 19 -15 26 0 8 -4 14 -9 14 -5 0
-11 8 -14 18 -7 19 -50 94 -78 134 -11 14 -19 31 -19 37 0 6 -4 11 -10 11 -5
0 -10 5 -10 10 0 6 -17 39 -38 73 -55 91 -58 97 -94 157 -17 30 -35 57 -40 58
-4 2 -8 8 -8 14 0 6 -17 38 -37 72 -21 34 -43 71 -50 81 -6 11 -53 90 -104
175 -51 85 -102 171 -112 190 -11 19 -22 37 -26 40 -7 5 -21 31 -53 91 -11 21
-24 39 -29 39 -5 0 -8 3 -7 8 2 4 -8 25 -22 47 -13 22 -28 47 -32 55 -5 8 -19
33 -33 55 -14 22 -29 50 -35 62 -14 32 -29 37 -39 11z"/>
<path d="M8864 6895 c-3 -14 -10 -25 -15 -25 -5 0 -9 -7 -9 -15 0 -8 -4 -15
-10 -15 -5 0 -10 -4 -10 -9 0 -10 -211 -367 -230 -388 -5 -7 -10 -15 -10 -18
0 -3 -71 -123 -157 -268 -87 -144 -159 -268 -161 -274 -2 -7 -8 -13 -13 -13
-5 0 -9 -5 -9 -10 0 -11 -280 -485 -299 -507 -6 -7 -11 -14 -11 -17 0 -3 -34
-63 -77 -133 -42 -70 -81 -137 -87 -148 -15 -27 -45 -74 -67 -107 -10 -14 -20
-32 -21 -40 -2 -7 -6 -15 -9 -18 -4 -3 -57 -90 -119 -195 -173 -291 -201 -338
-255 -427 -27 -46 -54 -92 -61 -103 -6 -11 -120 -202 -252 -423 -133 -222
-242 -408 -242 -413 0 -5 -4 -9 -8 -9 -4 0 -18 -19 -30 -42 -12 -24 -45 -79
-72 -123 -27 -44 -52 -87 -56 -95 -6 -13 -28 -49 -81 -136 -49 -80 -93 -158
-93 -165 0 -5 -4 -9 -10 -9 -5 0 -10 -6 -10 -14 0 -7 -7 -19 -15 -26 -8 -7
-13 -16 -10 -20 3 -5 2 -10 -3 -12 -10 -4 -72 -105 -72 -118 0 -6 -4 -10 -8
-10 -4 0 -18 -19 -30 -42 -12 -24 -33 -61 -46 -83 -49 -78 -76 -128 -76 -136
0 -5 -4 -9 -10 -9 -5 0 -10 -7 -10 -15 0 -8 -4 -15 -10 -15 -5 0 -10 -9 -10
-20 0 -11 -4 -20 -9 -20 -5 0 -16 -15 -26 -32 -35 -66 -52 -97 -71 -125 -10
-15 -24 -37 -30 -48 -6 -11 -34 -60 -63 -109 -51 -88 -51 -88 -24 -81 16 4 36
9 46 11 9 2 26 6 37 9 35 9 52 13 190 45 74 18 180 43 235 56 55 13 111 27
125 30 14 3 41 9 60 14 19 5 49 12 67 15 18 3 42 9 55 14 13 5 26 9 31 10 4 0
9 2 12 2 3 1 13 2 23 3 9 1 26 5 37 9 11 3 34 9 50 12 39 8 60 13 60 15 0 1 9
3 20 5 11 2 31 6 45 10 14 3 35 8 48 11 12 2 62 14 110 25 48 12 94 22 102 24
8 2 35 8 60 15 25 7 56 14 70 16 14 3 48 11 75 19 28 7 64 16 80 19 17 3 46 9
65 15 19 6 46 12 60 15 14 2 57 12 95 22 39 9 77 18 85 19 8 1 25 5 37 9 25 8
62 17 83 20 9 1 21 5 28 10 6 4 12 5 12 2 0 -2 24 2 53 10 28 8 68 17 87 20
19 3 38 8 41 9 3 2 57 16 120 30 63 15 122 28 132 31 22 5 28 7 164 38 61 14
117 28 125 31 7 2 24 6 38 9 14 2 75 17 135 31 61 15 119 29 130 31 26 4 236
55 255 62 8 2 22 6 30 8 8 1 26 5 40 8 21 4 125 28 180 41 8 2 15 4 15 5 0 1
14 4 30 6 17 3 37 7 45 11 8 3 22 7 30 9 27 5 85 17 95 20 71 17 444 106 455
108 8 2 22 5 30 8 8 3 51 14 95 24 99 22 94 21 129 28 42 8 52 21 38 48 -6 13
-14 34 -18 48 -4 14 -16 45 -27 70 -11 25 -21 50 -22 55 -3 10 -55 142 -78
195 -6 14 -11 27 -11 30 -3 9 -59 155 -73 190 -26 61 -39 93 -63 155 -25 67
-126 324 -145 370 -6 17 -18 46 -25 65 -6 19 -18 49 -25 65 -18 41 -116 291
-120 305 0 3 -8 21 -17 40 -9 19 -24 55 -33 80 -9 25 -22 56 -28 70 -5 14 -11
30 -12 35 -3 11 -100 257 -114 290 -28 62 -181 454 -186 478 -4 15 -11 30 -16
33 -5 3 -9 11 -9 18 0 8 -8 31 -17 52 -9 22 -17 41 -18 44 -1 3 -6 16 -12 30
-6 14 -20 51 -31 82 -12 32 -26 66 -31 75 -9 18 -55 133 -56 143 -1 3 -9 23
-19 45 -10 22 -19 45 -20 50 -4 12 -15 44 -26 70 -5 11 -18 41 -28 67 -11 25
-18 49 -14 52 3 3 0 6 -6 6 -7 0 -11 3 -10 8 1 8 7 -6 -99 262 -47 118 -90
229 -96 245 -6 17 -16 44 -22 60 -42 105 -50 114 -61 70z"/>
<path d="M953 2660 c26 -16 51 -30 56 -30 5 0 14 -7 21 -15 7 -8 16 -13 20
-10 5 3 12 0 15 -5 4 -6 17 -15 28 -21 12 -5 29 -13 37 -19 22 -15 213 -125
230 -133 8 -4 31 -17 50 -28 19 -12 55 -32 79 -45 24 -13 49 -28 55 -33 6 -4
36 -22 66 -38 94 -51 153 -85 192 -110 21 -12 40 -23 43 -23 4 0 26 -13 49
-30 24 -16 46 -27 48 -24 3 2 11 -2 18 -11 7 -8 18 -15 25 -15 8 0 15 -3 17
-7 2 -5 26 -19 53 -33 28 -14 52 -28 55 -31 3 -3 37 -23 75 -44 39 -21 87 -49
107 -62 21 -12 42 -23 48 -23 5 0 10 -4 10 -10 0 -5 3 -9 8 -8 4 1 18 -5 32
-14 53 -34 151 -88 160 -88 4 0 10 -3 12 -7 2 -5 21 -17 43 -28 22 -11 45 -24
50 -28 12 -10 116 -71 130 -77 19 -7 67 -35 101 -57 19 -12 34 -20 34 -17 0 3
7 -2 16 -10 8 -9 21 -16 29 -16 7 0 15 -3 17 -7 3 -8 69 -46 115 -68 13 -5 23
-13 23 -17 0 -5 5 -8 10 -8 6 0 65 -31 131 -70 66 -39 124 -70 129 -70 6 0 10
-4 10 -10 0 -5 5 -10 11 -10 6 0 48 -22 95 -50 47 -27 89 -50 93 -50 5 0 11
-3 13 -7 2 -5 28 -21 58 -37 30 -16 57 -32 60 -35 3 -4 24 -15 47 -26 24 -11
43 -23 43 -27 0 -5 4 -8 9 -8 5 0 112 -59 237 -131 126 -72 249 -143 274 -157
25 -14 118 -67 208 -119 90 -51 168 -93 173 -93 5 0 9 -3 9 -8 0 -4 12 -13 28
-19 15 -7 43 -23 62 -35 19 -12 37 -22 40 -23 3 0 34 -18 70 -39 62 -37 82
-49 165 -96 19 -11 51 -29 70 -40 19 -11 51 -29 71 -40 19 -11 68 -39 107 -61
40 -23 97 -55 127 -72 30 -16 62 -35 70 -42 8 -7 23 -15 33 -18 16 -6 17 35
17 763 l0 768 -32 8 c-18 4 -37 9 -43 10 -5 1 -37 9 -70 17 -61 15 -111 27
-120 28 -2 0 -19 5 -37 10 -18 6 -42 12 -53 14 -11 3 -49 12 -84 21 -86 21
-103 25 -121 29 -8 1 -23 6 -33 10 -10 4 -21 5 -24 1 -3 -3 -11 -2 -17 4 -7 5
-25 11 -41 14 -17 3 -45 10 -62 15 -18 5 -33 7 -33 3 0 -3 -5 -1 -11 5 -6 6
-18 9 -25 6 -8 -3 -14 0 -14 6 0 6 -6 8 -14 5 -8 -3 -24 -1 -35 5 -11 6 -33
13 -48 15 -15 2 -104 23 -198 46 -93 23 -177 43 -185 45 -8 2 -89 22 -180 45
-91 23 -174 43 -185 44 -12 1 -26 5 -32 9 -6 4 -24 9 -40 12 -15 2 -46 9 -68
14 -120 30 -171 41 -192 43 -7 1 -13 5 -13 10 0 5 -3 7 -8 4 -4 -2 -32 2 -62
10 -30 9 -64 17 -75 19 -11 2 -36 7 -55 10 -19 4 -39 10 -44 15 -5 5 -15 6
-22 3 -8 -3 -14 0 -14 7 0 6 -4 8 -10 5 -5 -3 -33 1 -62 9 -29 9 -64 17 -78
20 -14 3 -72 17 -130 31 -58 15 -113 29 -123 31 -10 2 -28 6 -40 10 -12 4 -31
8 -42 10 -11 1 -47 10 -80 19 -33 9 -71 18 -85 21 -14 3 -38 9 -55 14 -16 5
-41 11 -55 14 -14 2 -54 12 -90 21 -74 19 -109 27 -127 28 -7 0 -13 3 -13 7 0
3 -8 6 -17 7 -17 1 -34 4 -98 20 -16 4 -34 8 -40 9 -5 1 -12 3 -15 4 -3 1 -14
4 -25 6 -33 8 -50 12 -50 14 0 1 -11 3 -25 5 -35 6 -65 13 -65 16 0 1 -9 3
-20 5 -72 13 -85 17 -85 26 0 5 -4 7 -9 3 -6 -3 -90 15 -188 39 -98 25 -189
47 -203 50 -14 3 -43 10 -65 16 -22 6 -53 13 -70 16 -16 3 -38 10 -47 15 -10
5 -18 8 -18 5 0 -2 -17 0 -37 6 -21 5 -54 13 -73 18 -19 4 -46 11 -60 15 -14
3 -35 8 -47 11 -12 2 -33 8 -47 14 -13 5 -26 6 -29 3 -3 -3 -12 -1 -19 3 -7 5
-22 10 -33 12 -11 1 2 -11 28 -28z"/>
<path d="M10449 2686 c-3 -3 -20 -8 -38 -11 -19 -3 -38 -8 -43 -11 -5 -3 -24
-8 -41 -11 -18 -3 -37 -9 -43 -14 -6 -5 -13 -7 -15 -4 -3 2 -38 -4 -79 -15
-40 -10 -77 -17 -82 -14 -4 3 -8 1 -8 -3 0 -5 -12 -10 -26 -11 -14 -1 -31 -5
-37 -9 -6 -4 -20 -8 -32 -9 -11 -1 -94 -21 -184 -43 -91 -23 -174 -43 -185
-46 -12 -2 -41 -9 -66 -16 -25 -6 -52 -12 -60 -14 -8 -2 -62 -15 -120 -30 -58
-15 -113 -29 -123 -31 -10 -2 -27 -6 -37 -9 -23 -7 -57 -15 -92 -20 -15 -2
-31 -6 -36 -9 -5 -3 -19 -7 -33 -10 -67 -15 -198 -47 -229 -56 -19 -6 -47 -13
-61 -15 -14 -2 -55 -11 -90 -20 -35 -9 -72 -19 -81 -21 -10 -2 -26 -6 -35 -8
-10 -2 -47 -12 -83 -21 -36 -9 -72 -18 -80 -20 -8 -2 -62 -15 -120 -29 -58
-14 -114 -28 -125 -30 -11 -1 -27 -6 -36 -10 -9 -4 -29 -9 -45 -11 -16 -2 -29
-4 -29 -5 0 -1 -7 -3 -15 -5 -8 -1 -46 -10 -83 -20 -37 -9 -76 -18 -85 -20 -9
-2 -17 -4 -17 -5 0 -1 -7 -3 -15 -5 -8 -2 -26 -6 -40 -9 -54 -11 -67 -14 -110
-26 -25 -7 -54 -14 -65 -16 -56 -10 -116 -27 -119 -33 -3 -4 -19 -6 -35 -5
-17 1 -31 -1 -31 -5 0 -4 -6 -8 -12 -8 -7 0 -44 -8 -83 -18 -38 -9 -77 -18
-85 -20 -8 -2 -53 -13 -100 -25 -47 -11 -94 -23 -105 -25 -11 -3 -85 -21 -165
-41 -80 -19 -156 -38 -170 -40 -14 -3 -34 -8 -45 -11 -11 -4 -24 -8 -30 -9
-30 -6 -215 -50 -245 -59 -8 -2 -63 -15 -85 -20 -11 -2 -56 -13 -100 -25 -89
-22 -374 -91 -390 -94 -5 -1 -15 -4 -20 -8 -16 -10 -13 -1534 3 -1530 7 1 56
28 110 59 53 31 109 63 124 70 15 8 30 19 33 24 4 5 10 7 15 4 4 -3 13 2 20
10 7 8 18 15 25 15 8 0 15 3 17 8 2 4 21 16 43 28 22 11 80 44 129 72 49 29
93 52 97 52 5 0 9 4 9 9 0 5 8 11 18 15 19 6 102 51 142 77 59 38 402 229 410
229 6 0 10 4 10 10 0 5 11 12 25 16 14 3 25 10 25 16 0 5 5 6 10 3 6 -3 10 -1
10 4 0 6 6 11 14 11 8 0 16 3 18 8 2 4 21 16 43 27 22 11 67 36 100 56 33 20
83 49 110 64 28 16 79 45 115 65 36 20 81 45 100 56 19 10 37 22 38 27 2 4 8
7 13 7 4 0 43 20 85 45 41 25 77 45 79 45 3 0 45 25 96 55 50 30 93 55 95 55
3 0 21 10 42 23 20 13 62 37 92 54 128 70 155 87 162 97 4 6 8 8 8 4 0 -4 35
14 78 39 42 25 95 56 117 68 125 71 222 126 235 135 8 6 32 18 53 27 20 9 37
20 37 25 0 4 4 8 9 8 8 0 346 190 391 220 8 5 40 23 70 40 57 31 76 43 121 72
14 10 29 15 33 11 3 -3 6 -1 6 5 0 7 4 12 9 12 12 0 155 83 159 92 2 5 12 8
22 8 10 0 20 3 22 8 3 6 209 128 248 145 8 4 29 16 45 27 17 10 57 33 90 50
33 18 65 36 70 40 13 11 256 150 327 187 29 15 45 33 30 33 -5 0 -11 -2 -13
-4z"/>
</g>
</svg>
