<svg width="100" height="101" viewBox="0 0 100 101" fill="none" xmlns="http://www.w3.org/2000/svg">
<circle cx="50" cy="50.7489" r="50" fill="#2C374B"/>
<path d="M57.5112 47.9616L62.4073 39.6542L75.6037 60.2082L75.6099 64.1525L75.5669 37.0093C75.5356 36.3458 75.1833 35.7388 74.6212 35.3809L50.8626 21.7146C50.3069 21.4415 49.6021 21.4444 49.0474 21.7231C48.9725 21.7607 48.9019 21.8015 48.8347 21.846L48.752 21.8981L25.6904 35.2621L25.6008 35.3027C25.4858 35.3556 25.3695 35.4229 25.2603 35.5011C24.8231 35.8147 24.5327 36.2783 24.4387 36.7985C24.4247 36.8773 24.4143 36.9576 24.4094 37.0385L24.4456 59.1576L36.7375 40.1058C38.285 37.5795 41.6569 36.7658 44.7869 36.8101L48.4607 36.9071L26.8151 71.6204L29.3666 73.0896L51.2717 36.9423L60.9537 36.9071L39.1051 73.9665L49.2977 79.829C49.7578 80.016 50.3003 80.0253 50.7644 79.8579L74.8568 65.896L70.2506 68.5651L57.5112 47.9616ZM59.3792 74.8653L50.1832 60.4323L55.7967 50.9067L67.8739 69.9423L59.3792 74.8653Z" fill="#2D374B"/>
<path d="M50.1832 60.4323L59.3792 74.8653L67.8739 69.9423L55.7967 50.9067L50.1832 60.4323Z" fill="#28A0F0"/>
<path d="M75.6099 64.1525L75.6037 60.2082L62.4073 39.6542L57.5112 47.9616L70.2506 68.5651L74.8568 65.896C75.3087 65.5292 75.582 64.9907 75.6107 64.4095L75.6099 64.1525Z" fill="#28A0F0"/>
<path d="M20.3103 67.8724L26.8151 71.6204L48.4607 36.9071L44.7869 36.8101C41.6569 36.7658 38.285 37.5795 36.7375 40.1058L24.4456 59.1576L20.3101 65.5114L20.3103 67.8724Z" fill="white"/>
<path d="M60.9537 36.9071L51.2717 36.9423L29.3666 73.0896L37.023 77.4979L39.1051 73.9665L60.9537 36.9071Z" fill="white"/>
<path d="M79.69 36.8572C79.6091 34.8324 78.5128 32.9787 76.7954 31.8995L52.7255 18.0576C51.0267 17.2021 48.9044 17.2011 47.203 18.057C47.0019 18.1584 23.7953 31.6173 23.7953 31.6173C23.4742 31.7713 23.1649 31.9548 22.8738 32.1629C21.3408 33.2617 20.4063 34.9689 20.3103 36.8448L20.3101 65.5114L24.4456 59.1576L24.4094 37.0385C24.4143 36.9576 24.4245 36.8783 24.4387 36.7997C24.532 36.2792 24.8227 35.8147 25.2603 35.5011C25.3695 35.4229 48.9723 21.7607 49.0474 21.7231C49.6021 21.4444 50.3069 21.4415 50.8626 21.7146L74.6212 35.3809C75.1833 35.7388 75.5356 36.3458 75.5669 37.0093L75.5669 64.4097C75.5381 64.9909 75.3087 65.529 74.8568 65.896L70.2506 68.5651L67.8739 69.9423L59.3792 74.8653L50.7644 79.8579C50.3003 80.0253 49.7578 80.016 49.2977 79.829L39.1051 73.9665L37.023 77.4979L46.1826 82.7718C46.4855 82.9439 46.7555 83.0966 46.9768 83.2211C47.3199 83.4135 47.5534 83.542 47.636 83.5819C48.2871 83.8981 49.2237 84.0822 50.0678 84.0822C50.8417 84.0822 51.5963 83.9401 52.3105 83.6603L77.3327 69.1692C78.7689 68.0566 79.6138 66.3785 79.69 64.5605V36.8572Z" fill="#96BEDC"/>
</svg>
