<svg width="100" height="101" viewBox="0 0 100 101" fill="none" xmlns="http://www.w3.org/2000/svg">
<circle cx="50" cy="50.7489" r="50" fill="#FFB900"/>
<path d="M56.4177 72.7795V80.2508L49.9042 84.0822L43.5824 80.2508V72.7795L49.9042 76.6109L56.4177 72.7795ZM21.5518 46.9174L27.8736 50.7489V63.5841L38.7931 70.0975V77.5688L21.5518 67.4155V46.9174ZM78.2567 46.9174V67.4155L60.8238 77.5688V70.0975L71.7433 63.5841V50.7489L78.2567 46.9174ZM60.8238 36.7642L67.3372 40.5956V48.0669L56.4177 54.5803V67.6071L50.0958 71.4385L43.774 67.6071V54.5803L32.4713 48.0669V40.5956L38.9847 36.7642L49.9042 43.2776L60.8238 36.7642ZM32.4713 53.4309L38.7931 57.2623V64.7335L32.4713 60.9021V53.4309ZM67.3372 53.4309V60.9021L61.0154 64.7335V57.2623L67.3372 53.4309ZM27.8736 30.2508L34.387 34.0822L27.8736 37.9136V45.3849L21.5518 41.5535V34.0822L27.8736 30.2508ZM71.9349 30.2508L78.4483 34.0822V41.5535L71.9349 45.3849V37.9136L65.6131 34.0822L71.9349 30.2508ZM49.9042 30.2508L56.4177 34.0822L49.9042 37.9136L43.5824 34.0822L49.9042 30.2508ZM49.9042 17.4155L67.3372 27.5688L61.0154 31.4002L50.0958 24.8868L38.9847 31.4002L32.6629 27.5688L49.9042 17.4155Z" fill="white"/>
</svg>
