<svg width="100" height="101" viewBox="0 0 100 101" fill="none" xmlns="http://www.w3.org/2000/svg">
<circle cx="50" cy="50.7489" r="50" fill="#0D4064"/>
<path d="M71.534 24.6911C71.1817 24.6911 70.9895 24.6911 70.8081 24.6911C60.1116 24.6911 49.4151 24.6911 38.708 24.6804C38.1635 24.6804 38.0034 24.8192 38.0247 25.3636C38.0675 26.5699 38.0248 27.7762 38.0461 28.9932C38.0568 29.3881 37.918 29.5162 37.523 29.5056C35.6976 29.4842 33.8615 29.4842 32.036 29.5056C31.6197 29.5056 31.5343 29.3561 31.5343 28.9718C31.545 26.4098 31.5343 23.8584 31.545 21.2964C31.5556 19.5884 32.9968 18.158 34.7155 18.158C49.8528 18.158 65.0008 18.158 80.1381 18.158C81.4298 18.158 82.6681 19.0333 83.1271 20.2503C83.5862 21.4459 83.2552 22.9297 82.3265 23.773C78.2593 27.4453 74.1814 31.1068 70.1142 34.7684C69.2281 35.569 68.3528 36.391 67.4561 37.1809C66.7729 37.7681 65.9722 38.0349 65.0648 38.0349C51.4114 38.0243 37.7685 38.0349 24.1151 38.0349C23.9336 38.0349 23.7628 38.0456 23.5813 38.0349C23.3251 38.0243 23.229 38.1417 23.2397 38.3872C23.2504 38.494 23.2397 38.6007 23.2397 38.7075C23.2397 51.1653 23.2397 63.6231 23.2397 76.0809C23.2397 76.7641 23.2397 76.7747 23.9336 76.7747C37.1174 76.7747 50.3118 76.7747 63.4956 76.7747C63.7625 76.7747 64.008 76.7747 64.2322 76.5719C66.538 74.4903 68.8438 72.4086 71.1603 70.3377C71.2351 70.2736 71.3311 70.2203 71.4592 70.1455C71.1497 69.9854 70.9148 70.0388 70.6906 70.0388C58.8519 70.0388 47.0132 70.0388 35.1852 70.0388C33.9255 70.0388 32.8366 69.6758 32.1001 68.5976C31.7585 68.0959 31.545 67.5408 31.545 66.911C31.5556 58.1147 31.5556 49.3185 31.5343 40.5222C31.5343 40.1059 31.6837 40.0205 32.0574 40.0312C33.8294 40.0418 35.6122 40.0525 37.3842 40.0312C37.8966 40.0205 38.0461 40.1593 38.0461 40.6824C38.0248 47.92 38.0354 55.1471 38.0354 62.3848C38.0354 63.6551 37.8646 63.4843 39.135 63.4843C52.6817 63.4843 66.2177 63.4843 79.7645 63.4843C81.1522 63.4843 82.2518 63.9647 82.935 65.2137C83.6502 66.516 83.3833 68.1493 82.2838 69.1528C79.4335 71.7361 76.5619 74.3088 73.701 76.8815C71.63 78.7496 69.5591 80.6178 67.4881 82.4752C66.9116 82.9983 66.2391 83.3506 65.4278 83.3292C65.289 83.3292 65.1396 83.3292 65.0008 83.3292C50.0556 83.3292 35.1104 83.3292 20.1653 83.3399C18.7562 83.3399 17.71 82.7848 17.0481 81.5465C16.7813 81.0341 16.6745 80.4683 16.6745 79.9025C16.6638 64.9361 16.6638 49.9697 16.6745 35.0139C16.6745 32.9109 18.1797 31.5231 20.176 31.5338C34.5553 31.5658 48.9347 31.5445 63.3141 31.5552C63.7731 31.5552 64.1147 31.4271 64.4564 31.1175C66.7622 28.9718 69.0787 26.8902 71.534 24.6911Z" fill="#EB1B48"/>
</svg>
