<svg width="100" height="101" viewBox="0 0 100 101" fill="none" xmlns="http://www.w3.org/2000/svg">
<circle cx="50" cy="50.7489" r="50" fill="#5064FB"/>
<path fill-rule="evenodd" clip-rule="evenodd" d="M58.1282 37.393L36.5936 58.4063C36.3159 57.8805 36.0652 57.3326 35.8407 56.7645C35.0886 54.8553 34.7126 52.8295 34.7126 50.6901C34.7126 48.5488 35.0886 46.524 35.8407 44.6149C36.5936 42.7047 37.6363 41.0476 38.9698 39.6411C40.3034 38.2355 41.9059 37.1238 43.7765 36.305C45.6478 35.4871 47.7013 35.0777 49.9373 35.0777C52.1744 35.0777 54.239 35.4973 56.1305 36.3373C56.8338 36.649 57.4996 37.0006 58.1282 37.393ZM56.229 65.194C54.3575 66.0128 52.3042 66.4213 50.068 66.4213C47.8311 66.4213 45.7663 66.0018 43.874 65.1626C43.1715 64.8501 42.5057 64.4984 41.8782 64.1053L63.4117 43.0936C63.6894 43.6186 63.9403 44.1655 64.1648 44.7347C64.9167 46.6438 65.2928 48.6695 65.2928 50.8099C65.2928 52.9501 64.9167 54.9749 64.1648 56.8851C63.4117 58.7945 62.369 60.4513 61.0355 61.857C59.7019 63.2628 58.1005 64.3753 56.229 65.194ZM59.4832 71.7122C62.3653 70.4951 64.8598 68.8482 66.9673 66.7699C69.0746 64.6932 70.7084 62.2693 71.8696 59.4997C73.0315 56.7299 73.6121 53.7922 73.6121 50.687C73.6121 47.5809 73.0315 44.6432 71.8696 41.8726C71.1811 40.2301 70.3332 38.7131 69.3269 37.321L83.3332 23.6545L77.7676 18.2239L63.7188 31.932C62.4576 31.0929 61.0884 30.3676 59.6121 29.7552C56.73 28.5594 53.5478 27.9606 50.0642 27.9606C46.5798 27.9606 43.3975 28.5696 40.5157 29.7866C37.6336 31.0037 35.1389 32.6506 33.0316 34.728C30.9242 36.8055 29.2896 39.2295 28.1284 41.9993C26.9672 44.7688 26.3867 47.7065 26.3867 50.8126C26.3867 53.9178 26.9672 56.8549 28.1284 59.6253C28.8178 61.2688 29.6656 62.7857 30.6718 64.1786L16.6665 77.8434L22.2321 83.274L36.28 69.5668C37.5413 70.4059 38.9105 71.1311 40.3867 71.7434C43.2688 72.9395 46.4511 73.5374 49.9346 73.5374C53.419 73.5374 56.6013 72.9284 59.4832 71.7122Z" fill="white"/>
</svg>
