<svg width="100" height="101" viewBox="0 0 100 101" fill="none" xmlns="http://www.w3.org/2000/svg">
<circle cx="50" cy="50.7489" r="50" fill="#ECEFF0"/>
<path d="M49.9938 17.4155L49.5657 18.8738V61.1889L49.9938 61.6171L69.5959 50.0067L49.9938 17.4155Z" fill="#333333"/>
<path d="M49.9938 17.4155L30.3921 50.0067L49.9938 61.6171L49.9941 41.0788L49.9938 17.4155Z" fill="#8C8C8C"/>
<path d="M49.9938 68.0077L49.7526 68.3024V83.3759L49.9938 84.082L69.6077 56.403L49.9938 68.0077Z" fill="#333333"/>
<path d="M49.9938 84.082V68.0077L30.3921 56.403L49.9938 84.082Z" fill="#8C8C8C"/>
<path d="M49.9938 61.6171L69.5959 50.0067L49.9941 41.0788L49.9938 61.6171Z" fill="#141414"/>
<path d="M30.3921 50.0067L49.9938 61.6171L49.9941 41.0788L30.3921 50.0067Z" fill="#383838"/>
</svg>
