<svg width="100" height="101" viewBox="0 0 100 101" fill="none" xmlns="http://www.w3.org/2000/svg">
<circle cx="50" cy="50.7489" r="50" fill="#ED4E33"/>
<path d="M42.5989 32.601C31.0772 36.7606 30.0218 47.4134 26.718 52.3885C23.3751 57.4227 15.7168 60.2003 16.764 62.7657C17.8113 65.3312 25.4788 62.5758 31.5449 64.2127C37.5391 65.83 45.9027 73.0832 57.4244 68.9234C63.2938 66.8047 67.5441 62.4431 69.4984 57.2772C69.7085 56.7227 69.3156 56.1297 68.6922 56.0749C68.3045 56.0407 67.9326 56.2315 67.758 56.5584C65.9898 59.87 62.9574 62.5971 58.9885 64.0296C52.4365 66.3948 45.2676 64.5379 40.8647 59.8803C39.8648 58.8226 39.0095 57.6186 38.3344 56.288C38.1487 55.9217 37.9722 55.5495 37.8157 55.1644C37.6583 54.7793 37.5246 54.3917 37.4017 54.0024C40.8647 52.4844 44.8609 50.8765 49.3911 49.2412C53.8331 47.6376 57.8757 46.3369 61.4753 45.2964C63.91 44.593 66.1418 44.0077 68.1572 43.5293C68.3028 43.4951 68.4467 43.4609 68.5893 43.4275C68.8942 43.3565 69.2072 43.5096 69.3199 43.7851L69.322 43.7903C69.3882 43.9537 69.4454 44.118 69.5074 44.2823C69.9062 45.3426 70.2046 46.4139 70.4019 47.4878C70.4881 47.9576 71.0343 48.2135 71.4817 47.9876C73.1359 47.1524 74.6491 46.3378 76.0014 45.5539C81.0394 42.636 83.8323 40.1612 83.2593 38.7587C82.6871 37.3554 78.8511 37.2749 73.0304 38.2761C71.1807 38.5944 69.1299 39.0223 66.9198 39.552C66.5377 39.6435 66.1508 39.7385 65.7597 39.836C63.8997 40.2998 61.9382 40.8312 59.8955 41.426C56.0969 42.5324 52.0216 43.8579 47.8143 45.3768C43.8782 46.7981 40.1477 48.2717 36.7266 49.7401C36.6848 43.5079 40.6909 37.6163 47.2429 35.2511C51.2109 33.8187 55.4054 33.9359 59.0758 35.2854C59.4377 35.4189 59.8502 35.3264 60.1149 35.0569C60.5389 34.6248 60.4087 33.9368 59.8583 33.6561C54.7302 31.0487 48.4685 30.4823 42.5989 32.601Z" fill="white"/>
</svg>
