<svg width="100" height="101" viewBox="0 0 100 101" fill="none" xmlns="http://www.w3.org/2000/svg">
<circle cx="50" cy="50.7489" r="50" fill="#E53935"/>
<circle cx="50" cy="50.7487" r="48" fill="#263238" stroke="#E53935" stroke-width="4"/>
<path d="M82.6781 30.314V25.6038H67.7582C66.9576 22.5604 66.157 19.8792 65.2837 17.4154L60.2618 18.285C61.1352 20.4589 62.0086 22.9227 62.8091 25.6038H47.0158V30.314H82.6781ZM44.4685 65.314V35.2415H37.1177C38.6461 32.9951 40.1745 30.2415 41.7029 26.9082V23.4299H29.6942C30.3492 21.9807 30.9314 20.5314 31.5137 19.0096L26.8557 17.5604C24.6723 24.6618 21.2517 30.3864 16.6665 34.8067L17.7582 39.9517C18.7043 39.0821 19.6505 38.2125 20.5239 37.2705V65.314H44.4685ZM32.0959 35.2415H22.3434C24.2356 32.9227 26.0552 30.314 27.6563 27.5604H36.8266C35.2255 30.4589 33.6971 33.0676 32.0959 35.2415ZM62.0813 84.0821C65.7204 84.0821 67.6126 82.0531 67.6126 78.0676V57.4154H79.1847V36.8357H50.8732V57.4154H62.518V76.8357C62.518 78.6473 61.7902 79.5893 60.3346 79.5893C58.6607 79.5893 56.914 79.4444 55.1672 79.227L56.1861 84.0821H62.0813ZM30.422 48.1401H25.0362V39.5169H30.422V48.1401ZM39.9562 48.1401H34.6432V39.5169H39.9562V48.1401ZM74.2356 52.8502H55.8223V41.4734H74.2356V52.8502ZM39.9562 60.9662H34.6432V52.343H39.9562V60.9662ZM30.422 60.9662H25.0362V52.343H30.422V60.9662ZM79.4758 80.7488L83.3332 78.0676C81.3681 73.4299 78.6025 68.0676 74.9634 61.9082L71.1061 64.227C74.5995 70.2415 77.438 75.7488 79.4758 80.7488ZM48.9809 81.9806C52.1832 76.9806 54.9489 71.0386 57.2779 64.227L53.0566 62.198C50.8004 68.7198 48.1075 74.372 45.0508 79.1546L48.9809 81.9806ZM42.9402 77.0531L46.5064 76.1835C45.4875 72.7053 44.4685 69.6618 43.3041 67.0531L39.8834 68.0676C41.0479 70.9662 42.0668 73.9372 42.9402 77.0531ZM35.2255 81.256L39.01 80.8212C38.5733 75.314 37.7728 70.9662 36.6083 67.7778L32.9693 68.2125C34.1338 71.256 34.8616 75.6038 35.2255 81.256ZM21.3244 83.2125C22.8528 78.9372 23.799 74.0821 24.2356 68.5749L20.3055 68.0676C19.9416 73.285 18.9227 77.9227 17.3215 81.9806L21.3244 83.2125ZM27.438 82.343L31.2225 81.9082C31.077 76.1835 30.7131 71.6183 30.2036 68.285L26.7102 68.7198C27.0741 71.9082 27.2924 76.4734 27.438 82.343Z" fill="#E53935"/>
<g style="mix-blend-mode:multiply">
<path fill-rule="evenodd" clip-rule="evenodd" d="M70.3744 35.4168C58.5902 26.2425 47.1769 26.5651 36.1346 36.3847C25.0923 46.2042 25.3691 58.582 36.9649 73.5182L39.6586 46.1179L68.6963 39.5897L70.3744 35.4168Z" fill="url(#paint0_linear_769_1835)"/>
<path fill-rule="evenodd" clip-rule="evenodd" d="M44.6233 29.8672C36.9444 27.8893 28.2348 30.5868 29.4145 34.1104C29.7909 35.2349 32.5636 33.4206 36.2233 34.718C38.0099 33.9006 44.0512 30.6528 44.6233 29.8672Z" fill="#263238"/>
<path fill-rule="evenodd" clip-rule="evenodd" d="M53.7223 27.9428C60.2842 27.9428 66.2851 30.3445 70.894 34.3168L70.1319 36.1417C65.794 32.2102 60.0379 29.815 53.7223 29.815C40.2225 29.815 29.2788 40.7588 29.2788 54.2586C29.2788 67.7584 40.2225 78.7021 53.7223 78.7021C55.1893 78.7021 56.6261 78.5729 58.022 78.3252L57.5136 80.3033C56.2756 80.4819 55.0098 80.5744 53.7223 80.5744C39.1885 80.5744 27.4065 68.7924 27.4065 54.2586C27.4065 39.7248 39.1885 27.9428 53.7223 27.9428Z" fill="url(#paint1_linear_769_1835)"/>
<path fill-rule="evenodd" clip-rule="evenodd" d="M52.9421 32.2075C59.18 32.2075 64.8467 34.7025 69.0353 38.7675L68.4515 40.1652C64.4742 36.0802 59.0163 33.5597 52.9941 33.5597C40.8251 33.5597 30.9602 43.8515 30.9602 56.547C30.9602 69.2426 40.8251 79.5343 52.9941 79.5343C54.8387 79.5343 56.6304 79.2978 58.3428 78.8524L58.251 79.2281C56.5455 79.6325 54.7683 79.8464 52.9421 79.8464C40.0455 79.8464 29.5908 69.182 29.5908 56.0269C29.5908 42.8718 40.0455 32.2075 52.9421 32.2075Z" fill="url(#paint2_linear_769_1835)"/>
<path fill-rule="evenodd" clip-rule="evenodd" d="M44.3225 73.026C40.335 71.0875 36.3202 63.4195 46.4563 55.6668C55.541 48.7182 71.5597 51.4324 71.5597 35.6517C71.5597 35.1844 70.7987 33.6445 70.1797 34.2714C68.9993 35.4669 66.8787 39.5376 61.3125 38.8257C47.0353 36.9997 30.3062 37.2982 32.7556 65.7363C32.7556 71.4062 41.0406 75.4381 44.3225 73.026Z" fill="url(#paint3_linear_769_1835)"/>
<path fill-rule="evenodd" clip-rule="evenodd" d="M41.9481 40.4909C38.8957 39.8902 35.8899 39.5898 32.9307 39.5898C22.7147 39.5898 21.5216 46.6723 22.3483 47.385C23.415 48.3046 30.9493 43.154 34.5716 49.6767C36.9865 54.0252 39.4454 50.9633 41.9481 40.4909Z" fill="#263238"/>
<path fill-rule="evenodd" clip-rule="evenodd" d="M44.27 73.0337C44.5503 71.3789 45.009 70.1618 45.646 69.3824C46.7967 67.9744 49.1012 66.1674 49.5773 66.6231C49.9031 66.9349 49.6096 67.4537 49.381 68.1523C49.1387 68.8927 48.8649 69.7613 49.5773 71.2362C50.5004 73.1474 50.7802 74.4802 50.4168 75.2347C52.5839 74.9139 54.4176 75.454 55.918 76.8549C58.1685 78.9563 60.53 77.9712 59.4721 79.8648C59.3655 80.0556 55.464 81.0935 48.9171 79.9728C47.6607 79.7577 45.701 78.8798 43.0379 77.3391C40.6692 76.093 39.125 75.1592 38.4052 74.5375C37.6854 73.9159 37.1298 73.036 36.7381 71.8979L42.2459 73.543C43.4011 73.3095 44.0156 73.1244 44.0895 72.988C44.0969 72.9742 44.2676 73.0479 44.27 73.0337Z" fill="#263238"/>
</g>
<path fill-rule="evenodd" clip-rule="evenodd" d="M71.7795 33.6618C59.9953 24.4875 48.5821 24.8101 37.5398 34.6297C26.4974 44.4492 26.7742 56.827 38.37 71.7632L41.0637 44.3629L70.1014 37.8347L71.7795 33.6618Z" fill="url(#paint4_linear_769_1835)"/>
<path fill-rule="evenodd" clip-rule="evenodd" d="M46.0284 28.1122C38.3495 26.1342 29.6399 28.8317 30.8196 32.3554C31.1961 33.4799 33.9687 31.6656 37.6284 32.963C39.415 32.1456 45.4563 28.8978 46.0284 28.1122Z" fill="#546E7A"/>
<path fill-rule="evenodd" clip-rule="evenodd" d="M55.1274 26.1878C61.6893 26.1878 67.6903 28.5895 72.2992 32.5618L71.537 34.3867C67.1991 30.4552 61.443 28.06 55.1274 28.06C41.6276 28.06 30.6839 39.0038 30.6839 52.5036C30.6839 66.0034 41.6276 76.9471 55.1274 76.9471C56.5944 76.9471 58.0312 76.8179 59.4271 76.5702L58.9188 78.5483C57.6808 78.7269 56.4149 78.8194 55.1274 78.8194C40.5936 78.8194 28.8116 67.0374 28.8116 52.5036C28.8116 37.9698 40.5936 26.1878 55.1274 26.1878Z" fill="url(#paint5_linear_769_1835)"/>
<path fill-rule="evenodd" clip-rule="evenodd" d="M54.3527 30.4524C60.5906 30.4524 66.2572 32.9474 70.4459 37.0124L69.862 38.4101C65.8848 34.3251 60.4269 31.8046 54.4047 31.8046C42.2357 31.8046 32.3708 42.0964 32.3708 54.7919C32.3708 67.4874 42.2357 77.7792 54.4047 77.7792C56.2493 77.7792 58.0409 77.5427 59.7533 77.0973L59.6615 77.473C57.956 77.8774 56.1788 78.0913 54.3527 78.0913C41.4561 78.0913 31.0013 67.4269 31.0013 54.2718C31.0013 41.1167 41.4561 30.4524 54.3527 30.4524Z" fill="url(#paint6_linear_769_1835)"/>
<path fill-rule="evenodd" clip-rule="evenodd" d="M45.7277 71.2709C41.7401 69.3324 37.7253 61.6644 47.8614 53.9117C56.9461 46.9631 72.9649 49.6773 72.9649 33.8966C72.9649 33.4293 72.2038 31.8894 71.5848 32.5163C70.4044 33.7118 68.2839 37.7824 62.7176 37.0706C48.4404 35.2446 31.7113 35.543 34.1607 63.9812C34.1607 69.6511 42.4457 73.683 45.7277 71.2709Z" fill="url(#paint7_linear_769_1835)"/>
<path fill-rule="evenodd" clip-rule="evenodd" d="M43.3597 38.7359C40.3073 38.1351 37.3016 37.8347 34.3424 37.8347C24.1263 37.8347 22.9332 44.9173 23.7599 45.63C24.8266 46.5496 32.3609 41.399 35.9833 47.9217C38.3982 52.2701 40.857 49.2082 43.3597 38.7359Z" fill="#607D8B"/>
<path fill-rule="evenodd" clip-rule="evenodd" d="M45.6816 71.2785C45.962 69.6237 46.4206 68.4066 47.0576 67.6272C48.2083 66.2192 50.5129 64.4122 50.989 64.8679C51.3147 65.1797 51.0213 65.6985 50.7926 66.3971C50.5503 67.1374 50.2765 68.0061 50.989 69.481C51.912 71.3922 52.1918 72.725 51.8284 73.4795C53.9955 73.1587 55.8292 73.6988 57.3296 75.0997C59.5801 77.2011 61.9417 76.216 60.8838 78.1096C60.7772 78.3004 56.8756 79.3383 50.3287 78.2176C49.0724 78.0025 47.1126 77.1246 44.4495 75.5838C42.0808 74.3378 40.5366 73.404 39.8168 72.7823C39.0971 72.1607 38.5414 71.2808 38.1497 70.1427L43.6575 71.7878C44.8127 71.5543 45.4272 71.3692 45.5011 71.2328C45.5085 71.219 45.6792 71.2927 45.6816 71.2785Z" fill="#546E7A"/>
<defs>
<linearGradient id="paint0_linear_769_1835" x1="43.7245" y1="33.4497" x2="30.6327" y2="46.3429" gradientUnits="userSpaceOnUse">
<stop stop-color="#263238"/>
<stop offset="1" stop-color="#263238"/>
</linearGradient>
<linearGradient id="paint1_linear_769_1835" x1="32.9222" y1="41.3696" x2="36.135" y2="71.4583" gradientUnits="userSpaceOnUse">
<stop stop-color="#263238"/>
<stop offset="1" stop-color="#263238"/>
</linearGradient>
<linearGradient id="paint2_linear_769_1835" x1="35.1374" y1="37.9911" x2="38.7388" y2="74.6202" gradientUnits="userSpaceOnUse">
<stop stop-color="#263238"/>
<stop offset="1" stop-color="#263238"/>
</linearGradient>
<linearGradient id="paint3_linear_769_1835" x1="45.8937" y1="54.2586" x2="46.975" y2="77.8156" gradientUnits="userSpaceOnUse">
<stop stop-color="#263238"/>
<stop offset="1" stop-color="#263238"/>
</linearGradient>
<linearGradient id="paint4_linear_769_1835" x1="45.1333" y1="31.6947" x2="32.0415" y2="44.5862" gradientUnits="userSpaceOnUse">
<stop stop-color="white"/>
<stop offset="1" stop-color="#CFD8DC"/>
</linearGradient>
<linearGradient id="paint5_linear_769_1835" x1="34.3324" y1="39.6146" x2="37.5456" y2="69.7032" gradientUnits="userSpaceOnUse">
<stop stop-color="#607D8B"/>
<stop offset="1" stop-color="#546E7A"/>
</linearGradient>
<linearGradient id="paint6_linear_769_1835" x1="36.5473" y1="36.2361" x2="40.1491" y2="72.8651" gradientUnits="userSpaceOnUse">
<stop stop-color="#607D8B"/>
<stop offset="1" stop-color="#546E7A"/>
</linearGradient>
<linearGradient id="paint7_linear_769_1835" x1="47.3022" y1="52.5036" x2="48.3837" y2="76.0606" gradientUnits="userSpaceOnUse">
<stop stop-color="#607D8B"/>
<stop offset="1" stop-color="#546E7A"/>
</linearGradient>
</defs>
</svg>
