<svg width="100" height="101" viewBox="0 0 100 101" fill="none" xmlns="http://www.w3.org/2000/svg">
<circle cx="50" cy="50.7489" r="50" fill="#5E12A0"/>
<path d="M80.1191 29.7032C79.4472 27.1594 77.2873 24.6157 73.3996 21.7839C70.2799 19.5281 66.9681 18.2322 64.3284 18.2322C63.8004 18.2322 63.3204 18.2802 62.8405 18.3761C61.6406 18.6161 60.5847 19.4801 59.9127 20.776C59.0968 22.3118 58.9048 24.3757 59.4328 25.6236C59.6247 26.0075 59.8647 26.4875 60.1527 26.9195C57.6089 28.4553 56.169 28.8873 55.977 28.9353C62.6005 31.1431 68.1201 35.7508 71.5758 41.7503L71.6238 41.1743C71.7678 39.5905 72.2477 37.7666 72.9197 35.8947C73.5916 36.0867 74.2636 36.1827 74.9355 36.1827C76.7114 36.1827 78.2472 35.4628 79.2072 34.1669C80.1671 32.871 80.5511 31.1431 80.1191 29.7032Z" fill="#5E12A0"/>
<path d="M73.2061 34.5024C77.5737 35.7023 79.3496 32.3426 78.7736 30.0867C78.1497 27.8309 76.1339 25.5271 72.5821 22.9353C69.0304 20.3435 65.4307 19.2876 63.1269 19.7676C60.8231 20.2475 60.1511 23.7512 60.7271 25.0951C60.9671 25.6231 61.495 26.391 62.215 27.255C61.303 27.8789 60.4391 28.3589 59.7192 28.7908C64.1348 30.7587 67.9745 33.8304 70.8543 37.6701C71.1903 36.3742 71.6702 35.2223 72.1022 34.2144C72.4382 34.2624 72.8221 34.3584 73.2061 34.5024Z" fill="url(#paint0_radial_769_701)"/>
<path d="M48.1995 81.538C63.0174 81.538 75.0294 69.526 75.0294 54.7082C75.0294 39.8903 63.0174 27.8783 48.1995 27.8783C33.3816 27.8783 21.3696 39.8903 21.3696 54.7082C21.3696 69.526 33.3816 81.538 48.1995 81.538Z" fill="url(#paint1_radial_769_701)"/>
<path d="M76.5675 27.8795C72.9198 24.0398 69.848 23.0319 66.1523 22.216C63.2726 21.544 64.0405 19.9122 67.5442 20.2481C65.8644 19.6722 64.2788 19.5276 63.1269 19.7676C60.8231 20.2475 60.1511 23.7512 60.7271 25.0951C60.9671 25.6231 61.495 26.391 62.215 27.255C60.9191 28.1189 59.8168 28.7435 58.9049 29.2234C59.3369 29.4154 59.8648 29.6554 60.4888 29.9914C62.1207 30.8553 63.8965 32.2952 63.8965 32.2952C61.2087 29.9914 61.7847 28.9354 65.4804 26.3436C66.6323 25.5277 68.7441 25.6237 70.712 26.6316C72.6798 27.6395 74.9836 30.1833 74.9836 30.1833L72.7758 34.407C72.9198 34.455 73.0638 34.503 73.2078 34.551C74.5997 34.935 75.7036 34.839 76.5675 34.503C77.5754 33.879 80.2152 31.7672 76.5675 27.8795Z" fill="#A98698" fill-opacity="0.6"/>
<path d="M66.1028 24.5196C67.0627 24.9036 68.3106 25.5755 69.8465 26.5834C71.6703 27.7833 73.2542 29.1272 74.2621 30.1832C72.5823 32.391 71.4783 35.4147 70.8064 37.5266C71.1424 38.0065 71.5263 38.4865 71.8623 38.9665C72.1983 37.7665 72.7742 35.9907 73.5422 34.2148C73.7342 34.2628 73.9742 34.2628 74.2141 34.2628C74.7901 34.2628 75.462 34.1668 75.99 33.7349C76.374 33.4469 76.8059 32.9189 76.7579 31.959C76.7579 31.0471 76.038 29.8952 74.5501 28.5033C73.4942 27.4954 72.0543 26.3915 70.6144 25.3835C66.4868 22.6478 63.607 21.8798 62.3111 23.1757C61.4472 24.0396 61.5431 25.0956 61.8311 25.8635C60.2952 26.8714 58.9993 27.5914 58.1354 28.0713C58.7114 28.2633 59.2393 28.5033 59.8153 28.7433C61.3512 27.9273 63.559 26.5354 66.1028 24.5196ZM75.1741 31.3831C75.318 31.623 75.366 31.863 75.366 32.007C75.366 32.439 75.222 32.583 75.1261 32.679C74.9341 32.8229 74.5501 32.9189 74.2141 32.9189C74.5021 32.343 74.8381 31.863 75.1741 31.3831ZM63.319 24.2316C63.463 24.0876 63.847 23.9916 64.4709 24.0876C63.9909 24.4716 63.511 24.8076 63.031 25.1436C62.983 24.8076 63.031 24.4716 63.319 24.2316Z" fill="#5E12A0"/>
<path d="M48.1996 26.2945C32.5049 26.2945 19.7859 39.0135 19.7859 54.7082C19.7859 70.403 32.5049 83.122 48.1996 83.122C63.8944 83.122 76.6134 70.403 76.6134 54.7082C76.6134 39.0135 63.8464 26.2945 48.1996 26.2945ZM48.1995 81.538C33.3687 81.538 21.3696 69.539 21.3696 54.7082C21.3696 39.8774 33.3687 27.8783 48.1995 27.8783C63.0303 27.8783 75.0294 39.8774 75.0294 54.7082C75.0294 69.539 62.9823 81.538 48.1995 81.538Z" fill="#5E12A0"/>
<path d="M48.1995 81.538C63.0174 81.538 75.0294 69.526 75.0294 54.7082C75.0294 39.8903 63.0174 27.8783 48.1995 27.8783C33.3816 27.8783 21.3696 39.8903 21.3696 54.7082C21.3696 69.526 33.3816 81.538 48.1995 81.538Z" fill="url(#paint2_linear_769_701)"/>
<path d="M48.008 78.2752C33.3692 75.9234 23.434 62.1485 25.8338 47.5096C26.8897 41.0302 30.1535 35.5106 34.7611 31.5269C28.0416 35.4146 23.05 42.1821 21.7061 50.4374C19.3543 65.0762 29.2895 78.8511 43.8804 81.2029C52.0397 82.5468 59.9111 80.003 65.7186 75.0114C60.583 77.9872 54.3435 79.2831 48.008 78.2752Z" fill="#A98698" fill-opacity="0.6"/>
<path d="M52.4731 28.2624C45.7057 27.1585 39.1302 28.6944 33.7546 32.1021C33.6586 32.1981 33.5626 32.2941 33.5626 32.2941C35.6265 31.0462 38.6502 29.9423 38.6502 29.9423C30.8749 34.4539 28.475 39.5895 28.475 39.5895C31.4988 33.734 40.3781 29.6063 47.3375 29.3183C54.297 29.0304 58.8566 31.0942 64.4242 35.5578C69.9917 40.0695 73.3515 49.2847 73.0155 56.5802C72.7275 63.8756 68.8878 69.7791 68.8878 69.7791C71.5276 66.3714 73.1115 63.8756 74.1194 61.3318C74.3114 60.5638 74.5034 59.7959 74.5994 58.98C76.9992 44.3891 67.112 30.6142 52.4731 28.2624Z" fill="url(#paint3_linear_769_701)"/>
<path d="M73.688 54.4682C73.688 68.5311 62.2649 79.9542 48.2021 79.9542C34.1392 79.9542 22.6681 68.5311 22.6681 54.4682H73.688Z" fill="url(#paint4_linear_769_701)"/>
<path d="M71.6719 54.4682C71.6719 68.1951 60.8248 79.4262 47.1938 79.9542H48.2021C62.2649 79.9542 73.688 68.5311 73.688 54.4682H71.6719Z" fill="url(#paint5_linear_769_701)"/>
<path d="M26.2678 54.4682H22.6681C22.6681 68.5311 34.0912 79.9542 48.1541 79.9542C48.778 79.9542 49.354 79.9542 49.9299 79.9062C36.731 78.9463 26.2678 67.9072 26.2678 54.4682Z" fill="url(#paint6_linear_769_701)"/>
<path d="M73.64 54.7084C73.64 51.7807 68.5525 50.1008 61.785 49.5248C56.8894 49.1409 51.9458 49.6208 46.2822 51.3487C41.3866 52.7886 36.971 52.5486 33.7552 52.1646C26.6038 51.3487 22.6681 51.2527 22.6681 54.7084C22.6681 59.7 32.8433 65.9395 48.1061 63.7797C55.8335 62.6758 59.8172 60.42 64.3768 58.8841C69.3204 57.2522 73.64 57.3002 73.64 54.7084Z" fill="url(#paint7_linear_769_701)"/>
<path d="M56.5505 42.6134C58.9364 42.6134 60.8701 40.6796 60.8701 38.2937C60.8701 35.9079 58.9364 33.9741 56.5505 33.9741C54.1646 33.9741 52.2308 35.9079 52.2308 38.2937C52.2308 40.6796 54.1646 42.6134 56.5505 42.6134Z" fill="white"/>
<path d="M63.6069 45.8287C64.6144 45.8287 65.4308 45.0123 65.4308 44.0048C65.4308 42.9974 64.6144 42.181 63.6069 42.181C62.5995 42.181 61.7831 42.9974 61.7831 44.0048C61.7831 45.0123 62.5995 45.8287 63.6069 45.8287Z" fill="white"/>
<path d="M70.1372 34.8384H70.0412C69.7532 34.7904 69.5612 34.5025 69.6092 34.1665C70.0412 31.9587 71.8651 29.8468 71.9611 29.7508C72.153 29.5109 72.537 29.5109 72.729 29.7028C72.969 29.8948 72.969 30.2788 72.777 30.4708C72.729 30.5188 71.0491 32.4866 70.6652 34.4065C70.6172 34.6944 70.3772 34.8384 70.1372 34.8384Z" fill="url(#paint8_linear_769_701)"/>
<path d="M64.3284 18.2322C67.0161 18.2322 70.3279 19.5281 73.3996 21.7839C77.2873 24.6157 79.4472 27.1115 80.1191 29.7032C80.5031 31.1911 80.1646 32.8704 79.2047 34.1183C78.1968 35.4141 76.7089 36.1341 74.9331 36.1341C74.3091 36.1341 73.6372 36.0381 72.9172 35.8461C72.4853 36.95 72.1493 38.0539 71.9093 39.1099C74.8371 43.5735 76.5649 48.9491 76.5649 54.7086C76.5649 70.4034 63.8459 83.1223 48.1512 83.1223C32.4564 83.1223 19.7859 70.403 19.7859 54.7082C19.7859 39.0135 32.5049 26.2945 48.1996 26.2945C51.6553 26.2945 54.9667 26.9188 58.0384 28.0707C58.6144 27.7828 59.3368 27.3994 60.1527 26.9195C59.8647 26.4875 59.5767 26.0555 59.4328 25.6236C58.9048 24.3277 59.0968 22.3118 59.9127 20.776C60.5847 19.5281 61.5926 18.6641 62.8405 18.3761C63.2724 18.2802 63.8004 18.2322 64.3284 18.2322ZM64.3259 17.4156C63.75 17.4156 63.174 17.4636 62.646 17.6076C61.2062 17.9435 59.9583 18.9035 59.1423 20.4393C58.2304 22.2152 57.9904 24.519 58.6144 26.0069C58.7104 26.1989 58.8063 26.4389 58.9503 26.6788C58.6144 26.8708 58.2784 27.0628 57.9424 27.2068C54.7747 26.1029 51.5109 25.5269 48.1512 25.5269C44.2155 25.5269 40.3758 26.2949 36.7761 27.8308C33.2724 29.3186 30.1526 31.4305 27.4648 34.1183C24.7771 36.806 22.6652 39.9258 21.1774 43.4295C19.6415 47.0292 18.8735 50.8689 18.8735 54.8046C18.8735 58.7403 19.6415 62.58 21.1774 66.1797C22.6652 69.6834 24.7771 72.8032 27.4648 75.4909C30.1526 78.1787 33.2724 80.2906 36.7761 81.7784C40.3758 83.3143 44.2155 84.0823 48.1512 84.0823C52.0869 84.0823 55.9266 83.3143 59.5263 81.7784C63.03 80.2906 66.1498 78.1787 68.8375 75.4909C71.5253 72.8032 73.6372 69.6834 75.125 66.1797C76.6609 62.58 77.4289 58.7403 77.4289 54.8046C77.4289 49.189 75.845 43.7655 72.8212 39.0619C72.9652 38.3419 73.2052 37.622 73.4452 36.902C73.9251 36.998 74.4531 37.046 74.9331 37.046C76.9489 37.046 78.7248 36.2301 79.8767 34.6942C80.9806 33.2543 81.4125 31.2385 80.9326 29.5586C80.1646 26.7748 77.9568 24.1351 73.8771 21.2073C70.6614 18.7595 67.1577 17.4156 64.3259 17.4156Z" fill="white"/>
<path d="M46.4241 74.7225C47.1661 74.7225 47.768 74.1207 47.768 73.3787C47.768 72.6366 47.1661 72.0348 46.4241 72.0348C45.6821 72.0348 45.0802 72.6366 45.0802 73.3787C45.0802 74.1207 45.6821 74.7225 46.4241 74.7225Z" fill="white" fill-opacity="0.2"/>
<path d="M45.656 74.2434C45.128 73.7155 45.128 72.8515 45.656 72.3236C45.752 72.2276 45.848 72.1796 45.9439 72.0836C45.752 72.1316 45.608 72.2276 45.464 72.3716C44.936 72.8995 44.936 73.7635 45.464 74.2914C45.896 74.7234 46.5679 74.8194 47.0959 74.5314C46.6159 74.7234 46.0399 74.6274 45.656 74.2434Z" fill="url(#paint9_linear_769_701)"/>
<path d="M46.9036 72.9954C47.0624 72.9954 47.1915 72.8662 47.1915 72.7074C47.1915 72.5485 47.0624 72.4194 46.9036 72.4194C46.7447 72.4194 46.6156 72.5485 46.6156 72.7074C46.6156 72.8662 46.7447 72.9954 46.9036 72.9954Z" fill="white" fill-opacity="0.3"/>
<path d="M53.4323 74.0505C54.1743 74.0505 54.7762 73.4487 54.7762 72.7066C54.7762 71.9646 54.1743 71.3628 53.4323 71.3628C52.6903 71.3628 52.0884 71.9646 52.0884 72.7066C52.0884 73.4487 52.6903 74.0505 53.4323 74.0505Z" fill="white" fill-opacity="0.2"/>
<path d="M52.6642 73.5714C52.1362 73.0435 52.1362 72.1795 52.6642 71.6516C52.7602 71.5556 52.8561 71.5076 52.9521 71.4116C52.7602 71.4596 52.6162 71.5556 52.4722 71.6996C51.9442 72.2275 51.9442 73.0914 52.4722 73.6194C52.9041 74.0514 53.5761 74.1474 54.104 73.8594C53.6241 74.0514 53.0481 73.9554 52.6642 73.5714Z" fill="url(#paint10_linear_769_701)"/>
<path d="M53.9113 72.3235C54.0702 72.3235 54.1993 72.1944 54.1993 72.0356C54.1993 71.8767 54.0702 71.7476 53.9113 71.7476C53.7524 71.7476 53.6233 71.8767 53.6233 72.0356C53.6233 72.1944 53.7524 72.3235 53.9113 72.3235Z" fill="white" fill-opacity="0.3"/>
<path d="M49.9777 77.1718C50.5344 77.1718 50.9856 76.7206 50.9856 76.1638C50.9856 75.6071 50.5344 75.1559 49.9777 75.1559C49.4209 75.1559 48.9697 75.6071 48.9697 76.1638C48.9697 76.7206 49.4209 77.1718 49.9777 77.1718Z" fill="white" fill-opacity="0.2"/>
<path d="M49.4017 76.7865C49.0177 76.4025 49.0177 75.7306 49.4017 75.3466C49.4497 75.2986 49.5457 75.2506 49.5937 75.2026C49.4497 75.2506 49.3537 75.3466 49.2577 75.4426C48.8738 75.8266 48.8738 76.4985 49.2577 76.8825C49.5937 77.2184 50.0737 77.2664 50.5056 77.0265C50.1217 77.1704 49.6897 77.0744 49.4017 76.7865Z" fill="url(#paint11_linear_769_701)"/>
<path d="M50.3133 75.8266C50.4193 75.8266 50.5052 75.7407 50.5052 75.6347C50.5052 75.5286 50.4193 75.4427 50.3133 75.4427C50.2072 75.4427 50.1213 75.5286 50.1213 75.6347C50.1213 75.7407 50.2072 75.8266 50.3133 75.8266Z" fill="white" fill-opacity="0.3"/>
<path d="M56.1666 76.4509C56.7234 76.4509 57.1746 75.9997 57.1746 75.443C57.1746 74.8862 56.7234 74.4351 56.1666 74.4351C55.6099 74.4351 55.1587 74.8862 55.1587 75.443C55.1587 75.9997 55.6099 76.4509 56.1666 76.4509Z" fill="white" fill-opacity="0.2"/>
<path d="M55.5907 76.0678C55.2067 75.6838 55.2067 75.0118 55.5907 74.6279C55.6387 74.5799 55.7347 74.5319 55.7827 74.4839C55.6387 74.5319 55.5427 74.6279 55.4467 74.7239C55.0627 75.1078 55.0627 75.7798 55.4467 76.1638C55.7827 76.4997 56.2626 76.5477 56.6946 76.3077C56.3106 76.4517 55.8787 76.3557 55.5907 76.0678Z" fill="url(#paint12_linear_769_701)"/>
<path d="M56.5027 75.1061C56.6087 75.1061 56.6947 75.0202 56.6947 74.9141C56.6947 74.8081 56.6087 74.7221 56.5027 74.7221C56.3966 74.7221 56.3107 74.8081 56.3107 74.9141C56.3107 75.0202 56.3966 75.1061 56.5027 75.1061Z" fill="white" fill-opacity="0.3"/>
<path d="M40.7125 74.2431C41.9321 74.2431 42.9203 73.2548 42.9203 72.0353C42.9203 70.8162 41.9321 69.8274 40.7125 69.8274C39.4934 69.8274 38.5047 70.8162 38.5047 72.0353C38.5047 73.2548 39.4934 74.2431 40.7125 74.2431Z" fill="white" fill-opacity="0.2"/>
<path d="M39.465 73.4277C38.6011 72.5638 38.6011 71.1719 39.465 70.308C39.609 70.164 39.753 70.068 39.945 69.972C39.657 70.068 39.417 70.26 39.1771 70.452C38.3131 71.3159 38.3131 72.7078 39.1771 73.5717C39.897 74.2917 41.0009 74.4356 41.8649 73.9077C41.0489 74.2437 40.089 74.0997 39.465 73.4277Z" fill="url(#paint13_linear_769_701)"/>
<path d="M41.4803 71.3636C41.7453 71.3636 41.9603 71.1485 41.9603 70.8836C41.9603 70.6186 41.7453 70.4036 41.4803 70.4036C41.2154 70.4036 41.0004 70.6186 41.0004 70.8836C41.0004 71.1485 41.2154 71.3636 41.4803 71.3636Z" fill="white" fill-opacity="0.3"/>
<path d="M60.4409 68.8192C61.6605 68.8192 62.6487 67.831 62.6487 66.6114C62.6487 65.3923 61.6605 64.4036 60.4409 64.4036C59.2218 64.4036 58.2331 65.3923 58.2331 66.6114C58.2331 67.831 59.2218 68.8192 60.4409 68.8192Z" fill="white" fill-opacity="0.2"/>
<path d="M59.1446 68.0039C58.2807 67.1399 58.2807 65.748 59.1446 64.8841C59.2886 64.7401 59.4326 64.6441 59.6245 64.5481C59.3366 64.6441 59.0966 64.8361 58.8566 65.0281C57.9927 65.892 57.9927 67.2839 58.8566 68.1478C59.5765 68.8678 60.6805 69.0118 61.5444 68.4838C60.7285 68.8198 59.8165 68.6758 59.1446 68.0039Z" fill="url(#paint14_linear_769_701)"/>
<path d="M61.2096 65.9398C61.4745 65.9398 61.6896 65.7248 61.6896 65.4598C61.6896 65.1949 61.4745 64.9799 61.2096 64.9799C60.9447 64.9799 60.7296 65.1949 60.7296 65.4598C60.7296 65.7248 60.9447 65.9398 61.2096 65.9398Z" fill="white" fill-opacity="0.3"/>
<defs>
<radialGradient id="paint0_radial_769_701" cx="0" cy="0" r="1" gradientUnits="userSpaceOnUse" gradientTransform="translate(77.9399 44.8292) scale(69.6994 79.3839)">
<stop stop-color="#FFEAFF" stop-opacity="0.6"/>
<stop offset="0.68" stop-color="#A087C9"/>
<stop offset="1" stop-color="#10002F"/>
</radialGradient>
<radialGradient id="paint1_radial_769_701" cx="0" cy="0" r="1" gradientUnits="userSpaceOnUse" gradientTransform="translate(70.6085 27.7682) scale(60.8895 65.2063)">
<stop stop-color="#FFEAFF" stop-opacity="0.6"/>
<stop offset="0.68" stop-color="#A087C9"/>
<stop offset="1" stop-color="#10002F"/>
</radialGradient>
<linearGradient id="paint2_linear_769_701" x1="45.0071" y1="83.6094" x2="56.382" y2="18.0793" gradientUnits="userSpaceOnUse">
<stop stop-color="#81FFFF" stop-opacity="0.6"/>
<stop offset="0.62" stop-color="white" stop-opacity="0"/>
<stop offset="1" stop-color="white" stop-opacity="0"/>
</linearGradient>
<linearGradient id="paint3_linear_769_701" x1="70.6152" y1="31.0744" x2="36.3173" y2="57.5442" gradientUnits="userSpaceOnUse">
<stop stop-color="white" stop-opacity="0.6"/>
<stop offset="0.29" stop-color="white" stop-opacity="0.6"/>
<stop offset="0.78" stop-color="white" stop-opacity="0"/>
<stop offset="1" stop-color="white" stop-opacity="0"/>
</linearGradient>
<linearGradient id="paint4_linear_769_701" x1="18.8999" y1="50.71" x2="81.1114" y2="50.71" gradientUnits="userSpaceOnUse">
<stop stop-color="#0002E9"/>
<stop offset="1" stop-color="#FF00C7"/>
</linearGradient>
<linearGradient id="paint5_linear_769_701" x1="86.7689" y1="23.2656" x2="15.0245" y2="84.1707" gradientUnits="userSpaceOnUse">
<stop stop-color="white" stop-opacity="0.6"/>
<stop offset="0.29" stop-color="white" stop-opacity="0.6"/>
<stop offset="0.78" stop-color="white" stop-opacity="0"/>
<stop offset="1" stop-color="white" stop-opacity="0"/>
</linearGradient>
<linearGradient id="paint6_linear_769_701" x1="18.9229" y1="50.71" x2="81.2112" y2="50.71" gradientUnits="userSpaceOnUse">
<stop stop-color="#000292" stop-opacity="0.7"/>
<stop offset="1" stop-color="#7D00C7" stop-opacity="0.7"/>
</linearGradient>
<linearGradient id="paint7_linear_769_701" x1="18.9417" y1="50.819" x2="81.1286" y2="50.819" gradientUnits="userSpaceOnUse">
<stop stop-color="#000292"/>
<stop offset="1" stop-color="#BE00C7"/>
</linearGradient>
<linearGradient id="paint8_linear_769_701" x1="79.0839" y1="16.8183" x2="42.4575" y2="105.286" gradientUnits="userSpaceOnUse">
<stop stop-color="white" stop-opacity="0.6"/>
<stop offset="0.29" stop-color="white" stop-opacity="0.6"/>
<stop offset="0.78" stop-color="white" stop-opacity="0"/>
<stop offset="1" stop-color="white" stop-opacity="0"/>
</linearGradient>
<linearGradient id="paint9_linear_769_701" x1="18.8323" y1="51.5391" x2="81.1723" y2="51.5391" gradientUnits="userSpaceOnUse">
<stop stop-color="white" stop-opacity="0.6"/>
<stop offset="0.29" stop-color="white" stop-opacity="0.6"/>
<stop offset="0.78" stop-color="white" stop-opacity="0"/>
<stop offset="1" stop-color="white" stop-opacity="0"/>
</linearGradient>
<linearGradient id="paint10_linear_769_701" x1="18.682" y1="51.3064" x2="81.022" y2="51.3064" gradientUnits="userSpaceOnUse">
<stop stop-color="white" stop-opacity="0.6"/>
<stop offset="0.29" stop-color="white" stop-opacity="0.6"/>
<stop offset="0.78" stop-color="white" stop-opacity="0"/>
<stop offset="1" stop-color="white" stop-opacity="0"/>
</linearGradient>
<linearGradient id="paint11_linear_769_701" x1="18.6187" y1="50.2261" x2="80.4107" y2="50.2261" gradientUnits="userSpaceOnUse">
<stop stop-color="white" stop-opacity="0.6"/>
<stop offset="0.29" stop-color="white" stop-opacity="0.6"/>
<stop offset="0.78" stop-color="white" stop-opacity="0"/>
<stop offset="1" stop-color="white" stop-opacity="0"/>
</linearGradient>
<linearGradient id="paint12_linear_769_701" x1="17.7783" y1="50.1613" x2="79.5703" y2="50.1613" gradientUnits="userSpaceOnUse">
<stop stop-color="white" stop-opacity="0.6"/>
<stop offset="0.29" stop-color="white" stop-opacity="0.6"/>
<stop offset="0.78" stop-color="white" stop-opacity="0"/>
<stop offset="1" stop-color="white" stop-opacity="0"/>
</linearGradient>
<linearGradient id="paint13_linear_769_701" x1="18.4624" y1="50.6478" x2="80.3518" y2="50.6478" gradientUnits="userSpaceOnUse">
<stop stop-color="white" stop-opacity="0.6"/>
<stop offset="0.29" stop-color="white" stop-opacity="0.6"/>
<stop offset="0.78" stop-color="white" stop-opacity="0"/>
<stop offset="1" stop-color="white" stop-opacity="0"/>
</linearGradient>
<linearGradient id="paint14_linear_769_701" x1="18.8055" y1="50.6252" x2="80.6949" y2="50.6252" gradientUnits="userSpaceOnUse">
<stop stop-color="white" stop-opacity="0.6"/>
<stop offset="0.29" stop-color="white" stop-opacity="0.6"/>
<stop offset="0.78" stop-color="white" stop-opacity="0"/>
<stop offset="1" stop-color="white" stop-opacity="0"/>
</linearGradient>
</defs>
</svg>
