<svg width="100" height="101" viewBox="0 0 100 101" fill="none" xmlns="http://www.w3.org/2000/svg">
<circle cx="50" cy="50.7489" r="50" fill="#25262A"/>
<path d="M29.6386 57.4932C29.6386 48.9488 29.6535 40.3896 29.6236 31.8452C29.6236 31.1581 29.7431 30.934 30.49 30.934C37.3762 30.9639 44.2625 30.934 51.1338 30.9639C55.6599 30.9788 59.947 31.8602 63.7112 34.5639C67.595 37.3423 69.4921 41.2261 70 45.9016C70.3884 49.5165 69.8655 52.982 68.1477 56.2085C66.161 59.943 62.9644 62.2583 59.0656 63.6923C56.4814 64.6483 53.7628 64.9471 51.0292 64.9919C48.4749 65.0218 45.9056 65.0367 43.3513 64.977C42.6193 64.962 42.5297 65.216 42.5297 65.8433C42.5596 71.6541 42.5297 77.4798 42.5596 83.2905C42.5596 83.888 42.4401 84.0822 41.7978 84.0822C37.9887 84.0524 34.1945 84.0524 30.3854 84.0822C29.773 84.0822 29.5938 83.9328 29.5938 83.3055C29.6386 74.7014 29.6386 66.0973 29.6386 57.4932ZM42.5596 48.0078C42.5596 50.0393 42.5745 52.0858 42.5447 54.1173C42.5447 54.6102 42.6791 54.7297 43.172 54.7297C45.4575 54.6998 47.7429 54.7297 50.0284 54.7148C51.074 54.6998 52.1047 54.5505 53.0906 54.192C55.7794 53.2061 56.8549 51.1148 56.9594 48.426C57.1088 44.5273 55.1968 41.7937 50.9247 41.4651C48.3255 41.2709 45.7114 41.4352 43.0973 41.3605C42.5895 41.3456 42.5447 41.5547 42.5447 41.973C42.5745 43.9746 42.5596 45.9912 42.5596 48.0078Z" fill="white"/>
<path d="M50.0459 17.4454C56.5886 17.4454 63.1163 17.4454 69.659 17.4305C70.2267 17.4305 70.4208 17.5649 70.4059 18.1624C70.376 20.5524 70.376 22.9275 70.4059 25.3175C70.4059 25.7955 70.3312 26.0046 69.7785 26.0046C56.6035 25.9897 43.4285 25.9897 30.2684 26.0046C29.7008 26.0046 29.641 25.7806 29.641 25.3026C29.656 22.9126 29.6709 20.5375 29.641 18.1475C29.6261 17.5351 29.8203 17.4156 30.3879 17.4156C36.9306 17.4604 43.4883 17.4454 50.0459 17.4454Z" fill="#ED1F25"/>
</svg>
