<svg width="100" height="101" viewBox="0 0 100 101" fill="none" xmlns="http://www.w3.org/2000/svg">
<circle cx="50" cy="50.7489" r="50" fill="#6758FF"/>
<path fill-rule="evenodd" clip-rule="evenodd" d="M51.0097 54.7963C69.4106 52.1087 83.8753 45.5494 83.3176 40.1459C82.7598 34.7423 67.3908 32.5406 48.9899 35.2283C30.5891 37.9159 16.1244 44.4751 16.6821 49.8787C17.2399 55.2822 32.6089 57.4839 51.0097 54.7963Z" fill="white"/>
<path fill-rule="evenodd" clip-rule="evenodd" d="M50.822 53.2559C68.1039 50.7317 81.7338 45.0055 81.2654 40.4662C80.7968 35.9269 66.4072 34.2933 49.1253 36.8175C31.8434 39.3417 18.2135 45.0678 18.682 49.6072C19.1505 54.1464 33.5402 55.7801 50.822 53.2559Z" fill="#000002"/>
<path d="M69.7539 50.5752L69.7539 50.5752C67.0717 60.5772 59.1777 67.9152 49.7631 67.9152C42.2022 67.9152 35.6827 63.2203 31.9998 56.1784L31.9998 56.1784C31.9599 56.102 31.8832 55.9358 31.9215 55.7356C31.9719 55.4722 32.1722 55.3439 32.3146 55.2969C32.4355 55.257 32.5548 55.2574 32.6275 55.2606C32.7104 55.2641 32.7978 55.2752 32.8792 55.2876C32.9851 55.3037 33.0916 55.3229 33.1997 55.3424C33.4535 55.3881 33.7153 55.4353 33.9949 55.4471L33.9949 55.4471C34.7931 55.481 35.7658 55.4273 36.987 55.3599C37.6282 55.3244 38.3378 55.2853 39.1268 55.253M69.7539 50.5752L39.1472 55.7525M69.7539 50.5752C69.7662 50.5295 69.8034 50.3861 69.7496 50.2249C69.7172 50.1276 69.6533 50.0295 69.5509 49.9578C69.4547 49.8903 69.3569 49.8688 69.289 49.8626C69.169 49.8517 69.0674 49.8824 69.0269 49.8951C68.9736 49.912 68.9209 49.9338 68.8772 49.9528C68.8184 49.9785 68.7596 50.0059 68.6978 50.0347C68.5568 50.1005 68.4004 50.1734 68.1928 50.2491L68.1928 50.2491M69.7539 50.5752L68.1928 50.2491M39.1268 55.253L39.1472 55.7525M39.1268 55.253C39.1268 55.253 39.1267 55.253 39.1267 55.253L39.1472 55.7525M39.1268 55.253C42.9462 55.0964 47.348 54.8154 49.4898 54.5118L49.5599 55.0069M39.1472 55.7525C42.9656 55.596 47.3904 55.3144 49.5599 55.0069M49.5599 55.0069L49.4898 54.5118C51.5723 54.2167 57.6937 53.1511 61.9516 52.0982M49.5599 55.0069L61.9516 52.0982M68.1928 50.2491C67.1168 50.6414 65.0612 51.3295 61.9516 52.0982L61.9516 52.0982M68.1928 50.2491L61.9516 52.0982M32.9322 55.803C32.9174 55.7749 32.9026 55.7468 32.8878 55.7186C32.8933 55.7313 32.9033 55.7593 32.9083 55.7989C32.9162 55.8002 32.9241 55.8016 32.9322 55.803ZM32.6057 56.253C32.5884 56.2573 32.5756 56.2589 32.5697 56.2593C32.5727 56.2593 32.5775 56.2593 32.5845 56.2596C32.5919 56.26 32.6005 56.2605 32.6102 56.2613C32.6087 56.2585 32.6072 56.2558 32.6057 56.253ZM69.135 50.9347C69.1444 50.9304 69.1536 50.9261 69.1624 50.922C69.2096 50.9 69.2485 50.8819 69.2771 50.8694C69.2928 50.8625 69.3049 50.8575 69.3142 50.8539C69.3237 50.8501 69.3277 50.8488 69.3275 50.8489L69.321 50.8507C69.3171 50.8517 69.3104 50.8533 69.3013 50.8549C69.2861 50.8576 69.2487 50.8631 69.1984 50.8585C69.1866 50.8575 69.1732 50.8557 69.1584 50.853C69.1507 50.8803 69.1429 50.9075 69.135 50.9347ZM68.788 50.3163L69.102 50.4004C69.102 50.4004 69.102 50.4004 69.1021 50.4004L68.788 50.3162C68.7648 50.403 68.7411 50.4895 68.7171 50.5758C68.7458 50.5631 68.7734 50.5506 68.8001 50.5385C68.776 50.4647 68.7769 50.4041 68.7789 50.3746C68.7811 50.3429 68.7865 50.3218 68.788 50.3163Z" fill="#6758FF" stroke="white"/>
<path fill-rule="evenodd" clip-rule="evenodd" d="M51.1011 65.4369C55.2169 65.4369 58.1568 62.5558 58.1568 62.0254C58.1568 61.495 55.2169 63.3249 51.1011 63.3249C46.9855 63.3249 42.8818 62.7945 42.8818 63.3249C42.8818 63.6594 44.9635 64.6581 47.5052 65.0567C48.994 65.2901 49.5808 65.4369 51.1011 65.4369Z" fill="#FF7FA7"/>
</svg>
