<svg width="100" height="101" viewBox="0 0 100 101" fill="none" xmlns="http://www.w3.org/2000/svg">
<circle cx="50" cy="50.7489" r="50" fill="#202529"/>
<path d="M49.9998 84.0822C41.0941 84.0822 32.7271 80.6142 26.4308 74.3179C20.1345 68.0216 16.6665 59.6546 16.6665 50.7489C16.6665 41.8432 20.1345 33.4762 26.4308 27.1799C32.7271 20.8836 41.0941 17.4156 49.9998 17.4156C58.9056 17.4156 67.2726 20.8836 73.5689 27.1799C79.8652 33.4762 83.3332 41.8432 83.3332 50.7489C83.3332 59.6546 79.8652 68.0216 73.5689 74.3179C67.2726 80.6142 58.9056 84.0822 49.9998 84.0822ZM49.9998 20.126C33.1143 20.126 19.3769 33.8634 19.3769 50.7489C19.3769 67.6344 33.1143 81.3718 49.9998 81.3718C66.8854 81.3718 80.6227 67.6344 80.6227 50.7489C80.6227 33.8634 66.8854 20.126 49.9998 20.126ZM46.0268 40.9846L26.5655 36.1698L39.4948 51.5065L28.8887 68.5435L47.4746 60.9846L60.4039 76.3213L58.9561 56.3213L77.5419 48.7624L58.0806 43.9475L56.6328 23.9475L46.0268 40.9846Z" fill="url(#paint0_linear_769_1900)"/>
<defs>
<linearGradient id="paint0_linear_769_1900" x1="21.6298" y1="43.7385" x2="86.3755" y2="59.7375" gradientUnits="userSpaceOnUse">
<stop stop-color="#FEF5A0"/>
<stop offset="0.6354" stop-color="#93D4CB"/>
<stop offset="1" stop-color="#719AD1"/>
</linearGradient>
</defs>
</svg>
