<svg width="100" height="101" viewBox="0 0 100 101" fill="none" xmlns="http://www.w3.org/2000/svg">
<circle cx="50" cy="50.7489" r="50" fill="#E50571"/>
<path d="M51.4802 84.0822C43.4616 84.0822 36.8895 82.3014 31.7639 78.7389C27.0569 75.4672 24.0578 70.9073 22.7673 65.0603C22.5701 64.1666 23.1266 63.2961 23.9909 63.0666L35.0852 60.1223C36.0424 59.8688 37.003 60.495 37.2704 61.472C37.8503 63.5916 38.6601 65.3187 39.7004 66.6522C41.1052 68.3487 42.8001 69.5785 44.7843 70.3419C46.8511 71.0206 49.0831 71.3596 51.4802 71.3596C55.1178 71.3596 57.8046 70.7233 59.5407 69.451C61.2765 68.0941 62.1449 66.4401 62.1449 64.4896C62.1449 62.5389 61.3179 61.0546 59.6645 60.0363C58.0111 58.9339 55.3657 58.0431 51.7285 57.3644L48.2567 56.7286C43.9573 55.8806 40.0309 54.7352 36.4761 53.2938C32.9211 51.7667 30.0693 49.6886 27.9199 47.0594C25.7707 44.4302 24.6961 41.037 24.6961 36.8813C24.6961 30.6046 26.9279 25.8126 31.392 22.5044C35.8564 19.1117 41.7253 17.4156 49.0003 17.4156C55.8619 17.4156 61.5658 18.9846 66.1125 22.1227C70.1596 24.9161 72.9623 28.4819 74.52 32.8207C74.8441 33.7221 74.3259 34.6896 73.4313 34.972L62.3356 38.475C61.3676 38.7805 60.3648 38.1605 60.0364 37.1772C59.2818 34.9202 58.0826 33.2523 56.4405 32.1739C54.4563 30.8167 51.9764 30.1382 49.0003 30.1382C46.0241 30.1382 43.7506 30.6895 42.1801 31.7922C40.6095 32.8099 39.824 34.2518 39.824 36.1181C39.824 38.1535 40.6509 39.6803 42.3044 40.698C43.9573 41.6308 46.1891 42.352 49.0003 42.8606L52.4721 43.4969C57.1017 44.345 61.2765 45.4898 64.9967 46.9317C68.7994 48.2892 71.7755 50.2824 73.9247 52.9116C76.1567 55.4564 77.273 58.9339 77.273 63.3448C77.273 69.9602 74.9166 75.0917 70.2044 78.7389C65.5754 82.3014 59.3338 84.0822 51.4802 84.0822Z" fill="white"/>
</svg>
