<svg width="226" height="48" viewBox="0 0 226 48" fill="none" xmlns="http://www.w3.org/2000/svg">
<path d="M79.7082 33.2732C78.4161 33.7577 77.0612 34 75.6436 34C74.2079 34 72.889 33.7667 71.6866 33.3001C70.5022 32.8156 69.4794 32.1427 68.618 31.2813C67.7746 30.4199 67.1196 29.397 66.653 28.2127C66.1864 27.0103 65.9531 25.6824 65.9531 24.2288C65.9531 22.7214 66.1685 21.3396 66.5992 20.0834C67.0298 18.8273 67.6579 17.7506 68.4834 16.8533C69.3089 15.956 70.3228 15.2562 71.5251 14.7537C72.7275 14.2512 74.1003 14 75.6436 14C77.9585 14 79.9056 14.5204 81.4847 15.5612C83.0639 16.6021 84.1586 18.262 84.7687 20.541H82.9114C82.6422 19.6438 82.2743 18.8811 81.8078 18.253C81.3412 17.607 80.7849 17.0866 80.1388 16.6918C79.5108 16.279 78.8019 15.983 78.0123 15.8035C77.2407 15.6061 76.4152 15.5074 75.5359 15.5074C74.2438 15.5074 73.1043 15.7227 72.1173 16.1534C71.1483 16.5841 70.3318 17.1853 69.6678 17.9569C69.0038 18.7106 68.5014 19.6079 68.1604 20.6487C67.8374 21.6716 67.6759 22.7842 67.6759 23.9865C67.6759 25.2248 67.8553 26.3643 68.2142 27.4051C68.5731 28.4459 69.0935 29.3432 69.7755 30.0969C70.4574 30.8506 71.3008 31.4428 72.3057 31.8735C73.3107 32.2862 74.4681 32.4926 75.7782 32.4926C76.4421 32.4926 77.0971 32.4208 77.7432 32.2773C78.3892 32.1337 78.9993 31.9183 79.5736 31.6312C80.1478 31.3262 80.6682 30.9493 81.1348 30.5007C81.6014 30.0341 81.9872 29.4868 82.2923 28.8587C82.382 28.6613 82.4628 28.4639 82.5345 28.2665C82.6243 28.0691 82.714 27.8717 82.8037 27.6743H84.7418C84.2752 29.0202 83.6561 30.1687 82.8845 31.1198C82.1128 32.0709 81.0541 32.7887 79.7082 33.2732Z" fill="url(#paint0_linear_1825_2125)"/>
<path d="M107.72 33.5962L105.351 27.2436H96.7909L94.3952 33.5962H92.5379L99.6442 14.4038H102.498L109.604 33.5962H107.72ZM97.2485 25.8977H105.001L101.017 15.642L97.2485 25.8977Z" fill="url(#paint1_linear_1825_2125)"/>
<path d="M131.515 33.5962L127.612 26.14H120.371V33.5962H118.567V14.4038H127.316C128.159 14.4038 128.967 14.5473 129.738 14.8345C130.51 15.1216 131.201 15.5253 131.811 16.0458C132.421 16.5482 132.906 17.1673 133.265 17.9031C133.624 18.6209 133.803 19.4105 133.803 20.2719C133.803 21.1691 133.579 22.0215 133.13 22.8291C132.681 23.6366 132.107 24.3006 131.407 24.821C131.3 24.8928 131.165 24.9825 131.004 25.0902C130.86 25.1799 130.707 25.2696 130.546 25.3594C130.384 25.4491 130.232 25.5298 130.088 25.6016C129.945 25.6734 129.828 25.7093 129.738 25.7093L129.442 25.7362L133.615 33.5962H131.515ZM120.371 24.6326H127.316C128.285 24.6326 129.173 24.3634 129.981 23.825C130.788 23.2687 131.371 22.533 131.73 21.6178C131.784 21.4742 131.829 21.3217 131.865 21.1602C131.919 20.9987 131.946 20.8192 131.946 20.6218C131.946 19.9399 131.829 19.3118 131.596 18.7375C131.38 18.1633 131.066 17.6698 130.654 17.2571C130.241 16.8443 129.747 16.5213 129.173 16.288C128.617 16.0368 127.998 15.9112 127.316 15.9112H120.371V24.6326Z" fill="url(#paint2_linear_1825_2125)"/>
<path d="M142.945 14.4038H150.778C151.568 14.4038 152.321 14.5204 153.039 14.7537C153.757 14.969 154.385 15.301 154.923 15.7497C155.462 16.1804 155.883 16.7187 156.189 17.3647C156.512 18.0108 156.673 18.7555 156.673 19.5989C156.673 20.1552 156.521 20.6846 156.215 21.1871C155.928 21.6895 155.587 22.1382 155.193 22.533C155.085 22.6406 154.977 22.7483 154.87 22.856C154.762 22.9457 154.654 23.0444 154.547 23.1521L154.385 23.3136L154.735 23.5289C155.56 24.0135 156.251 24.6505 156.808 25.4401C157.364 26.2118 157.642 27.0911 157.642 28.0781C157.642 28.7241 157.534 29.3432 157.319 29.9354C157.032 30.6712 156.655 31.2813 156.189 31.7658C155.722 32.2324 155.184 32.6003 154.574 32.8694C153.981 33.1386 153.335 33.3271 152.635 33.4347C151.936 33.5424 151.218 33.5962 150.482 33.5962H142.945V14.4038ZM144.775 22.7752H150.967C151.451 22.7752 151.918 22.6855 152.366 22.5061C152.833 22.3266 153.237 22.0754 153.578 21.7524C153.936 21.4293 154.215 21.0525 154.412 20.6218C154.627 20.1732 154.735 19.6976 154.735 19.1952C154.735 18.6568 154.627 18.1902 154.412 17.7954C154.197 17.3827 153.91 17.0328 153.551 16.7456C153.21 16.4585 152.806 16.2432 152.339 16.0996C151.891 15.956 151.433 15.8843 150.967 15.8843H144.775V22.7752ZM144.775 32.0888H151.37C151.998 32.0888 152.626 31.9901 153.255 31.7927C153.595 31.6851 153.918 31.5146 154.224 31.2813C154.529 31.048 154.798 30.7699 155.031 30.4468C155.264 30.1238 155.444 29.7829 155.569 29.424C155.713 29.0471 155.785 28.6792 155.785 28.3203C155.785 27.7281 155.668 27.1808 155.435 26.6783C155.202 26.1759 154.888 25.7452 154.493 25.3863C154.116 25.0274 153.667 24.7492 153.147 24.5518C152.626 24.3544 152.079 24.2557 151.505 24.2557H144.775V32.0888Z" fill="url(#paint3_linear_1825_2125)"/>
<path d="M166.907 20.1373C167.23 19.1144 167.679 18.2261 168.253 17.4724C168.827 16.7008 169.5 16.0637 170.272 15.5612C171.043 15.0408 171.896 14.655 172.829 14.4038C173.78 14.1525 174.776 14.0269 175.817 14.0269C177.36 14.0269 178.742 14.2512 179.962 14.6999C181.2 15.1485 182.241 15.8035 183.085 16.6649C183.928 17.5262 184.574 18.576 185.023 19.8143C185.471 21.0345 185.696 22.4253 185.696 23.9865C185.696 25.4939 185.471 26.8668 185.023 28.105C184.592 29.3432 183.955 30.402 183.111 31.2813C182.286 32.1427 181.272 32.8156 180.07 33.3001C178.885 33.7667 177.531 34 176.005 34C174.444 34 173.062 33.7488 171.86 33.2463C170.657 32.7259 169.644 32.0081 168.818 31.0929C168.011 30.1777 167.391 29.083 166.961 27.8089C166.53 26.5348 166.315 25.144 166.315 23.6366C166.315 23.0444 166.36 22.4612 166.449 21.8869C166.557 21.2948 166.71 20.7115 166.907 20.1373ZM176.14 15.5074C175.368 15.5074 174.57 15.5971 173.744 15.7766C172.937 15.9381 172.201 16.2342 171.537 16.6649C170.945 17.0417 170.424 17.4993 169.976 18.0377C169.545 18.5581 169.177 19.1323 168.872 19.7604C168.585 20.3706 168.369 21.0076 168.226 21.6716C168.082 22.3356 168.011 22.9906 168.011 23.6366C168.011 24.821 168.181 25.9515 168.522 27.0283C168.863 28.105 169.365 29.0471 170.029 29.8546C170.693 30.6622 171.519 31.3082 172.506 31.7927C173.493 32.2593 174.623 32.4926 175.897 32.4926C176.759 32.4926 177.575 32.3939 178.347 32.1965C179.119 31.9991 179.819 31.694 180.447 31.2813C181.093 30.8686 181.649 30.3481 182.116 29.7201C182.6 29.092 182.977 28.3472 183.246 27.4859C183.443 26.8578 183.569 26.2207 183.623 25.5747C183.677 24.9287 183.704 24.2916 183.704 23.6635C183.704 22.4791 183.533 21.3934 183.192 20.4065C182.869 19.4015 182.385 18.5402 181.739 17.8223C181.111 17.0866 180.321 16.5213 179.37 16.1265C178.437 15.7138 177.36 15.5074 176.14 15.5074Z" fill="url(#paint4_linear_1825_2125)"/>
<path d="M211.002 14.4038V33.5962H209.333L197.543 17.2571V33.5962H195.712V14.4038H197.408L209.171 30.7429V14.4038H211.002Z" fill="url(#paint5_linear_1825_2125)"/>
<path d="M14.7676 27.7126C14.9444 27.7175 15.1219 27.72 15.2999 27.72C18.9611 27.72 22.3769 26.669 25.2618 24.8522C26.4429 30.9309 31.7951 35.52 38.2192 35.52C43.4769 35.52 48.0166 32.4462 50.1392 27.9975C50.3038 27.9105 50.4663 27.8202 50.6266 27.7265C48.3068 35.4294 41.1582 41.04 32.6992 41.04C24.2351 41.04 17.083 35.4226 14.7676 27.7126Z" fill="url(#paint6_radial_1825_2125)"/>
<path d="M14.7676 27.7126C14.9444 27.7175 15.1219 27.72 15.2999 27.72C18.9611 27.72 22.3769 26.669 25.2618 24.8522C26.4429 30.9309 31.7951 35.52 38.2192 35.52C43.4769 35.52 48.0166 32.4462 50.1392 27.9975C50.3038 27.9105 50.4663 27.8202 50.6266 27.7265C48.3068 35.4294 41.1582 41.04 32.6992 41.04C24.2351 41.04 17.083 35.4226 14.7676 27.7126Z" fill="#04171E" fill-opacity="0.88"/>
<path d="M14.8574 28.0029C15.0045 28.0063 15.152 28.008 15.3 28.008C18.9833 28.008 22.4181 26.9442 25.3141 25.1072C26.5934 31.0588 31.8853 35.52 38.2193 35.52C43.4769 35.52 48.0166 32.4461 50.1393 27.9975C50.3039 27.9105 50.4664 27.8201 50.6267 27.7265C48.3069 35.4293 41.1583 41.04 32.6993 41.04C24.3418 41.04 17.2634 35.5632 14.8574 28.0029Z" fill="url(#paint7_radial_1825_2125)"/>
<path d="M14.8574 28.0029C15.0045 28.0063 15.152 28.008 15.3 28.008C18.9833 28.008 22.4181 26.9442 25.3141 25.1072C26.5934 31.0588 31.8853 35.52 38.2193 35.52C43.4769 35.52 48.0166 32.4461 50.1393 27.9975C50.3039 27.9105 50.4664 27.8201 50.6267 27.7265C48.3069 35.4293 41.1583 41.04 32.6993 41.04C24.3418 41.04 17.2634 35.5632 14.8574 28.0029Z" fill="#04171E" fill-opacity="0.4"/>
<path d="M41.555 35.0947C38.8934 37.3084 35.4718 38.6398 31.7392 38.6398C24.7719 38.6398 18.888 34.0008 17.0078 27.6431C20.022 27.3704 22.83 26.3832 25.2611 24.8522C26.4421 30.9309 31.7944 35.52 38.2185 35.52C39.3711 35.52 40.4893 35.3723 41.555 35.0947Z" fill="url(#paint8_linear_1825_2125)" fill-opacity="0.64"/>
<path d="M48.0598 22.32C48.0598 30.8031 41.1829 37.68 32.6998 37.68C24.2167 37.68 17.3398 30.8031 17.3398 22.32C17.3398 13.8369 24.2167 6.95999 32.6998 6.95999C41.1829 6.95999 48.0598 13.8369 48.0598 22.32Z" fill="url(#paint9_radial_1825_2125)"/>
<path d="M47.0375 19.4358C47.0375 25.4005 42.2022 30.2358 36.2375 30.2358C30.2728 30.2358 25.4375 25.4005 25.4375 19.4358C25.4375 13.4711 30.2728 8.63577 36.2375 8.63577C42.2022 8.63577 47.0375 13.4711 47.0375 19.4358Z" fill="url(#paint10_radial_1825_2125)" fill-opacity="0.6"/>
<path d="M33.7054 8.65518C33.4645 8.6423 33.2219 8.63577 32.9778 8.63577C30.68 8.63577 28.5172 9.21392 26.627 10.2327C27.6379 10.0099 28.6883 9.8925 29.7662 9.8925C30.8648 9.8925 31.9349 10.0145 32.9638 10.2457L33.7054 8.65518Z" fill="url(#paint11_linear_1825_2125)" fill-opacity="0.64"/>
<path d="M34.5941 10.7143C40.2411 12.7043 44.2883 18.0869 44.2883 24.4147C44.2883 27.0162 43.6043 29.4579 42.4062 31.5699C44.8617 29.1402 46.3829 25.7682 46.3829 22.0409C46.3829 15.4844 41.6758 10.0273 35.4567 8.86451L34.5941 10.7143Z" fill="url(#paint12_linear_1825_2125)" fill-opacity="0.64"/>
<path d="M40.9071 35.3053C38.5327 36.8094 35.7173 37.6803 32.6986 37.6803C27.9145 37.6803 23.6412 35.4931 20.8242 32.0641C21.6008 32.2064 22.4011 32.2807 23.2188 32.2807C29.1562 32.2807 34.178 28.3607 35.8373 22.9675C36.3847 23.0157 36.9389 23.0403 37.4989 23.0403C41.3348 23.0403 44.9013 21.8865 47.8702 19.9071C47.9942 20.6933 48.0586 21.4992 48.0586 22.3203C48.0586 22.8299 48.0338 23.3337 47.9853 23.8306C47.1225 28.4904 44.5338 32.5446 40.9071 35.3053Z" fill="url(#paint13_linear_1825_2125)" fill-opacity="0.64"/>
<path d="M14.7715 27.7263C17.0911 35.4295 24.2399 41.0405 32.6991 41.0405C42.9981 41.0405 51.3545 32.7237 51.4188 22.4399C50.3913 22.4334 49.3835 22.3441 48.4017 22.1784C46.0943 23.1954 43.5427 23.76 40.8592 23.76C39.9287 23.76 39.014 23.6921 38.1199 23.561C36.4625 28.9573 31.4392 32.8802 25.4996 32.8802C21.3577 32.8802 17.6614 30.9726 15.2413 27.988C15.0828 27.9039 14.9261 27.8166 14.7715 27.7263Z" fill="url(#paint14_linear_1825_2125)"/>
<path d="M51.4184 22.4562C48.6651 24.0488 45.4684 24.9603 42.0589 24.9603C41.4091 24.9603 40.7671 24.9272 40.1343 24.8626C38.9493 30.9363 33.5995 35.5203 27.1789 35.5203C21.9213 35.5203 17.3816 32.4464 15.2589 27.9978C15.0943 27.9108 14.9318 27.8205 14.7715 27.7268C17.0913 35.4297 24.2399 41.0403 32.6989 41.0403C42.9924 41.0403 51.3454 32.7324 51.4184 22.4562Z" fill="url(#paint15_radial_1825_2125)"/>
<path d="M50.0548 23.1722C48.9272 23.7055 47.7377 24.1296 46.5002 24.4306C46.3398 25.7976 46.0312 27.1684 45.5648 28.5231C44.4278 31.825 42.4924 34.6252 40.0488 36.7822C44.2273 34.7714 47.6317 31.1563 49.2607 26.4255C49.6316 25.3482 49.8944 24.2598 50.0548 23.1722Z" fill="url(#paint16_linear_1825_2125)" fill-opacity="0.64"/>
<path opacity="0.2" fill-rule="evenodd" clip-rule="evenodd" d="M38.1126 23.5933C38.1338 23.565 38.1732 23.5597 38.2007 23.5815C38.8256 24.0772 39.5009 24.5144 40.2248 24.8854C40.2558 24.9013 40.2685 24.9401 40.253 24.9721C40.2376 25.0041 40.1999 25.0172 40.1688 25.0013C39.4376 24.6265 38.7554 24.1848 38.1241 23.684C38.0966 23.6622 38.0915 23.6216 38.1126 23.5933Z" fill="url(#paint17_linear_1825_2125)"/>
<defs>
<linearGradient id="paint0_linear_1825_2125" x1="65.9531" y1="24.0524" x2="176.31" y2="95.3975" gradientUnits="userSpaceOnUse">
<stop stop-color="white"/>
<stop offset="1" stop-color="#E4E4E4"/>
</linearGradient>
<linearGradient id="paint1_linear_1825_2125" x1="65.9531" y1="24.0524" x2="176.31" y2="95.3975" gradientUnits="userSpaceOnUse">
<stop stop-color="white"/>
<stop offset="1" stop-color="#E4E4E4"/>
</linearGradient>
<linearGradient id="paint2_linear_1825_2125" x1="65.9531" y1="24.0524" x2="176.31" y2="95.3975" gradientUnits="userSpaceOnUse">
<stop stop-color="white"/>
<stop offset="1" stop-color="#E4E4E4"/>
</linearGradient>
<linearGradient id="paint3_linear_1825_2125" x1="65.9531" y1="24.0524" x2="176.31" y2="95.3975" gradientUnits="userSpaceOnUse">
<stop stop-color="white"/>
<stop offset="1" stop-color="#E4E4E4"/>
</linearGradient>
<linearGradient id="paint4_linear_1825_2125" x1="65.9531" y1="24.0524" x2="176.31" y2="95.3975" gradientUnits="userSpaceOnUse">
<stop stop-color="white"/>
<stop offset="1" stop-color="#E4E4E4"/>
</linearGradient>
<linearGradient id="paint5_linear_1825_2125" x1="65.9531" y1="24.0524" x2="176.31" y2="95.3975" gradientUnits="userSpaceOnUse">
<stop stop-color="white"/>
<stop offset="1" stop-color="#E4E4E4"/>
</linearGradient>
<radialGradient id="paint6_radial_1825_2125" cx="0" cy="0" r="1" gradientUnits="userSpaceOnUse" gradientTransform="translate(50.6266 37.0859) rotate(179.948) scale(135.923 394.941)">
<stop offset="0.104167" stop-color="#24537E"/>
<stop offset="0.520341" stop-color="#4FC1C0"/>
<stop offset="1" stop-color="#DAFFF4"/>
</radialGradient>
<radialGradient id="paint7_radial_1825_2125" cx="0" cy="0" r="1" gradientUnits="userSpaceOnUse" gradientTransform="translate(50.6267 37.0859) rotate(179.948) scale(135.923 394.941)">
<stop offset="0.104167" stop-color="#24537E"/>
<stop offset="0.520341" stop-color="#4FC1C0"/>
<stop offset="1" stop-color="#DAFFF4"/>
</radialGradient>
<linearGradient id="paint8_linear_1825_2125" x1="41.0959" y1="41.2275" x2="34.9203" y2="9.10497" gradientUnits="userSpaceOnUse">
<stop stop-color="#04171E"/>
<stop offset="1" stop-color="#04171E" stop-opacity="0"/>
</linearGradient>
<radialGradient id="paint9_radial_1825_2125" cx="0" cy="0" r="1" gradientUnits="userSpaceOnUse" gradientTransform="translate(21.4591 34.3287) rotate(-57.5402) scale(27.0578 392.082)">
<stop offset="0.104167" stop-color="#3A78B1"/>
<stop offset="0.520341" stop-color="#4FC1C0"/>
<stop offset="1" stop-color="#8CF2FD"/>
</radialGradient>
<radialGradient id="paint10_radial_1825_2125" cx="0" cy="0" r="1" gradientUnits="userSpaceOnUse" gradientTransform="translate(46.9786 8.63999) rotate(144.267) scale(26.6092 26.4204)">
<stop offset="0.216485" stop-color="white"/>
<stop offset="0.906332" stop-color="white" stop-opacity="0"/>
</radialGradient>
<linearGradient id="paint11_linear_1825_2125" x1="42.4184" y1="14.64" x2="26.5784" y2="21.54" gradientUnits="userSpaceOnUse">
<stop stop-color="white"/>
<stop offset="0.732381" stop-color="white" stop-opacity="0"/>
</linearGradient>
<linearGradient id="paint12_linear_1825_2125" x1="42.4184" y1="14.64" x2="26.5784" y2="21.54" gradientUnits="userSpaceOnUse">
<stop stop-color="white"/>
<stop offset="0.732381" stop-color="white" stop-opacity="0"/>
</linearGradient>
<linearGradient id="paint13_linear_1825_2125" x1="71.8204" y1="-18.1811" x2="7.03592" y2="35.7933" gradientUnits="userSpaceOnUse">
<stop stop-color="#04171E"/>
<stop offset="1" stop-color="#04171E" stop-opacity="0"/>
</linearGradient>
<linearGradient id="paint14_linear_1825_2125" x1="44.5789" y1="24.78" x2="20.2788" y2="33.36" gradientUnits="userSpaceOnUse">
<stop stop-color="#0E6585"/>
<stop offset="1" stop-color="#04171E"/>
</linearGradient>
<radialGradient id="paint15_radial_1825_2125" cx="0" cy="0" r="1" gradientUnits="userSpaceOnUse" gradientTransform="translate(19.6855 39.0129) rotate(-38.5632) scale(22.1557 345.559)">
<stop offset="0.104167" stop-color="#3A78B1"/>
<stop offset="0.520341" stop-color="#4FC1C0"/>
<stop offset="1" stop-color="#8CF2FD"/>
</radialGradient>
<linearGradient id="paint16_linear_1825_2125" x1="50.0999" y1="23.16" x2="40.7548" y2="37.3249" gradientUnits="userSpaceOnUse">
<stop stop-color="white" stop-opacity="0.64"/>
<stop offset="1" stop-color="white" stop-opacity="0"/>
</linearGradient>
<linearGradient id="paint17_linear_1825_2125" x1="40.247" y1="24.9398" x2="37.209" y2="23.0618" gradientUnits="userSpaceOnUse">
<stop stop-color="#8CF2FD"/>
<stop offset="1" stop-color="#8CF2FD" stop-opacity="0"/>
</linearGradient>
</defs>
</svg>
