<svg width="185" height="37" viewBox="0 0 185 37" fill="none" xmlns="http://www.w3.org/2000/svg">
<path d="M17.791 0.264404L8.28406 12.0366H27.298L17.791 0.264404Z" fill="white"/>
<path d="M8.28393 12.6783L17.791 28.6398L27.2981 12.6783H8.28393Z" fill="white"/>
<path d="M7.49775 11.8765L17.073 0.264495L2.9463 8.52181L7.49775 11.8765Z" fill="white"/>
<path d="M2.60352 24.7193L2.60352 9.09395L7.33706 12.5722L2.60352 24.7193Z" fill="white"/>
<path d="M7.82243 13.3475L2.87249 25.914L17.3707 29.3474L7.82243 13.3475Z" fill="white"/>
<path d="M2.78287 26.5774L17.4704 34.9787V30.1627L2.78287 26.5774Z" fill="white"/>
<path d="M28.0843 11.8765L18.509 0.264495L32.6357 8.52181L28.0843 11.8765Z" fill="white"/>
<path d="M32.9785 9.09395L32.9785 24.7193L28.245 12.5722L32.9785 9.09395Z" fill="white"/>
<path d="M32.7095 25.914L27.7596 13.3475L18.2114 29.3474L32.7095 25.914Z" fill="white"/>
<path d="M18.1116 34.9787L32.7992 26.5774L18.1116 30.1627V34.9787Z" fill="white"/>
<path d="M58.4743 26.5036C57.2291 26.9706 55.9235 27.204 54.5573 27.204C53.1738 27.204 51.9027 26.9792 50.744 26.5296C49.6027 26.0626 48.6169 25.4141 47.7868 24.584C46.974 23.754 46.3428 22.7682 45.8932 21.6268C45.4436 20.4682 45.2188 19.1885 45.2188 17.7877C45.2188 16.335 45.4263 15.0034 45.8413 13.7929C46.2564 12.5823 46.8616 11.5447 47.6571 10.68C48.4526 9.81536 49.4297 9.14091 50.5884 8.65669C51.7471 8.17247 53.07 7.93036 54.5573 7.93036C56.7881 7.93036 58.6645 8.43187 60.1863 9.4349C61.7081 10.4379 62.7631 12.0376 63.351 14.2339H61.5612C61.3018 13.3692 60.9472 12.6342 60.4976 12.0289C60.048 11.4064 59.5119 10.9048 58.8893 10.5244C58.284 10.1266 57.6009 9.8413 56.84 9.66836C56.0964 9.47813 55.3009 9.38302 54.4535 9.38302C53.2084 9.38302 52.1102 9.59054 51.1591 10.0056C50.2252 10.4206 49.4384 11 48.7985 11.7436C48.1587 12.4699 47.6744 13.3346 47.3459 14.3376C47.0346 15.3234 46.8789 16.3955 46.8789 17.5542C46.8789 18.7475 47.0519 19.8456 47.3977 20.8486C47.7436 21.8517 48.2451 22.7163 48.9023 23.4427C49.5594 24.169 50.3722 24.7397 51.3407 25.1547C52.3091 25.5525 53.4245 25.7514 54.687 25.7514C55.3268 25.7514 55.958 25.6822 56.5806 25.5438C57.2032 25.4055 57.7912 25.198 58.3446 24.9213C58.8979 24.6273 59.3995 24.2641 59.8491 23.8318C60.2987 23.3821 60.6705 22.8547 60.9645 22.2494C61.051 22.0592 61.1288 21.869 61.198 21.6787C61.2845 21.4885 61.3709 21.2983 61.4574 21.108H63.3251C62.8755 22.4051 62.2788 23.5118 61.5352 24.4284C60.7916 25.345 59.7713 26.0367 58.4743 26.5036Z" fill="url(#paint0_linear)"/>
<path d="M85.4684 26.8149L83.1857 20.693H74.9366L72.6279 26.8149H70.8381L77.6863 8.31946H80.436L87.2842 26.8149H85.4684ZM75.3776 19.396H82.8484L79.0093 9.51272L75.3776 19.396Z" fill="url(#paint1_linear)"/>
<path d="M108.4 26.8149L104.638 19.6294H97.6604V26.8149H95.9223V8.31946H104.353C105.166 8.31946 105.944 8.45781 106.688 8.73451C107.431 9.01121 108.097 9.40031 108.685 9.90182C109.273 10.386 109.74 10.9827 110.086 11.6917C110.432 12.3834 110.605 13.1444 110.605 13.9745C110.605 14.8391 110.388 15.6606 109.956 16.4388C109.524 17.217 108.97 17.8569 108.296 18.3584C108.192 18.4275 108.062 18.514 107.907 18.6178C107.768 18.7042 107.621 18.7907 107.466 18.8772C107.31 18.9636 107.163 19.0415 107.025 19.1106C106.886 19.1798 106.774 19.2144 106.688 19.2144L106.402 19.2403L110.423 26.8149H108.4ZM97.6604 18.1768H104.353C105.287 18.1768 106.143 17.9174 106.921 17.3986C107.699 16.8625 108.261 16.1534 108.607 15.2715C108.659 15.1331 108.702 14.9861 108.737 14.8305C108.789 14.6748 108.815 14.5019 108.815 14.3117C108.815 13.6545 108.702 13.0492 108.477 12.4959C108.27 11.9425 107.967 11.4669 107.57 11.0691C107.172 10.6714 106.696 10.3601 106.143 10.1353C105.607 9.89318 105.01 9.77212 104.353 9.77212H97.6604V18.1768Z" fill="url(#paint2_linear)"/>
<path d="M119.415 8.31946H126.963C127.724 8.31946 128.45 8.43187 129.142 8.65669C129.834 8.86421 130.439 9.18414 130.958 9.61648C131.477 10.0315 131.883 10.5503 132.177 11.1729C132.488 11.7955 132.644 12.5131 132.644 13.3259C132.644 13.862 132.497 14.3722 132.203 14.8564C131.926 15.3406 131.598 15.773 131.217 16.1534C131.114 16.2572 131.01 16.361 130.906 16.4647C130.802 16.5512 130.699 16.6463 130.595 16.7501L130.439 16.9057L130.776 17.1132C131.572 17.5802 132.238 18.1941 132.774 18.955C133.31 19.6986 133.578 20.546 133.578 21.4971C133.578 22.1197 133.474 22.7163 133.267 23.287C132.99 23.9961 132.627 24.584 132.177 25.051C131.728 25.5006 131.209 25.8551 130.621 26.1145C130.05 26.3739 129.428 26.5555 128.753 26.6593C128.079 26.763 127.387 26.8149 126.678 26.8149H119.415V8.31946ZM121.178 16.3869H127.145C127.612 16.3869 128.061 16.3004 128.494 16.1275C128.943 15.9546 129.332 15.7125 129.661 15.4012C130.007 15.0899 130.275 14.7267 130.465 14.3117C130.673 13.8793 130.776 13.4211 130.776 12.9368C130.776 12.418 130.673 11.9684 130.465 11.5879C130.258 11.1902 129.981 10.853 129.635 10.5763C129.306 10.2996 128.917 10.0921 128.468 9.9537C128.035 9.81536 127.594 9.74618 127.145 9.74618H121.178V16.3869ZM121.178 25.3623H127.534C128.139 25.3623 128.744 25.2671 129.35 25.0769C129.678 24.9731 129.99 24.8089 130.284 24.584C130.578 24.3592 130.837 24.0912 131.062 23.7799C131.287 23.4686 131.46 23.14 131.581 22.7942C131.719 22.431 131.788 22.0765 131.788 21.7306C131.788 21.1599 131.676 20.6325 131.451 20.1482C131.226 19.664 130.923 19.249 130.543 18.9031C130.18 18.5572 129.747 18.2892 129.246 18.099C128.744 17.9087 128.217 17.8136 127.664 17.8136H121.178V25.3623Z" fill="url(#paint3_linear)"/>
<path d="M142.506 13.8448C142.818 12.859 143.25 12.003 143.803 11.2767C144.357 10.533 145.005 9.91912 145.749 9.4349C146.492 8.93339 147.314 8.56157 148.213 8.31946C149.13 8.07735 150.09 7.9563 151.093 7.9563C152.58 7.9563 153.911 8.17247 155.087 8.60481C156.281 9.03715 157.284 9.66836 158.096 10.4985C158.909 11.3285 159.532 12.3402 159.964 13.5335C160.396 14.7094 160.613 16.0497 160.613 17.5542C160.613 19.0069 160.396 20.3298 159.964 21.5231C159.549 22.7163 158.935 23.7367 158.122 24.584C157.327 25.4141 156.35 26.0626 155.191 26.5296C154.05 26.9792 152.744 27.204 151.274 27.204C149.77 27.204 148.438 26.9619 147.279 26.4777C146.121 25.9762 145.144 25.2844 144.348 24.4025C143.57 23.5205 142.973 22.4656 142.558 21.2377C142.143 20.0099 141.936 18.6697 141.936 17.217C141.936 16.6463 141.979 16.0843 142.065 15.5309C142.169 14.9602 142.316 14.3981 142.506 13.8448ZM151.404 9.38302C150.66 9.38302 149.891 9.46948 149.095 9.64242C148.317 9.79806 147.608 10.0834 146.968 10.4985C146.397 10.8616 145.896 11.3026 145.463 11.8214C145.048 12.3229 144.694 12.8763 144.4 13.4816C144.123 14.0696 143.916 14.6835 143.777 15.3234C143.639 15.9632 143.57 16.5944 143.57 17.217C143.57 18.3584 143.734 19.4479 144.063 20.4855C144.391 21.5231 144.876 22.431 145.515 23.2092C146.155 23.9874 146.951 24.61 147.902 25.0769C148.853 25.5265 149.943 25.7514 151.17 25.7514C152 25.7514 152.787 25.6562 153.531 25.466C154.275 25.2758 154.949 24.9818 155.554 24.584C156.177 24.1863 156.713 23.6848 157.163 23.0795C157.63 22.4742 157.993 21.7566 158.252 20.9265C158.442 20.3212 158.563 19.7073 158.615 19.0847C158.667 18.4621 158.693 17.8482 158.693 17.2429C158.693 16.1016 158.529 15.0553 158.2 14.1042C157.889 13.1357 157.422 12.3056 156.799 11.6139C156.194 10.9048 155.433 10.3601 154.517 9.97964C153.617 9.58189 152.58 9.38302 151.404 9.38302Z" fill="url(#paint4_linear)"/>
<path d="M185 8.31946V26.8149H183.391L172.03 11.0691V26.8149H170.266V8.31946H171.9L183.236 24.0652V8.31946H185Z" fill="url(#paint5_linear)"/>
<defs>
<linearGradient id="paint0_linear" x1="45.2188" y1="17.6176" x2="151.568" y2="86.3718" gradientUnits="userSpaceOnUse">
<stop stop-color="white"/>
<stop offset="1" stop-color="#E4E4E4"/>
</linearGradient>
<linearGradient id="paint1_linear" x1="45.2188" y1="17.6176" x2="151.568" y2="86.3718" gradientUnits="userSpaceOnUse">
<stop stop-color="white"/>
<stop offset="1" stop-color="#E4E4E4"/>
</linearGradient>
<linearGradient id="paint2_linear" x1="45.2188" y1="17.6176" x2="151.568" y2="86.3718" gradientUnits="userSpaceOnUse">
<stop stop-color="white"/>
<stop offset="1" stop-color="#E4E4E4"/>
</linearGradient>
<linearGradient id="paint3_linear" x1="45.2188" y1="17.6176" x2="151.568" y2="86.3718" gradientUnits="userSpaceOnUse">
<stop stop-color="white"/>
<stop offset="1" stop-color="#E4E4E4"/>
</linearGradient>
<linearGradient id="paint4_linear" x1="45.2188" y1="17.6176" x2="151.568" y2="86.3718" gradientUnits="userSpaceOnUse">
<stop stop-color="white"/>
<stop offset="1" stop-color="#E4E4E4"/>
</linearGradient>
<linearGradient id="paint5_linear" x1="45.2188" y1="17.6176" x2="151.568" y2="86.3718" gradientUnits="userSpaceOnUse">
<stop stop-color="white"/>
<stop offset="1" stop-color="#E4E4E4"/>
</linearGradient>
</defs>
</svg>
