<svg width="204" height="48" viewBox="0 0 204 48" fill="none" xmlns="http://www.w3.org/2000/svg">
<path d="M66.509 33.2732C65.2169 33.7577 63.862 34 62.4443 34C61.0087 34 59.6898 33.7667 58.4874 33.3001C57.303 32.8156 56.2802 32.1427 55.4188 31.2813C54.5754 30.4199 53.9203 29.397 53.4538 28.2127C52.9872 27.0103 52.7539 25.6824 52.7539 24.2288C52.7539 22.7214 52.9692 21.3396 53.3999 20.0834C53.8306 18.8273 54.4587 17.7506 55.2842 16.8533C56.1097 15.956 57.1236 15.2562 58.3259 14.7537C59.5282 14.2512 60.9011 14 62.4443 14C64.7593 14 66.7064 14.5204 68.2855 15.5612C69.8647 16.6021 70.9594 18.262 71.5695 20.541H69.7122C69.443 19.6438 69.0751 18.8811 68.6085 18.253C68.142 17.607 67.5857 17.0866 66.9396 16.6918C66.3116 16.279 65.6027 15.983 64.8131 15.8035C64.0415 15.6061 63.216 15.5074 62.3367 15.5074C61.0446 15.5074 59.9051 15.7227 58.9181 16.1534C57.9491 16.5841 57.1326 17.1853 56.4686 17.9569C55.8046 18.7106 55.3021 19.6079 54.9612 20.6487C54.6382 21.6716 54.4767 22.7842 54.4767 23.9865C54.4767 25.2248 54.6561 26.3643 55.015 27.4051C55.3739 28.4459 55.8943 29.3432 56.5762 30.0969C57.2582 30.8506 58.1016 31.4428 59.1065 31.8735C60.1115 32.2862 61.2689 32.4926 62.5789 32.4926C63.2429 32.4926 63.8979 32.4208 64.5439 32.2773C65.19 32.1337 65.8001 31.9183 66.3744 31.6312C66.9486 31.3262 67.469 30.9493 67.9356 30.5007C68.4022 30.0341 68.788 29.4868 69.0931 28.8587C69.1828 28.6613 69.2636 28.4639 69.3353 28.2665C69.4251 28.0691 69.5148 27.8717 69.6045 27.6743H71.5426C71.076 29.0202 70.4569 30.1687 69.6853 31.1198C68.9136 32.0709 67.8548 32.7887 66.509 33.2732Z" fill="url(#paint0_linear_1806_2358)"/>
<path d="M94.5204 33.5962L92.1516 27.2436H83.5917L81.196 33.5962H79.3387L86.445 14.4038H89.2983L96.4046 33.5962H94.5204ZM84.0493 25.8977H91.8017L87.8178 15.642L84.0493 25.8977Z" fill="url(#paint1_linear_1806_2358)"/>
<path d="M118.316 33.5962L114.413 26.14H107.172V33.5962H105.368V14.4038H114.117C114.96 14.4038 115.768 14.5473 116.539 14.8345C117.311 15.1216 118.002 15.5253 118.612 16.0458C119.222 16.5482 119.707 17.1673 120.065 17.9031C120.424 18.6209 120.604 19.4105 120.604 20.2719C120.604 21.1691 120.38 22.0215 119.931 22.8291C119.482 23.6366 118.908 24.3006 118.208 24.821C118.1 24.8928 117.966 24.9825 117.804 25.0902C117.661 25.1799 117.508 25.2696 117.347 25.3594C117.185 25.4491 117.033 25.5298 116.889 25.6016C116.746 25.6734 116.629 25.7093 116.539 25.7093L116.243 25.7362L120.415 33.5962H118.316ZM107.172 24.6326H114.117C115.086 24.6326 115.974 24.3634 116.781 23.825C117.589 23.2687 118.172 22.533 118.531 21.6178C118.585 21.4742 118.63 21.3217 118.666 21.1602C118.72 20.9987 118.746 20.8192 118.746 20.6218C118.746 19.9399 118.63 19.3118 118.397 18.7375C118.181 18.1633 117.867 17.6698 117.454 17.2571C117.042 16.8443 116.548 16.5213 115.974 16.288C115.418 16.0368 114.799 15.9112 114.117 15.9112H107.172V24.6326Z" fill="url(#paint2_linear_1806_2358)"/>
<path d="M129.746 14.4038H137.579C138.369 14.4038 139.122 14.5204 139.84 14.7537C140.558 14.969 141.186 15.301 141.724 15.7497C142.263 16.1804 142.684 16.7187 142.989 17.3647C143.312 18.0108 143.474 18.7555 143.474 19.5989C143.474 20.1552 143.321 20.6846 143.016 21.1871C142.729 21.6895 142.388 22.1382 141.993 22.533C141.886 22.6406 141.778 22.7483 141.67 22.856C141.563 22.9457 141.455 23.0444 141.347 23.1521L141.186 23.3136L141.536 23.5289C142.361 24.0135 143.052 24.6505 143.609 25.4401C144.165 26.2118 144.443 27.0911 144.443 28.0781C144.443 28.7241 144.335 29.3432 144.12 29.9354C143.833 30.6712 143.456 31.2813 142.989 31.7658C142.523 32.2324 141.984 32.6003 141.374 32.8694C140.782 33.1386 140.136 33.3271 139.436 33.4347C138.736 33.5424 138.019 33.5962 137.283 33.5962H129.746V14.4038ZM131.576 22.7752H137.767C138.252 22.7752 138.718 22.6855 139.167 22.5061C139.634 22.3266 140.037 22.0754 140.378 21.7524C140.737 21.4293 141.015 21.0525 141.213 20.6218C141.428 20.1732 141.536 19.6976 141.536 19.1952C141.536 18.6568 141.428 18.1902 141.213 17.7954C140.998 17.3827 140.71 17.0328 140.351 16.7456C140.011 16.4585 139.607 16.2432 139.14 16.0996C138.692 15.956 138.234 15.8843 137.767 15.8843H131.576V22.7752ZM131.576 32.0888H138.171C138.799 32.0888 139.427 31.9901 140.055 31.7927C140.396 31.6851 140.719 31.5146 141.024 31.2813C141.329 31.048 141.599 30.7699 141.832 30.4468C142.065 30.1238 142.245 29.7829 142.37 29.424C142.514 29.0471 142.586 28.6792 142.586 28.3203C142.586 27.7281 142.469 27.1808 142.236 26.6783C142.002 26.1759 141.688 25.7452 141.294 25.3863C140.917 25.0274 140.468 24.7492 139.948 24.5518C139.427 24.3544 138.88 24.2557 138.306 24.2557H131.576V32.0888Z" fill="url(#paint3_linear_1806_2358)"/>
<path d="M153.708 20.1373C154.031 19.1144 154.479 18.2261 155.054 17.4724C155.628 16.7008 156.301 16.0637 157.073 15.5612C157.844 15.0408 158.697 14.655 159.63 14.4038C160.581 14.1525 161.577 14.0269 162.618 14.0269C164.161 14.0269 165.543 14.2512 166.763 14.6999C168.001 15.1485 169.042 15.8035 169.885 16.6649C170.729 17.5262 171.375 18.576 171.824 19.8143C172.272 21.0345 172.496 22.4253 172.496 23.9865C172.496 25.4939 172.272 26.8668 171.824 28.105C171.393 29.3432 170.756 30.402 169.912 31.2813C169.087 32.1427 168.073 32.8156 166.871 33.3001C165.686 33.7667 164.331 34 162.806 34C161.245 34 159.863 33.7488 158.661 33.2463C157.458 32.7259 156.444 32.0081 155.619 31.0929C154.811 30.1777 154.192 29.083 153.762 27.8089C153.331 26.5348 153.116 25.144 153.116 23.6366C153.116 23.0444 153.16 22.4612 153.25 21.8869C153.358 21.2948 153.51 20.7115 153.708 20.1373ZM162.941 15.5074C162.169 15.5074 161.37 15.5971 160.545 15.7766C159.737 15.9381 159.002 16.2342 158.338 16.6649C157.745 17.0417 157.225 17.4993 156.776 18.0377C156.346 18.5581 155.978 19.1323 155.673 19.7604C155.386 20.3706 155.17 21.0076 155.027 21.6716C154.883 22.3356 154.811 22.9906 154.811 23.6366C154.811 24.821 154.982 25.9515 155.323 27.0283C155.664 28.105 156.166 29.0471 156.83 29.8546C157.494 30.6622 158.32 31.3082 159.307 31.7927C160.294 32.2593 161.424 32.4926 162.698 32.4926C163.56 32.4926 164.376 32.3939 165.148 32.1965C165.92 31.9991 166.619 31.694 167.248 31.2813C167.894 30.8686 168.45 30.3481 168.916 29.7201C169.401 29.092 169.778 28.3472 170.047 27.4859C170.244 26.8578 170.37 26.2207 170.424 25.5747C170.478 24.9287 170.505 24.2916 170.505 23.6635C170.505 22.4791 170.334 21.3934 169.993 20.4065C169.67 19.4015 169.186 18.5402 168.54 17.8223C167.911 17.0866 167.122 16.5213 166.171 16.1265C165.238 15.7138 164.161 15.5074 162.941 15.5074Z" fill="url(#paint4_linear_1806_2358)"/>
<path d="M197.803 14.4038V33.5962H196.134L184.344 17.2571V33.5962H182.513V14.4038H184.209L195.972 30.7429V14.4038H197.803Z" fill="url(#paint5_linear_1806_2358)"/>
<path d="M6.06836 27.7126C6.2452 27.7175 6.42266 27.72 6.60069 27.72C10.2619 27.72 13.6776 26.669 16.5626 24.8522C17.7436 30.9309 23.0959 35.52 29.52 35.52C34.7776 35.52 39.3173 32.4462 41.44 27.9975C41.6046 27.9105 41.7671 27.8202 41.9274 27.7265C39.6076 35.4294 32.459 41.04 24 41.04C15.5359 41.04 8.38375 35.4226 6.06836 27.7126Z" fill="url(#paint6_radial_1806_2358)"/>
<path d="M6.06836 27.7126C6.2452 27.7175 6.42266 27.72 6.60069 27.72C10.2619 27.72 13.6776 26.669 16.5626 24.8522C17.7436 30.9309 23.0959 35.52 29.52 35.52C34.7776 35.52 39.3173 32.4462 41.44 27.9975C41.6046 27.9105 41.7671 27.8202 41.9274 27.7265C39.6076 35.4294 32.459 41.04 24 41.04C15.5359 41.04 8.38375 35.4226 6.06836 27.7126Z" fill="#04171E" fill-opacity="0.88"/>
<path d="M6.1582 28.0029C6.30531 28.0063 6.45282 28.008 6.60075 28.008C10.2841 28.008 13.7189 26.9442 16.6149 25.1072C17.8941 31.0588 23.1861 35.52 29.52 35.52C34.7777 35.52 39.3174 32.4461 41.4401 27.9975C41.6046 27.9105 41.7671 27.8201 41.9275 27.7265C39.6077 35.4293 32.4591 41.04 24 41.04C15.6425 41.04 8.5642 35.5632 6.1582 28.0029Z" fill="url(#paint7_radial_1806_2358)"/>
<path d="M6.1582 28.0029C6.30531 28.0063 6.45282 28.008 6.60075 28.008C10.2841 28.008 13.7189 26.9442 16.6149 25.1072C17.8941 31.0588 23.1861 35.52 29.52 35.52C34.7777 35.52 39.3174 32.4461 41.4401 27.9975C41.6046 27.9105 41.7671 27.8201 41.9275 27.7265C39.6077 35.4293 32.4591 41.04 24 41.04C15.6425 41.04 8.5642 35.5632 6.1582 28.0029Z" fill="#04171E" fill-opacity="0.4"/>
<path d="M32.8558 35.0947C30.1941 37.3084 26.7726 38.6398 23.04 38.6398C16.0727 38.6398 10.1888 34.0008 8.30859 27.6431C11.3228 27.3704 14.1308 26.3832 16.5619 24.8522C17.7429 30.9309 23.0952 35.52 29.5192 35.52C30.6719 35.52 31.7901 35.3723 32.8558 35.0947Z" fill="url(#paint8_linear_1806_2358)" fill-opacity="0.64"/>
<path d="M39.3606 22.32C39.3606 30.8031 32.4837 37.68 24.0006 37.68C15.5175 37.68 8.64062 30.8031 8.64062 22.32C8.64062 13.8369 15.5175 6.95999 24.0006 6.95999C32.4837 6.95999 39.3606 13.8369 39.3606 22.32Z" fill="url(#paint9_radial_1806_2358)"/>
<path d="M38.3383 19.4358C38.3383 25.4005 33.503 30.2358 27.5383 30.2358C21.5736 30.2358 16.7383 25.4005 16.7383 19.4358C16.7383 13.4711 21.5736 8.63577 27.5383 8.63577C33.503 8.63577 38.3383 13.4711 38.3383 19.4358Z" fill="url(#paint10_radial_1806_2358)" fill-opacity="0.6"/>
<path d="M25.0062 8.65518C24.7653 8.6423 24.5227 8.63577 24.2786 8.63577C21.9807 8.63577 19.818 9.21392 17.9277 10.2327C18.9386 10.0099 19.9891 9.8925 21.0669 9.8925C22.1656 9.8925 23.2357 10.0145 24.2645 10.2457L25.0062 8.65518Z" fill="url(#paint11_linear_1806_2358)" fill-opacity="0.64"/>
<path d="M25.8949 10.7143C31.5419 12.7043 35.5891 18.0869 35.5891 24.4147C35.5891 27.0162 34.9051 29.4579 33.707 31.5699C36.1624 29.1402 37.6837 25.7682 37.6837 22.0409C37.6837 15.4844 32.9766 10.0273 26.7575 8.86451L25.8949 10.7143Z" fill="url(#paint12_linear_1806_2358)" fill-opacity="0.64"/>
<path d="M32.2079 35.3053C29.8334 36.8094 27.0181 37.6803 23.9994 37.6803C19.2153 37.6803 14.942 35.4931 12.125 32.0641C12.9016 32.2064 13.7019 32.2807 14.5196 32.2807C20.457 32.2807 25.4788 28.3607 27.1381 22.9675C27.6855 23.0157 28.2397 23.0403 28.7997 23.0403C32.6356 23.0403 36.202 21.8865 39.1709 19.9071C39.295 20.6933 39.3594 21.4992 39.3594 22.3203C39.3594 22.8299 39.3346 23.3337 39.2861 23.8306C38.4233 28.4904 35.8346 32.5446 32.2079 35.3053Z" fill="url(#paint13_linear_1806_2358)" fill-opacity="0.64"/>
<path d="M6.07227 27.7263C8.39188 35.4295 15.5406 41.0405 23.9999 41.0405C34.2989 41.0405 42.6553 32.7237 42.7195 22.4399C41.6921 22.4334 40.6843 22.3441 39.7025 22.1784C37.3951 23.1954 34.8435 23.76 32.16 23.76C31.2295 23.76 30.3148 23.6921 29.4207 23.561C27.7633 28.9573 22.74 32.8802 16.8004 32.8802C12.6585 32.8802 8.96221 30.9726 6.54211 27.988C6.38355 27.9039 6.22691 27.8166 6.07227 27.7263Z" fill="url(#paint14_linear_1806_2358)"/>
<path d="M42.7192 22.4562C39.9659 24.0488 36.7692 24.9603 33.3597 24.9603C32.7099 24.9603 32.0678 24.9272 31.4351 24.8626C30.2501 30.9363 24.9002 35.5203 18.4797 35.5203C13.2221 35.5203 8.68235 32.4464 6.55967 27.9978C6.39511 27.9108 6.23261 27.8205 6.07227 27.7268C8.39209 35.4297 15.5407 41.0403 23.9997 41.0403C34.2931 41.0403 42.6462 32.7324 42.7192 22.4562Z" fill="url(#paint15_radial_1806_2358)"/>
<path d="M41.3555 23.1722C40.2279 23.7055 39.0385 24.1296 37.801 24.4306C37.6405 25.7976 37.332 27.1684 36.8655 28.5231C35.7286 31.825 33.7932 34.6252 31.3496 36.7822C35.528 34.7714 38.9325 31.1563 40.5615 26.4255C40.9324 25.3482 41.1952 24.2598 41.3555 23.1722Z" fill="url(#paint16_linear_1806_2358)" fill-opacity="0.64"/>
<path opacity="0.2" fill-rule="evenodd" clip-rule="evenodd" d="M29.4134 23.5933C29.4346 23.565 29.474 23.5597 29.5015 23.5815C30.1264 24.0772 30.8017 24.5144 31.5255 24.8854C31.5566 24.9013 31.5692 24.9401 31.5538 24.9721C31.5384 25.0041 31.5007 25.0172 31.4696 25.0013C30.7384 24.6265 30.0562 24.1848 29.4249 23.684C29.3974 23.6622 29.3923 23.6216 29.4134 23.5933Z" fill="url(#paint17_linear_1806_2358)"/>
<defs>
<linearGradient id="paint0_linear_1806_2358" x1="52.7539" y1="24.0524" x2="163.111" y2="95.3976" gradientUnits="userSpaceOnUse">
<stop stop-color="white"/>
<stop offset="1" stop-color="#E4E4E4"/>
</linearGradient>
<linearGradient id="paint1_linear_1806_2358" x1="52.7539" y1="24.0524" x2="163.111" y2="95.3976" gradientUnits="userSpaceOnUse">
<stop stop-color="white"/>
<stop offset="1" stop-color="#E4E4E4"/>
</linearGradient>
<linearGradient id="paint2_linear_1806_2358" x1="52.7539" y1="24.0524" x2="163.111" y2="95.3976" gradientUnits="userSpaceOnUse">
<stop stop-color="white"/>
<stop offset="1" stop-color="#E4E4E4"/>
</linearGradient>
<linearGradient id="paint3_linear_1806_2358" x1="52.7539" y1="24.0524" x2="163.111" y2="95.3976" gradientUnits="userSpaceOnUse">
<stop stop-color="white"/>
<stop offset="1" stop-color="#E4E4E4"/>
</linearGradient>
<linearGradient id="paint4_linear_1806_2358" x1="52.7539" y1="24.0524" x2="163.111" y2="95.3976" gradientUnits="userSpaceOnUse">
<stop stop-color="white"/>
<stop offset="1" stop-color="#E4E4E4"/>
</linearGradient>
<linearGradient id="paint5_linear_1806_2358" x1="52.7539" y1="24.0524" x2="163.111" y2="95.3976" gradientUnits="userSpaceOnUse">
<stop stop-color="white"/>
<stop offset="1" stop-color="#E4E4E4"/>
</linearGradient>
<radialGradient id="paint6_radial_1806_2358" cx="0" cy="0" r="1" gradientUnits="userSpaceOnUse" gradientTransform="translate(41.9274 37.0859) rotate(179.948) scale(135.923 394.941)">
<stop offset="0.104167" stop-color="#24537E"/>
<stop offset="0.520341" stop-color="#4FC1C0"/>
<stop offset="1" stop-color="#DAFFF4"/>
</radialGradient>
<radialGradient id="paint7_radial_1806_2358" cx="0" cy="0" r="1" gradientUnits="userSpaceOnUse" gradientTransform="translate(41.9275 37.0859) rotate(179.948) scale(135.923 394.941)">
<stop offset="0.104167" stop-color="#24537E"/>
<stop offset="0.520341" stop-color="#4FC1C0"/>
<stop offset="1" stop-color="#DAFFF4"/>
</radialGradient>
<linearGradient id="paint8_linear_1806_2358" x1="32.3967" y1="41.2275" x2="26.2211" y2="9.10497" gradientUnits="userSpaceOnUse">
<stop stop-color="#04171E"/>
<stop offset="1" stop-color="#04171E" stop-opacity="0"/>
</linearGradient>
<radialGradient id="paint9_radial_1806_2358" cx="0" cy="0" r="1" gradientUnits="userSpaceOnUse" gradientTransform="translate(12.7599 34.3287) rotate(-57.5402) scale(27.0578 392.082)">
<stop offset="0.104167" stop-color="#3A78B1"/>
<stop offset="0.520341" stop-color="#4FC1C0"/>
<stop offset="1" stop-color="#8CF2FD"/>
</radialGradient>
<radialGradient id="paint10_radial_1806_2358" cx="0" cy="0" r="1" gradientUnits="userSpaceOnUse" gradientTransform="translate(38.2794 8.63999) rotate(144.267) scale(26.6092 26.4204)">
<stop offset="0.216485" stop-color="white"/>
<stop offset="0.906332" stop-color="white" stop-opacity="0"/>
</radialGradient>
<linearGradient id="paint11_linear_1806_2358" x1="33.7192" y1="14.64" x2="17.8792" y2="21.54" gradientUnits="userSpaceOnUse">
<stop stop-color="white"/>
<stop offset="0.732381" stop-color="white" stop-opacity="0"/>
</linearGradient>
<linearGradient id="paint12_linear_1806_2358" x1="33.7192" y1="14.64" x2="17.8792" y2="21.54" gradientUnits="userSpaceOnUse">
<stop stop-color="white"/>
<stop offset="0.732381" stop-color="white" stop-opacity="0"/>
</linearGradient>
<linearGradient id="paint13_linear_1806_2358" x1="63.1212" y1="-18.1811" x2="-1.6633" y2="35.7933" gradientUnits="userSpaceOnUse">
<stop stop-color="#04171E"/>
<stop offset="1" stop-color="#04171E" stop-opacity="0"/>
</linearGradient>
<linearGradient id="paint14_linear_1806_2358" x1="35.8797" y1="24.78" x2="11.5796" y2="33.36" gradientUnits="userSpaceOnUse">
<stop stop-color="#0E6585"/>
<stop offset="1" stop-color="#04171E"/>
</linearGradient>
<radialGradient id="paint15_radial_1806_2358" cx="0" cy="0" r="1" gradientUnits="userSpaceOnUse" gradientTransform="translate(10.9863 39.0129) rotate(-38.5632) scale(22.1557 345.559)">
<stop offset="0.104167" stop-color="#3A78B1"/>
<stop offset="0.520341" stop-color="#4FC1C0"/>
<stop offset="1" stop-color="#8CF2FD"/>
</radialGradient>
<linearGradient id="paint16_linear_1806_2358" x1="41.4007" y1="23.16" x2="32.0556" y2="37.3249" gradientUnits="userSpaceOnUse">
<stop stop-color="white" stop-opacity="0.64"/>
<stop offset="1" stop-color="white" stop-opacity="0"/>
</linearGradient>
<linearGradient id="paint17_linear_1806_2358" x1="31.5478" y1="24.9398" x2="28.5098" y2="23.0618" gradientUnits="userSpaceOnUse">
<stop stop-color="#8CF2FD"/>
<stop offset="1" stop-color="#8CF2FD" stop-opacity="0"/>
</linearGradient>
</defs>
</svg>
