<svg width="24" height="24" viewBox="0 0 24 24" fill="none" xmlns="http://www.w3.org/2000/svg">
<circle cx="12" cy="12" r="12" fill="url(#paint0_linear_1863_4987)"/>
<path d="M4.3341 12.6165C3.54862 14.5701 4.4879 16.7938 6.43205 17.5831L9.27656 10.5083C7.33241 9.71895 5.11959 10.6628 4.3341 12.6165Z" fill="white"/>
<path d="M9.06326 13.9487C8.16556 16.1814 9.23902 18.7227 11.4609 19.6248C13.6828 20.5269 16.2117 19.4482 17.1094 17.2154L9.06326 13.9487Z" fill="white"/>
<path d="M16.5505 4.05615C19.3279 5.18376 20.6697 8.36038 19.5476 11.1513C18.4255 13.9423 15.2643 15.2906 12.4869 14.163L16.5505 4.05615Z" fill="white"/>
<path d="M6.6656 8.27256C7.33888 6.598 9.23558 5.78896 10.902 6.46553C12.5684 7.14209 13.3735 9.04806 12.7002 10.7226L6.6656 8.27256Z" fill="white"/>
<defs>
<linearGradient id="paint0_linear_1863_4987" x1="24" y1="12" x2="3.15777e-07" y2="12" gradientUnits="userSpaceOnUse">
<stop stop-color="#482BFF"/>
<stop offset="1" stop-color="#007AFF"/>
</linearGradient>
</defs>
</svg>
