<?xml version="1.0" encoding="utf-8"?>
<!-- Generator: Adobe Illustrator 19.2.1, SVG Export Plug-In . SVG Version: 6.00 Build 0)  -->
<svg version="1.1" id="layer" xmlns="http://www.w3.org/2000/svg" xmlns:xlink="http://www.w3.org/1999/xlink" x="0px"
	y="0px" viewBox="0 0 652 652" style="enable-background:new 0 0 652 652;" xml:space="preserve">
	<style type="text/css">
		.st0 {
			fill: white;
		}
	</style>
	<path class="st0" d="M27,388.9V228.5l58.7,33v162.8L27,388.9z M115.7,388.9V228.5l58.7,33v162.8L115.7,388.9z M204.4,388.9V228.5
	l58.7,33v162.8L204.4,388.9z M386.9,247.2h21.8v98.8h-23.6l-23.2-37.8c-8-12.8-13.8-22.7-17.4-29.8c0.6,11.4,0.8,24.2,0.8,38.2v29.3
	h-21.8v-98.8h24.2l25.2,41.2c7,11.3,11.8,19.5,14.6,24.6c-0.4-7.8-0.6-19.1-0.6-34.1V247.2z M468.8,308.7v-18.9h47v56.2h-17.1
	l-0.8-8.5c-5.7,7.2-14.7,10.8-27.1,10.8c-14.8,0-26.6-4.8-35.3-14.5s-13.1-22.1-13.1-37.4c-0.2-15,4.4-27.4,13.6-37.1
	c9.4-9.8,21.7-14.7,37-14.5c8.6,0,16.2,1.4,22.8,4.2c6.7,2.8,13.4,7.5,20.3,14.2l-14.2,14.7c-5.6-4.9-10.5-8.3-14.9-10.3
	c-4.4-1.9-9-2.9-14-2.9c-8.5,0-15.3,2.7-20.3,8.2c-4.9,5.5-7.4,13.3-7.4,23.4c0,10.4,2.4,18.4,7.2,24.1c4.9,5.6,11.6,8.3,20,8.3
	c7.2,0,12.8-1.7,16.8-5.1c4.1-3.5,6.1-8.3,6.1-14.5v-0.4H468.8z M577.7,244.7c7.9,0,14.6,1.2,20.2,3.5c5.7,2.4,11.5,6.3,17.4,11.7
	L602,275.4c-4.9-4.2-9.1-7-12.7-8.5c-3.4-1.6-7.4-2.4-11.8-2.4c-8.3,0-14.8,2.9-19.8,8.6c-4.8,5.7-7.2,13.4-7.2,23.2
	c0,9.9,2.4,17.8,7.2,23.5c4.9,5.7,11.5,8.6,19.6,8.6c4.8,0,9-0.9,12.5-2.6c3.6-1.7,8.2-4.7,13.8-9.2l12.9,15.3
	c-6.1,5.7-12.3,9.8-18.5,12.5c-6.1,2.6-12.9,3.9-20.4,3.9c-15.2,0-27.4-4.9-36.4-14.6c-9.1-9.8-13.6-22.4-13.6-37.7
	c0-15,4.5-27.4,13.5-37C550.1,249.5,562.3,244.7,577.7,244.7z M340,411.2l13.7-40.5H350L338,407.7h-0.2l-11.9-36.9H322l13.6,40.5
	H340z M380.9,411.9c5.6,0,9.7-2.9,11.6-7.2L390,403c-1.6,3.9-4.8,6-9,6c-6.1,0-9.7-4.3-9.7-10.5V397h22v-1.6
	c0-8.7-4.9-14.6-12.5-14.6c-7.9,0-12.9,5.8-12.9,15.5S373,411.9,380.9,411.9z M380.8,383.6c5.3,0,8.9,4.1,8.9,10.4v0.5h-18.4v-0.3
	C371.4,387.9,375.1,383.6,380.8,383.6z M416.6,411.2v-20.9c0-4.4,3.9-6.5,8.1-6.5c4.9,0,7.6,2.9,7.6,8.9v18.5h3.3v-19.1
	c0-7.2-3.7-11.3-10-11.3c-4.8,0-7.4,2.3-8.8,5.4h-0.2v-4.7h-3.3v29.7H416.6z M468.6,411.2v-2.9h-6.3v-23.9h6.7v-2.9h-6.7v-8.3h-3v6
	c0,1.7-0.5,2.3-2.1,2.3h-3.4v2.9h5.2v23.1c0,2.2,1.3,3.7,3.7,3.7H468.6z M507.1,411.2h3.3v-29.7h-3.3v20.8c0,4.5-3.9,6.6-8,6.6
	c-4.9,0-7.6-2.9-7.6-9v-18.4h-3.3v19.1c0,7.2,3.8,11.3,10.1,11.3c5.1,0,7.5-2.6,8.6-5.4h0.2V411.2z M536.1,411.2v-20.3
	c0-3.8,3.5-6.1,8.5-6.1h2.6v-3.2h-2c-5.1,0-7.7,2.5-8.9,5.3h-0.2v-5.3h-3.3v29.7H536.1z M575.6,411.9c5.6,0,9.7-2.9,11.6-7.2
	l-2.4-1.6c-1.6,3.9-4.8,6-9,6c-6.1,0-9.7-4.3-9.7-10.5V397h22v-1.6c0-8.7-4.9-14.6-12.5-14.6c-7.9,0-12.9,5.8-12.9,15.5
	S567.6,411.9,575.6,411.9z M575.5,383.6c5.3,0,8.9,4.1,8.9,10.4v0.5h-18.4v-0.3C566.1,387.9,569.8,383.6,575.5,383.6z M616.4,411.9
	c6.5,0,10.5-3.3,10.5-8.8c0-4.8-2.8-7.4-8.9-8.3l-2.4-0.3c-4.2-0.7-6.4-2-6.4-5.4c0-3.4,2.5-5.3,6.7-5.3c4.1,0,6.5,1.9,8.1,3.8
	l2.2-2c-2.2-2.7-5.2-4.6-10.1-4.6c-5.7,0-10.1,2.8-10.1,8.3c0,5.3,3.7,7.5,9.1,8.3l2.4,0.4c4.3,0.6,6.1,2.4,6.1,5.6
	c0,3.6-2.6,5.6-7.1,5.6c-3.9,0-6.8-1.6-9.2-4.8l-2.4,1.9C607.7,409.9,611.3,411.9,616.4,411.9z" />
</svg>