<svg width="35" height="20" viewBox="0 0 35 20" fill="none" xmlns="http://www.w3.org/2000/svg">
<path d="M2.36369 19.5103C2.88898 19.5103 3.34264 19.357 3.85598 19.0506L16.0928 11.9556C16.7971 11.5431 17.2388 11.0599 17.394 10.4824V17.2828C17.394 18.7206 18.2775 19.5103 19.328 19.5103C19.8533 19.5103 20.295 19.357 20.8203 19.0506L33.0571 11.9556C33.9525 11.437 34.4061 10.8006 34.4061 10.011C34.4061 9.20952 33.9644 8.60845 33.0571 8.07809L20.8203 0.983081C20.295 0.676652 19.8414 0.523438 19.3161 0.523438C18.2655 0.523438 17.394 1.31308 17.394 2.75094V9.52774C17.2388 8.96202 16.8091 8.49059 16.0928 8.07809L3.85598 0.983081C3.34264 0.676652 2.88898 0.523438 2.36369 0.523438C1.31312 0.523438 0.429688 1.31308 0.429688 2.75094V17.2828C0.429688 18.7206 1.31312 19.5103 2.36369 19.5103ZM3.06805 16.776C2.92479 16.776 2.79347 16.6817 2.79347 16.4813V3.55237C2.79347 3.35201 2.92479 3.24594 3.06805 3.24594C3.13968 3.24594 3.22325 3.2813 3.3307 3.34023L14.2901 9.7281C14.4453 9.8106 14.5169 9.86952 14.5169 10.011C14.5169 10.1524 14.4333 10.2231 14.2901 10.3056L3.3307 16.6935C3.23519 16.7524 3.13968 16.776 3.06805 16.776ZM20.0324 16.776C19.8772 16.776 19.7578 16.6817 19.7578 16.4813V3.55237C19.7578 3.35201 19.8772 3.24594 20.0324 3.24594C20.104 3.24594 20.1876 3.2813 20.2831 3.34023L31.2544 9.7281C31.3977 9.8106 31.4693 9.86952 31.4693 10.011C31.4693 10.1524 31.3977 10.2231 31.2544 10.3056L20.2831 16.6935C20.1876 16.7524 20.104 16.776 20.0324 16.776Z" fill="#8CF2FD"/>
</svg>
