<svg width="100" height="101" viewBox="0 0 100 101" fill="none" xmlns="http://www.w3.org/2000/svg">
<circle cx="50" cy="50.5" r="50" fill="#FEFEFE"/>
<path d="M12.6522 58.2643L12.6519 58.2633C12.9742 58.4515 13.3007 58.6334 13.6312 58.8088C13.6316 58.8093 13.632 58.8098 13.6324 58.8103C13.3016 58.6348 12.9748 58.4527 12.6522 58.2643Z" fill="#FEFEFE"/>
<path d="M88.9997 47.2837L89.0001 47.2497C86.8596 47.2362 84.7601 47.0503 82.7146 46.7051C77.9075 48.8237 72.5917 50 67.0011 50C65.0625 50 63.1569 49.8585 61.2941 49.5854C57.841 60.8274 47.3759 69 35.0019 69C26.4101 69 18.7385 65.0598 13.6956 58.8879C18.1298 68.124 27.5706 74.5006 38.5007 74.5006C51.8768 74.5006 63.0224 64.9506 65.4911 52.297C66.8093 52.4316 68.1469 52.5006 69.5007 52.5006C76.6039 52.5006 83.2635 50.6016 88.9997 47.2837Z" fill="#FEFEFE"/>
<path d="M88.9997 47.2837C83.2635 50.6016 76.6039 52.5006 69.5007 52.5006C68.1469 52.5006 66.8093 52.4316 65.4911 52.297C63.0224 64.9506 51.8768 74.5006 38.5007 74.5006C27.5473 74.5006 18.0895 68.0967 13.6673 58.8287C13.3245 58.6475 12.9859 58.4592 12.6519 58.2641C17.4848 74.3118 32.3777 86.0006 50.0007 86.0006C71.4454 86.0006 88.8475 68.6925 88.9997 47.2837Z" fill="#0A3F52"/>
<path d="M82.0007 47.0112C77.3833 48.9367 72.3164 50 67.0011 50C65.0625 50 63.1569 49.8585 61.2941 49.5854C57.841 60.8273 47.3759 69 35.0019 69C31.5393 69 28.2263 68.36 25.1745 67.192C20.6896 61.6845 18.0008 54.6562 18.0008 46.9999C18.0008 29.3268 32.3276 14.9999 50.0008 14.9999C67.6739 14.9999 82.0007 29.3268 82.0007 46.9999C82.0007 47.0037 82.0007 47.0074 82.0007 47.0112Z" fill="#0A3F52"/>
</svg>
