<svg width="1576" height="1549" viewBox="0 0 1576 1549" fill="none" xmlns="http://www.w3.org/2000/svg">
<path d="M839.32 984.051C842.794 982.984 846.259 981.817 849.712 980.551C882.211 968.632 909.807 949.253 931.267 925.067C918.123 933.455 903.874 940.562 888.629 946.153C873.091 951.851 857.324 955.68 841.576 957.754L839.32 984.051Z" fill="url(#paint0_linear_1_247)" fill-opacity="0.12"/>
<path d="M816.092 959.595C725.922 960.798 640.816 905.815 608.058 816.495C594.59 779.774 591.625 741.76 597.636 705.735C575.486 752.768 571.428 808.255 590.723 860.867C624.665 953.414 719.489 1006.03 813.468 990.181L816.092 959.595Z" fill="url(#paint1_linear_1_247)" fill-opacity="0.12"/>
<g filter="url(#filter0_dddddd_1_247)">
<path d="M595.168 813.56C597.033 813.612 598.903 813.638 600.78 813.638C639.375 813.638 675.383 802.58 705.795 783.466C718.245 847.419 774.667 895.7 842.388 895.7C897.812 895.7 945.668 863.361 968.045 816.557C969.779 815.642 971.492 814.692 973.183 813.706C948.728 894.747 873.37 953.775 784.198 953.775C694.972 953.775 619.577 894.676 595.168 813.56Z" fill="url(#paint2_radial_1_247)"/>
<path d="M595.168 813.56C597.033 813.612 598.903 813.638 600.78 813.638C639.375 813.638 675.383 802.58 705.795 783.466C718.245 847.419 774.667 895.7 842.388 895.7C897.812 895.7 945.668 863.361 968.045 816.557C969.779 815.642 971.492 814.692 973.183 813.706C948.728 894.747 873.37 953.775 784.198 953.775C694.972 953.775 619.577 894.676 595.168 813.56Z" fill="#04171E" fill-opacity="0.88"/>
<path d="M596.115 816.614C597.665 816.65 599.22 816.668 600.78 816.668C639.608 816.668 675.817 805.476 706.345 786.149C719.831 848.765 775.617 895.7 842.387 895.7C897.812 895.7 945.668 863.36 968.044 816.557C969.779 815.642 971.492 814.691 973.182 813.706C948.728 894.746 873.37 953.775 784.197 953.775C696.095 953.775 621.478 896.155 596.115 816.614Z" fill="url(#paint3_radial_1_247)"/>
<path d="M596.115 816.614C597.665 816.65 599.22 816.668 600.78 816.668C639.608 816.668 675.817 805.476 706.345 786.149C719.831 848.765 775.617 895.7 842.387 895.7C897.812 895.7 945.668 863.36 968.044 816.557C969.779 815.642 971.492 814.691 973.182 813.706C948.728 894.746 873.37 953.775 784.197 953.775C696.095 953.775 621.478 896.155 596.115 816.614Z" fill="#04171E" fill-opacity="0.4"/>
<path d="M877.56 891.226C849.502 914.516 813.432 928.523 774.085 928.523C700.638 928.523 638.612 879.717 618.791 812.829C650.566 809.959 680.167 799.573 705.795 783.466C718.245 847.419 774.666 895.7 842.387 895.7C854.538 895.7 866.325 894.146 877.56 891.226Z" fill="url(#paint4_linear_1_247)" fill-opacity="0.64"/>
<path d="M946.125 756.825C946.125 846.074 873.631 918.425 784.205 918.425C694.779 918.425 622.285 846.074 622.285 756.825C622.285 667.576 694.779 595.225 784.205 595.225C873.631 595.225 946.125 667.576 946.125 756.825Z" fill="url(#paint5_radial_1_247)"/>
<path d="M935.361 726.481C935.361 789.234 884.389 840.106 821.511 840.106C758.633 840.106 707.661 789.234 707.661 726.481C707.661 663.727 758.633 612.856 821.511 612.856C884.389 612.856 935.361 663.727 935.361 726.481Z" fill="url(#paint6_radial_1_247)" fill-opacity="0.6"/>
<path d="M794.821 613.06C792.281 612.924 789.724 612.856 787.15 612.856C762.928 612.856 740.128 618.938 720.202 629.656C730.859 627.313 741.932 626.077 753.294 626.077C764.876 626.077 776.157 627.361 787.003 629.793L794.821 613.06Z" fill="url(#paint7_linear_1_247)" fill-opacity="0.64"/>
<path d="M804.189 634.724C863.718 655.66 906.382 712.289 906.382 778.863C906.382 806.233 899.171 831.922 886.542 854.141C912.426 828.579 928.462 793.102 928.462 753.888C928.462 684.909 878.842 627.495 813.282 615.262L804.189 634.724Z" fill="url(#paint8_linear_1_247)" fill-opacity="0.64"/>
<path d="M870.736 893.441C845.705 909.266 816.027 918.428 784.205 918.428C733.772 918.428 688.725 895.417 659.029 859.341C667.215 860.838 675.652 861.62 684.272 861.62C746.862 861.62 799.8 820.378 817.291 763.638C823.062 764.144 828.905 764.403 834.807 764.403C875.244 764.403 912.841 752.264 944.138 731.439C945.446 739.71 946.125 748.19 946.125 756.828C946.125 762.189 945.863 767.49 945.352 772.718C936.256 821.743 908.967 864.396 870.736 893.441Z" fill="url(#paint9_linear_1_247)" fill-opacity="0.64"/>
<path d="M595.22 813.704C619.673 894.748 695.032 953.78 784.207 953.78C892.775 953.78 980.866 866.28 981.543 758.086C970.712 758.018 960.088 757.079 949.738 755.336C925.414 766.035 898.516 771.975 870.228 771.975C860.419 771.975 850.777 771.261 841.351 769.881C823.88 826.654 770.925 867.927 708.312 867.927C664.65 867.927 625.685 847.858 600.173 816.457C598.501 815.572 596.85 814.654 595.22 813.704Z" fill="url(#paint10_linear_1_247)"/>
<path d="M981.542 758.258C952.517 775.013 918.82 784.603 882.877 784.603C876.028 784.603 869.259 784.255 862.589 783.575C850.097 847.476 793.701 895.703 726.018 895.703C670.593 895.703 622.737 863.364 600.361 816.56C598.626 815.645 596.913 814.694 595.222 813.709C619.677 894.75 695.035 953.778 784.208 953.778C892.718 953.778 980.772 866.372 981.542 758.258Z" fill="url(#paint11_radial_1_247)"/>
<path d="M967.154 765.791C955.268 771.402 942.729 775.863 929.683 779.03C927.992 793.412 924.739 807.834 919.822 822.087C907.837 856.826 887.435 886.286 861.675 908.979C905.723 887.824 941.612 849.791 958.783 800.018C962.694 788.684 965.464 777.234 967.154 765.791Z" fill="url(#paint12_linear_1_247)" fill-opacity="0.64"/>
<path opacity="0.2" fill-rule="evenodd" clip-rule="evenodd" d="M841.267 770.221C841.49 769.923 841.906 769.868 842.196 770.097C848.783 775.312 855.902 779.912 863.533 783.815C863.86 783.982 863.993 784.391 863.831 784.728C863.668 785.064 863.271 785.202 862.943 785.034C855.235 781.092 848.043 776.444 841.388 771.176C841.099 770.946 841.044 770.519 841.267 770.221Z" fill="url(#paint13_linear_1_247)"/>
</g>
<path d="M792.31 549.329C788.2 549.11 784.06 549 779.894 549C740.686 549 703.781 558.784 671.528 576.024C688.777 572.255 706.701 570.267 725.093 570.267C743.839 570.267 762.1 572.332 779.655 576.244L792.31 549.329Z" fill="url(#paint14_linear_1_247)" fill-opacity="0.2"/>
<path d="M807.474 584.175C903.832 617.851 972.891 708.939 972.891 816.024C972.891 860.049 961.219 901.37 940.776 937.109C982.674 895.992 1008.63 838.928 1008.63 775.852C1008.63 664.898 928.313 572.548 822.193 552.871L807.474 584.175Z" fill="url(#paint15_linear_1_247)" fill-opacity="0.2"/>
<path d="M1028.74 777.264C1028.74 913.533 918.269 1024 782.001 1024C645.733 1024 535.265 913.533 535.265 777.264C535.265 640.996 645.733 530.528 782.001 530.528C918.269 530.528 1028.74 640.996 1028.74 777.264Z" fill="url(#paint16_linear_1_247)" fill-opacity="0.25"/>
<defs>
<filter id="filter0_dddddd_1_247" x="-59.4317" y="-72.4317" width="1694.86" height="1693.86" filterUnits="userSpaceOnUse" color-interpolation-filters="sRGB">
<feFlood flood-opacity="0" result="BackgroundImageFix"/>
<feColorMatrix in="SourceAlpha" type="matrix" values="0 0 0 0 0 0 0 0 0 0 0 0 0 0 0 0 0 0 127 0" result="hardAlpha"/>
<feOffset/>
<feGaussianBlur stdDeviation="7.07657"/>
<feColorMatrix type="matrix" values="0 0 0 0 0.0745098 0 0 0 0 0.47451 0 0 0 0 0.513726 0 0 0 1 0"/>
<feBlend mode="normal" in2="BackgroundImageFix" result="effect1_dropShadow_1_247"/>
<feColorMatrix in="SourceAlpha" type="matrix" values="0 0 0 0 0 0 0 0 0 0 0 0 0 0 0 0 0 0 127 0" result="hardAlpha"/>
<feOffset/>
<feGaussianBlur stdDeviation="14.1531"/>
<feColorMatrix type="matrix" values="0 0 0 0 0.0745098 0 0 0 0 0.47451 0 0 0 0 0.513726 0 0 0 1 0"/>
<feBlend mode="normal" in2="effect1_dropShadow_1_247" result="effect2_dropShadow_1_247"/>
<feColorMatrix in="SourceAlpha" type="matrix" values="0 0 0 0 0 0 0 0 0 0 0 0 0 0 0 0 0 0 127 0" result="hardAlpha"/>
<feOffset/>
<feGaussianBlur stdDeviation="49.536"/>
<feColorMatrix type="matrix" values="0 0 0 0 0.0745098 0 0 0 0 0.47451 0 0 0 0 0.513726 0 0 0 1 0"/>
<feBlend mode="normal" in2="effect2_dropShadow_1_247" result="effect3_dropShadow_1_247"/>
<feColorMatrix in="SourceAlpha" type="matrix" values="0 0 0 0 0 0 0 0 0 0 0 0 0 0 0 0 0 0 127 0" result="hardAlpha"/>
<feOffset/>
<feGaussianBlur stdDeviation="99.072"/>
<feColorMatrix type="matrix" values="0 0 0 0 0.0745098 0 0 0 0 0.47451 0 0 0 0 0.513726 0 0 0 1 0"/>
<feBlend mode="normal" in2="effect3_dropShadow_1_247" result="effect4_dropShadow_1_247"/>
<feColorMatrix in="SourceAlpha" type="matrix" values="0 0 0 0 0 0 0 0 0 0 0 0 0 0 0 0 0 0 127 0" result="hardAlpha"/>
<feOffset/>
<feGaussianBlur stdDeviation="169.838"/>
<feColorMatrix type="matrix" values="0 0 0 0 0.0745098 0 0 0 0 0.47451 0 0 0 0 0.513726 0 0 0 1 0"/>
<feBlend mode="normal" in2="effect4_dropShadow_1_247" result="effect5_dropShadow_1_247"/>
<feColorMatrix in="SourceAlpha" type="matrix" values="0 0 0 0 0 0 0 0 0 0 0 0 0 0 0 0 0 0 127 0" result="hardAlpha"/>
<feOffset/>
<feGaussianBlur stdDeviation="297.216"/>
<feColorMatrix type="matrix" values="0 0 0 0 0.0745098 0 0 0 0 0.47451 0 0 0 0 0.513726 0 0 0 1 0"/>
<feBlend mode="normal" in2="effect5_dropShadow_1_247" result="effect6_dropShadow_1_247"/>
<feBlend mode="normal" in="SourceGraphic" in2="effect6_dropShadow_1_247" result="shape"/>
</filter>
<linearGradient id="paint0_linear_1_247" x1="685.108" y1="944.769" x2="873.157" y2="764.936" gradientUnits="userSpaceOnUse">
<stop stop-color="white"/>
<stop offset="0.732381" stop-color="white" stop-opacity="0"/>
</linearGradient>
<linearGradient id="paint1_linear_1_247" x1="685.108" y1="944.769" x2="873.157" y2="764.936" gradientUnits="userSpaceOnUse">
<stop stop-color="white"/>
<stop offset="0.732381" stop-color="white" stop-opacity="0"/>
</linearGradient>
<radialGradient id="paint2_radial_1_247" cx="0" cy="0" r="1" gradientUnits="userSpaceOnUse" gradientTransform="translate(973.182 912.175) rotate(179.948) scale(1432.85 4155.11)">
<stop offset="0.104167" stop-color="#24537E"/>
<stop offset="0.520341" stop-color="#4FC1C0"/>
<stop offset="1" stop-color="#DAFFF4"/>
</radialGradient>
<radialGradient id="paint3_radial_1_247" cx="0" cy="0" r="1" gradientUnits="userSpaceOnUse" gradientTransform="translate(973.182 912.175) rotate(179.948) scale(1432.85 4155.11)">
<stop offset="0.104167" stop-color="#24537E"/>
<stop offset="0.520341" stop-color="#4FC1C0"/>
<stop offset="1" stop-color="#DAFFF4"/>
</radialGradient>
<linearGradient id="paint4_linear_1_247" x1="872.72" y1="955.748" x2="807.867" y2="617.744" gradientUnits="userSpaceOnUse">
<stop stop-color="#04171E"/>
<stop offset="1" stop-color="#04171E" stop-opacity="0"/>
</linearGradient>
<radialGradient id="paint5_radial_1_247" cx="0" cy="0" r="1" gradientUnits="userSpaceOnUse" gradientTransform="translate(665.709 883.167) rotate(-57.4888) scale(284.834 4130.85)">
<stop offset="0.104167" stop-color="#3A78B1"/>
<stop offset="0.520341" stop-color="#4FC1C0"/>
<stop offset="1" stop-color="#8CF2FD"/>
</radialGradient>
<radialGradient id="paint6_radial_1_247" cx="0" cy="0" r="1" gradientUnits="userSpaceOnUse" gradientTransform="translate(934.74 612.9) rotate(144.321) scale(280.317 278.152)">
<stop offset="0.216485" stop-color="white"/>
<stop offset="0.906332" stop-color="white" stop-opacity="0"/>
</radialGradient>
<linearGradient id="paint7_linear_1_247" x1="886.67" y1="676.025" x2="719.796" y2="748.86" gradientUnits="userSpaceOnUse">
<stop stop-color="white"/>
<stop offset="0.732381" stop-color="white" stop-opacity="0"/>
</linearGradient>
<linearGradient id="paint8_linear_1_247" x1="886.67" y1="676.025" x2="719.796" y2="748.86" gradientUnits="userSpaceOnUse">
<stop stop-color="white"/>
<stop offset="0.732381" stop-color="white" stop-opacity="0"/>
</linearGradient>
<linearGradient id="paint9_linear_1_247" x1="1196.61" y1="330.719" x2="514.784" y2="899.902" gradientUnits="userSpaceOnUse">
<stop stop-color="#04171E"/>
<stop offset="1" stop-color="#04171E" stop-opacity="0"/>
</linearGradient>
<linearGradient id="paint10_linear_1_247" x1="909.44" y1="782.706" x2="653.389" y2="873.293" gradientUnits="userSpaceOnUse">
<stop stop-color="#0E6585"/>
<stop offset="1" stop-color="#04171E"/>
</linearGradient>
<radialGradient id="paint11_radial_1_247" cx="0" cy="0" r="1" gradientUnits="userSpaceOnUse" gradientTransform="translate(647.024 932.449) rotate(-38.508) scale(233.379 3638.37)">
<stop offset="0.104167" stop-color="#3A78B1"/>
<stop offset="0.520341" stop-color="#4FC1C0"/>
<stop offset="1" stop-color="#8CF2FD"/>
</radialGradient>
<linearGradient id="paint12_linear_1_247" x1="967.63" y1="765.662" x2="869.389" y2="914.868" gradientUnits="userSpaceOnUse">
<stop stop-color="white" stop-opacity="0.64"/>
<stop offset="1" stop-color="white" stop-opacity="0"/>
</linearGradient>
<linearGradient id="paint13_linear_1_247" x1="863.767" y1="784.388" x2="831.777" y2="764.573" gradientUnits="userSpaceOnUse">
<stop stop-color="#8CF2FD"/>
<stop offset="1" stop-color="#8CF2FD" stop-opacity="0"/>
</linearGradient>
<linearGradient id="paint14_linear_1_247" x1="940.983" y1="650.608" x2="671.416" y2="769.009" gradientUnits="userSpaceOnUse">
<stop stop-color="white"/>
<stop offset="0.732381" stop-color="white" stop-opacity="0"/>
</linearGradient>
<linearGradient id="paint15_linear_1_247" x1="940.983" y1="650.608" x2="671.416" y2="769.009" gradientUnits="userSpaceOnUse">
<stop stop-color="white"/>
<stop offset="0.732381" stop-color="white" stop-opacity="0"/>
</linearGradient>
<linearGradient id="paint16_linear_1_247" x1="978.612" y1="636.843" x2="589.925" y2="910.409" gradientUnits="userSpaceOnUse">
<stop stop-color="#81D3E0"/>
<stop offset="1" stop-color="#00B1CC"/>
</linearGradient>
</defs>
</svg>
