<svg width="121" height="121" viewBox="0 0 121 121" fill="none" xmlns="http://www.w3.org/2000/svg">
<circle cx="60.0039" cy="60.874" r="60" fill="#0F214F"/>
<path d="M44.3592 60.8514L44.5415 61.2844L41.1004 65.2154L41.089 65.2268L28.7374 79.356L25.5697 82.9908L24.3733 82.2958H24.3619L23.6099 81.6349V78.0456L28.3386 72.6332L39.2659 60.8286L28.3386 48.8644L23.6099 43.3951V39.84L23.644 39.8172L25.7178 38.6094L28.8627 42.2556L41.1118 56.4417L44.5415 60.4184L44.4503 60.6463L44.3592 60.8514Z" fill="white"/>
<path d="M76.7769 62.709C76.002 64.6688 74.9424 66.6059 72.88 66.8794L59.9017 97.2456V97.3368L57.9988 101.712L60.0042 102.852L61.8501 101.781L63.4909 100.846L66.5902 93.6108L78.8051 65.0221L76.7769 62.709Z" fill="white"/>
<path d="M80.5595 60.9079L80.5937 60.8395L80.5595 60.7598L80.4797 60.8281L80.5595 60.9079Z" fill="#092232"/>
<path d="M77.9041 54.6071L77.3685 53.3765L66.4071 27.9896L63.2622 20.6971L62.0088 20.0135L60.6984 19.2159L59.9008 18.874L57.7928 20.0135L59.7299 24.4345L59.9008 24.8333L70.4521 49.2745L73.3121 55.906L74.292 58.1849C75.0441 56.4758 76.081 54.8691 77.9041 54.6071Z" fill="white"/>
<path d="M79.6592 58.6871L78.7818 56.6475L78.4514 57.0349V58.5048C78.5149 58.5207 78.5815 58.5207 78.6451 58.5048C78.0264 59.406 77.5606 60.4031 77.2663 61.4559C77.1068 61.8775 76.9473 62.3219 76.7764 62.7549L78.8046 65.0338L80.5821 60.909L80.5138 60.8292L80.5821 60.7609L79.682 58.6871H79.6592Z" fill="#092232"/>
<path d="M75.3519 60.624L78.4512 57.0348V55.8953L77.9043 54.6191C76.0812 54.8812 75.0443 56.4537 74.2922 58.1742L75.0443 59.8948L75.3519 60.624Z" fill="#092232"/>
<path d="M76.7768 62.7082L75.3525 61.0332L72.8799 66.833C74.9423 66.6051 76.0248 64.668 76.7768 62.7082Z" fill="#092232"/>
<path d="M75.3749 61.0352L75.4546 60.8529L75.3521 60.625L75.4546 60.8529L75.3749 61.0352L75.3065 61.0238L75.3521 61.0808L75.3749 61.0352Z" fill="url(#paint0_linear_204_1374)"/>
<path d="M75.3749 61.0352L75.4546 60.8529L75.3521 60.625L75.4546 60.8529L75.3749 61.0352L75.3065 61.0238L75.3521 61.0808L75.3749 61.0352Z" fill="url(#paint1_linear_204_1374)"/>
<path d="M75.3519 60.6234L75.4545 60.8513L75.3747 61.0336L76.799 62.663C76.9699 62.2301 77.1295 61.7857 77.289 61.3641C77.5833 60.3113 78.0491 59.3142 78.6677 58.4129C78.6041 58.4288 78.5376 58.4288 78.474 58.4129V57.0342L75.3747 60.6234H75.3519Z" fill="#092232"/>
<path d="M75.3519 60.6234L75.4545 60.8513L75.3747 61.0336L76.799 62.663C76.9699 62.2301 77.1295 61.7857 77.289 61.3641C77.5833 60.3113 78.0491 59.3142 78.6677 58.4129C78.6041 58.4288 78.5376 58.4288 78.474 58.4129V57.0342L75.3747 60.6234H75.3519Z" fill="url(#paint2_linear_204_1374)"/>
<path d="M91.6803 48.9458L96.3976 43.465V39.8416H96.3406L94.3238 38.7021L91.1789 42.3484L79.0552 56.3408L78.7817 56.6484L78.4513 55.885L77.9044 54.6088C76.0813 54.8709 75.0444 56.4433 74.2923 58.1639C74.0189 58.802 73.7796 59.4515 73.5631 60.0668C73.2581 61.0202 72.8572 61.9403 72.3667 62.8128C71.8957 61.938 71.514 61.018 71.2272 60.0668C70.3271 57.617 69.1876 54.5746 66.282 54.5746C63.3764 54.5746 62.2826 57.617 61.3938 60.0668C61.107 61.018 60.7253 61.938 60.2543 62.8128C59.7786 61.9403 59.3967 61.0198 59.1149 60.0668C58.2261 57.617 57.1209 54.5746 54.2267 54.5746C51.3325 54.5746 50.2158 57.617 49.3271 60.0668C49.0403 61.018 48.6586 61.938 48.1876 62.8128C47.697 61.9403 47.2962 61.0202 46.9912 60.0668C46.6948 59.1931 46.3486 58.3371 45.9543 57.503C45.1453 55.8964 44.0172 54.5746 42.103 54.5746V58.5057C42.0432 58.5217 41.9804 58.5217 41.9207 58.5057C42.5325 59.4109 42.9978 60.4068 43.2994 61.4569C43.4133 61.7987 43.5387 62.1406 43.6754 62.4938C44.3705 64.3055 45.2934 66.1856 47.014 66.7667C47.38 66.8955 47.7654 66.961 48.1534 66.9604C51.059 66.9604 52.1529 63.9067 53.0417 61.4569C53.3509 60.5051 53.7516 59.5854 54.2381 58.7108C54.7049 59.5876 55.0865 60.5072 55.3775 61.4569C56.2663 63.9067 57.3715 66.9604 60.2771 66.9604C63.1827 66.9604 64.2766 63.9067 65.1654 61.4569C65.4564 60.5072 65.838 59.5876 66.3048 58.7108C66.7717 59.5876 67.1533 60.5072 67.4443 61.4569C68.333 63.9067 69.4383 66.9604 72.3325 66.9604C72.5032 66.9721 72.6745 66.9721 72.8452 66.9604C74.9076 66.687 75.9673 64.7499 76.7421 62.79L78.7704 65.0689L91.3043 79.3804L94.4719 83.0038L95.3949 82.4797L96.3862 81.6137V77.9789L91.6689 72.5665L80.5821 60.91L80.5137 60.8302L80.5821 60.7618L91.6803 48.9458Z" fill="white"/>
<path d="M96.3521 39.7943L94.3239 38.6548L63.2626 20.6971L62.0092 20.0135L60.6988 19.2159L59.9012 18.874L57.7933 20.0135L56.4373 20.8111L25.6723 38.5637L23.6099 39.8057V81.6347L24.3619 82.2956L25.5013 82.9793L56.2436 100.698L57.9984 101.712L60.0038 102.851L61.8497 101.78L63.4905 100.846L94.4834 82.9565L95.4064 82.4324L96.3977 81.5664V39.8284L96.3521 39.7943ZM91.6804 79.128L91.3158 79.3331L66.6012 93.6103L60.0038 97.4161H59.9012L53.1785 93.5306L28.7374 79.3559L28.3386 79.128V42.5631L28.8627 42.2555L53.338 28.1263L59.7303 24.4345L60.0038 24.275L60.1177 24.3434L66.4075 27.9896L91.1904 42.2783L91.6804 42.5631V79.128Z" fill="white"/>
<path d="M59.9701 97.3933L61.8502 101.803L60.0042 102.874L57.9988 101.735L56.2441 100.72L53.1448 93.4736L41.0894 65.2267L41.0211 65.0558L40.6109 64.0873L39.2435 60.874L41.1122 56.4758L53.3385 28.1263L56.4834 20.8567L57.7937 20.0135L59.8561 18.874L60.6537 19.2159L62.0097 20.0135L60.0726 24.3434L59.8561 24.8333L44.542 60.4182L44.4508 60.6461L44.3596 60.8512L44.542 61.2842L45.0091 62.4237L45.2712 63.0162L48.6895 71.1176L59.8561 97.2565L59.9701 97.3933Z" fill="white"/>
<defs>
<linearGradient id="paint0_linear_204_1374" x1="75.3065" y1="60.8529" x2="96.3978" y2="60.8529" gradientUnits="userSpaceOnUse">
<stop offset="0.17" stop-color="#3AB2FF"/>
<stop offset="1" stop-color="#065AF3"/>
</linearGradient>
<linearGradient id="paint1_linear_204_1374" x1="77.6677" y1="77.4159" x2="82.4612" y2="77.4159" gradientUnits="userSpaceOnUse">
<stop offset="0.17" stop-color="#3AB2FF"/>
<stop offset="1" stop-color="#065AF3"/>
</linearGradient>
<linearGradient id="paint2_linear_204_1374" x1="225.789" y1="259.561" x2="287.165" y2="259.561" gradientUnits="userSpaceOnUse">
<stop offset="0.17" stop-color="#3AB2FF"/>
<stop offset="1" stop-color="#065AF3"/>
</linearGradient>
</defs>
</svg>
