<svg width="39" height="36" viewBox="0 0 39 36" fill="none" xmlns="http://www.w3.org/2000/svg">
<path d="M5.7128 25.8758H13.9539L17.6678 30.3667C21.6118 35.1345 26.2925 36.5955 31.4797 34.7038C37.8025 32.3968 40.396 26.7524 37.8945 19.8469L36.6668 16.4633C35.5465 13.372 33.4594 11.9263 30.9886 12.4492V5.34368C30.9886 2.16005 29.3465 0.529785 26.1237 0.529785H5.7128C2.50536 0.529785 0.863281 2.14467 0.863281 5.34368V21.0619C0.863281 24.2609 2.50536 25.8758 5.7128 25.8758ZM5.89695 23.2304C4.34695 23.2304 3.51824 22.3692 3.51824 20.8004V5.60514C3.51824 4.03639 4.34695 3.1905 5.89695 3.1905H25.9396C27.4742 3.1905 28.3336 4.03639 28.3336 5.60514V11.634C27.9653 11.634 27.5816 11.6956 27.1826 11.834C26.7836 11.9878 26.4153 12.2031 26.0777 12.4646C25.249 11.4495 24.0366 11.0957 22.7628 11.5571C22.4866 11.6494 22.2104 11.8032 21.9495 11.9878L20.3841 7.65066C19.6782 5.7128 17.9287 4.88228 16.1024 5.54362C14.2608 6.22033 13.4321 7.98901 14.1381 9.92688L18.2509 21.2772C18.2816 21.3541 18.2663 21.4156 18.1896 21.4464C18.1435 21.4618 18.0975 21.4464 18.0514 21.4002L16.5321 19.7546C15.642 18.878 14.5678 18.6319 13.5395 19.001C12.0049 19.5547 11.0841 21.0158 11.698 22.6922C11.7593 22.8613 11.8361 23.0459 11.9282 23.2304H5.89695ZM30.697 32.2892C26.6762 33.7503 22.993 32.9505 19.5247 28.8133L14.3683 22.7075C14.2301 22.5384 14.1227 22.3999 14.046 22.1692C13.8925 21.7232 14.0767 21.2311 14.5985 21.0465C15.0128 20.8927 15.3658 21.0465 15.7034 21.4002L19.3098 25.0299C19.9084 25.6451 20.4608 25.7066 21.0133 25.5067C21.6579 25.276 21.9802 24.5839 21.7039 23.8303L16.3173 8.97332C16.1178 8.41965 16.348 7.91212 16.8697 7.71218C17.4069 7.52762 17.898 7.7737 18.0975 8.31199L21.9034 18.7857C22.1029 19.3393 22.7475 19.6162 23.3 19.4009C23.8524 19.2009 24.1594 18.6011 23.9445 18.0321L22.594 14.3255C22.7935 14.141 23.0544 13.9718 23.3153 13.8795C23.9445 13.6488 24.497 13.9256 24.7272 14.587L25.9549 17.9398C26.1698 18.5242 26.799 18.7703 27.3361 18.5704C27.8732 18.3704 28.1955 17.786 27.9807 17.2015L27.0445 14.6024C27.2287 14.4178 27.4896 14.2486 27.7505 14.1563C28.3797 13.9256 28.9321 14.2025 29.1623 14.8638L29.9757 17.0939C30.1906 17.6937 30.8351 17.9244 31.3876 17.7245C31.9247 17.5399 32.247 16.9401 32.0322 16.3557L31.495 14.8946C32.6614 14.4793 33.7203 15.3867 34.4569 17.4169L35.5619 20.4159C37.6183 26.1065 35.746 30.4436 30.697 32.2892Z" fill="#8CF2FD"/>
</svg>
