<svg width="48" height="27" viewBox="0 0 48 27" fill="none" xmlns="http://www.w3.org/2000/svg">
<path d="M0.324219 25.3342C0.324219 26.2004 1.00306 26.882 1.85161 26.882C2.70016 26.882 3.37901 26.2004 3.37901 25.3342C3.37901 13.0789 12.5717 3.06736 23.815 3.06736C35.0583 3.06736 44.2368 13.0789 44.2368 25.3342C44.2368 26.2004 44.9298 26.882 45.7642 26.882C46.6127 26.882 47.2916 26.2004 47.2916 25.3342C47.2916 11.389 36.7554 0 23.815 0C10.8604 0 0.324219 11.389 0.324219 25.3342ZM23.8432 16.0611C26.3748 16.0611 28.5386 13.7889 28.5386 10.8494C28.5386 7.96663 26.3606 5.76551 23.8432 5.76551C21.2976 5.76551 19.1055 7.99503 19.1196 10.8636C19.1196 13.7889 21.2835 16.0611 23.8432 16.0611ZM7.55105 25.3342C7.55105 26.172 8.22989 26.8536 9.07845 26.8536C9.91286 26.8536 10.6058 26.172 10.6058 25.3342C10.6058 20.0515 13.2788 15.3084 17.3801 12.7807C17.2104 12.1843 17.1114 11.5452 17.1114 10.8778C17.1114 10.324 17.1821 9.79852 17.3094 9.3015C11.4968 12.0564 7.55105 18.2622 7.55105 25.3342ZM37.0241 25.3342C37.0241 26.172 37.7029 26.8536 38.5373 26.8536C39.3859 26.8536 40.0647 26.172 40.0647 25.3342C40.0647 18.2764 36.1331 12.099 30.363 9.3299C30.4761 9.81273 30.5468 10.324 30.5468 10.8494C30.5468 11.531 30.4478 12.1985 30.264 12.8233C34.3512 15.3368 37.0241 20.0515 37.0241 25.3342ZM16.0507 26.9814H31.5934C32.9086 26.9814 33.7006 26.3566 33.7006 25.32C33.7006 22.2952 29.8821 18.1344 23.8291 18.1344C17.762 18.1344 13.9435 22.2952 13.9435 25.32C13.9435 26.3566 14.7355 26.9814 16.0507 26.9814Z" fill="#8CF2FD"/>
</svg>
