<svg width="43" height="43" viewBox="0 0 54 54" fill="none" xmlns="http://www.w3.org/2000/svg">
<path d="M53.4369 26.7185C53.4369 41.4746 41.4746 53.4369 26.7185 53.4369C11.9623 53.4369 0 41.4746 0 26.7185C0 11.9623 11.9623 0 26.7185 0C41.4746 0 53.4369 11.9623 53.4369 26.7185Z" fill="white"/>
<path d="M37.1147 37.1681L20.4471 29.941C18.5406 34.7591 20.7262 40.2825 25.3293 42.2783C29.9312 44.2748 35.2081 41.9868 37.1147 37.1681Z" fill="black"/>
<path d="M21.007 21.6957L20.8248 21.6193C16.8074 19.9951 12.265 22.0169 10.6081 26.205C8.92555 30.4559 10.8544 35.3303 14.9151 37.0909L21.007 21.6957Z" fill="black"/>
<path d="M42.1895 24.5153C44.4322 18.8468 41.8611 12.3478 36.4456 10L28.3229 30.5282L28.5122 30.6081C33.8823 32.8137 39.9727 30.1185 42.1895 24.5153Z" fill="black"/>
<path d="M28.9523 22.1002C30.2858 18.4597 28.612 14.3484 25.1502 12.8472C21.6307 11.3209 17.5956 13.0706 16.1377 16.7549L28.8831 22.2818L28.9523 22.1002Z" fill="black"/>
</svg>
