<svg width="121" height="120" viewBox="0 0 121 120" fill="none" xmlns="http://www.w3.org/2000/svg">
<circle cx="60.0898" cy="60" r="60" fill="url(#paint0_linear_420_2992)"/>
<path d="M21.7589 63.0835C17.8315 72.8517 22.5279 83.9699 32.2486 87.9165L46.4712 52.5424C36.7504 48.5958 25.6863 53.3152 21.7589 63.0835Z" fill="white"/>
<path d="M45.4047 69.7445C40.9162 80.9083 46.2835 93.6147 57.393 98.1252C68.5024 102.636 81.1471 97.242 85.6356 86.0783L45.4047 69.7445Z" fill="white"/>
<path d="M82.841 20.2818C96.7278 25.9199 103.437 41.8029 97.8263 55.7576C92.2157 69.7123 76.4099 76.4543 62.523 70.8162L82.841 20.2818Z" fill="white"/>
<path d="M33.4164 41.3638C36.7828 32.991 46.2663 28.9458 54.5984 32.3287C62.9304 35.7115 66.9559 45.2414 63.5896 53.6142L33.4164 41.3638Z" fill="white"/>
<defs>
<linearGradient id="paint0_linear_420_2992" x1="120.09" y1="60" x2="0.0898453" y2="60" gradientUnits="userSpaceOnUse">
<stop stop-color="#482BFF"/>
<stop offset="1" stop-color="#007AFF"/>
</linearGradient>
</defs>
</svg>
