<svg width="40" height="40" viewBox="0 0 40 40" fill="none" xmlns="http://www.w3.org/2000/svg">
<path d="M31.5513 8.87702C29.4268 7.85387 27.1485 7.10006 24.7664 6.66832C24.7231 6.65998 24.6797 6.68081 24.6574 6.72245C24.3644 7.26942 24.0398 7.98297 23.8125 8.54382C21.2505 8.14124 18.7016 8.14124 16.192 8.54382C15.9647 7.97051 15.6284 7.26942 15.3341 6.72245C15.3117 6.6822 15.2684 6.66137 15.225 6.66832C12.8442 7.09868 10.566 7.85249 8.44011 8.87702C8.4217 8.88535 8.40593 8.89925 8.39546 8.91728C4.07407 15.6933 2.89027 22.3028 3.471 28.8304C3.47363 28.8623 3.49071 28.8929 3.51436 28.9123C6.36549 31.1099 9.12729 32.444 11.8378 33.3283C11.8812 33.3422 11.9271 33.3256 11.9548 33.2881C12.5959 32.3691 13.1675 31.4001 13.6575 30.381C13.6864 30.3214 13.6588 30.2506 13.5997 30.227C12.6932 29.866 11.8299 29.4259 10.9995 28.9262C10.9339 28.8859 10.9286 28.7873 10.989 28.7401C11.1638 28.6027 11.3386 28.4597 11.5054 28.3153C11.5356 28.289 11.5777 28.2834 11.6132 28.3001C17.0684 30.9142 22.9743 30.9142 28.3651 28.3001C28.4006 28.282 28.4427 28.2876 28.4742 28.3139C28.6411 28.4583 28.8158 28.6027 28.9919 28.7401C29.0523 28.7873 29.0484 28.8859 28.9827 28.9262C28.1523 29.4357 27.2891 29.866 26.3812 30.2256C26.3221 30.2492 26.2958 30.3214 26.3247 30.381C26.8253 31.3986 27.3968 32.3676 28.0262 33.2867C28.0525 33.3256 28.0997 33.3422 28.1431 33.3283C30.8668 32.444 33.6286 31.1099 36.4797 28.9123C36.5047 28.8929 36.5204 28.8637 36.5231 28.8318C37.2181 21.2852 35.3589 14.7299 31.5947 8.91866C31.5855 8.89925 31.5697 8.88535 31.5513 8.87702ZM14.4722 24.8558C12.8298 24.8558 11.4765 23.2732 11.4765 21.3297C11.4765 19.3861 12.8035 17.8035 14.4722 17.8035C16.1539 17.8035 17.4941 19.4 17.4678 21.3297C17.4678 23.2732 16.1408 24.8558 14.4722 24.8558ZM25.5482 24.8558C23.9058 24.8558 22.5525 23.2732 22.5525 21.3297C22.5525 19.3861 23.8795 17.8035 25.5482 17.8035C27.23 17.8035 28.5701 19.4 28.5439 21.3297C28.5439 23.2732 27.23 24.8558 25.5482 24.8558Z" fill="white"/>
</svg>
