<svg width="43" height="43" viewBox="0 0 54 54" fill="none" xmlns="http://www.w3.org/2000/svg">
<path d="M53.4369 26.7185C53.4369 41.4746 41.4746 53.4369 26.7185 53.4369C11.9623 53.4369 0 41.4746 0 26.7185C0 11.9623 11.9623 0 26.7185 0C41.4746 0 53.4369 11.9623 53.4369 26.7185Z" fill="white"/>
<g clip-path="url(#clip0)">
<path d="M39.4755 15.4928C37.181 14.4357 34.7205 13.6569 32.1478 13.2109C32.101 13.2022 32.0542 13.2238 32.0301 13.2668C31.7136 13.8319 31.3631 14.5691 31.1176 15.1485C28.3506 14.7326 25.5978 14.7326 22.8875 15.1485C22.642 14.5562 22.2787 13.8319 21.9609 13.2668C21.9367 13.2252 21.8899 13.2037 21.8431 13.2109C19.2719 13.6555 16.8113 14.4343 14.5154 15.4928C14.4955 15.5014 14.4785 15.5158 14.4672 15.5344C9.80009 22.5351 8.52157 29.3637 9.14877 36.1077C9.15161 36.1407 9.17005 36.1723 9.1956 36.1923C12.2748 38.4628 15.2576 39.8411 18.1849 40.7548C18.2318 40.7691 18.2814 40.7519 18.3112 40.7132C19.0037 39.7637 19.621 38.7626 20.1502 37.7098C20.1814 37.6481 20.1516 37.575 20.0878 37.5506C19.1087 37.1777 18.1764 36.723 17.2796 36.2067C17.2087 36.1651 17.203 36.0632 17.2682 36.0145C17.457 35.8725 17.6457 35.7247 17.8259 35.5756C17.8585 35.5483 17.904 35.5426 17.9423 35.5598C23.8339 38.2606 30.2123 38.2606 36.0344 35.5598C36.0728 35.5412 36.1182 35.5469 36.1522 35.5741C36.3325 35.7233 36.5212 35.8725 36.7113 36.0145C36.7766 36.0632 36.7723 36.1651 36.7014 36.2067C35.8046 36.733 34.8723 37.1777 33.8918 37.5492C33.8279 37.5735 33.7995 37.6481 33.8308 37.7098C34.3714 38.7611 34.9887 39.7622 35.6683 40.7117C35.6967 40.7519 35.7478 40.7691 35.7946 40.7548C38.7362 39.8411 41.7189 38.4628 44.7981 36.1923C44.8251 36.1723 44.8422 36.1421 44.845 36.1091C45.5956 28.3124 43.5877 21.5397 39.5223 15.5358C39.5124 15.5158 39.4954 15.5014 39.4755 15.4928ZM21.03 32.0013C19.2562 32.0013 17.7947 30.3663 17.7947 28.3583C17.7947 26.3503 19.2279 24.7152 21.03 24.7152C22.8463 24.7152 24.2937 26.3646 24.2653 28.3583C24.2653 30.3663 22.8321 32.0013 21.03 32.0013ZM32.9921 32.0013C31.2184 32.0013 29.7568 30.3663 29.7568 28.3583C29.7568 26.3503 31.19 24.7152 32.9921 24.7152C34.8084 24.7152 36.2558 26.3646 36.2275 28.3583C36.2275 30.3663 34.8084 32.0013 32.9921 32.0013Z" fill="black"/>
</g>
<defs>
<clipPath id="clip0">
<rect width="36" height="28" fill="white" transform="translate(9 13)"/>
</clipPath>
</defs>
</svg>
