<svg width="61" height="60" viewBox="0 0 61 60" fill="none" xmlns="http://www.w3.org/2000/svg">
<path d="M52.3301 1.875C55.9827 1.875 58.9243 4.89241 59.0977 8.44722C59.0977 8.44722 59.0977 48.4274 59.0977 51.5528C59.0977 54.6782 56.4687 58.125 52.3106 58.125C48.1526 58.125 9.44181 58.125 9.44181 58.125C5.79895 58.125 2.84766 55.3046 2.84766 51.5528V8.45916C2.84766 4.90435 5.8009 1.88694 9.4535 1.88694H52.3106L52.3301 1.875ZM36.4399 16.9581H36.358L35.8301 17.4875C41.2184 19.0838 43.8249 21.5718 43.8249 21.5718C40.3554 19.7983 37.2191 18.9066 34.0944 18.5444C31.8425 18.1921 29.5788 18.3792 27.6717 18.5444H27.1438C25.9262 18.5444 23.3295 19.0838 19.8483 20.5029C18.6405 21.0423 17.9412 21.3946 17.9412 21.3946C17.9412 21.3946 20.5379 18.7295 26.2808 17.3104L25.9262 16.9581C25.9262 16.9581 21.584 16.7809 16.897 20.3278C16.897 20.3278 12.21 28.6734 12.21 38.9557C12.21 38.9557 14.8067 43.5694 21.9308 43.7445C21.9308 43.7445 22.9749 42.3354 24.021 41.0914C20.0236 39.8474 18.4613 37.3594 18.4613 37.3594C18.4613 37.3594 18.8158 37.5366 19.334 37.8889H19.486C19.5678 37.8889 19.6087 37.9306 19.6477 37.9724V37.9924C19.6886 38.0341 19.7295 38.064 19.7996 38.064C20.6626 38.4263 21.5139 38.7785 22.2152 39.1308C23.4327 39.6603 24.9853 40.1977 26.8925 40.552C29.308 40.9142 32.0762 41.0814 35.2321 40.552C36.7847 40.1897 38.347 39.8474 39.9093 39.1308C40.9145 38.6014 42.1613 38.074 43.5308 37.1723C43.5308 37.1723 41.9782 39.6603 37.8074 40.9043C38.6606 42.1383 39.8665 43.5574 39.8665 43.5574C46.9983 43.3922 49.7684 38.7785 49.9204 38.9756C49.9204 28.7033 45.2022 20.3477 45.2022 20.3477C40.9613 17.1233 36.9834 16.9999 36.284 16.9999L36.4262 16.9481L36.4399 16.9581ZM36.8762 28.6734C38.7035 28.6734 40.1743 30.2597 40.1743 32.2083C40.1743 34.1788 38.6938 35.7631 36.8762 35.7631C35.049 35.7631 33.5782 34.1768 33.5782 32.2282C33.5782 30.2578 35.0587 28.6734 36.8762 28.6734ZM25.0769 28.6734C26.8925 28.6734 28.3652 30.2597 28.3652 32.2083C28.3652 34.1788 26.8847 35.7631 25.0671 35.7631C23.2399 35.7631 21.7593 34.1768 21.7593 32.2282C21.7593 30.2578 23.2399 28.6734 25.0671 28.6734H25.0769Z" fill="white"/>
</svg>
