<svg width="16" height="17" viewBox="0 0 16 17" fill="none" xmlns="http://www.w3.org/2000/svg">
<path d="M13.1368 5.03944C13.3971 4.77909 13.3971 4.35698 13.1368 4.09663C12.8849 3.84479 12.4817 3.83656 12.22 4.07195L8.4701 6.82183C8.05878 7.10137 7.93878 7.10137 7.52729 6.82183L3.7774 4.07193C3.51566 3.83656 3.11247 3.84479 2.86063 4.09663C2.60028 4.35698 2.60028 4.77909 2.86063 5.03944L7.52729 8.70611C7.78764 8.93137 8.20975 8.93137 8.4701 8.70611L13.1368 5.03944Z" fill="white"/>
<path d="M13.1368 9.26307C13.3971 9.00272 13.3971 8.58061 13.1368 8.32026C12.8849 8.06842 12.4817 8.06019 12.22 8.29558L8.4701 11.0455C8.05878 11.325 7.93878 11.325 7.52729 11.0455L3.7774 8.29557C3.51566 8.06019 3.11247 8.06842 2.86063 8.32026C2.60028 8.58061 2.60028 9.00272 2.86063 9.26307L7.52729 12.9297C7.78764 13.155 8.20975 13.155 8.4701 12.9297L13.1368 9.26307Z" fill="white"/>
</svg>
