<svg width="40" height="39" viewBox="0 0 40 39" fill="none" xmlns="http://www.w3.org/2000/svg">
<g id="Group">
<g id="Group_2">
<path id="Vector" d="M36.9645 14.2451L34.8525 12.1331C33.4136 13.3027 30.9313 14.2872 29.3662 14.8005C29.2989 14.8257 29.2315 14.851 29.1558 14.8762C28.7435 15.2801 28.3396 15.7092 27.9609 16.1636L31.0407 19.2434L36.8046 25.0073L36.9645 24.8475C39.9012 21.9276 39.9012 17.1734 36.9645 14.2451Z" fill="white"/>
<path id="Vector_2" d="M36.9645 14.2451L34.8525 12.1331C33.4136 13.3027 30.9313 14.2872 29.3662 14.8005C29.2989 14.8257 29.2315 14.851 29.1558 14.8762C28.7435 15.2801 28.3396 15.7092 27.9609 16.1636L31.0407 19.2434L36.8046 25.0073L36.9645 24.8475C39.9012 21.9276 39.9012 17.1734 36.9645 14.2451Z" fill="white"/>
<path id="Vector_3" d="M8.95538 19.2518L14.955 13.2522C15.1148 12.8231 15.2831 12.3939 15.4683 11.9648C17.2774 7.90898 21.3332 6.53741 25.1618 6.47009C25.6667 5.57815 26.6175 4.98071 27.6862 4.9723L25.3049 2.59098C22.3766 -0.337292 17.6224 -0.337292 14.6941 2.59098L14.5342 2.75085L3.19141 14.0937L8.95538 19.8577C8.78709 19.6894 8.78709 19.4201 8.95538 19.2518Z" fill="white"/>
<path id="Vector_4" d="M8.95538 19.2518L14.955 13.2522C15.1148 12.8231 15.2831 12.3939 15.4683 11.9648C17.2774 7.90898 21.3332 6.53741 25.1618 6.47009C25.6667 5.57815 26.6175 4.98071 27.6862 4.9723L25.3049 2.59098C22.3766 -0.337292 17.6224 -0.337292 14.6941 2.59098L14.5342 2.75085L3.19141 14.0937L8.95538 19.8577C8.78709 19.6894 8.78709 19.4201 8.95538 19.2518Z" fill="white"/>
<path id="Vector_5" d="M31.0507 19.2519C31.219 19.4202 31.219 19.6894 31.0507 19.8577L25.7411 25.1673L24.4368 26.4716L20.9027 30.0057L20.3053 30.6031C20.137 30.7714 19.8677 30.7714 19.6994 30.6031L14.3309 25.2346L10.7968 21.7005L8.95404 19.8577L3.19006 14.0938L3.03019 14.2536C0.101917 17.1819 0.101917 21.9361 3.03019 24.8644L4.35969 26.1855L14.3814 36.2072L14.6928 36.5186C17.621 39.4468 22.3753 39.4468 25.3035 36.5186L25.4634 36.3587L36.8147 25.0074L31.0507 19.2519Z" fill="white"/>
</g>
<g id="Group_3">
<path id="Vector_6" d="M29.6908 6.96717C29.4804 6.5042 29.11 6.11699 28.6218 5.89813C28.6049 5.88971 28.5965 5.8813 28.5797 5.87288C28.5124 5.84762 28.445 5.82237 28.3861 5.79712C28.4198 6.03281 28.3945 6.27692 28.3019 6.5042C28.2767 6.56312 28.243 6.61363 28.2093 6.67255C27.881 7.21128 27.1992 7.43855 26.61 7.18602C26.3322 7.06818 26.1133 6.85774 25.9787 6.60521C25.8945 6.73147 25.8103 6.86616 25.7514 7.00925C25.28 8.10354 25.7935 9.3746 26.8878 9.84599C27.982 10.3174 29.2531 9.8039 29.7245 8.70961C29.9602 8.1288 29.9349 7.49748 29.6908 6.96717Z" fill="white"/>
<path id="Vector_7" d="M14.9795 13.1851C14.9711 13.2019 14.9627 13.2271 14.9543 13.244C13.8435 19.1257 13.2882 19.9504 10.7891 21.6922L11.681 22.5841C12.2616 22.0119 13.0947 21.019 13.8856 19.496C14.8533 17.6195 14.9879 14.7922 14.9795 13.1851Z" fill="white"/>
<path id="Vector_8" d="M27.6366 15.76C27.6198 15.7768 27.6029 15.7852 27.5861 15.802C27.0308 16.248 26.5091 16.8202 26.0463 17.5018C24.6747 19.5549 23.8837 22.6178 24.4307 26.4717L26.5259 24.4186C26.4333 24.1156 26.3492 23.7959 26.2734 23.4677C25.5498 20.4132 26.0883 18.4021 27.9648 16.1723C28.2004 15.8946 28.7389 15.3392 29.2185 14.8596C29.2017 14.868 29.1849 14.8764 29.1681 14.8764C28.6464 15.0784 28.1247 15.3729 27.6366 15.76Z" fill="white"/>
<path id="Vector_9" d="M26.0523 17.5017C24.6807 19.5549 23.8897 22.6178 24.4282 26.4716C23.8897 22.6093 24.6807 19.5549 26.0523 17.5017Z" fill="#1A1D1F"/>
<path id="Vector_10" d="M26.0523 17.5017C24.6807 19.5549 23.8897 22.6178 24.4282 26.4716C23.8897 22.6093 24.6807 19.5549 26.0523 17.5017Z" fill="white"/>
<path id="Vector_11" d="M36.3202 9.23018C35.0917 7.49678 31.3641 6.6974 31.3641 6.6974C31.3641 6.6974 30.8592 5.29216 29.5465 4.85461C28.3601 4.45912 26.5762 5.16595 26.5762 5.16595L26.6014 5.19119C26.938 5.04814 27.3082 4.97241 27.6953 4.964C27.7879 4.964 27.8804 4.964 27.973 4.97241C29.2604 5.07339 30.2786 5.99057 30.5815 7.17703C36.8335 8.72531 36.7662 10.5933 34.8645 12.1416C34.7888 12.2005 34.7131 12.2594 34.6289 12.3183L34.6626 12.352C34.6626 12.3436 37.4899 10.8963 36.3202 9.23018Z" fill="white"/>
</g>
</g>
</svg>
