<svg width="61" height="60" viewBox="0 0 61 60" fill="none" xmlns="http://www.w3.org/2000/svg">
<path d="M30.9744 1.8768C15.4361 1.8768 2.84766 14.7932 2.84766 30.7121C2.84766 43.4591 10.906 54.2633 22.0741 58.075C23.4857 58.3471 23.9955 57.4551 23.9955 56.6837C23.9955 55.9989 23.9796 54.1876 23.9691 51.7835C16.1411 53.5208 14.4921 47.907 14.4921 47.907C13.2106 44.5837 11.3613 43.6916 11.3613 43.6916C8.8158 41.9092 11.5634 41.9471 11.5634 41.9471C14.3831 42.1435 15.8668 44.9117 15.8668 44.9117C18.3754 49.3235 22.4485 48.0475 24.0605 47.305C24.3066 45.4469 25.0397 44.1692 25.8378 43.4573C19.5936 42.7346 13.0278 40.2566 13.0278 29.2073C13.0278 26.0516 14.1177 23.4817 15.9196 21.4632C15.6084 20.7405 14.6556 17.8029 16.1674 13.8308C16.1674 13.8308 18.5213 13.0613 23.9023 16.7883C26.1542 16.1485 28.545 15.8295 30.934 15.8133C33.3248 15.8295 35.7138 16.1503 37.9657 16.7883C43.315 13.0613 45.6671 13.8308 45.6671 13.8308C47.1772 17.8029 46.2244 20.7387 45.9502 21.4632C47.7344 23.4817 48.8244 26.0534 48.8244 29.2073C48.8244 40.2818 42.2497 42.7238 35.9986 43.4285C36.976 44.2917 37.8918 46.0669 37.8918 48.7612C37.8918 52.6179 37.8567 55.7249 37.8567 56.6639C37.8567 57.4136 38.3489 58.3147 39.7974 58.0246C51.0481 54.2525 59.0977 43.4393 59.0977 30.7103C59.0977 14.7914 46.5092 1.875 30.9709 1.875L30.9744 1.8768Z" fill="white"/>
</svg>
