<svg width="45" height="45" viewBox="0 0 45 45" fill="none" xmlns="http://www.w3.org/2000/svg">
<path fill-rule="evenodd" clip-rule="evenodd" d="M22.6876 0C10.5628 0 0.742188 10.2053 0.742188 22.805C0.742188 32.8963 7.02406 41.4196 15.7474 44.4413C16.8446 44.6408 17.2561 43.9567 17.2561 43.3581C17.2561 42.8164 17.2287 41.0205 17.2287 39.1106C11.7149 40.1654 10.2884 37.7138 9.84953 36.431C9.60264 35.7754 8.53281 33.7514 7.60013 33.2098C6.83204 32.7822 5.73477 31.7275 7.57269 31.699C9.30089 31.6705 10.5353 33.3524 10.9468 34.0365C12.9219 37.4858 16.0765 36.5166 17.3384 35.9179C17.5304 34.4356 18.1065 33.4379 18.7374 32.8677C13.8546 32.2976 8.75226 30.3307 8.75226 21.6078C8.75226 19.1277 9.60264 17.0753 11.0017 15.4789C10.7822 14.9088 10.0141 12.5713 11.2211 9.43558C11.2211 9.43558 13.059 8.83695 17.2561 11.7731C19.0117 11.26 20.8771 11.0034 22.7425 11.0034C24.6078 11.0034 26.4732 11.26 28.2288 11.7731C32.4259 8.80844 34.2638 9.43558 34.2638 9.43558C35.4708 12.5713 34.7027 14.9088 34.4832 15.4789C35.8823 17.0753 36.7326 19.0992 36.7326 21.6078C36.7326 30.3592 31.6029 32.2976 26.7201 32.8677C27.5156 33.5804 28.2014 34.9487 28.2014 37.0867C28.2014 40.1369 28.1739 42.5884 28.1739 43.3581C28.1739 43.9567 28.5854 44.6693 29.6827 44.4413C38.3511 41.4196 44.633 32.8677 44.633 22.805C44.633 10.2053 34.8124 0 22.6876 0Z" fill="#74E8E8"/>
</svg>
