<svg width="121" height="121" viewBox="0 0 121 121" fill="none" xmlns="http://www.w3.org/2000/svg">
<circle cx="60.0039" cy="60.874" r="60" fill="white"/>
<path d="M60.4539 106.972C36.3956 110.172 16.929 92.1336 16.9772 66.668M60.4539 106.972C72.2457 113.601 81.8489 98.3356 81.9026 72.8768M60.4539 106.972C45.6341 113.081 33.6593 97.3936 33.7061 71.9348M60.4539 106.972C58.4981 114.31 56.951 99.6206 56.9978 74.1645M60.4539 106.972C72.2512 113.601 81.8544 98.3356 81.9026 72.8768M60.4539 106.972C84.5081 103.773 104.052 80.5395 104.104 55.0807M60.4539 106.972C82.7849 111.081 100.92 93.7671 100.973 68.311M60.4539 106.972C87.1825 107.554 108.89 87.3882 108.938 61.9294M60.4539 106.972C84.5137 103.773 104.057 80.5395 104.104 55.0807M60.4539 106.972C48.6512 100.344 39.1264 74.3307 39.1801 48.8719M60.4539 106.972C75.2752 100.864 87.3284 75.2727 87.3752 49.8139M60.4539 106.972C62.4057 99.633 64.0326 73.0429 64.078 47.5868C64.1262 22.1307 62.5792 7.43975 60.6219 14.7798M60.4539 106.972C48.6567 100.344 39.1319 74.3307 39.1801 48.8719M60.4539 106.972C36.3901 110.172 16.9235 92.1268 16.9772 66.668M60.4539 106.972C38.1189 102.863 20.0562 78.8964 20.103 53.4403C20.1512 27.976 38.2937 10.6674 60.6219 14.7798M60.4539 106.972C33.7199 106.394 12.0909 85.2781 12.1418 59.8193C12.1859 34.3605 33.8892 14.1945 60.6219 14.7798M16.9772 66.668C28.7744 73.2975 57.8429 76.0772 81.9026 72.8768M16.9772 66.668C5.18267 60.0345 15.1204 52.071 39.1801 48.8719M81.9026 72.8768C105.962 69.6778 115.9 61.7143 104.104 55.0807M38.474 103.602C44.4283 106.949 59.0995 108.352 71.2423 106.733M78.9378 94.505C58.1636 97.267 33.0633 94.8671 22.8778 89.1429C12.6924 83.42 21.273 76.54 42.0472 73.7766C62.8214 71.0132 87.9217 73.42 98.1071 79.1375C108.294 84.8617 99.7107 91.7416 78.9364 94.505M104.104 55.0807C92.3069 48.4512 63.2398 45.6715 39.1801 48.8719M71.2423 106.736C83.385 105.122 88.402 101.1 82.4477 97.7516M82.4476 97.7544C76.4932 94.4152 61.8303 93.0049 49.6793 94.6207C37.5366 96.2352 32.5196 100.256 38.474 103.605M16.9717 66.668C17.0199 41.2092 36.5636 17.9761 60.6219 14.7798M16.9717 66.668C28.7689 73.2975 57.8388 76.0772 81.8971 72.8796C81.9439 47.4208 72.4191 21.4079 60.6219 14.7798M16.9717 66.668C17.0199 41.2092 36.5635 17.9762 60.6219 14.7772M16.9717 66.668C5.17445 60.0399 15.1149 52.071 39.1746 48.872M16.9717 66.668C16.9414 82.8047 24.7512 95.963 36.6076 102.617C37.7184 103.223 39.22 103.989 40.3652 104.523C41.2172 104.92 42.3761 105.395 43.2557 105.723C44.4504 106.169 46.0677 106.697 47.2941 107.051C48.208 107.316 49.8831 107.722 50.7351 107.885C51.148 107.964 51.6986 108.078 52.1115 108.145C53.7288 108.406 53.8609 108.428 54.6799 108.522C55.6117 108.63 56.0494 108.675 56.9689 108.743C57.8608 108.809 58.4678 108.83 59.1106 108.853C59.1491 108.854 60.0809 108.886 61.2137 108.869C62.1304 108.856 62.4718 108.838 63.3843 108.79C64.0836 108.755 64.2405 108.74 65.7463 108.596C66.1262 108.559 66.6299 108.495 67.0084 108.445C67.815 108.337 68.8886 108.164 69.6745 108.021C70.7082 107.814 72.0805 107.503 73.1018 107.239C74.174 106.962 75.5807 106.506 76.6337 106.163C77.1691 105.989 77.867 105.713 78.3941 105.514C79.3232 105.158 80.5262 104.623 81.4222 104.206C82.1793 103.853 83.162 103.333 83.8998 102.946C85.0863 102.322 86.6058 101.38 87.7166 100.632C89.36 99.5268 91.4246 97.8756 92.9387 96.5946C94.0531 95.62 95.1144 94.5876 96.1182 93.5017C96.9647 92.591 98.0837 91.3618 98.8201 90.3626C100.114 88.6066 101.775 86.2093 102.876 84.3335C103.507 83.2635 104.24 81.7742 104.762 80.6471C105.231 79.6329 105.794 78.2512 106.177 77.203C106.602 76.0337 107.101 74.4532 107.428 73.2553C107.73 72.154 108.027 70.6593 108.269 69.5431C108.594 68.0064 108.802 66.448 108.893 64.8807C108.949 63.7045 109.059 62.1377 109.059 60.9615C109.058 59.6805 108.971 57.9612 108.879 56.6966C108.787 55.432 108.604 53.744 108.328 52.5038C108.076 51.3876 107.798 49.8874 107.503 48.7834C107.185 47.5664 106.729 45.9465 106.264 44.7744C105.443 42.7039 104.289 39.9541 103.207 38.0048C102.593 36.898 101.712 35.4551 101.013 34.3987C100.41 33.4894 99.5358 32.3227 98.8724 31.4556C98.0686 30.4061 96.8917 29.087 95.9902 28.1177C95.2662 27.3391 94.2449 26.3508 93.4603 25.632C92.4514 24.7159 91.0489 23.571 89.9739 22.7379C89.1893 22.1294 88.0648 21.3943 87.2624 20.8321C86.4599 20.2699 85.3299 19.6083 84.471 19.1359C83.363 18.5247 81.8517 17.7747 80.7134 17.2301C79.9853 16.8803 78.9874 16.4801 78.2358 16.1888C77.5077 15.9043 76.5195 15.5667 75.7803 15.3094C75.1898 15.1106 74.3874 14.8724 73.7845 14.7022C73.2532 14.5511 72.5347 14.3714 71.9952 14.2353C70.978 13.978 70.1315 13.8269 68.9588 13.601C68.8597 13.5819 67.3966 13.3355 66.3918 13.2239C66.0326 13.1844 65.5632 13.1259 65.2067 13.0959C64.1152 13.0033 63.6252 12.9611 63.0141 12.9353C62.3823 12.9094 61.5413 12.8863 60.9095 12.874C60.5916 12.874 60.1787 12.874 59.869 12.8808C57.9585 12.9108 56.6468 13.0306 56.5546 13.0401C55.8113 13.1082 54.8189 13.2143 54.077 13.3056C53.6435 13.3586 53.0695 13.4526 52.6387 13.5206C51.6174 13.6826 50.2644 13.9631 49.2582 14.2013C48.186 14.4572 46.7614 14.8465 45.7084 15.1814C44.6156 15.5272 43.191 16.0581 42.1298 16.4665C41.2489 16.8068 40.1051 17.3363 39.2544 17.7447C38.4919 18.1109 37.483 18.62 36.7535 19.0461C35.6028 19.7186 34.0791 20.6443 32.978 21.3821C32.1521 21.932 31.0937 22.7257 30.3146 23.3382C29.3167 24.1264 28.0367 25.24 27.1048 26.1044C26.3285 26.8218 25.3513 27.8387 24.6273 28.6078C23.7753 29.5117 22.7223 30.7927 21.9584 31.7701C21.2881 32.6277 20.4485 33.8134 19.8498 34.7227C19.1698 35.7437 18.3357 37.1567 17.7466 38.2348C17.2125 39.2081 16.5987 40.5558 16.1114 41.5523C15.5691 42.6563 15.0117 44.2041 14.6056 45.3639C14.2326 46.4325 13.8445 47.8864 13.5183 48.9754C13.1376 50.3069 12.8475 51.6622 12.6497 53.032C12.3194 55.3462 12.0276 58.4567 12.0042 60.7914C11.996 63.1296 12.1634 65.4652 12.5052 67.7788C12.6841 68.9128 12.9484 70.4225 13.2099 71.5414C13.4852 72.7571 13.927 74.3648 14.3111 75.5532C14.6565 76.6177 15.1727 78.0321 15.6076 79.068C16.0921 80.221 16.8285 81.7184 17.3722 82.8442C17.9278 83.9412 18.5397 85.0094 19.2056 86.0446C19.8897 87.1268 20.8889 88.5126 21.6239 89.5595C22.5216 90.8069 23.5078 91.9896 24.575 93.0988C26.0422 94.6085 28.0325 96.6041 29.6842 97.9123C30.8927 98.8707 32.5609 100.077 33.8369 100.945C34.6379 101.49 35.7735 102.117 36.5993 102.621C24.7512 95.963 16.9414 82.8047 16.9717 66.668ZM60.6219 14.7798C58.6646 22.1158 57.0405 48.7045 56.9923 74.1633M60.6219 14.7798C84.6789 11.5767 104.147 29.6179 104.099 55.0808M60.6219 14.7798C48.8247 8.14762 39.2228 23.4132 39.1746 48.872M60.6219 14.7798C75.4417 8.66763 87.4179 24.3551 87.3697 49.8139M38.6227 23.9943C44.577 27.3403 59.2482 28.7438 71.3923 27.1253M33.7006 71.935C33.7487 46.4789 45.802 20.8867 60.6219 14.7772M60.6219 14.7772C72.4191 21.4053 81.9439 47.4209 81.8971 72.8769C105.957 69.6779 115.897 61.7089 104.099 55.0808M60.6219 14.7772C84.6788 11.5768 104.147 29.6179 104.099 55.0808M60.6219 14.7772C82.9514 18.8856 101.015 42.8579 100.967 68.3139M60.6219 14.7772C48.8246 8.14774 39.2228 23.4159 39.1746 48.872M104.099 55.0808C92.3014 48.4514 63.2343 45.6716 39.1746 48.872M71.3923 27.1281C83.535 25.5136 88.552 21.4924 82.5977 18.1436M108.933 61.9295C108.981 36.4734 87.3505 15.3598 60.6205 14.7772M42.1352 27.2506C62.9095 24.4885 88.0097 26.8953 98.1952 32.6127C108.382 38.3301 99.7988 45.2088 79.0246 47.9722C58.249 50.7356 33.1487 48.3289 22.9633 42.6115C12.7764 36.8873 21.3638 30.0073 42.1353 27.2438M82.5977 18.1462C76.6433 14.8001 61.968 13.398 49.8294 15.0125C37.6853 16.627 32.6683 20.6483 38.6226 23.997" stroke="url(#paint0_radial_204_1375)" stroke-width="1.55" stroke-miterlimit="10"/>
<path d="M60.0042 38.374C60.0042 40.0309 58.6611 41.374 57.0042 41.374C55.3474 41.374 54.0042 40.0309 54.0042 38.374C54.0042 36.7172 55.3474 35.374 57.0042 35.374C58.6611 35.374 60.0042 36.7172 60.0042 38.374Z" fill="url(#paint1_radial_204_1375)"/>
<path d="M97.5039 70.2757C97.5039 71.9326 96.1608 73.2757 94.5039 73.2757C92.8471 73.2757 91.5039 71.9326 91.5039 70.2757C91.5039 68.6189 92.8471 67.2757 94.5039 67.2757C96.1608 67.2757 97.5039 68.6189 97.5039 70.2757Z" fill="url(#paint2_radial_204_1375)"/>
<path d="M31.5039 69.8742C31.5039 71.5311 30.1608 72.8742 28.5039 72.8742C26.8471 72.8742 25.5039 71.5311 25.5039 69.8742C25.5039 68.2174 26.8471 66.8742 28.5039 66.8742C30.1608 66.8742 31.5039 68.2174 31.5039 69.8742Z" fill="url(#paint3_radial_204_1375)"/>
<path d="M66.0042 86.3742C66.0042 88.0311 64.6611 89.3742 63.0042 89.3742C61.3474 89.3742 60.0042 88.0311 60.0042 86.3742C60.0042 84.7174 61.3474 83.3742 63.0042 83.3742C64.6611 83.3742 66.0042 84.7174 66.0042 86.3742Z" fill="url(#paint4_radial_204_1375)"/>
<defs>
<radialGradient id="paint0_radial_204_1375" cx="0" cy="0" r="1" gradientUnits="userSpaceOnUse" gradientTransform="translate(87.0039 101.374) rotate(-126.714) scale(110.4 111.626)">
<stop stop-color="#10296B"/>
<stop offset="0.479167" stop-color="#573F9A"/>
<stop offset="1" stop-color="#35D0E0"/>
</radialGradient>
<radialGradient id="paint1_radial_204_1375" cx="0" cy="0" r="1" gradientUnits="userSpaceOnUse" gradientTransform="translate(81.1362 85.1554) rotate(-134.521) scale(69.8206 73.645)">
<stop stop-color="#10296B"/>
<stop offset="0.479167" stop-color="#573F9A"/>
<stop offset="1" stop-color="#35D0E0"/>
</radialGradient>
<radialGradient id="paint2_radial_204_1375" cx="0" cy="0" r="1" gradientUnits="userSpaceOnUse" gradientTransform="translate(81.1362 85.1554) rotate(-134.521) scale(69.8206 73.645)">
<stop stop-color="#10296B"/>
<stop offset="0.479167" stop-color="#573F9A"/>
<stop offset="1" stop-color="#35D0E0"/>
</radialGradient>
<radialGradient id="paint3_radial_204_1375" cx="0" cy="0" r="1" gradientUnits="userSpaceOnUse" gradientTransform="translate(81.1362 85.1554) rotate(-134.521) scale(69.8206 73.645)">
<stop stop-color="#10296B"/>
<stop offset="0.479167" stop-color="#573F9A"/>
<stop offset="1" stop-color="#35D0E0"/>
</radialGradient>
<radialGradient id="paint4_radial_204_1375" cx="0" cy="0" r="1" gradientUnits="userSpaceOnUse" gradientTransform="translate(81.1362 85.1554) rotate(-134.521) scale(69.8206 73.645)">
<stop stop-color="#10296B"/>
<stop offset="0.479167" stop-color="#573F9A"/>
<stop offset="1" stop-color="#35D0E0"/>
</radialGradient>
</defs>
</svg>
