<svg width="32" height="31" viewBox="0 0 32 31" fill="none" xmlns="http://www.w3.org/2000/svg">
<path d="M15.8623 30.6323C24.3342 30.6323 31.3516 23.8558 31.3516 15.6427C31.3516 7.44412 24.3342 0.653076 15.8473 0.653076C7.37545 0.653076 0.373047 7.44412 0.373047 15.6427C0.373047 23.8558 7.39045 30.6323 15.8623 30.6323ZM5.59111 10.1431C5.59111 13.3065 7.84028 15.1058 11.8738 15.1058C12.3686 15.1058 12.6535 15.5121 12.3536 15.9619C11.6489 17.0357 11.424 17.6307 11.424 18.4143C11.424 20.3877 13.1633 21.3745 14.4228 21.8533L13.868 24.117C13.3732 26.1485 15.6524 27.1207 17.1968 25.5245L20.8255 21.7372C22.025 20.4748 22.5348 19.5171 22.5348 18.4723C22.5348 17.7032 21.6202 16.1506 20.6905 15.3235C19.8058 14.5109 18.9362 14.3803 17.4367 14.3803H16.657L15.8473 12.8566L18.0815 12.044C19.371 12.8421 20.0008 13.292 20.7205 13.292C22.115 13.292 22.6698 11.8119 21.6502 10.7526L19.311 8.35829C19.0261 8.08259 19.0411 7.85042 19.281 7.5602C19.9408 6.86369 20.8255 5.86244 20.8255 4.7306C20.8255 4.42588 20.7655 4.15017 20.6005 3.85996C25.4587 5.73185 28.9525 10.3318 28.9525 15.6427C28.9525 22.5643 23.0147 28.3106 15.8623 28.3106C8.70996 28.3106 2.77216 22.5643 2.77216 15.6427C2.77216 12.5084 3.98671 9.60622 5.99596 7.37156C5.74106 8.25672 5.59111 9.19992 5.59111 10.1431Z" fill="#8CF2FD"/>
</svg>
