<svg width="43" height="43" viewBox="0 0 43 43" fill="none" xmlns="http://www.w3.org/2000/svg">
<path fill-rule="evenodd" clip-rule="evenodd" d="M21.5 0C9.62588 0 0 9.62588 0 21.5C0 33.3741 9.62588 43 21.5 43C33.3741 43 43 33.3741 43 21.5C43 9.62588 33.3741 0 21.5 0ZM10.3215 17.8072H15.1938V32.4467H10.3215V17.8072ZM15.5148 13.2787C15.4832 11.8433 14.4567 10.75 12.7899 10.75C11.1231 10.75 10.0334 11.8433 10.0334 13.2787C10.0334 14.6843 11.0909 15.8091 12.7267 15.8091H12.7578C14.4567 15.8091 15.5148 14.6843 15.5148 13.2787ZM27.1556 17.4635C30.3618 17.4635 32.7655 19.5563 32.7655 24.0529L32.7653 32.4467H27.8931V24.6146C27.8931 22.6473 27.1881 21.3049 25.4242 21.3049C24.0781 21.3049 23.2764 22.2099 22.9242 23.084C22.7954 23.3972 22.7638 23.8337 22.7638 24.2712V32.4471H17.8908C17.8908 32.4471 17.955 19.1813 17.8908 17.8076H22.7638V19.8812C23.4104 18.8844 24.5687 17.4635 27.1556 17.4635Z" fill="white"/>
</svg>
