<svg width="44" height="44" viewBox="0 0 44 44" fill="none" xmlns="http://www.w3.org/2000/svg">
<path fill-rule="evenodd" clip-rule="evenodd" d="M21.7278 43.4556C33.7277 43.4556 43.4556 33.7277 43.4556 21.7278C43.4556 9.72787 33.7277 0 21.7278 0C9.72787 0 0 9.72787 0 21.7278C0 33.7277 9.72787 43.4556 21.7278 43.4556ZM15.4133 29.7612C19.9255 29.7612 23.5837 26.0714 23.5837 21.5198C23.5837 16.9681 19.9258 13.278 15.4133 13.278C10.9007 13.278 7.2426 16.969 7.2426 21.5198C7.2426 26.0706 10.901 29.7612 15.4133 29.7612ZM32.5469 21.5198C32.5469 25.8042 30.7178 29.2788 28.4615 29.2788C26.2052 29.2788 24.3762 25.8042 24.3762 21.5198C24.3762 17.2354 26.205 13.7609 28.4612 13.7609C30.7175 13.7609 32.5466 17.2343 32.5466 21.5198H32.5469ZM34.7762 28.4706C35.5698 28.4706 36.213 25.3576 36.213 21.5198C36.213 17.681 35.5695 14.569 34.7762 14.569C33.9828 14.569 33.3396 17.6812 33.3396 21.5198C33.3396 25.3584 33.9825 28.4706 34.7762 28.4706Z" fill="white"/>
</svg>
