<svg width="15" height="16" viewBox="0 0 15 16" fill="none" xmlns="http://www.w3.org/2000/svg">
<path d="M0.342223 1.15826C0.79852 0.701966 1.53769 0.701966 1.99399 1.15826L7.5 6.66428L13.006 1.15826C13.4623 0.701966 14.2015 0.701966 14.6578 1.15826C15.1141 1.61456 15.1141 2.35373 14.6578 2.81003L9.15176 8.31604L14.6578 13.8221C15.1141 14.2783 15.1141 15.0175 14.6578 15.4738C14.2015 15.9301 13.4623 15.9301 13.006 15.4738L7.5 9.9678L1.99399 15.4738C1.53769 15.9301 0.79852 15.9301 0.342223 15.4738C-0.114074 15.0175 -0.114074 14.2783 0.342223 13.8221L5.84824 8.31604L0.342223 2.81003C-0.114074 2.35373 -0.114074 1.61456 0.342223 1.15826Z" fill="white"/>
</svg>
