<svg width="29" height="35" viewBox="0 0 29 35" fill="none" xmlns="http://www.w3.org/2000/svg">
<path d="M14.5777 34.9756C14.8756 34.9756 15.3223 34.8725 15.7525 34.6318C25.2669 29.2523 28.5763 26.7602 28.5763 20.5041V7.52792C28.5763 5.46547 27.8151 4.72643 26.1439 3.98739C24.3238 3.1796 18.1353 0.945286 16.3482 0.309366C15.7856 0.120309 15.1569 0 14.5777 0C14.0151 0 13.3698 0.154683 12.8238 0.309366C11.0367 0.842164 4.84822 3.19679 3.02808 3.98739C1.35685 4.70924 0.595703 5.46547 0.595703 7.52792V20.5041C0.595703 26.7602 3.90506 29.2179 13.4195 34.6318C13.8497 34.8725 14.2964 34.9756 14.5777 34.9756ZM14.5777 31.3319C14.3461 31.3319 14.1144 31.246 13.6346 30.9366C6.08923 26.1586 3.73959 24.8696 3.73959 19.8682V8.0779C3.73959 7.45917 3.85542 7.21855 4.31873 7.0123C6.76765 5.99827 11.5166 4.3655 13.7007 3.47178C14.0813 3.33428 14.3461 3.28272 14.5777 3.28272C14.8259 3.28272 15.0907 3.33428 15.4713 3.47178C17.6554 4.3655 22.3713 6.10139 24.8367 7.0123C25.3166 7.20136 25.4324 7.45917 25.4324 8.0779V19.8682C25.4324 24.904 22.9835 26.2618 15.5374 30.9366C15.0576 31.246 14.8259 31.3319 14.5777 31.3319ZM8.65398 23.0478C8.65398 24.354 9.21657 24.9556 10.3914 24.9556H18.7806C19.9554 24.9556 20.518 24.354 20.518 23.0478V16.3449C20.518 15.1761 20.0547 14.5746 19.1281 14.4715V12.5465C19.1281 9.38411 17.2914 7.27011 14.5943 7.27011C11.8806 7.27011 10.0605 9.38411 10.0605 12.5465V14.4715C9.11729 14.5746 8.65398 15.1761 8.65398 16.3449V23.0478ZM12.013 14.4371V12.3747C12.013 10.4841 13.0389 9.22943 14.5943 9.22943C16.1497 9.22943 17.1756 10.4841 17.1756 12.3747V14.4371H12.013Z" fill="#8CF2FD"/>
</svg>
