<svg width="31" height="31" viewBox="0 0 31 31" fill="none" xmlns="http://www.w3.org/2000/svg">
<path d="M26.6283 0.774902H9.91992C7.93642 0.774902 6.32331 2.38665 6.32331 4.37152V15.1598H4.37006C2.38655 15.1598 0.773438 16.7716 0.773438 18.7565V26.6298C0.773438 28.6133 2.38519 30.2264 4.37006 30.2264H12.2434C14.2269 30.2264 15.8401 28.6147 15.8401 26.6298V24.6766H26.6284C28.6119 24.6766 30.225 23.0648 30.225 21.08V4.37158C30.225 2.38687 28.6132 0.774964 26.6284 0.774964L26.6283 0.774902ZM13.7949 26.6283C13.7949 27.465 13.1132 28.1783 12.2449 28.1783H4.37155C3.53479 28.1783 2.82155 27.4965 2.82155 26.6283V18.7549C2.82155 17.9181 3.5033 17.2049 4.37155 17.2049H12.2449C13.0817 17.2049 13.7949 17.8867 13.7949 18.7549V26.6283ZM28.1783 21.0799C28.1783 21.9481 27.4651 22.6299 26.6283 22.6299H15.8412V18.7549C15.8412 18.1349 15.6547 17.5767 15.4077 17.0499L22.8477 9.6099V13.1749C22.8477 13.7331 23.3127 14.1981 23.871 14.1981C24.4292 14.1981 24.8942 13.7331 24.8942 13.1749L24.893 7.1299C24.893 6.57165 24.428 6.10665 23.8698 6.10665H17.8248C17.2665 6.10665 16.8015 6.57165 16.8015 7.1299C16.8015 7.68815 17.2665 8.15315 17.8248 8.15315H21.3898L13.9498 15.5931C13.4533 15.3146 12.8648 15.1596 12.2448 15.1596L8.36977 15.1584V4.37137C8.36977 3.50312 9.05152 2.82137 9.91977 2.82137H26.6281C27.4649 2.82137 28.1781 3.50312 28.1781 4.37137L28.1783 21.0799Z" fill="#8CF2FD" stroke="#8CF2FD"/>
</svg>
