<svg width="44" height="44" viewBox="0 0 44 44" fill="none" xmlns="http://www.w3.org/2000/svg">
<circle cx="21.7278" cy="21.7278" r="21.7278" fill="white"/>
<ellipse cx="21" cy="24.5" rx="12" ry="8.5" fill="black"/>
<path d="M36 20.269C36 18.2577 34.3695 16.6273 32.3582 16.6273C31.3509 16.6273 30.4408 17.0379 29.7818 17.6991C27.7452 16.3855 25.1433 15.5485 22.2858 15.4179C22.2875 14.2046 22.831 13.0736 23.7775 12.3142C24.7258 11.5536 25.9505 11.2687 27.1367 11.5322L27.2996 11.5683C27.298 11.6092 27.2935 11.6492 27.2935 11.6904C27.2935 13.3694 28.6546 14.7305 30.3335 14.7305C32.0125 14.7305 33.3736 13.3694 33.3736 11.6904C33.3736 10.0114 32.0125 8.65039 30.3335 8.65039C29.2539 8.65039 28.3082 9.21472 27.7689 10.0628L27.4775 9.99812C25.8234 9.63058 24.1162 10.0279 22.7942 11.0884C21.4739 12.1477 20.7162 13.7255 20.7144 15.4179C17.8575 15.5484 15.2562 16.3851 13.2198 17.698C12.5606 17.0367 11.6493 16.6272 10.6418 16.6272C8.6305 16.6273 7 18.2577 7 20.269C7 21.6704 7.79298 22.8845 8.95349 23.4933C8.86536 23.9441 8.81899 24.4051 8.81899 24.8743C8.81899 30.1071 14.4964 34.3492 21.5 34.3492C28.5035 34.3492 34.1809 30.1071 34.1809 24.8743C34.1809 24.4054 34.1346 23.9446 34.0466 23.494C35.2072 22.8851 36 21.6706 36 20.269ZM30.3335 10.2218C31.1434 10.2218 31.8022 10.8807 31.8022 11.6905C31.8022 12.5003 31.1434 13.1591 30.3335 13.1591C29.5237 13.1591 28.8649 12.5003 28.8649 11.6905C28.8649 10.8807 29.5238 10.2218 30.3335 10.2218ZM8.57138 20.269C8.57138 19.1274 9.50014 18.1987 10.6418 18.1987C11.1307 18.1987 11.5795 18.3699 11.9336 18.6547C10.826 19.605 9.96851 20.722 9.4361 21.9484C8.9132 21.5728 8.57138 20.9608 8.57138 20.269ZM29.5263 30.3152C27.4009 31.9032 24.5505 32.7777 21.5 32.7777C18.4496 32.7777 15.5991 31.9032 13.4738 30.3152C11.4855 28.8296 10.3904 26.8973 10.3904 24.8743C10.3904 22.8512 11.4855 20.9189 13.4738 19.4333C15.5991 17.8453 18.4496 16.9707 21.5 16.9707C24.5505 16.9707 27.4009 17.8453 29.5263 19.4333C31.5146 20.9189 32.6096 22.8512 32.6096 24.8743C32.6096 26.8973 31.5146 28.8296 29.5263 30.3152ZM33.5634 21.9475C33.0309 20.7212 32.1735 19.6046 31.0661 18.6545C31.4202 18.3697 31.8692 18.1987 32.3582 18.1987C33.4999 18.1987 34.4286 19.1274 34.4286 20.269C34.4286 20.9607 34.0863 21.572 33.5634 21.9475Z" fill="black"/>
<path d="M16.8691 24.3202C17.7849 24.3202 18.5273 23.5779 18.5273 22.6621C18.5273 21.7463 17.7849 21.0039 16.8691 21.0039C15.9533 21.0039 15.2109 21.7463 15.2109 22.6621C15.2109 23.5779 15.9533 24.3202 16.8691 24.3202Z" fill="white"/>
<path d="M26.1308 24.3202C27.0466 24.3202 27.789 23.5779 27.789 22.6621C27.789 21.7463 27.0466 21.0039 26.1308 21.0039C25.215 21.0039 24.4727 21.7463 24.4727 22.6621C24.4727 23.5779 25.215 24.3202 26.1308 24.3202Z" fill="white"/>
<path d="M25.4293 26.6903C24.2604 27.7552 22.7451 28.3417 21.1625 28.3417C19.3854 28.3417 17.7389 27.6255 16.5263 26.3251C16.2305 26.0076 15.7333 25.9904 15.4159 26.2863C15.0985 26.5822 15.0812 27.0794 15.3771 27.3967C16.8682 28.9959 18.9769 29.913 21.1625 29.913C23.1376 29.913 25.0287 29.181 26.4876 27.8517C26.8083 27.5595 26.8315 27.0625 26.5393 26.7418C26.2471 26.4213 25.7505 26.3979 25.4293 26.6903Z" fill="white"/>
</svg>
