<svg width="21" height="22" viewBox="0 0 21 22" fill="none" xmlns="http://www.w3.org/2000/svg">
<path fill-rule="evenodd" clip-rule="evenodd" d="M20.9985 13.4332V19.1941C20.9985 20.1393 20.2325 20.8336 19.3187 20.8739C18.4116 20.9143 17.6388 20.0721 17.6388 19.1941V17.0931V7.97734V6.27284L8.82288 15.0888L4.62326 19.2884L2.8583 21.0533L2.85813 21.0535C2.19965 21.712 1.1559 21.6672 0.483945 21.0535C-0.18354 20.4443 -0.138701 19.302 0.483945 18.6793L0.510822 18.6525C0.976716 18.1672 1.45851 17.6918 1.94031 17.2165C2.18121 16.9788 2.42212 16.7412 2.66104 16.5022L7.05104 12.1122L12.1623 7.00098L15.2669 3.89635H8.10193H2.34107C1.40036 3.89635 0.701521 3.13036 0.661205 2.21649C0.620896 1.30938 1.46309 0.536621 2.34107 0.536621H4.44203H13.5578H19.3187C19.7768 0.536621 20.1977 0.730808 20.5037 1.03876C20.6967 1.21581 20.8298 1.43757 20.9063 1.67836C20.966 1.84831 20.9985 2.02954 20.9985 2.21649V4.31745V13.4332Z" fill="white"/>
</svg>
