<svg width="43" height="43" viewBox="0 0 43 43" fill="none" xmlns="http://www.w3.org/2000/svg">
<path fill-rule="evenodd" clip-rule="evenodd" d="M43 21.5C43 33.3741 33.3741 43 21.5 43C9.62588 43 0 33.3741 0 21.5C0 9.62588 9.62588 0 21.5 0C33.3741 0 43 9.62588 43 21.5ZM22.2704 15.8721C20.1792 16.7419 15.9997 18.5422 9.73204 21.2729C8.71427 21.6776 8.18111 22.0736 8.13258 22.4607C8.05055 23.115 8.86993 23.3727 9.98571 23.7235C10.1375 23.7713 10.2947 23.8207 10.456 23.8731C11.5537 24.23 13.0304 24.6474 13.798 24.664C14.4944 24.679 15.2716 24.392 16.1296 23.8028C21.9857 19.8497 25.0087 17.8517 25.1985 17.8086C25.3323 17.7782 25.5179 17.74 25.6436 17.8518C25.7693 17.9635 25.757 18.1751 25.7436 18.2319C25.6625 18.5779 22.4461 21.5681 20.7817 23.1156C20.2628 23.598 19.8947 23.9401 19.8195 24.0183C19.6509 24.1934 19.4791 24.359 19.314 24.5181C18.2942 25.5012 17.5294 26.2385 19.3564 27.4424C20.2343 28.021 20.9369 28.4994 21.6378 28.9767C22.4032 29.498 23.1667 30.0179 24.1545 30.6654C24.4061 30.8304 24.6465 31.0017 24.8806 31.1686C25.7714 31.8037 26.5717 32.3742 27.5604 32.2832C28.1349 32.2304 28.7283 31.6902 29.0297 30.079C29.7419 26.2713 31.142 18.0213 31.4655 14.6216C31.4939 14.3238 31.4582 13.9426 31.4296 13.7752C31.401 13.6079 31.3411 13.3695 31.1236 13.193C30.866 12.984 30.4683 12.9399 30.2905 12.943C29.4818 12.9573 28.2411 13.3887 22.2704 15.8721Z" fill="white"/>
</svg>
