<svg width="28" height="28" viewBox="0 0 28 28" fill="none" xmlns="http://www.w3.org/2000/svg">
<path d="M3.30428 13.2511H10.9095C12.4853 13.2511 13.4034 12.3432 13.4034 10.7847V3.37193C13.4034 2.51817 12.7457 1.88124 11.8687 1.88124C11.0054 1.88124 10.375 2.50462 10.375 3.37193V4.3341L10.6628 8.53513L7.49741 5.24206L3.57834 1.33917C3.29058 1.04103 2.9206 0.905518 2.5095 0.905518C1.5777 0.905518 0.90625 1.5289 0.90625 2.45041C0.90625 2.87051 1.07069 3.24996 1.37215 3.53455L5.30492 7.42389L8.63476 10.5543L4.35941 10.2697H3.30428C2.42729 10.2697 1.78324 10.8796 1.78324 11.7469C1.78324 12.6142 2.42729 13.2511 3.30428 13.2511ZM16.8566 26.9654C17.7199 26.9654 18.3502 26.3421 18.3502 25.4748V24.3771L18.0624 20.1896L21.2278 23.4827L25.2291 27.4533C25.5032 27.7514 25.8869 27.887 26.2843 27.887C27.2161 27.887 27.8875 27.2636 27.8875 26.3421C27.8875 25.922 27.7231 25.5561 27.4353 25.2579L23.4203 21.3008L20.0905 18.1704L24.3658 18.455H25.5443C26.4213 18.455 27.0653 17.8316 27.0653 16.9778C27.0653 16.097 26.4213 15.4736 25.5443 15.4736H17.8158C16.2399 15.4736 15.3218 16.3816 15.3218 17.94V25.4748C15.3218 26.3285 15.9796 26.9654 16.8566 26.9654Z" fill="#8CF2FD"/>
</svg>
