<svg width="26" height="28" viewBox="0 0 26 28" fill="none" xmlns="http://www.w3.org/2000/svg">
<path d="M12.8642 27.887C19.7106 27.887 25.3616 22.3535 25.3616 15.6614C25.3616 12.9538 24.4318 10.4353 22.8742 8.40168L23.8402 7.45579C24.1541 7.14838 24.3231 6.78184 24.3231 6.42714C24.3231 5.69407 23.7315 5.11472 22.9708 5.11472C22.524 5.11472 22.2101 5.24478 21.8961 5.54037L20.9905 6.41531C19.131 4.84277 16.8006 3.8023 14.2649 3.50671V2.31253C14.2649 1.53217 13.637 0.905518 12.8642 0.905518C12.1035 0.905518 11.4635 1.53217 11.4635 2.31253V3.50671C5.26918 4.2043 0.378906 9.43033 0.378906 15.6614C0.378906 22.3535 6.02989 27.887 12.8642 27.887ZM12.8642 25.4513C7.32189 25.4513 2.89046 21.0884 2.89046 15.6614C2.89046 10.2343 7.32189 5.88325 12.8521 5.88325C18.3944 5.88325 22.85 10.2343 22.8621 15.6614C22.8742 21.0884 18.4065 25.4513 12.8642 25.4513ZM12.8642 17.7187C14.0234 17.7187 14.9531 16.7964 14.9531 15.6732C14.9531 14.8928 14.5064 14.2307 13.8302 13.8642V8.42532C13.8302 7.89326 13.4076 7.47944 12.8521 7.47944C12.3208 7.47944 11.8982 7.89326 11.8982 8.42532V13.8642C11.222 14.2307 10.7753 14.9047 10.7753 15.6732C10.7753 16.7964 11.705 17.7187 12.8642 17.7187Z" fill="#8CF2FD"/>
</svg>
