<svg width="49" height="28" viewBox="0 0 49 28" fill="none" xmlns="http://www.w3.org/2000/svg">
<path d="M0.876953 25.8556C0.876953 27.0271 1.80566 27.981 2.92987 27.981H46.7907C47.9149 27.981 48.8436 27.0271 48.8436 25.8556C48.8436 24.6842 47.9149 23.7135 46.7907 23.7135H43.3366V3.98294C43.3366 1.37227 41.9517 0 39.4263 0H10.2943C7.86666 0 6.384 1.37227 6.384 3.98294V23.7135H2.92987C1.80566 23.7135 0.876953 24.6842 0.876953 25.8556ZM9.57743 23.7135V4.83642C9.57743 3.78211 10.0988 3.28006 11.109 3.28006H38.6116C39.6381 3.28006 40.1432 3.78211 40.1432 4.83642V23.7135H9.57743ZM19.0763 17.9065C19.0763 18.8771 19.5162 19.3624 20.4123 19.3624H26.0008C26.8969 19.3624 27.3531 18.8771 27.3531 17.9065V13.5219C27.3531 12.6517 26.9947 12.1831 26.3104 12.0827V10.7271C26.3104 9.52223 26.9132 8.76915 28.0048 8.76915C29.0802 8.76915 29.683 9.52223 29.683 10.7271V11.7982C29.683 12.3002 30.0741 12.7019 30.5466 12.7019C31.0028 12.7019 31.3938 12.3002 31.3938 11.7982V10.7271C31.3938 8.58507 30.0578 7.06218 28.0048 7.06218C25.9356 7.06218 24.5996 8.58507 24.5996 10.861V12.066H20.4123C19.5162 12.066 19.0763 12.5513 19.0763 13.5219V17.9065Z" fill="#8CF2FD"/>
</svg>
