<svg width="31" height="31" viewBox="0 0 31 31" fill="none" xmlns="http://www.w3.org/2000/svg">
<path d="M1.85938 15.5V22.94C1.85938 23.5976 2.12094 24.2284 2.58595 24.6934C3.05097 25.1584 3.68187 25.42 4.33938 25.42H6.81938C7.47692 25.42 8.1078 25.1585 8.5728 24.6934C9.0378 24.2284 9.29938 23.5975 9.29938 22.94V15.5C9.29938 14.8425 9.03781 14.2116 8.5728 13.7466C8.10778 13.2816 7.47689 13.02 6.81938 13.02H4.33938C2.9698 13.02 1.85938 14.1304 1.85938 15.5ZM4.33938 15.5H6.81938V22.94H4.33938V15.5Z" fill="#8CF2FD"/>
<path d="M19.2916 9.29982C19.2916 8.64228 19.03 8.0114 18.565 7.5464C18.1 7.0814 17.4691 6.81982 16.8116 6.81982H14.3316C12.962 6.81982 11.8516 7.93024 11.8516 9.29982V22.9398C11.8516 23.5974 12.1131 24.2282 12.5781 24.6932C13.0432 25.1582 13.6741 25.4198 14.3316 25.4198H16.8116C17.4691 25.4198 18.1 25.1583 18.565 24.6932C19.03 24.2282 19.2916 23.5973 19.2916 22.9398V9.29982ZM14.3316 22.9398V9.29982H16.8116V22.9398H14.3316Z" fill="#8CF2FD"/>
<path d="M3.09938 30.3799H8.05938C8.74475 30.3799 9.29938 29.8253 9.29938 29.1399C9.29938 28.4545 8.74475 27.8999 8.05938 27.8999H3.09938C2.414 27.8999 1.85938 28.4545 1.85938 29.1399C1.85938 29.8253 2.414 30.3799 3.09938 30.3799Z" fill="#8CF2FD"/>
<path d="M13.0193 27.8999C12.3339 27.8999 11.7793 28.4545 11.7793 29.1399C11.7793 29.8253 12.3339 30.3799 13.0193 30.3799H17.9793C18.6647 30.3799 19.2193 29.8253 19.2193 29.1399C19.2193 28.4545 18.6647 27.8999 17.9793 27.8999H13.0193Z" fill="#8CF2FD"/>
<path d="M27.8992 27.8999H22.9392C22.2538 27.8999 21.6992 28.4545 21.6992 29.1399C21.6992 29.8253 22.2538 30.3799 22.9392 30.3799H27.8992C28.5846 30.3799 29.1392 29.8253 29.1392 29.1399C29.1392 28.4545 28.5846 27.8999 27.8992 27.8999Z" fill="#8CF2FD"/>
<path d="M29.3228 3.10012C29.3228 2.44258 29.0612 1.8117 28.5962 1.3467C28.1312 0.881695 27.5003 0.620117 26.8428 0.620117H24.3628C22.9932 0.620117 21.8828 1.73054 21.8828 3.10012V22.9401C21.8828 23.5977 22.1444 24.2285 22.6094 24.6935C23.0744 25.1585 23.7053 25.4201 24.3628 25.4201H26.8428C27.5004 25.4201 28.1312 25.1586 28.5962 24.6935C29.0612 24.2285 29.3228 23.5976 29.3228 22.9401V3.10012ZM24.3628 22.9401V3.10012H26.8428V22.9401H24.3628Z" fill="#8CF2FD"/>
</svg>
