<svg width="61" height="61" viewBox="0 0 61 61" fill="none" xmlns="http://www.w3.org/2000/svg">
<path d="M58.9904 12.9468C56.9215 13.8767 54.7066 14.5165 52.3723 14.8067C54.7541 13.3415 56.5752 11.0239 57.4436 8.26291C55.2094 9.59653 52.7379 10.5625 50.11 11.1086C48.0146 8.80898 45.0193 7.36182 41.6953 7.36182C35.3232 7.36182 30.1588 12.6549 30.1588 19.1788C30.1588 20.1177 30.2695 21.0188 30.4611 21.8731C20.8758 21.4135 12.3785 16.6918 6.69551 9.55869C5.69707 11.296 5.1293 13.3145 5.1293 15.5113C5.1293 19.6221 7.17012 23.2265 10.2551 25.3459C8.36895 25.29 6.59355 24.7548 5.03789 23.8735V24.0159C5.03789 29.7486 9.01055 34.5281 14.284 35.6166C13.3225 35.8779 12.2959 36.0293 11.2535 36.0293C10.5135 36.0293 9.80684 35.9554 9.10195 35.822C10.5855 40.5149 14.8324 43.9319 19.8949 44.0346C15.9592 47.1975 10.9705 49.0826 5.59512 49.0826C4.6793 49.0826 3.76523 49.0375 2.84766 48.924C7.9752 52.276 14.0273 54.2368 20.5646 54.2368C41.7762 54.2368 53.3672 36.2239 53.3672 20.6241C53.3672 20.1267 53.3672 19.6203 53.3303 19.1121C55.5926 17.4595 57.5508 15.3653 59.0977 12.9919L58.9904 12.9468Z" fill="white"/>
</svg>
