<svg width="43" height="43" viewBox="0 0 43 43" fill="none" xmlns="http://www.w3.org/2000/svg">
<path fill-rule="evenodd" clip-rule="evenodd" d="M21.5 0C9.62588 0 0 9.62588 0 21.5C0 33.3741 9.62588 43 21.5 43C33.3741 43 43 33.3741 43 21.5C43 9.62588 33.3741 0 21.5 0ZM20.9012 18.2194L20.8561 17.4754C20.7207 15.5472 21.9088 13.7861 23.7886 13.1028C24.4804 12.8599 25.6535 12.8295 26.4204 13.0421C26.7212 13.1332 27.2927 13.4369 27.6987 13.7101L28.4356 14.2112L29.2477 13.9531C29.6989 13.8164 30.3004 13.5887 30.5711 13.4369C30.8268 13.3002 31.0524 13.2243 31.0524 13.2698C31.0524 13.5279 30.4959 14.4085 30.0297 14.8944C29.3981 15.5776 29.5786 15.6383 30.8569 15.1829C31.6239 14.9247 31.6389 14.9247 31.4885 15.2132C31.3983 15.365 30.9321 15.8964 30.4358 16.3823C29.5936 17.2173 29.5485 17.3084 29.5485 18.0068C29.5485 19.0848 29.0372 21.3318 28.5259 22.5616C27.5784 24.8694 25.5482 27.253 23.5179 28.4525C20.6606 30.1377 16.8558 30.5628 13.6525 29.576C12.5847 29.242 10.75 28.3917 10.75 28.2399C10.75 28.1944 11.3064 28.1336 11.9832 28.1184C13.3968 28.0881 14.8105 27.6933 16.0136 26.9949L16.8257 26.5091L15.8933 26.1903C14.5699 25.7348 13.3818 24.6872 13.081 23.7003C12.9908 23.3815 13.0209 23.3663 13.863 23.3663L14.7353 23.3511L13.9984 23.0019C13.1261 22.5616 12.3291 21.8177 11.9381 21.0585C11.6523 20.512 11.2914 19.1303 11.3967 19.0241C11.4267 18.9785 11.7426 19.0696 12.1035 19.1911C13.1412 19.5706 13.2765 19.4795 12.675 18.8419C11.5471 17.688 11.2012 15.9723 11.7426 14.3478L11.9982 13.619L12.9908 14.6059C15.021 16.5948 17.4122 17.7791 20.1493 18.1283L20.9012 18.2194Z" fill="white"/>
</svg>
