<svg width="43" height="43" viewBox="0 0 43 43" fill="none" xmlns="http://www.w3.org/2000/svg">
<path fill-rule="evenodd" clip-rule="evenodd" d="M21.5 0C9.62588 0 0 9.62588 0 21.5C0 33.3741 9.62588 43 21.5 43C33.3741 43 43 33.3741 43 21.5C43 9.62588 33.3741 0 21.5 0ZM30.4598 14.1088C31.4466 14.3795 32.2238 15.1774 32.4875 16.1906C32.9667 18.0269 32.9667 21.8583 32.9667 21.8583C32.9667 21.8583 32.9667 25.6896 32.4875 27.5261C32.2238 28.5392 31.4466 29.3371 30.4598 29.608C28.6716 30.1 21.5001 30.1 21.5001 30.1C21.5001 30.1 14.3286 30.1 12.5402 29.608C11.5534 29.3371 10.7763 28.5392 10.5125 27.5261C10.0334 25.6896 10.0334 21.8583 10.0334 21.8583C10.0334 21.8583 10.0334 18.0269 10.5125 16.1906C10.7763 15.1774 11.5534 14.3795 12.5402 14.1088C14.3286 13.6166 21.5001 13.6166 21.5001 13.6166C21.5001 13.6166 28.6716 13.6166 30.4598 14.1088Z" fill="white"/>
<path d="M19.3496 25.8005V18.6338L25.0829 22.2173L19.3496 25.8005Z" fill="white"/>
</svg>
